<svg width="16" height="16" viewBox="0 0 16 16" fill="none" xmlns="http://www.w3.org/2000/svg">
<path d="M12.8462 7.76849C12.8178 7.83702 12.7698 7.89559 12.7081 7.93681C12.6465 7.97803 12.574 8.00004 12.4998 8.00005H10.6248V11.7501C10.6248 11.949 10.5458 12.1397 10.4051 12.2804C10.2645 12.421 10.0737 12.5001 9.87481 12.5001H6.12481C5.92589 12.5001 5.73513 12.421 5.59448 12.2804C5.45382 12.1397 5.37481 11.949 5.37481 11.7501V8.00005H3.49981C3.4256 8.00011 3.35304 7.97815 3.29131 7.93695C3.22959 7.89574 3.18148 7.83716 3.15307 7.7686C3.12467 7.70004 3.11724 7.62459 3.13173 7.55181C3.14623 7.47903 3.18199 7.41218 3.23449 7.35974L7.73449 2.85974C7.76932 2.82487 7.81068 2.79721 7.8562 2.77834C7.90173 2.75947 7.95053 2.74976 7.99981 2.74976C8.04909 2.74976 8.09789 2.75947 8.14341 2.77834C8.18893 2.79721 8.23029 2.82487 8.26512 2.85974L12.7651 7.35974C12.8175 7.41221 12.8532 7.47905 12.8677 7.55181C12.8821 7.62457 12.8746 7.69997 12.8462 7.76849Z" fill="#85E047"/>
</svg>
