<svg width="13" height="13" viewBox="0 0 13 13" fill="none" xmlns="http://www.w3.org/2000/svg">
<path d="M2.70835 5.95833H8.75877L6.11544 3.31499C5.90419 3.10374 5.90419 2.75708 6.11544 2.54583C6.16555 2.49561 6.22507 2.45578 6.2906 2.42859C6.35613 2.40141 6.42637 2.38742 6.49731 2.38742C6.56825 2.38742 6.6385 2.40141 6.70403 2.42859C6.76955 2.45578 6.82908 2.49561 6.87919 2.54583L10.4488 6.11541C10.499 6.16552 10.5388 6.22505 10.566 6.29057C10.5932 6.3561 10.6072 6.42634 10.6072 6.49729C10.6072 6.56823 10.5932 6.63847 10.566 6.704C10.5388 6.76953 10.499 6.82905 10.4488 6.87916L6.87919 10.4487C6.82904 10.4989 6.7695 10.5387 6.70398 10.5658C6.63846 10.593 6.56823 10.6069 6.49731 10.6069C6.42639 10.6069 6.35616 10.593 6.29064 10.5658C6.22512 10.5387 6.16559 10.4989 6.11544 10.4487C6.06529 10.3986 6.02551 10.3391 5.99837 10.2735C5.97123 10.208 5.95726 10.1378 5.95726 10.0669C5.95726 9.99595 5.97123 9.92572 5.99837 9.8602C6.02551 9.79468 6.06529 9.73514 6.11544 9.68499L8.75877 7.04166H2.70835C2.41044 7.04166 2.16669 6.79791 2.16669 6.49999C2.16669 6.20208 2.41044 5.95833 2.70835 5.95833Z" fill="white"/>
</svg>
