<svg width="32" height="32" viewBox="0 0 32 32" fill="none" xmlns="http://www.w3.org/2000/svg">
<path d="M12.0231 3.51384L12.0231 4.53434L9.62192 4.53434C9.05164 4.53434 8.57141 5.01457 8.57141 5.58485L8.57141 28.486C8.57141 29.0563 9.05164 29.5365 9.62192 29.5365L22.3781 29.5365C22.9484 29.5365 23.4286 29.0563 23.4286 28.486L23.4286 5.58485C23.4286 5.01457 22.9484 4.53434 22.3781 4.53434L19.977 4.53434L19.977 3.51384C19.977 2.94356 19.4967 2.46333 18.9264 2.46333L13.0436 2.46333C12.4733 2.46333 12.0231 2.94356 12.0231 3.51384Z" fill="white"/>
<path d="M19.9527 16.213L16.3163 22.813C16.2509 22.9303 16.1309 23 16 23C15.9709 23 15.9381 22.9963 15.9091 22.989C15.7491 22.945 15.6363 22.802 15.6363 22.6333V18.6H12.3636C12.24 18.6 12.1272 18.5377 12.0581 18.435C11.9927 18.3323 11.9818 18.2003 12.0291 18.0867L14.5745 12.22C14.6327 12.088 14.7636 12 14.9091 12H17.0909C17.2109 12 17.3236 12.0587 17.3927 12.1613C17.4581 12.2603 17.4727 12.3887 17.4291 12.5023L16.1745 15.6667H19.6363C19.7636 15.6667 19.8836 15.7363 19.9491 15.8463C20.0145 15.96 20.0181 16.0993 19.9527 16.213Z" fill="#151515"/>
</svg>
