<svg width="48" height="48" viewBox="0 0 48 48" fill="none" xmlns="http://www.w3.org/2000/svg">
<rect x="0.5" y="0.5" width="47" height="47" rx="7.5" fill="url(#paint0_radial_1533_3700)" fill-opacity="0.2"/>
<rect x="0.5" y="0.5" width="47" height="47" rx="7.5" stroke="url(#paint1_linear_1533_3700)"/>
<path d="M23.0351 10.0463C23.5234 10.8921 23.6557 11.8972 23.403 12.8406C23.1502 13.784 22.533 14.5883 21.6872 15.0766L18.4981 16.9179C17.6523 17.4062 16.6471 17.5385 15.7037 17.2858C14.7604 17.033 13.956 16.4158 13.4677 15.57C12.9794 14.7242 12.847 13.719 13.0998 12.7756C13.3526 11.8323 13.9698 11.0279 14.8156 10.5396L18.0047 8.69837C18.8505 8.21004 19.8557 8.07771 20.7991 8.33049C21.7424 8.58327 22.5468 9.20045 23.0351 10.0463Z" fill="url(#paint2_linear_1533_3700)"/>
<path d="M40.7075 29.6083C41.1959 30.4541 41.3282 31.4593 41.0754 32.4026C40.8226 33.346 40.2055 34.1503 39.3597 34.6387L26.6032 42.0036C25.7573 42.492 24.7522 42.6243 23.8088 42.3715C22.8654 42.1188 22.0611 41.5016 21.5728 40.6558L10.5253 21.521C10.037 20.6752 9.90467 19.67 10.1574 18.7267C10.4102 17.7833 11.0274 16.979 11.8732 16.4906L24.6297 9.12566C25.4755 8.63733 26.4807 8.505 27.4241 8.75778C28.3674 9.01056 29.1718 9.62774 29.6601 10.4735L40.7075 29.6083Z" fill="white"/>
<path d="M10.5249 21.521L29.6597 10.4736L40.7071 29.6083L21.5724 40.6558L10.5249 21.521Z" fill="url(#paint3_linear_1533_3700)"/>
<path d="M26.8408 18.4794L24.449 19.8604L23.0681 17.4685C22.946 17.2571 22.7449 17.1028 22.509 17.0396C22.2732 16.9764 22.0219 17.0095 21.8105 17.1316L20.2159 18.0522C20.0044 18.1743 19.8502 18.3753 19.787 18.6112C19.7238 18.847 19.7568 19.0983 19.8789 19.3098L21.2599 21.7016L18.868 23.0825C18.6566 23.2046 18.5023 23.4057 18.4391 23.6416C18.3759 23.8774 18.409 24.1287 18.531 24.3401L19.4517 25.9347C19.5737 26.1462 19.7748 26.3004 20.0107 26.3636C20.2465 26.4268 20.4978 26.3938 20.7093 26.2717L23.1011 24.8907L24.482 27.2826C24.6041 27.494 24.8052 27.6483 25.041 27.7115C25.2769 27.7747 25.5282 27.7416 25.7396 27.6196L27.3342 26.6989C27.5456 26.5769 27.6999 26.3758 27.7631 26.1399C27.8263 25.9041 27.7932 25.6528 27.6712 25.4413L26.2902 23.0495L28.6821 21.6686C28.8935 21.5465 29.0478 21.3454 29.111 21.1096C29.1742 20.8737 29.1411 20.6224 29.019 20.411L28.0984 18.8164C27.9763 18.605 27.7753 18.4507 27.5394 18.3875C27.3036 18.3243 27.0523 18.3574 26.8408 18.4794ZM26.233 35.8391C26.0215 35.9611 25.7702 35.9942 25.5344 35.931C25.2986 35.8678 25.0975 35.7135 24.9754 35.5021L24.0548 33.9075C23.9327 33.6961 23.8996 33.4448 23.9628 33.2089C24.026 32.9731 24.1803 32.772 24.3917 32.6499L32.3646 28.0468C32.576 27.9247 32.8273 27.8917 33.0631 27.9548C33.299 28.018 33.5001 28.1723 33.6222 28.3838L34.5428 29.9783C34.6649 30.1898 34.6979 30.4411 34.6347 30.6769C34.5716 30.9128 34.4173 31.1139 34.2058 31.2359L26.233 35.8391Z" fill="white"/>
<path d="M31.939 15.3333L34.8625 7.77648L34.8626 7.7765L34.8663 7.76647C35.0963 7.15257 35.0231 6.45951 34.6702 5.91254L34.6702 5.91252L34.6658 5.90576C34.2936 5.33901 33.6716 5 32.9999 5H26.9999C26.1789 5 25.4705 5.50598 25.1613 6.22489L25.1613 6.22488L25.159 6.23012L18.159 22.7635L18.1561 22.7704L18.1533 22.7773C17.9055 23.3879 17.9583 24.0966 18.3108 24.6632L18.3173 24.6737L18.324 24.6839C18.6876 25.2376 19.303 25.6 19.9999 25.6H27.9999V35.9667C27.9999 36.8868 28.6047 37.6852 29.4786 37.9315L29.4892 37.9345L29.4998 37.9372C29.6684 37.9808 29.8429 38 29.9999 38C30.7359 38 31.3978 37.5948 31.7482 36.9511L31.7507 36.9465L41.747 18.3534C42.1027 17.7123 42.0703 16.9524 41.7317 16.3498L41.7318 16.3497L41.7247 16.3375C41.3743 15.7341 40.7231 15.3333 39.9999 15.3333H31.939Z" fill="#FFB841" stroke="url(#paint4_linear_1533_3700)" stroke-width="2"/>
<defs>
<radialGradient id="paint0_radial_1533_3700" cx="0" cy="0" r="1" gradientUnits="userSpaceOnUse" gradientTransform="rotate(45) scale(67.8823)">
<stop stop-color="#FAFAFA"/>
<stop offset="1" stop-color="#F7F7F7" stop-opacity="0"/>
</radialGradient>
<linearGradient id="paint1_linear_1533_3700" x1="24" y1="0" x2="24" y2="48" gradientUnits="userSpaceOnUse">
<stop stop-color="white"/>
<stop offset="1" stop-color="white" stop-opacity="0"/>
</linearGradient>
<linearGradient id="paint2_linear_1533_3700" x1="12.2837" y1="11.73" x2="22.371" y2="11.2033" gradientUnits="userSpaceOnUse">
<stop stop-color="#0EB69D"/>
<stop offset="1" stop-color="#85E047"/>
</linearGradient>
<linearGradient id="paint3_linear_1533_3700" x1="11.7219" y1="20.0157" x2="32.7803" y2="15.8346" gradientUnits="userSpaceOnUse">
<stop stop-color="#0EB69D"/>
<stop offset="1" stop-color="#85E047"/>
</linearGradient>
<linearGradient id="paint4_linear_1533_3700" x1="19.5" y1="7.5" x2="40.5" y2="30" gradientUnits="userSpaceOnUse">
<stop stop-color="#444549"/>
<stop offset="1" stop-color="#35363A"/>
</linearGradient>
</defs>
</svg>
