<svg width="48" height="48" viewBox="0 0 48 48" fill="none" xmlns="http://www.w3.org/2000/svg">
<rect x="0.5" y="0.5" width="47" height="47" rx="7.5" fill="url(#paint0_radial_1542_528)" fill-opacity="0.2"/>
<rect x="0.5" y="0.5" width="47" height="47" rx="7.5" stroke="url(#paint1_linear_1542_528)"/>
<path d="M23.0348 10.0463C23.5232 10.8921 23.6555 11.8972 23.4027 12.8406C23.1499 13.784 22.5328 14.5883 21.687 15.0766L18.4978 16.9179C17.652 17.4062 16.6469 17.5385 15.7035 17.2858C14.7601 17.033 13.9558 16.4158 13.4675 15.57C12.9791 14.7242 12.8468 13.719 13.0996 12.7756C13.3524 11.8323 13.9695 11.0279 14.8153 10.5396L18.0045 8.69837C18.8503 8.21004 19.8554 8.07771 20.7988 8.33049C21.7422 8.58327 22.5465 9.20045 23.0348 10.0463Z" fill="url(#paint2_linear_1542_528)"/>
<path d="M40.7075 29.6082C41.1959 30.454 41.3282 31.4592 41.0754 32.4026C40.8226 33.3459 40.2055 34.1503 39.3597 34.6386L26.6032 42.0036C25.7573 42.4919 24.7522 42.6242 23.8088 42.3714C22.8654 42.1187 22.0611 41.5015 21.5728 40.6557L10.5253 21.5209C10.037 20.6751 9.90467 19.67 10.1574 18.7266C10.4102 17.7832 11.0274 16.9789 11.8732 16.4905L24.6297 9.12557C25.4755 8.63724 26.4807 8.50491 27.4241 8.75769C28.3674 9.01047 29.1718 9.62765 29.6601 10.4735L40.7075 29.6082Z" fill="white"/>
<path d="M10.5251 21.521L29.6599 10.4735L40.7074 29.6083L21.5726 40.6558L10.5251 21.521Z" fill="url(#paint3_linear_1542_528)"/>
<path d="M26.8411 18.4795L24.4492 19.8604L23.0683 17.4686C22.9462 17.2571 22.7451 17.1028 22.5093 17.0396C22.2734 16.9764 22.0222 17.0095 21.8107 17.1316L20.2161 18.0522C20.0047 18.1743 19.8504 18.3754 19.7872 18.6112C19.724 18.8471 19.7571 19.0983 19.8792 19.3098L21.2601 21.7016L18.8683 23.0826C18.6568 23.2047 18.5025 23.4057 18.4393 23.6416C18.3761 23.8774 18.4092 24.1287 18.5313 24.3402L19.4519 25.9347C19.574 26.1462 19.7751 26.3005 20.0109 26.3637C20.2468 26.4269 20.4981 26.3938 20.7095 26.2717L23.1013 24.8908L24.4823 27.2826C24.6044 27.4941 24.8054 27.6484 25.0413 27.7116C25.2771 27.7748 25.5284 27.7417 25.7399 27.6196L27.3344 26.699C27.5459 26.5769 27.7002 26.3758 27.7634 26.14C27.8266 25.9041 27.7935 25.6528 27.6714 25.4414L26.2905 23.0495L28.6823 21.6686C28.8938 21.5465 29.0481 21.3454 29.1113 21.1096C29.1745 20.8737 29.1414 20.6225 29.0193 20.411L28.0987 18.8164C27.9766 18.605 27.7755 18.4507 27.5397 18.3875C27.3038 18.3243 27.0525 18.3574 26.8411 18.4795ZM26.2332 35.8391C26.0218 35.9612 25.7705 35.9942 25.5346 35.9311C25.2988 35.8679 25.0977 35.7136 24.9756 35.5021L24.055 33.9075C23.9329 33.6961 23.8999 33.4448 23.963 33.209C24.0262 32.9731 24.1805 32.772 24.392 32.65L32.3648 28.0468C32.5763 27.9248 32.8275 27.8917 33.0634 27.9549C33.2992 28.0181 33.5003 28.1724 33.6224 28.3838L34.543 29.9784C34.6651 30.1898 34.6982 30.4411 34.635 30.677C34.5718 30.9128 34.4175 31.1139 34.206 31.236L26.2332 35.8391Z" fill="white"/>
<defs>
<radialGradient id="paint0_radial_1542_528" cx="0" cy="0" r="1" gradientUnits="userSpaceOnUse" gradientTransform="rotate(45) scale(67.8823)">
<stop stop-color="#FAFAFA"/>
<stop offset="1" stop-color="#F7F7F7" stop-opacity="0"/>
</radialGradient>
<linearGradient id="paint1_linear_1542_528" x1="24" y1="0" x2="24" y2="48" gradientUnits="userSpaceOnUse">
<stop stop-color="white"/>
<stop offset="1" stop-color="white" stop-opacity="0"/>
</linearGradient>
<linearGradient id="paint2_linear_1542_528" x1="12.2835" y1="11.73" x2="22.3707" y2="11.2033" gradientUnits="userSpaceOnUse">
<stop stop-color="#0EB69D"/>
<stop offset="1" stop-color="#85E047"/>
</linearGradient>
<linearGradient id="paint3_linear_1542_528" x1="11.7221" y1="20.0156" x2="32.7806" y2="15.8345" gradientUnits="userSpaceOnUse">
<stop stop-color="#0EB69D"/>
<stop offset="1" stop-color="#85E047"/>
</linearGradient>
</defs>
</svg>
