<svg width="32" height="32" viewBox="0 0 32 32" fill="none" xmlns="http://www.w3.org/2000/svg">
<path d="M12.0231 3.51384L12.0231 4.53434L9.62192 4.53434C9.05164 4.53434 8.57141 5.01457 8.57141 5.58485L8.57141 28.486C8.57141 29.0563 9.05164 29.5365 9.62192 29.5365L22.3781 29.5365C22.9484 29.5365 23.4286 29.0563 23.4286 28.486L23.4286 5.58485C23.4286 5.01457 22.9484 4.53434 22.3781 4.53434L19.977 4.53434L19.977 3.51384C19.977 2.94356 19.4967 2.46333 18.9264 2.46333L13.0436 2.46333C12.4733 2.46333 12.0231 2.94356 12.0231 3.51384ZM20.2471 17.3806C20.5172 17.5907 20.6373 17.8908 20.6373 18.221L20.6373 25.7246C20.6373 26.2949 20.157 26.7752 19.5868 26.7752L12.3533 26.7752C11.783 26.7752 11.3027 26.2949 11.3027 25.7246L11.3027 20.0519C11.3027 19.5717 11.6329 19.1514 12.0831 19.0314L19.3467 17.2005C19.6768 17.1105 20.007 17.1705 20.2471 17.3806Z" fill="white"/>
</svg>
