<svg width="48" height="48" viewBox="0 0 48 48" fill="none" xmlns="http://www.w3.org/2000/svg">
<rect x="0.5" y="0.5" width="47" height="47" rx="7.5" fill="url(#paint0_radial_2166_40)" fill-opacity="0.2"/>
<rect x="0.5" y="0.5" width="47" height="47" rx="7.5" stroke="url(#paint1_linear_2166_40)"/>
<path d="M33.45 21.8999C33.7398 21.8999 34.0268 21.9104 34.311 21.9314C34.4342 21.5926 34.4972 21.2321 34.5 20.8499V12.4499C34.5 11.6145 34.1681 10.8132 33.5773 10.2225C32.9866 9.63176 32.1854 9.29989 31.35 9.29989H25.05V8.24989C25.0559 8.11042 25.0328 7.97123 24.9821 7.84115C24.9315 7.71106 24.8543 7.59292 24.7556 7.49421C24.6569 7.3955 24.5388 7.31837 24.4087 7.2677C24.2786 7.21704 24.1394 7.19395 24 7.19989C23.4204 7.19989 22.95 7.68289 22.95 8.24989V9.29989H16.65C15.8145 9.29989 15.0133 9.63176 14.4226 10.2225C13.8318 10.8132 13.5 11.6145 13.5 12.4499V20.8499C13.5 21.6853 13.8318 22.4865 14.4226 23.0773C15.0133 23.668 15.8145 23.9999 16.65 23.9999H26.8077C28.6872 22.6769 30.9783 21.8999 33.45 21.8999ZM17.7 16.6499C17.7 16.0929 17.9212 15.5588 18.315 15.165C18.7089 14.7711 19.243 14.5499 19.8 14.5499C20.3569 14.5499 20.891 14.7711 21.2849 15.165C21.6787 15.5588 21.9 16.0929 21.9 16.6499C21.9 17.2068 21.6787 17.741 21.2849 18.1348C20.891 18.5286 20.3569 18.7499 19.8 18.7499C19.243 18.7499 18.7089 18.5286 18.315 18.1348C17.9212 17.741 17.7 17.2068 17.7 16.6499ZM26.1 16.6499C26.1 16.0929 26.3212 15.5588 26.715 15.165C27.1089 14.7711 27.643 14.5499 28.2 14.5499C28.7569 14.5499 29.291 14.7711 29.6849 15.165C30.0787 15.5588 30.3 16.0929 30.3 16.6499C30.3 17.2068 30.0787 17.741 29.6849 18.1348C29.291 18.5286 28.7569 18.7499 28.2 18.7499C27.643 18.7499 27.1089 18.5286 26.715 18.1348C26.3212 17.741 26.1 17.2068 26.1 16.6499ZM21.9 33.4499C21.9 31.1294 22.5846 28.9664 23.7627 27.1562H14.151C13.1432 27.1567 12.177 27.5575 11.4646 28.2702C10.7522 28.983 10.3521 29.9495 10.3521 30.9572V32.4041H10.3626C10.434 34.0421 10.8834 36.0938 12.7209 37.7696C14.7264 39.6029 18.1914 40.7999 24 40.7999C24.182 40.7999 24.3612 40.7985 24.5376 40.7957C22.8295 38.7291 21.8966 36.131 21.9 33.4499Z" fill="white"/>
<path fill-rule="evenodd" clip-rule="evenodd" d="M42.9 33.45C42.9 35.9563 41.9044 38.3599 40.1322 40.1322C38.3599 41.9044 35.9563 42.9 33.45 42.9C30.9437 42.9 28.5401 41.9044 26.7678 40.1322C24.9956 38.3599 24 35.9563 24 33.45C24 30.9437 24.9956 28.5401 26.7678 26.7678C28.5401 24.9956 30.9437 24 33.45 24C35.9563 24 38.3599 24.9956 40.1322 26.7678C41.9044 28.5401 42.9 30.9437 42.9 33.45ZM34.1925 28.5075C34.3894 28.7045 34.5 28.9715 34.5 29.25V32.4H37.65C37.9285 32.4 38.1955 32.5106 38.3925 32.7075C38.5894 32.9044 38.7 33.1715 38.7 33.45C38.7 33.7285 38.5894 33.9955 38.3925 34.1925C38.1955 34.3894 37.9285 34.5 37.65 34.5H34.5V37.65C34.5 37.9285 34.3894 38.1955 34.1925 38.3925C33.9956 38.5894 33.7285 38.7 33.45 38.7C33.1715 38.7 32.9045 38.5894 32.7075 38.3925C32.5106 38.1955 32.4 37.9285 32.4 37.65V34.5H29.25C28.9715 34.5 28.7045 34.3894 28.5075 34.1925C28.3106 33.9955 28.2 33.7285 28.2 33.45C28.2 33.1715 28.3106 32.9044 28.5075 32.7075C28.7045 32.5106 28.9715 32.4 29.25 32.4H32.4V29.25C32.4 28.9715 32.5106 28.7045 32.7075 28.5075C32.9045 28.3106 33.1715 28.2 33.45 28.2C33.7285 28.2 33.9956 28.3106 34.1925 28.5075Z" fill="url(#paint2_linear_2166_40)"/>
<defs>
<radialGradient id="paint0_radial_2166_40" cx="0" cy="0" r="1" gradientUnits="userSpaceOnUse" gradientTransform="rotate(45) scale(67.8823)">
<stop stop-color="#FAFAFA"/>
<stop offset="1" stop-color="#F7F7F7" stop-opacity="0"/>
</radialGradient>
<linearGradient id="paint1_linear_2166_40" x1="24" y1="0" x2="24" y2="48" gradientUnits="userSpaceOnUse">
<stop stop-color="white"/>
<stop offset="1" stop-color="white" stop-opacity="0"/>
</linearGradient>
<linearGradient id="paint2_linear_2166_40" x1="25.5306" y1="23.3968" x2="42.9189" y2="29.3061" gradientUnits="userSpaceOnUse">
<stop stop-color="#0EB69D"/>
<stop offset="1" stop-color="#85E047"/>
</linearGradient>
</defs>
</svg>
