<svg width="32" height="32" viewBox="0 0 32 32" fill="none" xmlns="http://www.w3.org/2000/svg">
<path d="M20.5 16H11.5C10.1216 16 9 17.1211 9 18.5C9 19.8789 10.1216 21 11.5 21H20.5C21.8789 21 23 19.8789 23 18.5C23 17.1211 21.8789 16 20.5 16ZM12.5 20C11.6729 20 11 19.3271 11 18.5C11 17.6729 11.6729 17 12.5 17C13.3271 17 14 17.6729 14 18.5C14 19.3271 13.3271 20 12.5 20ZM19.5 20C18.6729 20 18 19.3271 18 18.5C18 17.6729 18.6729 17 19.5 17C20.3271 17 21 17.6729 21 18.5C21 19.3271 20.3271 20 19.5 20ZM29 17.0921V8.9079C29.5807 8.70081 30 8.151 30 7.5C30 6.67285 29.3271 6 28.5 6C27.6729 6 27 6.67285 27 7.5C27 8.151 27.4193 8.70081 28 8.9079V17.0921C27.795 17.1652 27.6093 17.2775 27.4563 17.4262C25.9318 12.5491 21.373 9 16 9C10.6273 9 6.0683 12.5492 4.54376 17.4263C4.39075 17.2775 4.20496 17.1652 4 17.0921V8.9079C4.58075 8.70081 5 8.151 5 7.5C5 6.67285 4.32715 6 3.5 6C2.67285 6 2 6.67285 2 7.5C2 8.151 2.41925 8.70081 3 8.9079V17.0921C2.41925 17.2992 2 17.849 2 18.5V22.5C2 23.3271 2.67285 24 3.5 24C3.97076 24 4.38635 23.7776 4.66156 23.4374C5.52002 24.9585 7.13245 26 9 26H23C24.8676 26 26.48 24.9585 27.3384 23.4374C27.6136 23.7776 28.0292 24 28.5 24C29.3271 24 30 23.3271 30 22.5V18.5C30 17.849 29.5807 17.2992 29 17.0921ZM20.5 22H11.5C9.57031 22 8 20.4297 8 18.5C8 16.5703 9.57031 15 11.5 15H20.5C22.4297 15 24 16.5703 24 18.5C24 20.4297 22.4297 22 20.5 22Z" fill="white"/>
</svg>
