<svg width="16" height="16" viewBox="0 0 16 16" fill="none" xmlns="http://www.w3.org/2000/svg">
<g filter="url(#filter0_iii_281_626)">
<path d="M7.01758 1.7761L9.14958 5.4181L6.14158 6.2731C4.06408 5.5866 2.84058 4.2651 2.10258 2.9071C1.79158 2.3341 1.79408 1.2821 3.03058 1.2821H6.15458C6.32907 1.28207 6.50053 1.3277 6.65192 1.41445C6.80332 1.5012 6.92938 1.62555 7.01758 1.7761Z" fill="#4686EC"/>
<path d="M7.01758 1.7761L9.14958 5.4181L6.14158 6.2731C4.06408 5.5866 2.84058 4.2651 2.10258 2.9071C1.79158 2.3341 1.79408 1.2821 3.03058 1.2821H6.15458C6.32907 1.28207 6.50053 1.3277 6.65192 1.41445C6.80332 1.5012 6.92938 1.62555 7.01758 1.7761Z" fill="url(#paint0_radial_281_626)"/>
<path d="M7.01758 1.7761L9.14958 5.4181L6.14158 6.2731C4.06408 5.5866 2.84058 4.2651 2.10258 2.9071C1.79158 2.3341 1.79408 1.2821 3.03058 1.2821H6.15458C6.32907 1.28207 6.50053 1.3277 6.65192 1.41445C6.80332 1.5012 6.92938 1.62555 7.01758 1.7761Z" fill="url(#paint1_linear_281_626)"/>
</g>
<g filter="url(#filter1_iii_281_626)">
<path d="M8.90617 1.77599L6.77417 5.41799L9.78217 6.27299C11.8597 5.58599 13.0832 4.26449 13.8212 2.90649C14.1322 2.33349 14.1297 1.28149 12.8932 1.28149H9.76917C9.59468 1.28146 9.42322 1.32709 9.27183 1.41384C9.12043 1.50059 8.99437 1.62544 8.90617 1.77599Z" fill="#4686EC"/>
<path d="M8.90617 1.77599L6.77417 5.41799L9.78217 6.27299C11.8597 5.58599 13.0832 4.26449 13.8212 2.90649C14.1322 2.33349 14.1297 1.28149 12.8932 1.28149H9.76917C9.59468 1.28146 9.42322 1.32709 9.27183 1.41384C9.12043 1.50059 8.99437 1.62544 8.90617 1.77599Z" fill="url(#paint2_radial_281_626)"/>
<path d="M8.90617 1.77599L6.77417 5.41799L9.78217 6.27299C11.8597 5.58599 13.0832 4.26449 13.8212 2.90649C14.1322 2.33349 14.1297 1.28149 12.8932 1.28149H9.76917C9.59468 1.28146 9.42322 1.32709 9.27183 1.41384C9.12043 1.50059 8.99437 1.62544 8.90617 1.77599Z" fill="url(#paint3_linear_281_626)"/>
</g>
<path d="M8.90617 1.77599L6.77417 5.41799L9.78217 6.27299C11.8597 5.58599 13.0832 4.26449 13.8212 2.90649C14.1322 2.33349 14.1297 1.28149 12.8932 1.28149H9.76917C9.59468 1.28146 9.42322 1.32709 9.27183 1.41384C9.12043 1.50059 8.99437 1.62544 8.90617 1.77599Z" fill="url(#paint4_linear_281_626)"/>
<path d="M8.02351 15.09C10.7982 15.09 13.0475 12.8407 13.0475 10.066C13.0475 7.29131 10.7982 5.04199 8.02351 5.04199C5.24883 5.04199 2.99951 7.29131 2.99951 10.066C2.99951 12.8407 5.24883 15.09 8.02351 15.09Z" fill="url(#paint5_linear_281_626)"/>
<path d="M8.02351 15.09C10.7982 15.09 13.0475 12.8407 13.0475 10.066C13.0475 7.29131 10.7982 5.04199 8.02351 5.04199C5.24883 5.04199 2.99951 7.29131 2.99951 10.066C2.99951 12.8407 5.24883 15.09 8.02351 15.09Z" fill="url(#paint6_linear_281_626)"/>
<path d="M8.02369 14.41C10.4228 14.41 12.3677 12.4652 12.3677 10.066C12.3677 7.66692 10.4228 5.72205 8.02369 5.72205C5.62456 5.72205 3.67969 7.66692 3.67969 10.066C3.67969 12.4652 5.62456 14.41 8.02369 14.41Z" fill="url(#paint7_linear_281_626)"/>
<path d="M8.0237 13.8584C10.1182 13.8584 11.8162 12.1605 11.8162 10.0659C11.8162 7.9714 10.1182 6.27344 8.0237 6.27344C5.92916 6.27344 4.2312 7.9714 4.2312 10.0659C4.2312 12.1605 5.92916 13.8584 8.0237 13.8584Z" fill="url(#paint8_linear_281_626)"/>
<path d="M8.0237 13.8584C10.1182 13.8584 11.8162 12.1605 11.8162 10.0659C11.8162 7.9714 10.1182 6.27344 8.0237 6.27344C5.92916 6.27344 4.2312 7.9714 4.2312 10.0659C4.2312 12.1605 5.92916 13.8584 8.0237 13.8584Z" fill="url(#paint9_radial_281_626)"/>
<path d="M8.0237 13.8584C10.1182 13.8584 11.8162 12.1605 11.8162 10.0659C11.8162 7.9714 10.1182 6.27344 8.0237 6.27344C5.92916 6.27344 4.2312 7.9714 4.2312 10.0659C4.2312 12.1605 5.92916 13.8584 8.0237 13.8584Z" fill="url(#paint10_radial_281_626)"/>
<path d="M8.0237 13.8584C10.1182 13.8584 11.8162 12.1605 11.8162 10.0659C11.8162 7.9714 10.1182 6.27344 8.0237 6.27344C5.92916 6.27344 4.2312 7.9714 4.2312 10.0659C4.2312 12.1605 5.92916 13.8584 8.0237 13.8584Z" fill="url(#paint11_radial_281_626)"/>
<g filter="url(#filter2_iii_281_626)">
<path d="M8.73 9.33745L9.253 8.43245C9.29544 8.35814 9.31777 8.27403 9.31777 8.18845C9.31777 8.10287 9.29544 8.01877 9.253 7.94445C9.21056 7.87013 9.14921 7.80837 9.07519 7.76542C9.00116 7.72248 8.91708 7.69989 8.8315 7.69995H7.285C7.15551 7.69995 7.03132 7.75139 6.93976 7.84296C6.84819 7.93452 6.79675 8.05871 6.79675 8.1882C6.79675 8.31769 6.84819 8.44188 6.93976 8.53345C7.03132 8.62501 7.15551 8.67645 7.285 8.67645H7.771C7.79289 8.67646 7.81439 8.68221 7.83336 8.69314C7.85233 8.70407 7.86809 8.71979 7.87908 8.73872C7.89006 8.75765 7.89589 8.77914 7.89596 8.80103C7.89603 8.82292 7.89036 8.84444 7.8795 8.86345L7.6105 9.33245C7.54173 9.41736 7.50398 9.52319 7.5035 9.63245C7.5035 9.90195 7.7225 10.1205 7.992 10.1205C8.297 10.1205 8.546 10.3695 8.546 10.6745C8.546 10.9795 8.297 11.229 7.992 11.229C7.87827 11.2291 7.76729 11.194 7.67434 11.1284C7.58139 11.0629 7.51105 10.9701 7.473 10.863C7.42946 10.7419 7.33987 10.643 7.22374 10.5878C7.10762 10.5325 6.97436 10.5254 6.853 10.568C6.79272 10.589 6.73722 10.6218 6.6897 10.6645C6.64218 10.7071 6.60358 10.7587 6.57615 10.8164C6.54872 10.8741 6.53299 10.9366 6.52987 11.0004C6.52676 11.0641 6.53632 11.1279 6.558 11.188C6.66427 11.4833 6.85882 11.7388 7.11526 11.9199C7.37169 12.1009 7.6776 12.1987 7.9915 12.2C8.39592 12.1997 8.78371 12.0389 9.06972 11.753C9.35574 11.4671 9.5166 11.0794 9.517 10.675C9.51633 10.4021 9.44297 10.1344 9.30447 9.89929C9.16597 9.66421 8.96733 9.47028 8.729 9.33745" fill="#6C3F48"/>
</g>
<defs>
<filter id="filter0_iii_281_626" x="1.68018" y="1.0821" width="7.66948" height="5.44097" filterUnits="userSpaceOnUse" color-interpolation-filters="sRGB">
<feFlood flood-opacity="0" result="BackgroundImageFix"/>
<feBlend mode="normal" in="SourceGraphic" in2="BackgroundImageFix" result="shape"/>
<feColorMatrix in="SourceAlpha" type="matrix" values="0 0 0 0 0 0 0 0 0 0 0 0 0 0 0 0 0 0 127 0" result="hardAlpha"/>
<feOffset dx="-0.2" dy="-0.2"/>
<feGaussianBlur stdDeviation="0.2"/>
<feComposite in2="hardAlpha" operator="arithmetic" k2="-1" k3="1"/>
<feColorMatrix type="matrix" values="0 0 0 0 0.317647 0 0 0 0 0.458824 0 0 0 0 0.886275 0 0 0 1 0"/>
<feBlend mode="normal" in2="shape" result="effect1_innerShadow_281_626"/>
<feColorMatrix in="SourceAlpha" type="matrix" values="0 0 0 0 0 0 0 0 0 0 0 0 0 0 0 0 0 0 127 0" result="hardAlpha"/>
<feOffset dx="0.2" dy="0.2"/>
<feGaussianBlur stdDeviation="0.2"/>
<feComposite in2="hardAlpha" operator="arithmetic" k2="-1" k3="1"/>
<feColorMatrix type="matrix" values="0 0 0 0 0.317647 0 0 0 0 0.458824 0 0 0 0 0.886275 0 0 0 1 0"/>
<feBlend mode="normal" in2="effect1_innerShadow_281_626" result="effect2_innerShadow_281_626"/>
<feColorMatrix in="SourceAlpha" type="matrix" values="0 0 0 0 0 0 0 0 0 0 0 0 0 0 0 0 0 0 127 0" result="hardAlpha"/>
<feOffset dx="-0.25" dy="0.25"/>
<feGaussianBlur stdDeviation="0.25"/>
<feComposite in2="hardAlpha" operator="arithmetic" k2="-1" k3="1"/>
<feColorMatrix type="matrix" values="0 0 0 0 0.372549 0 0 0 0 0.607843 0 0 0 0 0.960784 0 0 0 1 0"/>
<feBlend mode="normal" in2="effect2_innerShadow_281_626" result="effect3_innerShadow_281_626"/>
</filter>
<filter id="filter1_iii_281_626" x="6.52417" y="1.08149" width="7.66948" height="5.44146" filterUnits="userSpaceOnUse" color-interpolation-filters="sRGB">
<feFlood flood-opacity="0" result="BackgroundImageFix"/>
<feBlend mode="normal" in="SourceGraphic" in2="BackgroundImageFix" result="shape"/>
<feColorMatrix in="SourceAlpha" type="matrix" values="0 0 0 0 0 0 0 0 0 0 0 0 0 0 0 0 0 0 127 0" result="hardAlpha"/>
<feOffset dx="-0.2" dy="-0.2"/>
<feGaussianBlur stdDeviation="0.2"/>
<feComposite in2="hardAlpha" operator="arithmetic" k2="-1" k3="1"/>
<feColorMatrix type="matrix" values="0 0 0 0 0.317647 0 0 0 0 0.458824 0 0 0 0 0.886275 0 0 0 1 0"/>
<feBlend mode="normal" in2="shape" result="effect1_innerShadow_281_626"/>
<feColorMatrix in="SourceAlpha" type="matrix" values="0 0 0 0 0 0 0 0 0 0 0 0 0 0 0 0 0 0 127 0" result="hardAlpha"/>
<feOffset dx="0.2" dy="0.2"/>
<feGaussianBlur stdDeviation="0.2"/>
<feComposite in2="hardAlpha" operator="arithmetic" k2="-1" k3="1"/>
<feColorMatrix type="matrix" values="0 0 0 0 0.317647 0 0 0 0 0.458824 0 0 0 0 0.886275 0 0 0 1 0"/>
<feBlend mode="normal" in2="effect1_innerShadow_281_626" result="effect2_innerShadow_281_626"/>
<feColorMatrix in="SourceAlpha" type="matrix" values="0 0 0 0 0 0 0 0 0 0 0 0 0 0 0 0 0 0 127 0" result="hardAlpha"/>
<feOffset dx="-0.25" dy="0.25"/>
<feGaussianBlur stdDeviation="0.25"/>
<feComposite in2="hardAlpha" operator="arithmetic" k2="-1" k3="1"/>
<feColorMatrix type="matrix" values="0 0 0 0 0.372549 0 0 0 0 0.607843 0 0 0 0 0.960784 0 0 0 1 0"/>
<feBlend mode="normal" in2="effect2_innerShadow_281_626" result="effect3_innerShadow_281_626"/>
</filter>
<filter id="filter2_iii_281_626" x="6.2293" y="7.49995" width="3.48779" height="5" filterUnits="userSpaceOnUse" color-interpolation-filters="sRGB">
<feFlood flood-opacity="0" result="BackgroundImageFix"/>
<feBlend mode="normal" in="SourceGraphic" in2="BackgroundImageFix" result="shape"/>
<feColorMatrix in="SourceAlpha" type="matrix" values="0 0 0 0 0 0 0 0 0 0 0 0 0 0 0 0 0 0 127 0" result="hardAlpha"/>
<feOffset dx="-0.3" dy="0.3"/>
<feGaussianBlur stdDeviation="0.3"/>
<feComposite in2="hardAlpha" operator="arithmetic" k2="-1" k3="1"/>
<feColorMatrix type="matrix" values="0 0 0 0 0.270588 0 0 0 0 0.113725 0 0 0 0 0.0745098 0 0 0 1 0"/>
<feBlend mode="normal" in2="shape" result="effect1_innerShadow_281_626"/>
<feColorMatrix in="SourceAlpha" type="matrix" values="0 0 0 0 0 0 0 0 0 0 0 0 0 0 0 0 0 0 127 0" result="hardAlpha"/>
<feOffset dx="0.2" dy="-0.2"/>
<feGaussianBlur stdDeviation="0.2"/>
<feComposite in2="hardAlpha" operator="arithmetic" k2="-1" k3="1"/>
<feColorMatrix type="matrix" values="0 0 0 0 0.490196 0 0 0 0 0.352941 0 0 0 0 0.321569 0 0 0 1 0"/>
<feBlend mode="normal" in2="effect1_innerShadow_281_626" result="effect2_innerShadow_281_626"/>
<feColorMatrix in="SourceAlpha" type="matrix" values="0 0 0 0 0 0 0 0 0 0 0 0 0 0 0 0 0 0 127 0" result="hardAlpha"/>
<feOffset dx="0.2" dy="0.2"/>
<feGaussianBlur stdDeviation="0.2"/>
<feComposite in2="hardAlpha" operator="arithmetic" k2="-1" k3="1"/>
<feColorMatrix type="matrix" values="0 0 0 0 0.270588 0 0 0 0 0.113725 0 0 0 0 0.0745098 0 0 0 1 0"/>
<feBlend mode="normal" in2="effect2_innerShadow_281_626" result="effect3_innerShadow_281_626"/>
</filter>
<radialGradient id="paint0_radial_281_626" cx="0" cy="0" r="1" gradientUnits="userSpaceOnUse" gradientTransform="translate(6.55189 5.92072) rotate(-123.321) scale(2.30176 8.59615)">
<stop stop-color="#3669D9"/>
<stop offset="1" stop-color="#3669D9" stop-opacity="0"/>
</radialGradient>
<linearGradient id="paint1_linear_281_626" x1="3.29108" y1="1.0116" x2="4.18858" y2="3.2466" gradientUnits="userSpaceOnUse">
<stop stop-color="#3D89EC"/>
<stop offset="1" stop-color="#3D89EC" stop-opacity="0"/>
</linearGradient>
<radialGradient id="paint2_radial_281_626" cx="0" cy="0" r="1" gradientUnits="userSpaceOnUse" gradientTransform="translate(9.37199 5.92096) rotate(-57.265) scale(1.52435 3.34366)">
<stop stop-color="#3669D9"/>
<stop offset="1" stop-color="#3669D9" stop-opacity="0"/>
</radialGradient>
<linearGradient id="paint3_linear_281_626" x1="12.6327" y1="1.01149" x2="11.7352" y2="3.24649" gradientUnits="userSpaceOnUse">
<stop stop-color="#3D89EC"/>
<stop offset="1" stop-color="#3D89EC" stop-opacity="0"/>
</linearGradient>
<linearGradient id="paint4_linear_281_626" x1="7.87467" y1="3.53149" x2="8.04317" y2="3.62499" gradientUnits="userSpaceOnUse">
<stop stop-color="#1A6DD8"/>
<stop offset="1" stop-color="#1A6DD8" stop-opacity="0"/>
</linearGradient>
<linearGradient id="paint5_linear_281_626" x1="11.8985" y1="7.46899" x2="7.22501" y2="11.742" gradientUnits="userSpaceOnUse">
<stop stop-color="#F6BC7F"/>
<stop offset="1" stop-color="#A76740"/>
</linearGradient>
<linearGradient id="paint6_linear_281_626" x1="6.26801" y1="15.334" x2="7.40101" y2="8.76349" gradientUnits="userSpaceOnUse">
<stop stop-color="#B05B5B"/>
<stop offset="1" stop-color="#B05B5B" stop-opacity="0"/>
</linearGradient>
<linearGradient id="paint7_linear_281_626" x1="11.9817" y1="9.30655" x2="8.02369" y2="9.30655" gradientUnits="userSpaceOnUse">
<stop stop-color="#CD8858"/>
<stop offset="1" stop-color="#D28D59"/>
</linearGradient>
<linearGradient id="paint8_linear_281_626" x1="5.6432" y1="11.0514" x2="11.9547" y2="9.14144" gradientUnits="userSpaceOnUse">
<stop stop-color="#D38E5F"/>
<stop offset="1" stop-color="#BE794E"/>
</linearGradient>
<radialGradient id="paint9_radial_281_626" cx="0" cy="0" r="1" gradientUnits="userSpaceOnUse" gradientTransform="translate(9.46292 9.49109) rotate(156.644) scale(5.6985 4.85574)">
<stop offset="0.837" stop-color="#E5AC75" stop-opacity="0"/>
<stop offset="1" stop-color="#E5AC75"/>
</radialGradient>
<radialGradient id="paint10_radial_281_626" cx="0" cy="0" r="1" gradientUnits="userSpaceOnUse" gradientTransform="translate(7.53932 10.5156) rotate(-41.294) scale(4.48199 4.30358)">
<stop offset="0.91" stop-color="#B36441" stop-opacity="0"/>
<stop offset="1" stop-color="#B36441"/>
</radialGradient>
<radialGradient id="paint11_radial_281_626" cx="0" cy="0" r="1" gradientUnits="userSpaceOnUse" gradientTransform="translate(7.9142 9.74994) rotate(37.9308) scale(4.21947 4.78166)">
<stop offset="0.926" stop-color="#AB662B" stop-opacity="0"/>
<stop offset="1" stop-color="#AB662B"/>
</radialGradient>
</defs>
</svg>
