<svg width="24" height="24" viewBox="0 0 24 24" fill="none" xmlns="http://www.w3.org/2000/svg">
<g clip-path="url(#clip0_6816_1247)">
<path d="M23.5 12C23.5 18.3513 18.3513 23.5 12 23.5C5.64873 23.5 0.5 18.3513 0.5 12C0.5 5.64873 5.64873 0.5 12 0.5C18.3513 0.5 23.5 5.64873 23.5 12Z" stroke="#363738"/>
<path d="M17.0161 10.613C17.2358 9.14604 16.1181 8.35729 14.591 7.83098L15.0865 5.84335L13.8772 5.5424L13.3942 7.47755C13.0765 7.39776 12.7504 7.32358 12.4249 7.24939L12.9113 5.30165L11.702 5L11.2064 6.98694C10.9428 6.92768 10.6853 6.86703 10.4338 6.80497L10.4352 6.79867L8.76669 6.38225L8.44475 7.67421C8.44475 7.67421 9.34269 7.87997 9.32379 7.89257C9.8137 8.01505 9.90188 8.33909 9.88719 8.59664L9.32309 10.8607C9.35715 10.8687 9.39914 10.882 9.44907 10.9006L9.32099 10.8691L8.53013 14.0409C8.46995 14.1893 8.31807 14.4126 7.97514 14.3279C7.98773 14.3454 7.0961 14.1088 7.0961 14.1088L6.49561 15.4932L8.07032 15.8858C8.36286 15.9593 8.64981 16.0363 8.93186 16.1084L8.43145 18.1184L9.64013 18.4193L10.1356 16.4317C10.4655 16.5204 10.787 16.6036 11.1001 16.6816L10.606 18.6608L11.8153 18.9618L12.3157 16.9559C14.379 17.3464 15.9299 17.189 16.5829 15.3231C17.1092 13.8212 16.557 12.954 15.4715 12.3893C16.2623 12.2073 16.8572 11.6873 17.0161 10.613ZM14.2516 14.4889C13.8786 15.9915 11.3485 15.1789 10.5283 14.9753L11.1931 12.3123C12.0134 12.5173 14.6428 12.9226 14.2516 14.4889ZM14.626 10.5913C14.2852 11.9581 12.18 11.2632 11.4976 11.0931L12.0995 8.67853C12.7819 8.8486 14.9816 9.16564 14.626 10.5913Z" fill="white"/>
</g>
<defs>
<clipPath id="clip0_6816_1247">
<rect width="24" height="24" fill="white"/>
</clipPath>
</defs>
</svg>
