<svg width="32" height="32" viewBox="0 0 32 32" fill="none" xmlns="http://www.w3.org/2000/svg">
<path d="M27.1998 22.5334V12.2667H4.7998V22.5334C4.7998 23.7711 5.29147 24.958 6.16664 25.8332C7.04181 26.7084 8.22879 27.2 9.46647 27.2H22.5331C23.7708 27.2 24.9578 26.7084 25.833 25.8332C26.7081 24.958 27.1998 23.7711 27.1998 22.5334ZM12.2609 16.463C12.2609 16.8335 12.1137 17.1889 11.8516 17.451C11.5896 17.713 11.2342 17.8602 10.8637 17.8602C10.4931 17.8602 10.1377 17.713 9.8757 17.451C9.61368 17.1889 9.46647 16.8335 9.46647 16.463C9.46647 16.0924 9.61368 15.737 9.8757 15.475C10.1377 15.213 10.4931 15.0658 10.8637 15.0658C11.2342 15.0658 11.5896 15.213 11.8516 15.475C12.1137 15.737 12.2609 16.0924 12.2609 16.463ZM12.2609 21.1297C12.2609 21.5002 12.1137 21.8556 11.8516 22.1176C11.5896 22.3796 11.2342 22.5268 10.8637 22.5268C10.4931 22.5268 10.1377 22.3796 9.8757 22.1176C9.61368 21.8556 9.46647 21.5002 9.46647 21.1297C9.46647 20.7591 9.61368 20.4037 9.8757 20.1417C10.1377 19.8797 10.4931 19.7324 10.8637 19.7324C11.2342 19.7324 11.5896 19.8797 11.8516 20.1417C12.1137 20.4037 12.2609 20.7591 12.2609 21.1297ZM17.3979 16.463C17.3979 16.8335 17.2507 17.1889 16.9887 17.451C16.7267 17.713 16.3713 17.8602 16.0007 17.8602C15.6302 17.8602 15.2748 17.713 15.0128 17.451C14.7507 17.1889 14.6035 16.8335 14.6035 16.463C14.6035 16.0924 14.7507 15.737 15.0128 15.475C15.2748 15.213 15.6302 15.0658 16.0007 15.0658C16.3713 15.0658 16.7267 15.213 16.9887 15.475C17.2507 15.737 17.3979 16.0924 17.3979 16.463ZM17.3979 21.1297C17.3979 21.5002 17.2507 21.8556 16.9887 22.1176C16.7267 22.3796 16.3713 22.5268 16.0007 22.5268C15.6302 22.5268 15.2748 22.3796 15.0128 22.1176C14.7507 21.8556 14.6035 21.5002 14.6035 21.1297C14.6035 20.7591 14.7507 20.4037 15.0128 20.1417C15.2748 19.8797 15.6302 19.7324 16.0007 19.7324C16.3713 19.7324 16.7267 19.8797 16.9887 20.1417C17.2507 20.4037 17.3979 20.7591 17.3979 21.1297ZM22.5275 16.463C22.5275 16.8335 22.3803 17.1889 22.1183 17.451C21.8563 17.713 21.5009 17.8602 21.1303 17.8602C20.7598 17.8602 20.4044 17.713 20.1424 17.451C19.8803 17.1889 19.7331 16.8335 19.7331 16.463C19.7331 16.0924 19.8803 15.737 20.1424 15.475C20.4044 15.213 20.7598 15.0658 21.1303 15.0658C21.5009 15.0658 21.8563 15.213 22.1183 15.475C22.3803 15.737 22.5275 16.0924 22.5275 16.463ZM27.1998 9.46672C27.1998 8.22904 26.7081 7.04205 25.833 6.16688C24.9578 5.29171 23.7708 4.80005 22.5331 4.80005H9.46647C8.22879 4.80005 7.04181 5.29171 6.16664 6.16688C5.29147 7.04205 4.7998 8.22904 4.7998 9.46672V10.4H27.1998V9.46672Z" fill="white"/>
</svg>
