<svg width="40" height="40" viewBox="0 0 40 40" fill="none" xmlns="http://www.w3.org/2000/svg">
<rect x="0.5" y="0.5" width="39" height="39" rx="7.5" fill="url(#paint0_radial_1461_778)" fill-opacity="0.2"/>
<rect x="0.5" y="0.5" width="39" height="39" rx="7.5" stroke="url(#paint1_linear_1461_778)"/>
<path d="M13.2534 6.66675C13.8081 6.66675 14.2574 7.09875 14.2574 7.63208V9.57875C15.1481 9.56275 16.1467 9.56275 17.2707 9.56275H22.6241C23.7467 9.56275 24.7454 9.56275 25.6361 9.58008V7.63341C25.6361 7.10008 26.0854 6.66675 26.6401 6.66675C27.1947 6.66675 27.6441 7.09875 27.6441 7.63208V9.66675C29.5707 9.81475 30.8361 10.1787 31.7641 11.0734C32.6947 11.9667 33.0734 13.1827 33.2267 15.0361L33.3334 16.0001H6.66675V15.0347C6.82141 13.1814 7.20008 11.9654 8.12941 11.0721C9.05875 10.1787 10.3227 9.81341 12.2494 9.66541V7.63208C12.2494 7.09875 12.6987 6.66675 13.2534 6.66675Z" fill="url(#paint2_linear_1461_778)"/>
<path d="M33.3333 22.6667V20C33.3333 18.8813 33.328 16.8867 33.3107 16H6.67999C6.66266 16.8867 6.66666 18.8813 6.66666 20V22.6667C6.66666 27.6947 6.66666 30.2093 8.22933 31.7707C9.79066 33.3333 12.304 33.3333 17.3333 33.3333H22.6667C27.6933 33.3333 30.208 33.3333 31.7707 31.7707C33.3333 30.2107 33.3333 27.696 33.3333 22.6667Z" fill="white"/>
<path d="M28 26.6667C28 27.0203 27.8595 27.3594 27.6095 27.6095C27.3594 27.8595 27.0203 28 26.6667 28C26.313 28 25.9739 27.8595 25.7239 27.6095C25.4738 27.3594 25.3333 27.0203 25.3333 26.6667C25.3333 26.313 25.4738 25.9739 25.7239 25.7239C25.9739 25.4738 26.313 25.3333 26.6667 25.3333C27.0203 25.3333 27.3594 25.4738 27.6095 25.7239C27.8595 25.9739 28 26.313 28 26.6667ZM28 21.3333C28 21.687 27.8595 22.0261 27.6095 22.2761C27.3594 22.5262 27.0203 22.6667 26.6667 22.6667C26.313 22.6667 25.9739 22.5262 25.7239 22.2761C25.4738 22.0261 25.3333 21.687 25.3333 21.3333C25.3333 20.9797 25.4738 20.6406 25.7239 20.3905C25.9739 20.1405 26.313 20 26.6667 20C27.0203 20 27.3594 20.1405 27.6095 20.3905C27.8595 20.6406 28 20.9797 28 21.3333ZM21.3333 26.6667C21.3333 27.0203 21.1929 27.3594 20.9428 27.6095C20.6928 27.8595 20.3536 28 20 28C19.6464 28 19.3072 27.8595 19.0572 27.6095C18.8071 27.3594 18.6667 27.0203 18.6667 26.6667C18.6667 26.313 18.8071 25.9739 19.0572 25.7239C19.3072 25.4738 19.6464 25.3333 20 25.3333C20.3536 25.3333 20.6928 25.4738 20.9428 25.7239C21.1929 25.9739 21.3333 26.313 21.3333 26.6667ZM21.3333 21.3333C21.3333 21.687 21.1929 22.0261 20.9428 22.2761C20.6928 22.5262 20.3536 22.6667 20 22.6667C19.6464 22.6667 19.3072 22.5262 19.0572 22.2761C18.8071 22.0261 18.6667 21.687 18.6667 21.3333C18.6667 20.9797 18.8071 20.6406 19.0572 20.3905C19.3072 20.1405 19.6464 20 20 20C20.3536 20 20.6928 20.1405 20.9428 20.3905C21.1929 20.6406 21.3333 20.9797 21.3333 21.3333ZM14.6667 26.6667C14.6667 27.0203 14.5262 27.3594 14.2761 27.6095C14.0261 27.8595 13.687 28 13.3333 28C12.9797 28 12.6406 27.8595 12.3905 27.6095C12.1405 27.3594 12 27.0203 12 26.6667C12 26.313 12.1405 25.9739 12.3905 25.7239C12.6406 25.4738 12.9797 25.3333 13.3333 25.3333C13.687 25.3333 14.0261 25.4738 14.2761 25.7239C14.5262 25.9739 14.6667 26.313 14.6667 26.6667ZM14.6667 21.3333C14.6667 21.687 14.5262 22.0261 14.2761 22.2761C14.0261 22.5262 13.687 22.6667 13.3333 22.6667C12.9797 22.6667 12.6406 22.5262 12.3905 22.2761C12.1405 22.0261 12 21.687 12 21.3333C12 20.9797 12.1405 20.6406 12.3905 20.3905C12.6406 20.1405 12.9797 20 13.3333 20C13.687 20 14.0261 20.1405 14.2761 20.3905C14.5262 20.6406 14.6667 20.9797 14.6667 21.3333Z" fill="url(#paint3_linear_1461_778)"/>
<defs>
<radialGradient id="paint0_radial_1461_778" cx="0" cy="0" r="1" gradientUnits="userSpaceOnUse" gradientTransform="rotate(45) scale(56.5685)">
<stop stop-color="#FAFAFA"/>
<stop offset="1" stop-color="#F7F7F7" stop-opacity="0"/>
</radialGradient>
<linearGradient id="paint1_linear_1461_778" x1="20" y1="0" x2="20" y2="40" gradientUnits="userSpaceOnUse">
<stop stop-color="white"/>
<stop offset="1" stop-color="white" stop-opacity="0"/>
</linearGradient>
<linearGradient id="paint2_linear_1461_778" x1="8.82628" y1="6.36886" x2="22.9126" y2="20.0466" gradientUnits="userSpaceOnUse">
<stop stop-color="#0EB69D"/>
<stop offset="1" stop-color="#85E047"/>
</linearGradient>
<linearGradient id="paint3_linear_1461_778" x1="13.2957" y1="19.7447" x2="24.5273" y2="27.3787" gradientUnits="userSpaceOnUse">
<stop stop-color="#0EB69D"/>
<stop offset="1" stop-color="#85E047"/>
</linearGradient>
</defs>
</svg>
