<svg width="32" height="32" viewBox="0 0 32 32" fill="none" xmlns="http://www.w3.org/2000/svg">
<path d="M10.8308 18.7077V11.0769H6.15392C4.80008 11.0769 3.69238 12.1846 3.69238 13.5385V20.9231C3.69238 22.2769 4.80008 23.3846 6.15392 23.3846H7.38469V27.0769L11.077 23.3846H17.2308C18.5847 23.3846 19.6924 22.2769 19.6924 20.9231V18.6831C19.6114 18.6999 19.5289 18.7086 19.4462 18.7089H10.8308V18.7077ZM25.8462 4.92308H14.7693C13.4155 4.92308 12.3078 6.03077 12.3078 7.38462V17.2308H20.9232L24.6155 20.9231V17.2308H25.8462C27.2001 17.2308 28.3078 16.1243 28.3078 14.7692V7.38462C28.3078 6.03077 27.2001 4.92308 25.8462 4.92308Z" fill="white"/>
</svg>
