<svg width="16" height="16" viewBox="0 0 16 16" fill="none" xmlns="http://www.w3.org/2000/svg">
<path fill-rule="evenodd" clip-rule="evenodd" d="M14.6668 8.00004C14.6668 11.682 11.6822 14.6667 8.00016 14.6667C4.31816 14.6667 1.3335 11.682 1.3335 8.00004C1.3335 4.31804 4.31816 1.33337 8.00016 1.33337C11.6822 1.33337 14.6668 4.31804 14.6668 8.00004ZM10.6868 5.98004C10.7805 6.07379 10.8331 6.20087 10.8331 6.33337C10.8331 6.46587 10.7805 6.59296 10.6868 6.68671L7.3535 10.02C7.25975 10.1137 7.13266 10.1663 7.00016 10.1663C6.86766 10.1663 6.74058 10.1137 6.64683 10.02L5.3135 8.68671C5.26437 8.64093 5.22497 8.58573 5.19764 8.5244C5.17031 8.46307 5.15562 8.39686 5.15443 8.32972C5.15325 8.26259 5.1656 8.1959 5.19075 8.13364C5.21589 8.07138 5.25332 8.01483 5.3008 7.96735C5.34828 7.91987 5.40484 7.88244 5.4671 7.85729C5.52936 7.83214 5.59604 7.81979 5.66318 7.82098C5.73031 7.82216 5.79652 7.83686 5.85785 7.86419C5.91919 7.89151 5.97439 7.93092 6.02016 7.98004L7.00016 8.96004L8.49016 7.47004L9.98016 5.98004C10.0739 5.88641 10.201 5.83381 10.3335 5.83381C10.466 5.83381 10.5931 5.88641 10.6868 5.98004Z" fill="#46B75B"/>
</svg>
