<svg width="32" height="32" viewBox="0 0 32 32" fill="none" xmlns="http://www.w3.org/2000/svg">
<path d="M14.1332 22.1334L23.5332 12.7334L21.6665 10.8667L14.1332 18.4001L10.3332 14.6001L8.46651 16.4667L14.1332 22.1334ZM15.9998 29.3334C14.1554 29.3334 12.4221 28.9832 10.7998 28.2827C9.17762 27.5823 7.76651 26.6325 6.56651 25.4334C5.36651 24.2343 4.41673 22.8232 3.71717 21.2001C3.01762 19.577 2.66739 17.8436 2.66651 16.0001C2.66562 14.1565 3.01584 12.4232 3.71717 10.8001C4.41851 9.17697 5.36828 7.76586 6.56651 6.56675C7.76473 5.36764 9.17584 4.41786 10.7998 3.71741C12.4238 3.01697 14.1572 2.66675 15.9998 2.66675C17.8425 2.66675 19.5758 3.01697 21.1998 3.71741C22.8238 4.41786 24.235 5.36764 25.4332 6.56675C26.6314 7.76586 27.5816 9.17697 28.2838 10.8001C28.9861 12.4232 29.3358 14.1565 29.3332 16.0001C29.3305 17.8436 28.9803 19.577 28.2825 21.2001C27.5847 22.8232 26.635 24.2343 25.4332 25.4334C24.2314 26.6325 22.8203 27.5827 21.1998 28.2841C19.5794 28.9854 17.8461 29.3352 15.9998 29.3334Z" fill="#85E047"/>
</svg>
