<svg width="16" height="16" viewBox="0 0 16 16" fill="none" xmlns="http://www.w3.org/2000/svg">
<rect x="3.2002" y="3.20001" width="9.6" height="9.6" fill="white"/>
<path d="M12.6667 2H3.33333C2.6 2 2 2.6 2 3.33333V12.6667C2 13.4 2.6 14 3.33333 14H12.6667C13.4 14 14 13.4 14 12.6667V3.33333C14 2.6 13.4 2 12.6667 2ZM7.14 10.86C7.07832 10.9218 7.00507 10.9708 6.92442 11.0043C6.84377 11.0377 6.75731 11.055 6.67 11.055C6.58269 11.055 6.49623 11.0377 6.41558 11.0043C6.33494 10.9708 6.26168 10.9218 6.2 10.86L3.80667 8.46667C3.74495 8.40495 3.69599 8.33167 3.66258 8.25103C3.62918 8.17039 3.61199 8.08395 3.61199 7.99667C3.61199 7.90938 3.62918 7.82295 3.66258 7.7423C3.69599 7.66166 3.74495 7.58839 3.80667 7.52667C3.86839 7.46495 3.94166 7.41599 4.0223 7.38258C4.10295 7.34918 4.18938 7.33199 4.27667 7.33199C4.36395 7.33199 4.45039 7.34918 4.53103 7.38258C4.61167 7.41599 4.68495 7.46495 4.74667 7.52667L6.66667 9.44667L11.2533 4.86C11.378 4.73535 11.547 4.66532 11.7233 4.66532C11.8996 4.66532 12.0687 4.73535 12.1933 4.86C12.318 4.98465 12.388 5.15372 12.388 5.33C12.388 5.50628 12.318 5.67535 12.1933 5.8L7.14 10.86Z" fill="url(#paint0_linear_1400_778)"/>
<defs>
<linearGradient id="paint0_linear_1400_778" x1="2" y1="2.5" x2="14" y2="14" gradientUnits="userSpaceOnUse">
<stop stop-color="#46B75B"/>
<stop offset="0.5" stop-color="#71CF83"/>
<stop offset="1" stop-color="#46B75B"/>
</linearGradient>
</defs>
</svg>
