<svg width="16" height="16" viewBox="0 0 16 16" fill="none" xmlns="http://www.w3.org/2000/svg">
<path d="M12.5004 6.99999H14.0718C14.5058 6.99999 14.8576 7.35177 14.8576 7.78571L14.8576 12.8571C14.8576 13.9617 13.9621 14.8571 12.8576 14.8571L7.78613 14.8571C7.3522 14.8571 7.00042 14.5054 7.00042 14.0714V12.5M8.57185 2.28571L3.85756 2.28571C2.98969 2.28571 2.28613 2.98926 2.28613 3.85713L2.28613 8.57142C2.28613 9.43929 2.98969 10.1428 3.85756 10.1428L8.57185 10.1428C9.43972 10.1428 10.1433 9.4393 10.1433 8.57142L10.1433 3.85713C10.1433 2.98926 9.43972 2.28571 8.57185 2.28571Z" stroke="#818181" stroke-linecap="round"/>
</svg>
