<svg width="14" height="14" viewBox="0 0 14 14" fill="none" xmlns="http://www.w3.org/2000/svg">
<g clip-path="url(#clip0_1474_911)">
<path fill-rule="evenodd" clip-rule="evenodd" d="M3.5 1.75C3.5 1.28587 3.68437 0.840752 4.01256 0.512563C4.34075 0.184375 4.78587 0 5.25 0L12.25 0C12.7141 0 13.1592 0.184375 13.4874 0.512563C13.8156 0.840752 14 1.28587 14 1.75V8.75C14 9.21413 13.8156 9.65925 13.4874 9.98744C13.1592 10.3156 12.7141 10.5 12.25 10.5H5.25C4.78587 10.5 4.34075 10.3156 4.01256 9.98744C3.68437 9.65925 3.5 9.21413 3.5 8.75V1.75ZM5.25 0.875C5.01794 0.875 4.79538 0.967187 4.63128 1.13128C4.46719 1.29538 4.375 1.51794 4.375 1.75V8.75C4.375 8.98206 4.46719 9.20462 4.63128 9.36872C4.79538 9.53281 5.01794 9.625 5.25 9.625H12.25C12.4821 9.625 12.7046 9.53281 12.8687 9.36872C13.0328 9.20462 13.125 8.98206 13.125 8.75V1.75C13.125 1.51794 13.0328 1.29538 12.8687 1.13128C12.7046 0.967187 12.4821 0.875 12.25 0.875H5.25ZM1.75 4.375C1.51794 4.375 1.29538 4.46719 1.13128 4.63128C0.967187 4.79538 0.875 5.01794 0.875 5.25V12.25C0.875 12.4821 0.967187 12.7046 1.13128 12.8687C1.29538 13.0328 1.51794 13.125 1.75 13.125H8.75C8.98206 13.125 9.20462 13.0328 9.36872 12.8687C9.53281 12.7046 9.625 12.4821 9.625 12.25V11.375H10.5V12.25C10.5 12.7141 10.3156 13.1592 9.98744 13.4874C9.65925 13.8156 9.21413 14 8.75 14H1.75C1.28587 14 0.840752 13.8156 0.512563 13.4874C0.184375 13.1592 0 12.7141 0 12.25V5.25C0 4.78587 0.184375 4.34075 0.512563 4.01256C0.840752 3.68437 1.28587 3.5 1.75 3.5H2.625V4.375H1.75Z" fill="white"/>
</g>
<defs>
<clipPath id="clip0_1474_911">
<rect width="14" height="14" fill="white"/>
</clipPath>
</defs>
</svg>
