<svg width="20" height="20" viewBox="0 0 20 20" fill="none" xmlns="http://www.w3.org/2000/svg">
<path d="M4.82291 18.1989H9.41005C8.9627 17.8231 8.59066 17.3659 8.31362 16.8514H4.89826C4.03612 16.8514 3.57576 16.4075 3.57576 15.5707V2.90607C3.57576 2.0775 4.02755 1.6 4.89826 1.6H13.6454C14.4825 1.6 14.9597 2.06893 14.9597 2.90607V10.205C15.4738 10.479 15.9311 10.8483 16.3072 11.2932V2.88072C16.3072 1.13143 15.445 0.252502 13.7125 0.252502H4.82291C3.09862 0.252502 2.22791 1.13965 2.22791 2.88107V15.5786C2.22791 17.3279 3.09862 18.1989 4.82291 18.1989ZM6.10362 5.015H12.4486C12.7415 5.015 12.9675 4.78072 12.9675 4.4875C12.9675 4.20322 12.7415 3.98536 12.4486 3.98536H6.10362C5.79398 3.98536 5.57612 4.20322 5.57612 4.4875C5.57612 4.78036 5.79398 5.015 6.10362 5.015ZM6.10362 7.93643H12.4486C12.7415 7.93643 12.9675 7.70179 12.9675 7.40893C12.9675 7.12429 12.7415 6.90679 12.4486 6.90679H6.10362C5.79398 6.90679 5.57612 7.12465 5.57612 7.40893C5.57612 7.70179 5.79398 7.93643 6.10362 7.93643ZM12.549 18.1986C13.3025 18.1986 14.0136 17.9807 14.5997 17.5879L16.4829 19.4793C16.684 19.6718 16.8679 19.7471 17.094 19.7471C17.479 19.7471 17.7722 19.4457 17.7722 19.0186C17.7722 18.8346 17.68 18.6507 17.5379 18.5082L15.6293 16.6C16.0718 15.9669 16.3085 15.2128 16.3072 14.4404C16.3072 12.3561 14.625 10.6736 12.549 10.6736C10.4729 10.6736 8.77398 12.3729 8.77398 14.4404C8.77398 16.5161 10.4729 18.1986 12.549 18.1986ZM12.549 17.0014C11.1258 17.0014 9.97076 15.855 9.97076 14.4404C9.97076 13.0425 11.1258 11.8789 12.549 11.8789C13.9468 11.8789 15.1018 13.0425 15.1018 14.4404C15.1018 15.8546 13.9554 17.0014 12.549 17.0014Z" fill="#46B75B"/>
</svg>
