<svg width="16" height="16" viewBox="0 0 16 16" fill="none" xmlns="http://www.w3.org/2000/svg">
<path fill-rule="evenodd" clip-rule="evenodd" d="M2.77038 2.77021C2.16003 3.38057 1.8335 4.38264 1.8335 5.99999V9.99999C1.8335 11.6173 2.16003 12.6194 2.77038 13.2298C3.38074 13.8401 4.38281 14.1667 6.00016 14.1667H10.0002C11.6175 14.1667 12.6196 13.8401 13.2299 13.2298C13.8403 12.6194 14.1668 11.6173 14.1668 9.99999V6.66666C14.1668 6.39052 14.3907 6.16666 14.6668 6.16666C14.943 6.16666 15.1668 6.39052 15.1668 6.66666V9.99999C15.1668 11.716 14.8267 13.0472 13.937 13.9369C13.0474 14.8265 11.7161 15.1667 10.0002 15.1667H6.00016C4.28418 15.1667 2.95292 14.8265 2.06328 13.9369C1.17363 13.0472 0.833496 11.716 0.833496 9.99999V5.99999C0.833496 4.28401 1.17363 2.95275 2.06328 2.06311C2.95292 1.17346 4.28418 0.833328 6.00016 0.833328H9.3335C9.60964 0.833328 9.8335 1.05719 9.8335 1.33333C9.8335 1.60947 9.60964 1.83333 9.3335 1.83333H6.00016C4.38281 1.83333 3.38074 2.15986 2.77038 2.77021Z" fill="#818181"/>
<path fill-rule="evenodd" clip-rule="evenodd" d="M9.14215 0.871388C9.32899 0.793997 9.54405 0.836775 9.68705 0.979774L15.0204 6.31311C15.1634 6.45611 15.2062 6.67117 15.1288 6.858C15.0514 7.04484 14.8691 7.16666 14.6668 7.16666H12.0002C10.9725 7.16666 10.1282 7.00183 9.56328 6.43688C8.99833 5.87193 8.8335 5.02769 8.8335 3.99999V1.33333C8.8335 1.1311 8.95532 0.948778 9.14215 0.871388ZM9.8335 2.54043V3.99999C9.8335 4.9723 10.002 5.46139 10.2704 5.72977C10.5388 5.99816 11.0279 6.16666 12.0002 6.16666H13.4597L9.8335 2.54043Z" fill="#818181"/>
<path fill-rule="evenodd" clip-rule="evenodd" d="M4.16699 8.66666C4.16699 8.39051 4.39085 8.16666 4.66699 8.16666H8.66699C8.94313 8.16666 9.16699 8.39051 9.16699 8.66666C9.16699 8.9428 8.94313 9.16666 8.66699 9.16666H4.66699C4.39085 9.16666 4.16699 8.9428 4.16699 8.66666Z" fill="#818181"/>
<path fill-rule="evenodd" clip-rule="evenodd" d="M4.16699 11.3333C4.16699 11.0572 4.39085 10.8333 4.66699 10.8333H7.33366C7.6098 10.8333 7.83366 11.0572 7.83366 11.3333C7.83366 11.6095 7.6098 11.8333 7.33366 11.8333H4.66699C4.39085 11.8333 4.16699 11.6095 4.16699 11.3333Z" fill="#818181"/>
</svg>
