<svg width="24" height="24" viewBox="0 0 24 24" fill="none" xmlns="http://www.w3.org/2000/svg">
<g clip-path="url(#clip0_235_1013)">
<path d="M12 24C18.6274 24 24 18.6274 24 12C24 5.37258 18.6274 0 12 0C5.37258 0 0 5.37258 0 12C0 18.6274 5.37258 24 12 24Z" fill="black"/>
<path d="M6.00014 4.80001C6.90014 4.80001 7.60014 5.20001 8.30014 5.80001C8.50014 6.00001 8.70014 6.20001 8.90014 6.40001C9.20014 6.70001 9.50014 6.70001 9.90014 6.70001C10.6001 6.60001 11.2001 6.40001 11.9001 6.40001C12.1001 6.40001 12.3001 6.40001 12.5001 6.50001C13.0001 6.70001 13.4001 6.60001 13.9001 6.40001C14.6001 6.00001 15.4001 5.60001 16.1001 5.30001C16.8001 5.00001 17.5001 4.70001 18.3001 4.70001C19.1001 4.70001 19.6001 5.10001 20.0001 5.70001C20.2001 6.00001 20.1001 6.30001 20.0001 6.60001C19.8001 7.50001 19.3001 8.10001 18.5001 8.50001C18.1001 8.70001 17.8001 8.90001 17.4001 9.10001C16.8001 9.30001 16.5001 9.80001 16.4001 10.4C16.1001 12.2 15.8001 13.9 15.3001 15.6C14.9001 16.9 14.4001 18.1 13.6001 19.1C12.8001 20 11.9001 20.6 10.7001 20.6C10.1001 20.6 9.70014 20.2 9.30014 19.9C8.50014 19.2 8.20014 18.3 8.00014 17.4C7.90014 16.9 7.80014 16.4 7.80014 15.9C8.00014 14 7.70014 12.4 7.30014 10.8C7.20014 10.4 7.00014 9.90001 6.90014 9.50001C6.90014 9.00001 6.50014 8.60001 6.20014 8.30001C5.80014 8.00001 5.40014 7.70001 5.10014 7.30001C4.60014 6.70001 4.50014 6.00001 4.90014 5.30001C5.10014 4.90001 5.40014 4.80001 6.00014 4.80001Z" fill="#FEFEFE"/>
<path d="M9.5 18.5C9.5 17.5 9.9 16.8 10.7 16.5C11.5 16.2 12.4 16.6 12.8 17.3C13.2 18 12.9 18.8 12.2 19.4C11.8 19.7 11.4 19.9 10.9 19.9C10.2 20 9.5 19.6 9.5 18.5Z" fill="black"/>
<path d="M12.5 11.7C12.6 11.1 12.8 10.5 13.4 10.1C13.8 9.80003 14.2 9.90003 14.5 10.3C15 11 15.2 11.8 14.8 12.6C14.6 13 14.3 13.2 13.9 13.1C13.7 13.1 13.5 13 13.2 13C12.8 12.8 12.5 12.4 12.5 11.7Z" fill="black"/>
<path d="M9.3001 12.5C8.6001 12.5 8.3001 11.9 8.4001 11.3C8.4001 11.1 8.5001 11 8.5001 10.8C8.7001 10.2 9.4001 10.1 9.9001 10.5C10.4001 10.9 10.4001 11.8 9.9001 12.2C9.7001 12.5 9.5001 12.6 9.3001 12.5Z" fill="black"/>
<path d="M15.1001 8.10004C15.0001 8.10004 15.0001 8.10004 15.0001 8.00004C15.0001 7.80004 14.8001 7.80004 14.7001 7.80004C14.6001 7.80004 14.6001 7.70004 14.6001 7.60004C14.6001 7.50004 14.7001 7.50004 14.8001 7.50004C14.9001 7.50004 15.1001 7.50004 15.1001 7.30004C15.1001 7.10004 15.0001 7.00004 14.9001 7.00004C14.8001 7.00004 14.7001 6.90004 14.8001 6.80004C14.8001 6.70004 14.9001 6.70004 15.0001 6.70004C15.2001 6.70004 15.4001 6.70004 15.6001 6.50004C15.7001 6.40004 15.8001 6.50004 15.9001 6.60004C16.0001 6.70004 15.9001 6.70004 15.9001 6.80004C15.9001 7.00004 15.6001 7.00004 15.5001 7.20004C15.4001 7.40004 15.4001 7.60004 15.4001 7.90004C15.3001 8.00004 15.3001 8.10004 15.1001 8.10004Z" fill="#040404"/>
</g>
<defs>
<clipPath id="clip0_235_1013">
<rect width="24" height="24" fill="white"/>
</clipPath>
</defs>
</svg>
