<svg width="24" height="24" viewBox="0 0 24 24" fill="none" xmlns="http://www.w3.org/2000/svg">
<g clip-path="url(#clip0_6816_1295)">
<path d="M23.5 12C23.5 18.3513 18.3513 23.5 12 23.5C5.64873 23.5 0.5 18.3513 0.5 12C0.5 5.64873 5.64873 0.5 12 0.5C18.3513 0.5 23.5 5.64873 23.5 12Z" stroke="#363738"/>
<path d="M7.04406 6.08365C7.79688 6.08365 8.38241 6.41824 8.96794 6.92012C9.13524 7.08741 9.30253 7.25471 9.46982 7.422C9.72077 7.67294 9.97171 7.67294 10.3063 7.67294C10.8918 7.5893 11.3937 7.422 11.9792 7.422C12.1465 7.422 12.3138 7.422 12.4811 7.50565C12.8994 7.67294 13.2339 7.5893 13.6522 7.422C14.2377 7.08741 14.9069 6.75282 15.4924 6.50188C16.078 6.25094 16.6635 6 17.3327 6C18.0018 6 18.4201 6.33459 18.7547 6.83647C18.922 7.08741 18.8383 7.33835 18.7547 7.5893C18.5874 8.34212 18.1691 8.844 17.5 9.17859C17.1654 9.34589 16.9144 9.51318 16.5798 9.68048C16.078 9.84777 15.827 10.266 15.7434 10.7679C15.4924 12.2735 15.2415 13.6955 14.8232 15.1175C14.4887 16.205 14.0704 17.2087 13.4012 18.0452C12.7321 18.798 11.9792 19.2999 10.9755 19.2999C10.4736 19.2999 10.139 18.9653 9.80441 18.7144C9.13524 18.1288 8.88429 17.376 8.717 16.6232C8.63335 16.205 8.54971 15.7867 8.54971 15.3685C8.717 13.7792 8.46606 12.4408 8.13147 11.1025C8.04782 10.7679 7.88053 10.3497 7.79688 10.0151C7.79688 9.59683 7.46229 9.26224 7.21135 9.0113C6.87676 8.76036 6.54217 8.50942 6.29123 8.17483C5.873 7.67294 5.78935 7.08741 6.12394 6.50188C6.29123 6.16729 6.54217 6.08365 7.04406 6.08365Z" fill="white"/>
<path d="M9.97168 17.5433C9.97168 16.7068 10.3063 16.1213 10.9754 15.8703C11.6446 15.6194 12.3974 15.954 12.732 16.5395C13.0666 17.125 12.8157 17.7942 12.2302 18.2961C11.8956 18.547 11.561 18.7143 11.1427 18.7143C10.5572 18.798 9.97168 18.4634 9.97168 17.5433Z" fill="black"/>
<path d="M12.481 11.8554C12.5646 11.3535 12.7319 10.8516 13.2338 10.517C13.5684 10.2661 13.903 10.3497 14.1539 10.6843C14.5721 11.2698 14.7394 11.939 14.4048 12.6082C14.2375 12.9428 13.9866 13.1101 13.652 13.0264C13.4847 13.0264 13.3174 12.9428 13.0665 12.9428C12.7319 12.7755 12.481 12.4409 12.481 11.8554Z" fill="black"/>
<path d="M9.80464 12.5246C9.21911 12.5246 8.96817 12.0227 9.05182 11.5208C9.05182 11.3535 9.13546 11.2699 9.13546 11.1026C9.30276 10.6007 9.88829 10.517 10.3065 10.8516C10.7248 11.1862 10.7248 11.939 10.3065 12.2736C10.1392 12.5246 9.97194 12.6082 9.80464 12.5246Z" fill="black"/>
<path d="M14.656 8.84395C14.5724 8.84395 14.5724 8.84395 14.5724 8.7603C14.5724 8.59301 14.4051 8.59301 14.3214 8.59301C14.2378 8.59301 14.2378 8.50936 14.2378 8.42571C14.2378 8.34207 14.3214 8.34207 14.4051 8.34207C14.4887 8.34207 14.656 8.34207 14.656 8.17477C14.656 8.00748 14.5724 7.92383 14.4887 7.92383C14.4051 7.92383 14.3214 7.84018 14.4051 7.75654C14.4051 7.67289 14.4887 7.67289 14.5724 7.67289C14.7397 7.67289 14.907 7.67289 15.0743 7.5056C15.1579 7.42195 15.2416 7.5056 15.3252 7.58924C15.4089 7.67289 15.3252 7.67289 15.3252 7.75654C15.3252 7.92383 15.0743 7.92383 14.9906 8.09113C14.907 8.25842 14.907 8.42571 14.907 8.67666C14.8233 8.7603 14.8233 8.84395 14.656 8.84395Z" fill="black"/>
</g>
<defs>
<clipPath id="clip0_6816_1295">
<rect width="24" height="24" fill="white"/>
</clipPath>
</defs>
</svg>
