<svg width="16" height="16" viewBox="0 0 16 16" fill="none" xmlns="http://www.w3.org/2000/svg">
<path fill-rule="evenodd" clip-rule="evenodd" d="M14.6668 7.99992C14.6668 11.6819 11.6822 14.6666 8.00016 14.6666C4.31816 14.6666 1.3335 11.6819 1.3335 7.99992C1.3335 4.31792 4.31816 1.33325 8.00016 1.33325C11.6822 1.33325 14.6668 4.31792 14.6668 7.99992ZM5.98016 5.97992C6.07391 5.88628 6.201 5.83369 6.3335 5.83369C6.466 5.83369 6.59308 5.88628 6.68683 5.97992L8.00016 7.29325L9.3135 5.97992C9.40828 5.8916 9.53364 5.84352 9.66318 5.8458C9.79271 5.84809 9.9163 5.90056 10.0079 5.99217C10.0995 6.08378 10.152 6.20737 10.1543 6.3369C10.1566 6.46644 10.1085 6.5918 10.0202 6.68658L8.70683 7.99992L10.0202 9.31325C10.1085 9.40804 10.1566 9.5334 10.1543 9.66293C10.152 9.79247 10.0995 9.91606 10.0079 10.0077C9.9163 10.0993 9.79271 10.1517 9.66318 10.154C9.53364 10.1563 9.40828 10.1082 9.3135 10.0199L8.00016 8.70658L6.68683 10.0199C6.59205 10.1082 6.46668 10.1563 6.33715 10.154C6.20761 10.1517 6.08402 10.0993 5.99241 10.0077C5.90081 9.91606 5.84833 9.79247 5.84605 9.66293C5.84376 9.5334 5.89184 9.40804 5.98016 9.31325L7.2935 7.99992L5.98016 6.68658C5.88653 6.59283 5.83394 6.46575 5.83394 6.33325C5.83394 6.20075 5.88653 6.07367 5.98016 5.97992Z" fill="#DA4453"/>
</svg>
