<svg width="14" height="14" viewBox="0 0 14 14" fill="none" xmlns="http://www.w3.org/2000/svg">
<path fill-rule="evenodd" clip-rule="evenodd" d="M12.6762 1.32397C12.847 1.49483 12.847 1.77184 12.6762 1.94269L7.89286 6.72602C7.722 6.89688 7.44499 6.89688 7.27414 6.72602C7.10328 6.55517 7.10328 6.27816 7.27414 6.1073L12.0575 1.32397C12.2283 1.15312 12.5053 1.15312 12.6762 1.32397Z" fill="white"/>
<path fill-rule="evenodd" clip-rule="evenodd" d="M9.59595 1.16667C9.59595 0.925047 9.79182 0.729172 10.0334 0.729172H12.8334C13.0751 0.729172 13.2709 0.925047 13.2709 1.16667V3.96667C13.2709 4.2083 13.0751 4.40417 12.8334 4.40417C12.5918 4.40417 12.3959 4.2083 12.3959 3.96667V1.60417H10.0334C9.79182 1.60417 9.59595 1.4083 9.59595 1.16667Z" fill="white"/>
<path fill-rule="evenodd" clip-rule="evenodd" d="M1.80531 1.80523C2.58375 1.02679 3.7486 0.729172 5.25008 0.729172H6.41675C6.65837 0.729172 6.85425 0.925047 6.85425 1.16667C6.85425 1.4083 6.65837 1.60417 6.41675 1.60417H5.25008C3.8349 1.60417 2.95808 1.88989 2.42402 2.42395C1.88996 2.95801 1.60425 3.83482 1.60425 5.25001V8.75001C1.60425 10.1652 1.88996 11.042 2.42402 11.5761C2.95808 12.1101 3.8349 12.3958 5.25008 12.3958H8.75008C10.1653 12.3958 11.0421 12.1101 11.5761 11.5761C12.1102 11.042 12.3959 10.1652 12.3959 8.75001V7.58334C12.3959 7.34171 12.5918 7.14584 12.8334 7.14584C13.075 7.14584 13.2709 7.34171 13.2709 7.58334V8.75001C13.2709 10.2515 12.9733 11.4163 12.1949 12.1948C11.4164 12.9732 10.2516 13.2708 8.75008 13.2708H5.25008C3.7486 13.2708 2.58375 12.9732 1.80531 12.1948C1.02687 11.4163 0.729248 10.2515 0.729248 8.75001V5.25001C0.729248 3.74852 1.02687 2.58367 1.80531 1.80523Z" fill="white"/>
</svg>
