<svg width="40" height="40" viewBox="0 0 40 40" fill="none" xmlns="http://www.w3.org/2000/svg">
<rect x="0.5" y="0.5" width="39" height="39" rx="7.5" fill="url(#paint0_radial_2363_1154)" fill-opacity="0.2"/>
<rect x="0.5" y="0.5" width="39" height="39" rx="7.5" stroke="url(#paint1_linear_2363_1154)"/>
<path d="M15.7752 18.7C16.8957 18.7 17.9704 18.2549 18.7627 17.4625C19.5551 16.6702 20.0002 15.5955 20.0002 14.475C20.0002 13.3545 19.5551 12.2798 18.7627 11.4875C17.9704 10.6951 16.8957 10.25 15.7752 10.25C14.6547 10.25 13.58 10.6951 12.7877 11.4875C11.9953 12.2798 11.5502 13.3545 11.5502 14.475C11.5502 15.5955 11.9953 16.6702 12.7877 17.4625C13.58 18.2549 14.6547 18.7 15.7752 18.7ZM29.1002 15.45C29.1002 16.312 28.7578 17.1386 28.1483 17.7481C27.5388 18.3576 26.7121 18.7 25.8502 18.7C24.9882 18.7 24.1616 18.3576 23.5521 17.7481C22.9426 17.1386 22.6002 16.312 22.6002 15.45C22.6002 14.588 22.9426 13.7614 23.5521 13.1519C24.1616 12.5424 24.9882 12.2 25.8502 12.2C26.7121 12.2 27.5388 12.5424 28.1483 13.1519C28.7578 13.7614 29.1002 14.588 29.1002 15.45ZM18.7002 25.85C18.7002 23.6348 19.7077 21.6536 21.2911 20.3419C20.8979 20.1175 20.4529 19.9996 20.0002 20H11.5502C10.8606 20 10.1993 20.2739 9.71172 20.7615C9.22412 21.2491 8.9502 21.9104 8.9502 22.6C8.9502 22.6 8.9502 27.8 15.7752 27.8C17.0141 27.8 18.0281 27.6284 18.8575 27.3489C18.7524 26.8562 18.6997 26.3538 18.7002 25.85Z" fill="white"/>
<path fill-rule="evenodd" clip-rule="evenodd" d="M31.7 25.85C31.7 27.4015 31.0837 28.8895 29.9866 29.9866C28.8895 31.0837 27.4015 31.7 25.85 31.7C24.2985 31.7 22.8105 31.0837 21.7134 29.9866C20.6163 28.8895 20 27.4015 20 25.85C20 24.2985 20.6163 22.8105 21.7134 21.7134C22.8105 20.6163 24.2985 20 25.85 20C27.4015 20 28.8895 20.6163 29.9866 21.7134C31.0837 22.8105 31.7 24.2985 31.7 25.85ZM26.3096 22.7904C26.4315 22.9123 26.5 23.0776 26.5 23.25V25.2H28.45C28.6224 25.2 28.7877 25.2685 28.9096 25.3904C29.0315 25.5123 29.1 25.6776 29.1 25.85C29.1 26.0224 29.0315 26.1877 28.9096 26.3096C28.7877 26.4315 28.6224 26.5 28.45 26.5H26.5V28.45C26.5 28.6224 26.4315 28.7877 26.3096 28.9096C26.1877 29.0315 26.0224 29.1 25.85 29.1C25.6776 29.1 25.5123 29.0315 25.3904 28.9096C25.2685 28.7877 25.2 28.6224 25.2 28.45V26.5H23.25C23.0776 26.5 22.9123 26.4315 22.7904 26.3096C22.6685 26.1877 22.6 26.0224 22.6 25.85C22.6 25.6776 22.6685 25.5123 22.7904 25.3904C22.9123 25.2685 23.0776 25.2 23.25 25.2H25.2V23.25C25.2 23.0776 25.2685 22.9123 25.3904 22.7904C25.5123 22.6685 25.6776 22.6 25.85 22.6C26.0224 22.6 26.1877 22.6685 26.3096 22.7904Z" fill="url(#paint2_linear_2363_1154)"/>
<defs>
<radialGradient id="paint0_radial_2363_1154" cx="0" cy="0" r="1" gradientUnits="userSpaceOnUse" gradientTransform="rotate(45) scale(56.5685)">
<stop stop-color="#FAFAFA"/>
<stop offset="1" stop-color="#F7F7F7" stop-opacity="0"/>
</radialGradient>
<linearGradient id="paint1_linear_2363_1154" x1="20" y1="0" x2="20" y2="40" gradientUnits="userSpaceOnUse">
<stop stop-color="white"/>
<stop offset="1" stop-color="white" stop-opacity="0"/>
</linearGradient>
<linearGradient id="paint2_linear_2363_1154" x1="20.9475" y1="19.6266" x2="31.7117" y2="23.2848" gradientUnits="userSpaceOnUse">
<stop stop-color="#0EB69D"/>
<stop offset="1" stop-color="#85E047"/>
</linearGradient>
</defs>
</svg>
