<svg width="40" height="40" viewBox="0 0 40 40" fill="none" xmlns="http://www.w3.org/2000/svg">
<rect x="0.5" y="0.5" width="39" height="39" rx="7.5" fill="url(#paint0_radial_1480_1413)" fill-opacity="0.2"/>
<rect x="0.5" y="0.5" width="39" height="39" rx="7.5" stroke="url(#paint1_linear_1480_1413)"/>
<path d="M23.2495 16.75C23.2495 18.5462 21.7956 20 19.9994 20C18.2031 20 16.7492 18.5462 16.7492 16.75C16.7492 14.9538 18.2031 13.5 19.9994 13.5C21.7956 13.5 23.2495 14.9538 23.2495 16.75Z" fill="white"/>
<path d="M21.9872 20.9286H22.228C24.0736 20.9286 25.571 22.4259 25.571 24.2714V25.1071C25.571 25.8761 24.9471 26.5 24.1781 26.5H15.8206C15.0516 26.5 14.4277 25.8761 14.4277 25.1071V24.2714C14.4277 22.4259 15.9251 20.9286 17.7707 20.9286H18.0116C18.6181 21.2188 19.2855 21.3929 19.9994 21.3929C20.7132 21.3929 21.3836 21.2188 21.9872 20.9286Z" fill="white"/>
<path d="M28.357 20C29.895 20 31.1428 18.7523 31.1428 17.2143C31.1428 15.6764 29.895 14.4286 28.357 14.4286C26.819 14.4286 25.5712 15.6764 25.5712 17.2143C25.5712 18.7523 26.819 20 28.357 20ZM29.7499 20.9286H29.6396C29.2362 21.0679 28.8097 21.1608 28.357 21.1608C27.9043 21.1608 27.4777 21.0679 27.0743 20.9286H26.9641C26.3721 20.9286 25.8265 21.0998 25.3477 21.3755C26.0558 22.1387 26.4998 23.1514 26.4998 24.2715V25.3858C26.4998 25.4496 26.4852 25.5105 26.4823 25.5715H31.6071C32.3761 25.5715 33 24.9476 33 24.1786C33 22.3824 31.5462 20.9286 29.7499 20.9286Z" fill="white"/>
<path d="M28.357 20C29.895 20 31.1428 18.7523 31.1428 17.2143C31.1428 15.6764 29.895 14.4286 28.357 14.4286C26.819 14.4286 25.5712 15.6764 25.5712 17.2143C25.5712 18.7523 26.819 20 28.357 20ZM29.7499 20.9286H29.6396C29.2362 21.0679 28.8097 21.1608 28.357 21.1608C27.9043 21.1608 27.4777 21.0679 27.0743 20.9286H26.9641C26.3721 20.9286 25.8265 21.0998 25.3477 21.3755C26.0558 22.1387 26.4998 23.1514 26.4998 24.2715V25.3858C26.4998 25.4496 26.4852 25.5105 26.4823 25.5715H31.6071C32.3761 25.5715 33 24.9476 33 24.1786C33 22.3824 31.5462 20.9286 29.7499 20.9286Z" fill="url(#paint2_linear_1480_1413)"/>
<path d="M8.85721 17.2143C8.85721 18.7522 10.105 20 11.643 20C13.181 20 14.4288 18.7522 14.4288 17.2143C14.4288 15.6764 13.181 14.4286 11.643 14.4286C10.105 14.4286 8.85721 15.6764 8.85721 17.2143Z" fill="white"/>
<path d="M8.85721 17.2143C8.85721 18.7522 10.105 20 11.643 20C13.181 20 14.4288 18.7522 14.4288 17.2143C14.4288 15.6764 13.181 14.4286 11.643 14.4286C10.105 14.4286 8.85721 15.6764 8.85721 17.2143Z" fill="url(#paint3_linear_1480_1413)"/>
<path d="M10.3604 20.9286H10.2501C8.45385 20.9286 7 22.3824 7 24.1786C7 24.9476 7.62391 25.5714 8.39291 25.5714H13.5177C13.5148 25.5105 13.5002 25.4496 13.5002 25.3857V24.2714C13.5002 23.1514 13.9442 22.1386 14.6523 21.3755C14.1735 21.0998 13.6279 20.9286 13.0359 20.9286H12.9257C12.5223 21.0679 12.0957 21.1607 11.643 21.1607C11.1903 21.1607 10.7638 21.0679 10.3604 20.9286Z" fill="white"/>
<path d="M10.3604 20.9286H10.2501C8.45385 20.9286 7 22.3824 7 24.1786C7 24.9476 7.62391 25.5714 8.39291 25.5714H13.5177C13.5148 25.5105 13.5002 25.4496 13.5002 25.3857V24.2714C13.5002 23.1514 13.9442 22.1386 14.6523 21.3755C14.1735 21.0998 13.6279 20.9286 13.0359 20.9286H12.9257C12.5223 21.0679 12.0957 21.1607 11.643 21.1607C11.1903 21.1607 10.7638 21.0679 10.3604 20.9286Z" fill="url(#paint4_linear_1480_1413)"/>
<defs>
<radialGradient id="paint0_radial_1480_1413" cx="0" cy="0" r="1" gradientUnits="userSpaceOnUse" gradientTransform="rotate(45) scale(56.5685)">
<stop stop-color="#FAFAFA"/>
<stop offset="1" stop-color="#F7F7F7" stop-opacity="0"/>
</radialGradient>
<linearGradient id="paint1_linear_1480_1413" x1="20" y1="0" x2="20" y2="40" gradientUnits="userSpaceOnUse">
<stop stop-color="white"/>
<stop offset="1" stop-color="white" stop-opacity="0"/>
</linearGradient>
<linearGradient id="paint2_linear_1480_1413" x1="9.10554" y1="13.0851" x2="27.3569" y2="25.4904" gradientUnits="userSpaceOnUse">
<stop stop-color="#0EB69D"/>
<stop offset="1" stop-color="#85E047"/>
</linearGradient>
<linearGradient id="paint3_linear_1480_1413" x1="9.10554" y1="13.0851" x2="27.3569" y2="25.4904" gradientUnits="userSpaceOnUse">
<stop stop-color="#0EB69D"/>
<stop offset="1" stop-color="#85E047"/>
</linearGradient>
<linearGradient id="paint4_linear_1480_1413" x1="9.10554" y1="13.0851" x2="27.3569" y2="25.4904" gradientUnits="userSpaceOnUse">
<stop stop-color="#0EB69D"/>
<stop offset="1" stop-color="#85E047"/>
</linearGradient>
</defs>
</svg>
