<svg width="40" height="40" viewBox="0 0 40 40" fill="none" xmlns="http://www.w3.org/2000/svg">
<rect x="0.5" y="0.5" width="39" height="39" rx="7.5" fill="url(#paint0_radial_2363_1174)" fill-opacity="0.2"/>
<rect x="0.5" y="0.5" width="39" height="39" rx="7.5" stroke="url(#paint1_linear_2363_1174)"/>
<path d="M19.9998 15.45C18.8896 15.45 17.8977 15.957 17.2425 16.75C16.8382 17.24 16.5718 17.8288 16.4706 18.456C16.3694 19.0831 16.4372 19.7259 16.6669 20.3181C16.8966 20.9104 17.28 21.4307 17.7776 21.8256C18.2752 22.2205 18.869 22.4757 19.498 22.5649C20.3533 20.9159 21.8146 19.6628 23.5748 19.0692V19.025C23.5748 18.1605 23.268 17.3675 22.7571 16.75C22.1019 15.957 21.11 15.45 19.9998 15.45ZM31.2799 21.1986C30.5012 20.2877 29.5057 19.5875 28.3852 19.1626C27.2646 18.7378 26.0552 18.6019 24.8683 18.7676C24.8336 18.0625 24.6441 17.3736 24.3132 16.75H29.7498C30.267 16.75 30.763 16.9554 31.1287 17.3211C31.4944 17.6868 31.6998 18.1828 31.6998 18.7V19.35C31.6998 19.974 31.5568 20.6032 31.2799 21.1986ZM18.9689 23.9C18.7897 24.5345 18.6992 25.1907 18.6998 25.85C18.6998 28.1861 19.8191 30.2596 21.552 31.5635C21.0397 31.6553 20.5202 31.701 19.9998 31.7C15.9178 31.7 13.4998 29.0623 13.4998 26.5V25.85C13.4991 25.5937 13.5491 25.3398 13.6468 25.1029C13.7446 24.866 13.8882 24.6508 14.0694 24.4696C14.2506 24.2884 14.4659 24.1448 14.7028 24.047C14.9397 23.9493 15.1935 23.8993 15.4498 23.9H18.9689ZM12.6093 24.2692C9.8663 23.5269 8.2998 21.4131 8.2998 19.35V18.7C8.2998 18.1828 8.50525 17.6868 8.87095 17.3211C9.23664 16.9554 9.73263 16.75 10.2498 16.75H15.6877C15.3154 17.4503 15.122 18.2318 15.1248 19.025C15.1239 19.6963 15.2621 20.3605 15.5306 20.9758C15.7991 21.5911 16.1921 22.1441 16.6848 22.6H15.4498C14.8705 22.5998 14.3018 22.7545 13.8024 23.048C13.303 23.3415 12.8911 23.7631 12.6093 24.2692ZM14.7998 8.29999C15.748 8.29999 16.6573 8.67664 17.3277 9.34708C17.9982 10.0175 18.3748 10.9268 18.3748 11.875C18.3748 12.8231 17.9982 13.7325 17.3277 14.4029C16.6573 15.0733 15.748 15.45 14.7998 15.45C13.8517 15.45 12.9423 15.0733 12.2719 14.4029C11.6015 13.7325 11.2248 12.8231 11.2248 11.875C11.2248 10.9268 11.6015 10.0175 12.2719 9.34708C12.9423 8.67664 13.8517 8.29999 14.7998 8.29999ZM25.1998 8.29999C26.148 8.29999 27.0573 8.67664 27.7277 9.34708C28.3982 10.0175 28.7748 10.9268 28.7748 11.875C28.7748 12.8231 28.3982 13.7325 27.7277 14.4029C27.0573 15.0733 26.148 15.45 25.1998 15.45C24.2517 15.45 23.3423 15.0733 22.6719 14.4029C22.0015 13.7325 21.6248 12.8231 21.6248 11.875C21.6248 10.9268 22.0015 10.0175 22.6719 9.34708C23.3423 8.67664 24.2517 8.29999 25.1998 8.29999Z" fill="white"/>
<path d="M25.85 31.7C27.4015 31.7 28.8895 31.0837 29.9866 29.9866C31.0837 28.8895 31.7 27.4015 31.7 25.85C31.7 24.2985 31.0837 22.8105 29.9866 21.7134C28.8895 20.6163 27.4015 20 25.85 20C24.2985 20 22.8105 20.6163 21.7134 21.7134C20.6163 22.8105 20 24.2985 20 25.85C20 27.4015 20.6163 28.8895 21.7134 29.9866C22.8105 31.0837 24.2985 31.7 25.85 31.7ZM25.85 22.6C26.0224 22.6 26.1877 22.6685 26.3096 22.7904C26.4315 22.9123 26.5 23.0776 26.5 23.25V25.2H28.45C28.6224 25.2 28.7877 25.2685 28.9096 25.3904C29.0315 25.5123 29.1 25.6776 29.1 25.85C29.1 26.0224 29.0315 26.1877 28.9096 26.3096C28.7877 26.4315 28.6224 26.5 28.45 26.5H26.5V28.45C26.5 28.6224 26.4315 28.7877 26.3096 28.9096C26.1877 29.0315 26.0224 29.1 25.85 29.1C25.6776 29.1 25.5123 29.0315 25.3904 28.9096C25.2685 28.7877 25.2 28.6224 25.2 28.45V26.5H23.25C23.0776 26.5 22.9123 26.4315 22.7904 26.3096C22.6685 26.1877 22.6 26.0224 22.6 25.85C22.6 25.6776 22.6685 25.5123 22.7904 25.3904C22.9123 25.2685 23.0776 25.2 23.25 25.2H25.2V23.25C25.2 23.0776 25.2685 22.9123 25.3904 22.7904C25.5123 22.6685 25.6776 22.6 25.85 22.6Z" fill="url(#paint2_linear_2363_1174)"/>
<defs>
<radialGradient id="paint0_radial_2363_1174" cx="0" cy="0" r="1" gradientUnits="userSpaceOnUse" gradientTransform="rotate(45) scale(56.5685)">
<stop stop-color="#FAFAFA"/>
<stop offset="1" stop-color="#F7F7F7" stop-opacity="0"/>
</radialGradient>
<linearGradient id="paint1_linear_2363_1174" x1="20" y1="0" x2="20" y2="40" gradientUnits="userSpaceOnUse">
<stop stop-color="white"/>
<stop offset="1" stop-color="white" stop-opacity="0"/>
</linearGradient>
<linearGradient id="paint2_linear_2363_1174" x1="20.9475" y1="19.6266" x2="31.7117" y2="23.2847" gradientUnits="userSpaceOnUse">
<stop stop-color="#0EB69D"/>
<stop offset="1" stop-color="#85E047"/>
</linearGradient>
</defs>
</svg>
