<svg width="40" height="40" viewBox="0 0 40 40" fill="none" xmlns="http://www.w3.org/2000/svg">
<rect x="0.5" y="0.5" width="39" height="39" rx="7.5" fill="url(#paint0_radial_1480_1409)" fill-opacity="0.2"/>
<rect x="0.5" y="0.5" width="39" height="39" rx="7.5" stroke="url(#paint1_linear_1480_1409)"/>
<path d="M14.8 20C17.3147 20 19.35 18.0212 19.35 15.5764C19.35 13.1315 17.3147 11.1528 14.8 11.1528C12.2853 11.1528 10.25 13.1315 10.25 15.5764C10.25 18.0212 12.2853 20 14.8 20ZM17.92 21.2639H17.5828C16.7378 21.6588 15.7994 21.8958 14.8 21.8958C13.8006 21.8958 12.8662 21.6588 12.0172 21.2639H11.68C9.09625 21.2639 7 23.3019 7 25.8139V26.9514C7 27.998 7.87344 28.8472 8.95 28.8472H20.65C21.7266 28.8472 22.6 27.998 22.6 26.9514V25.8139C22.6 23.3019 20.5037 21.2639 17.92 21.2639Z" fill="white"/>
<path d="M30.3999 16.2084C30.3999 18.3017 28.653 20.0001 26.4999 20.0001C24.3468 20.0001 22.5999 18.3017 22.5999 16.2084C22.5999 14.1151 24.3468 12.4167 26.4999 12.4167C28.653 12.4167 30.3999 14.1151 30.3999 16.2084Z" fill="white"/>
<path d="M30.3999 16.2084C30.3999 18.3017 28.653 20.0001 26.4999 20.0001C24.3468 20.0001 22.5999 18.3017 22.5999 16.2084C22.5999 14.1151 24.3468 12.4167 26.4999 12.4167C28.653 12.4167 30.3999 14.1151 30.3999 16.2084Z" fill="url(#paint2_linear_1480_1409)"/>
<path d="M28.2955 21.264H28.4499C30.9646 21.264 32.9999 23.2427 32.9999 25.6876C32.9999 26.7342 32.1265 27.5834 31.0499 27.5834H23.8755C23.8796 27.5005 23.8999 27.4175 23.8999 27.3306V25.814C23.8999 24.2894 23.2784 22.911 22.2871 21.8722C22.9574 21.497 23.7212 21.264 24.5499 21.264H24.7043C25.269 21.4536 25.8662 21.5799 26.4999 21.5799C27.1337 21.5799 27.7309 21.4536 28.2955 21.264Z" fill="white"/>
<path d="M28.2955 21.264H28.4499C30.9646 21.264 32.9999 23.2427 32.9999 25.6876C32.9999 26.7342 32.1265 27.5834 31.0499 27.5834H23.8755C23.8796 27.5005 23.8999 27.4175 23.8999 27.3306V25.814C23.8999 24.2894 23.2784 22.911 22.2871 21.8722C22.9574 21.497 23.7212 21.264 24.5499 21.264H24.7043C25.269 21.4536 25.8662 21.5799 26.4999 21.5799C27.1337 21.5799 27.7309 21.4536 28.2955 21.264Z" fill="url(#paint3_linear_1480_1409)"/>
<defs>
<radialGradient id="paint0_radial_1480_1409" cx="0" cy="0" r="1" gradientUnits="userSpaceOnUse" gradientTransform="rotate(45) scale(56.5685)">
<stop stop-color="#FAFAFA"/>
<stop offset="1" stop-color="#F7F7F7" stop-opacity="0"/>
</radialGradient>
<linearGradient id="paint1_linear_1480_1409" x1="20" y1="0" x2="20" y2="40" gradientUnits="userSpaceOnUse">
<stop stop-color="white"/>
<stop offset="1" stop-color="white" stop-opacity="0"/>
</linearGradient>
<linearGradient id="paint2_linear_1480_1409" x1="23.1547" y1="11.9327" x2="33.5499" y2="14.428" gradientUnits="userSpaceOnUse">
<stop stop-color="#0EB69D"/>
<stop offset="1" stop-color="#85E047"/>
</linearGradient>
<linearGradient id="paint3_linear_1480_1409" x1="23.1547" y1="11.9327" x2="33.5499" y2="14.428" gradientUnits="userSpaceOnUse">
<stop stop-color="#0EB69D"/>
<stop offset="1" stop-color="#85E047"/>
</linearGradient>
</defs>
</svg>
