<svg width="40" height="40" viewBox="0 0 40 40" fill="none" xmlns="http://www.w3.org/2000/svg">
<rect x="0.5" y="0.5" width="39" height="39" rx="7.5" fill="url(#paint0_radial_2363_1162)" fill-opacity="0.2"/>
<rect x="0.5" y="0.5" width="39" height="39" rx="7.5" stroke="url(#paint1_linear_2363_1162)"/>
<path d="M17.2427 16.75C17.8979 15.957 18.8898 15.45 20 15.45C21.1102 15.45 22.1021 15.957 22.7573 16.75C23.1887 17.273 23.4624 17.9079 23.5467 18.5806C23.6309 19.2533 23.5221 19.9361 23.233 20.5493C22.9439 21.1625 22.4864 21.6809 21.9138 22.0439C21.3413 22.407 20.6773 22.5997 19.9994 22.5997C19.3214 22.5997 18.6574 22.407 18.0849 22.0439C17.5123 21.6809 17.0548 21.1625 16.7657 20.5493C16.4766 19.9361 16.3678 19.2533 16.4521 18.5806C16.5363 17.9079 16.81 17.273 17.2414 16.75M24.55 23.9C24.8063 23.8993 25.0602 23.9493 25.2971 24.047C25.5339 24.1448 25.7492 24.2884 25.9304 24.4696C26.1116 24.6508 26.2552 24.8661 26.353 25.103C26.4507 25.3399 26.5007 25.5937 26.5 25.85V26.5C26.5 29.0623 24.082 31.7 20 31.7C15.918 31.7 13.5 29.0623 13.5 26.5V25.85C13.4993 25.5937 13.5493 25.3399 13.647 25.103C13.7448 24.8661 13.8884 24.6508 14.0696 24.4696C14.2508 24.2884 14.4661 24.1448 14.703 24.047C14.9399 23.9493 15.1937 23.8993 15.45 23.9H24.55Z" fill="white"/>
<path d="M24.8735 19.025C24.8735 18.2034 24.6707 17.4286 24.3119 16.75H29.7498C30.267 16.75 30.763 16.9554 31.1287 17.3211C31.4944 17.6868 31.6998 18.1828 31.6998 18.7V19.35C31.6998 21.4131 30.132 23.5256 27.3903 24.2692C27.1086 23.7631 26.6967 23.3415 26.1972 23.048C25.6978 22.7545 25.1291 22.5998 24.5498 22.6H23.3148C23.8075 22.1441 24.2005 21.5911 24.469 20.9758C24.7375 20.3605 24.8757 19.6963 24.8748 19.025M8.2998 19.35C8.2998 21.4131 9.8676 23.5256 12.6093 24.2692C12.8911 23.7631 13.303 23.3415 13.8024 23.048C14.3018 22.7545 14.8705 22.5998 15.4498 22.6H16.6848C16.1921 22.1441 15.7991 21.5911 15.5306 20.9758C15.2621 20.3605 15.1239 19.6963 15.1248 19.025C15.1248 18.2034 15.3276 17.4286 15.6877 16.75H10.2498C9.73263 16.75 9.23664 16.9554 8.87095 17.3211C8.50525 17.6868 8.2998 18.1828 8.2998 18.7V19.35ZM18.3748 11.875C18.3748 10.9268 17.9982 10.0175 17.3277 9.34708C16.6573 8.67664 15.748 8.29999 14.7998 8.29999C13.8517 8.29999 12.9423 8.67664 12.2719 9.34708C11.6015 10.0175 11.2248 10.9268 11.2248 11.875C11.2248 12.8231 11.6015 13.7325 12.2719 14.4029C12.9423 15.0733 13.8517 15.45 14.7998 15.45C15.748 15.45 16.6573 15.0733 17.3277 14.4029C17.9982 13.7325 18.3748 12.8231 18.3748 11.875ZM28.7748 11.875C28.7748 10.9268 28.3982 10.0175 27.7277 9.34708C27.0573 8.67664 26.148 8.29999 25.1998 8.29999C24.2517 8.29999 23.3423 8.67664 22.6719 9.34708C22.0015 10.0175 21.6248 10.9268 21.6248 11.875C21.6248 12.8231 22.0015 13.7325 22.6719 14.4029C23.3423 15.0733 24.2517 15.45 25.1998 15.45C26.148 15.45 27.0573 15.0733 27.7277 14.4029C28.3982 13.7325 28.7748 12.8231 28.7748 11.875Z" fill="url(#paint2_linear_2363_1162)"/>
<defs>
<radialGradient id="paint0_radial_2363_1162" cx="0" cy="0" r="1" gradientUnits="userSpaceOnUse" gradientTransform="rotate(45) scale(56.5685)">
<stop stop-color="#FAFAFA"/>
<stop offset="1" stop-color="#F7F7F7" stop-opacity="0"/>
</radialGradient>
<linearGradient id="paint1_linear_2363_1162" x1="20" y1="0" x2="20" y2="40" gradientUnits="userSpaceOnUse">
<stop stop-color="white"/>
<stop offset="1" stop-color="white" stop-opacity="0"/>
</linearGradient>
<linearGradient id="paint2_linear_2363_1162" x1="10.1948" y1="7.7903" x2="29.4376" y2="17.3729" gradientUnits="userSpaceOnUse">
<stop stop-color="#0EB69D"/>
<stop offset="1" stop-color="#85E047"/>
</linearGradient>
</defs>
</svg>
