<svg width="40" height="40" viewBox="0 0 40 40" fill="none" xmlns="http://www.w3.org/2000/svg">
<rect x="0.5" y="0.5" width="39" height="39" rx="7.5" fill="url(#paint0_radial_2363_1146)" fill-opacity="0.2"/>
<rect x="0.5" y="0.5" width="39" height="39" rx="7.5" stroke="url(#paint1_linear_2363_1146)"/>
<path d="M15.7752 20C16.8957 20 17.9704 19.5549 18.7627 18.7625C19.5551 17.9702 20.0002 16.8955 20.0002 15.775C20.0002 14.6544 19.5551 13.5798 18.7627 12.7875C17.9704 11.9951 16.8957 11.55 15.7752 11.55C14.6547 11.55 13.58 11.9951 12.7877 12.7875C11.9953 13.5798 11.5502 14.6544 11.5502 15.775C11.5502 16.8955 11.9953 17.9702 12.7877 18.7625C13.58 19.5549 14.6547 20 15.7752 20ZM8.9502 23.9C8.9502 23.2104 9.22412 22.5491 9.71172 22.0615C10.1993 21.5739 10.8606 21.3 11.5502 21.3H20.0002C20.6898 21.3 21.3511 21.5739 21.8387 22.0615C22.3263 22.5491 22.6002 23.2104 22.6002 23.9C22.6002 23.9 22.6002 29.1 15.7752 29.1C8.9502 29.1 8.9502 23.9 8.9502 23.9Z" fill="white"/>
<path d="M25.8488 27.15C24.7334 27.15 23.8572 26.9706 23.1682 26.6885C23.5487 25.9656 23.7908 25.1775 23.8793 24.3654C23.8913 24.2566 23.8986 24.1473 23.9014 24.0378V23.575C23.9014 22.7105 23.5946 21.9188 23.0837 21.3H29.1001C29.617 21.3003 30.1127 21.5059 30.4781 21.8716C30.8435 22.2373 31.0488 22.7331 31.0488 23.25C31.0488 23.25 31.0488 27.15 25.8488 27.15Z" fill="url(#paint2_linear_2363_1146)"/>
<path d="M28.1482 19.0481C28.7577 18.4386 29.1001 17.612 29.1001 16.75C29.1001 15.888 28.7577 15.0614 28.1482 14.4519C27.5387 13.8424 26.7121 13.5 25.8501 13.5C24.9881 13.5 24.1615 13.8424 23.552 14.4519C22.9425 15.0614 22.6001 15.888 22.6001 16.75C22.6001 17.612 22.9425 18.4386 23.552 19.0481C24.1615 19.6576 24.9881 20 25.8501 20C26.7121 20 27.5387 19.6576 28.1482 19.0481Z" fill="url(#paint3_linear_2363_1146)"/>
<defs>
<radialGradient id="paint0_radial_2363_1146" cx="0" cy="0" r="1" gradientUnits="userSpaceOnUse" gradientTransform="rotate(45) scale(56.5685)">
<stop stop-color="#FAFAFA"/>
<stop offset="1" stop-color="#F7F7F7" stop-opacity="0"/>
</radialGradient>
<linearGradient id="paint1_linear_2363_1146" x1="20" y1="0" x2="20" y2="40" gradientUnits="userSpaceOnUse">
<stop stop-color="white"/>
<stop offset="1" stop-color="white" stop-opacity="0"/>
</linearGradient>
<linearGradient id="paint2_linear_2363_1146" x1="23.2843" y1="13.0643" x2="31.5876" y2="14.8109" gradientUnits="userSpaceOnUse">
<stop stop-color="#0EB69D"/>
<stop offset="1" stop-color="#85E047"/>
</linearGradient>
<linearGradient id="paint3_linear_2363_1146" x1="23.2843" y1="13.0643" x2="31.5876" y2="14.8109" gradientUnits="userSpaceOnUse">
<stop stop-color="#0EB69D"/>
<stop offset="1" stop-color="#85E047"/>
</linearGradient>
</defs>
</svg>
