<svg width="40" height="40" viewBox="0 0 40 40" fill="none" xmlns="http://www.w3.org/2000/svg">
<rect x="0.5" y="0.5" width="39" height="39" rx="7.5" fill="url(#paint0_radial_1461_786)" fill-opacity="0.2"/>
<rect x="0.5" y="0.5" width="39" height="39" rx="7.5" stroke="url(#paint1_linear_1461_786)"/>
<path d="M18.2226 12.1787L17.5533 11.7054C16.5981 11.0295 15.4567 10.6666 14.2866 10.6667H13.4706C12.9306 10.6667 12.3866 10.7001 11.8786 10.8801C8.70128 12.0081 6.51595 16.1267 6.67461 25.4707C6.70661 27.3534 7.14661 29.4334 8.84528 30.2454C9.42474 30.524 10.0597 30.668 10.7026 30.6667C11.4253 30.6786 12.1352 30.4758 12.7426 30.0841C13.2893 29.7267 13.7693 29.2627 14.2493 28.7987C14.8413 28.2254 15.4333 27.6521 16.1479 27.2814C16.9266 26.8776 17.7908 26.6668 18.6679 26.6667H21.3333C22.2106 26.6667 23.0746 26.8774 23.8533 27.2801C24.5679 27.6521 25.1599 28.2254 25.7533 28.7987C26.2333 29.2627 26.7133 29.7267 27.2573 30.0841C27.7773 30.4254 28.4506 30.6667 29.2986 30.6667C29.9416 30.668 30.5765 30.524 31.1559 30.2454C32.8546 29.4334 33.2946 27.3521 33.3266 25.4707C33.4853 16.1267 31.2999 12.0081 28.1226 10.8814C27.6133 10.7001 27.0666 10.6667 26.5293 10.6667H25.7133C24.543 10.6669 23.4016 11.0303 22.4466 11.7067L21.7773 12.1787C21.2576 12.5464 20.6366 12.7439 19.9999 12.7439C19.3633 12.7439 18.7423 12.5464 18.2226 12.1787Z" fill="url(#paint2_linear_1461_786)"/>
<path d="M26.3333 16C26.5985 16 26.8529 16.1054 27.0404 16.2929C27.228 16.4804 27.3333 16.7348 27.3333 17C27.3333 17.2652 27.228 17.5196 27.0404 17.7071C26.8529 17.8946 26.5985 18 26.3333 18C26.0681 18 25.8138 17.8946 25.6262 17.7071C25.4387 17.5196 25.3333 17.2652 25.3333 17C25.3333 16.7348 25.4387 16.4804 25.6262 16.2929C25.8138 16.1054 26.0681 16 26.3333 16ZM14 16.3333C14.2652 16.3333 14.5196 16.4387 14.7071 16.6262C14.8946 16.8138 15 17.0681 15 17.3333V18.3333H16C16.2652 18.3333 16.5196 18.4387 16.7071 18.6262C16.8946 18.8138 17 19.0681 17 19.3333C17 19.5985 16.8946 19.8529 16.7071 20.0404C16.5196 20.228 16.2652 20.3333 16 20.3333H15V21.3333C15 21.5985 14.8946 21.8529 14.7071 22.0404C14.5196 22.228 14.2652 22.3333 14 22.3333C13.7348 22.3333 13.4804 22.228 13.2929 22.0404C13.1054 21.8529 13 21.5985 13 21.3333V20.3333H12C11.7348 20.3333 11.4804 20.228 11.2929 20.0404C11.1054 19.8529 11 19.5985 11 19.3333C11 19.0681 11.1054 18.8138 11.2929 18.6262C11.4804 18.4387 11.7348 18.3333 12 18.3333H13V17.3333C13 17.0681 13.1054 16.8138 13.2929 16.6262C13.4804 16.4387 13.7348 16.3333 14 16.3333ZM29.3333 19C29.3333 19.2652 29.228 19.5196 29.0404 19.7071C28.8529 19.8946 28.5986 20 28.3333 20C28.0681 20 27.8138 19.8946 27.6262 19.7071C27.4387 19.5196 27.3333 19.2652 27.3333 19C27.3333 18.7348 27.4387 18.4804 27.6262 18.2929C27.8138 18.1054 28.0681 18 28.3333 18C28.5986 18 28.8529 18.1054 29.0404 18.2929C29.228 18.4804 29.3333 18.7348 29.3333 19ZM24.3333 20C24.5985 20 24.8529 19.8946 25.0404 19.7071C25.228 19.5196 25.3333 19.2652 25.3333 19C25.3333 18.7348 25.228 18.4804 25.0404 18.2929C24.8529 18.1054 24.5985 18 24.3333 18C24.0681 18 23.8138 18.1054 23.6262 18.2929C23.4387 18.4804 23.3333 18.7348 23.3333 19C23.3333 19.2652 23.4387 19.5196 23.6262 19.7071C23.8138 19.8946 24.0681 20 24.3333 20ZM27.3333 21C27.3333 20.7348 27.228 20.4804 27.0404 20.2929C26.8529 20.1054 26.5985 20 26.3333 20C26.0681 20 25.8138 20.1054 25.6262 20.2929C25.4387 20.4804 25.3333 20.7348 25.3333 21C25.3333 21.2652 25.4387 21.5196 25.6262 21.7071C25.8138 21.8946 26.0681 22 26.3333 22C26.5985 22 26.8529 21.8946 27.0404 21.7071C27.228 21.5196 27.3333 21.2652 27.3333 21Z" fill="white"/>
<defs>
<radialGradient id="paint0_radial_1461_786" cx="0" cy="0" r="1" gradientUnits="userSpaceOnUse" gradientTransform="rotate(45) scale(56.5685)">
<stop stop-color="#FAFAFA"/>
<stop offset="1" stop-color="#F7F7F7" stop-opacity="0"/>
</radialGradient>
<linearGradient id="paint1_linear_1461_786" x1="20" y1="0" x2="20" y2="40" gradientUnits="userSpaceOnUse">
<stop stop-color="white"/>
<stop offset="1" stop-color="white" stop-opacity="0"/>
</linearGradient>
<linearGradient id="paint2_linear_1461_786" x1="8.82616" y1="10.0284" x2="31.5325" y2="20.3177" gradientUnits="userSpaceOnUse">
<stop stop-color="#0EB69D"/>
<stop offset="1" stop-color="#85E047"/>
</linearGradient>
</defs>
</svg>
