<svg width="32" height="32" viewBox="0 0 32 32" fill="none" xmlns="http://www.w3.org/2000/svg">
<path fill-rule="evenodd" clip-rule="evenodd" d="M12.5119 1.70898C8.50532 2.67895 4.71674 5.75803 2.91792 9.50622C0.766833 13.9881 0.775751 17.9592 2.94677 22.5058C5.80526 28.4922 12.547 31.7572 19.2151 30.3844C23.0813 29.5883 27.3405 26.3012 29.0582 22.7878C29.9453 20.9732 30.6929 18.2611 30.6994 16.8345C30.7039 15.8469 30.4759 15.8003 27.9319 16.2685C25.128 16.7841 22.7503 18.098 20.5066 20.371C18.216 22.6918 17.2602 24.307 16.5552 27.0485C16.0429 29.0401 15.9983 29.0325 15.4934 26.8673C15.0021 24.7605 13.4152 22.0363 11.6463 20.2635C9.82257 18.4353 6.48198 16.6281 4.3991 16.3424C3.15529 16.1719 2.93077 15.7197 4.08985 15.7197C6.21628 15.7197 10.7702 13.026 12.6375 10.6637C14.5764 8.21075 15.9996 4.61704 16.0109 2.14596C16.0146 1.33127 15.9713 1.29455 15.0312 1.31527C14.4904 1.32734 13.3565 1.50439 12.5119 1.70898ZM26.1132 2.97272C23.2951 3.86636 20.9916 5.56681 19.4283 7.90754C18.2963 9.60301 17.3263 12.3293 17.3263 13.816V14.7424L18.989 14.6089C22.1048 14.3587 25.6796 12.0862 27.5558 9.16262C28.5483 7.6156 29.3919 5.07422 29.3919 3.63081V2.60498L28.2771 2.62255C27.6639 2.63226 26.6902 2.7899 26.1132 2.97272Z" fill="white"/>
</svg>
