<svg width="32" height="32" viewBox="0 0 32 32" fill="none" xmlns="http://www.w3.org/2000/svg">
<path fill-rule="evenodd" clip-rule="evenodd" d="M12.5118 1.70896C8.50528 2.67893 4.71669 5.75801 2.91787 9.50621C0.766787 13.988 0.775705 17.9592 2.94672 22.5058C5.80521 28.4922 12.547 31.7572 19.215 30.3844C23.0813 29.5883 27.3404 26.3012 29.0582 22.7878C29.9453 20.9732 30.6928 18.2611 30.6994 16.8345C30.7038 15.8469 30.4759 15.8002 27.9319 16.2684C25.128 16.7841 22.7503 18.0979 20.5066 20.371C18.216 22.6918 17.2602 24.307 16.5551 27.0485C16.0429 29.0401 15.9983 29.0325 15.4933 26.8673C15.0021 24.7605 13.4152 22.0363 11.6463 20.2635C9.82253 18.4353 6.48194 16.628 4.39905 16.3424C3.15525 16.1719 2.93072 15.7197 4.0898 15.7197C6.21623 15.7197 10.7702 13.0259 12.6375 10.6637C14.5764 8.21073 15.9996 4.61703 16.0109 2.14595C16.0145 1.33126 15.9712 1.29454 15.0312 1.31526C14.4903 1.32732 13.3564 1.50437 12.5118 1.70896ZM26.1131 2.9727C23.295 3.86634 20.9916 5.5668 19.4283 7.90752C18.2962 9.603 17.3263 12.3293 17.3263 13.816V14.7424L18.989 14.6089C22.1048 14.3587 25.6796 12.0861 27.5558 9.1626C28.5483 7.61559 29.3918 5.07421 29.3918 3.6308V2.60496L28.2771 2.62254C27.6638 2.63224 26.6902 2.78988 26.1131 2.9727Z" fill="#40AEF4"/>
</svg>
