<svg width="16" height="16" viewBox="0 0 16 16" fill="none" xmlns="http://www.w3.org/2000/svg">
<g filter="url(#filter0_iii_281_586)">
<path d="M7.01758 1.7761L9.14958 5.4181L6.14158 6.2731C4.06408 5.5866 2.84058 4.2651 2.10258 2.9071C1.79158 2.3341 1.79408 1.2821 3.03058 1.2821H6.15458C6.32907 1.28207 6.50053 1.3277 6.65192 1.41445C6.80332 1.5012 6.92938 1.62555 7.01758 1.7761Z" fill="#4686EC"/>
<path d="M7.01758 1.7761L9.14958 5.4181L6.14158 6.2731C4.06408 5.5866 2.84058 4.2651 2.10258 2.9071C1.79158 2.3341 1.79408 1.2821 3.03058 1.2821H6.15458C6.32907 1.28207 6.50053 1.3277 6.65192 1.41445C6.80332 1.5012 6.92938 1.62555 7.01758 1.7761Z" fill="url(#paint0_radial_281_586)"/>
<path d="M7.01758 1.7761L9.14958 5.4181L6.14158 6.2731C4.06408 5.5866 2.84058 4.2651 2.10258 2.9071C1.79158 2.3341 1.79408 1.2821 3.03058 1.2821H6.15458C6.32907 1.28207 6.50053 1.3277 6.65192 1.41445C6.80332 1.5012 6.92938 1.62555 7.01758 1.7761Z" fill="url(#paint1_linear_281_586)"/>
</g>
<g filter="url(#filter1_iii_281_586)">
<path d="M8.90617 1.77599L6.77417 5.41799L9.78217 6.27299C11.8597 5.58599 13.0832 4.26449 13.8212 2.90649C14.1322 2.33349 14.1297 1.28149 12.8932 1.28149H9.76917C9.59468 1.28146 9.42322 1.32709 9.27183 1.41384C9.12043 1.50059 8.99437 1.62544 8.90617 1.77599Z" fill="#4686EC"/>
<path d="M8.90617 1.77599L6.77417 5.41799L9.78217 6.27299C11.8597 5.58599 13.0832 4.26449 13.8212 2.90649C14.1322 2.33349 14.1297 1.28149 12.8932 1.28149H9.76917C9.59468 1.28146 9.42322 1.32709 9.27183 1.41384C9.12043 1.50059 8.99437 1.62544 8.90617 1.77599Z" fill="url(#paint2_radial_281_586)"/>
<path d="M8.90617 1.77599L6.77417 5.41799L9.78217 6.27299C11.8597 5.58599 13.0832 4.26449 13.8212 2.90649C14.1322 2.33349 14.1297 1.28149 12.8932 1.28149H9.76917C9.59468 1.28146 9.42322 1.32709 9.27183 1.41384C9.12043 1.50059 8.99437 1.62544 8.90617 1.77599Z" fill="url(#paint3_linear_281_586)"/>
</g>
<path d="M8.90617 1.77599L6.77417 5.41799L9.78217 6.27299C11.8597 5.58599 13.0832 4.26449 13.8212 2.90649C14.1322 2.33349 14.1297 1.28149 12.8932 1.28149H9.76917C9.59468 1.28146 9.42322 1.32709 9.27183 1.41384C9.12043 1.50059 8.99437 1.62544 8.90617 1.77599Z" fill="url(#paint4_linear_281_586)"/>
<path d="M8.02351 15.09C10.7982 15.09 13.0475 12.8407 13.0475 10.066C13.0475 7.29131 10.7982 5.04199 8.02351 5.04199C5.24883 5.04199 2.99951 7.29131 2.99951 10.066C2.99951 12.8407 5.24883 15.09 8.02351 15.09Z" fill="url(#paint5_linear_281_586)"/>
<path d="M8.02351 15.09C10.7982 15.09 13.0475 12.8407 13.0475 10.066C13.0475 7.29131 10.7982 5.04199 8.02351 5.04199C5.24883 5.04199 2.99951 7.29131 2.99951 10.066C2.99951 12.8407 5.24883 15.09 8.02351 15.09Z" fill="url(#paint6_linear_281_586)"/>
<path d="M8.02369 14.41C10.4228 14.41 12.3677 12.4652 12.3677 10.066C12.3677 7.66692 10.4228 5.72205 8.02369 5.72205C5.62456 5.72205 3.67969 7.66692 3.67969 10.066C3.67969 12.4652 5.62456 14.41 8.02369 14.41Z" fill="url(#paint7_linear_281_586)"/>
<path d="M8.0237 13.8584C10.1182 13.8584 11.8162 12.1605 11.8162 10.0659C11.8162 7.9714 10.1182 6.27344 8.0237 6.27344C5.92916 6.27344 4.2312 7.9714 4.2312 10.0659C4.2312 12.1605 5.92916 13.8584 8.0237 13.8584Z" fill="url(#paint8_linear_281_586)"/>
<path d="M8.0237 13.8584C10.1182 13.8584 11.8162 12.1605 11.8162 10.0659C11.8162 7.9714 10.1182 6.27344 8.0237 6.27344C5.92916 6.27344 4.2312 7.9714 4.2312 10.0659C4.2312 12.1605 5.92916 13.8584 8.0237 13.8584Z" fill="url(#paint9_radial_281_586)"/>
<path d="M8.0237 13.8584C10.1182 13.8584 11.8162 12.1605 11.8162 10.0659C11.8162 7.9714 10.1182 6.27344 8.0237 6.27344C5.92916 6.27344 4.2312 7.9714 4.2312 10.0659C4.2312 12.1605 5.92916 13.8584 8.0237 13.8584Z" fill="url(#paint10_radial_281_586)"/>
<g filter="url(#filter2_ii_281_586)">
<path d="M8.61004 8.4C8.61004 8.29391 8.5679 8.19217 8.49288 8.11716C8.41787 8.04214 8.31613 8 8.21004 8H7.24004C7.187 8 7.13612 8.02107 7.09862 8.05858C7.06111 8.09609 7.04004 8.14696 7.04004 8.2V8.7885C7.04004 8.8985 7.12904 8.9885 7.24004 8.9885H7.46154C7.49469 8.9885 7.52649 9.00167 7.54993 9.02511C7.57337 9.04855 7.58654 9.08035 7.58654 9.1135V12C7.58654 12.0663 7.61288 12.1299 7.65976 12.1768C7.70665 12.2237 7.77024 12.25 7.83654 12.25H8.36004C8.42634 12.25 8.48993 12.2237 8.53682 12.1768C8.5837 12.1299 8.61004 12.0663 8.61004 12V8.4Z" fill="#6F3955"/>
</g>
<path d="M8.61004 8.4C8.61004 8.29391 8.5679 8.19217 8.49288 8.11716C8.41787 8.04214 8.31613 8 8.21004 8H7.24004C7.187 8 7.13612 8.02107 7.09862 8.05858C7.06111 8.09609 7.04004 8.14696 7.04004 8.2V8.7885C7.04004 8.8985 7.12904 8.9885 7.24004 8.9885H7.46154C7.49469 8.9885 7.52649 9.00167 7.54993 9.02511C7.57337 9.04855 7.58654 9.08035 7.58654 9.1135V12C7.58654 12.0663 7.61288 12.1299 7.65976 12.1768C7.70665 12.2237 7.77024 12.25 7.83654 12.25H8.36004C8.42634 12.25 8.48993 12.2237 8.53682 12.1768C8.5837 12.1299 8.61004 12.0663 8.61004 12V8.4Z" fill="url(#paint11_linear_281_586)"/>
<defs>
<filter id="filter0_iii_281_586" x="1.68018" y="1.0821" width="7.66948" height="5.44097" filterUnits="userSpaceOnUse" color-interpolation-filters="sRGB">
<feFlood flood-opacity="0" result="BackgroundImageFix"/>
<feBlend mode="normal" in="SourceGraphic" in2="BackgroundImageFix" result="shape"/>
<feColorMatrix in="SourceAlpha" type="matrix" values="0 0 0 0 0 0 0 0 0 0 0 0 0 0 0 0 0 0 127 0" result="hardAlpha"/>
<feOffset dx="-0.2" dy="-0.2"/>
<feGaussianBlur stdDeviation="0.2"/>
<feComposite in2="hardAlpha" operator="arithmetic" k2="-1" k3="1"/>
<feColorMatrix type="matrix" values="0 0 0 0 0.317647 0 0 0 0 0.458824 0 0 0 0 0.886275 0 0 0 1 0"/>
<feBlend mode="normal" in2="shape" result="effect1_innerShadow_281_586"/>
<feColorMatrix in="SourceAlpha" type="matrix" values="0 0 0 0 0 0 0 0 0 0 0 0 0 0 0 0 0 0 127 0" result="hardAlpha"/>
<feOffset dx="0.2" dy="0.2"/>
<feGaussianBlur stdDeviation="0.2"/>
<feComposite in2="hardAlpha" operator="arithmetic" k2="-1" k3="1"/>
<feColorMatrix type="matrix" values="0 0 0 0 0.317647 0 0 0 0 0.458824 0 0 0 0 0.886275 0 0 0 1 0"/>
<feBlend mode="normal" in2="effect1_innerShadow_281_586" result="effect2_innerShadow_281_586"/>
<feColorMatrix in="SourceAlpha" type="matrix" values="0 0 0 0 0 0 0 0 0 0 0 0 0 0 0 0 0 0 127 0" result="hardAlpha"/>
<feOffset dx="-0.25" dy="0.25"/>
<feGaussianBlur stdDeviation="0.25"/>
<feComposite in2="hardAlpha" operator="arithmetic" k2="-1" k3="1"/>
<feColorMatrix type="matrix" values="0 0 0 0 0.372549 0 0 0 0 0.607843 0 0 0 0 0.960784 0 0 0 1 0"/>
<feBlend mode="normal" in2="effect2_innerShadow_281_586" result="effect3_innerShadow_281_586"/>
</filter>
<filter id="filter1_iii_281_586" x="6.52417" y="1.08149" width="7.66948" height="5.44146" filterUnits="userSpaceOnUse" color-interpolation-filters="sRGB">
<feFlood flood-opacity="0" result="BackgroundImageFix"/>
<feBlend mode="normal" in="SourceGraphic" in2="BackgroundImageFix" result="shape"/>
<feColorMatrix in="SourceAlpha" type="matrix" values="0 0 0 0 0 0 0 0 0 0 0 0 0 0 0 0 0 0 127 0" result="hardAlpha"/>
<feOffset dx="-0.2" dy="-0.2"/>
<feGaussianBlur stdDeviation="0.2"/>
<feComposite in2="hardAlpha" operator="arithmetic" k2="-1" k3="1"/>
<feColorMatrix type="matrix" values="0 0 0 0 0.317647 0 0 0 0 0.458824 0 0 0 0 0.886275 0 0 0 1 0"/>
<feBlend mode="normal" in2="shape" result="effect1_innerShadow_281_586"/>
<feColorMatrix in="SourceAlpha" type="matrix" values="0 0 0 0 0 0 0 0 0 0 0 0 0 0 0 0 0 0 127 0" result="hardAlpha"/>
<feOffset dx="0.2" dy="0.2"/>
<feGaussianBlur stdDeviation="0.2"/>
<feComposite in2="hardAlpha" operator="arithmetic" k2="-1" k3="1"/>
<feColorMatrix type="matrix" values="0 0 0 0 0.317647 0 0 0 0 0.458824 0 0 0 0 0.886275 0 0 0 1 0"/>
<feBlend mode="normal" in2="effect1_innerShadow_281_586" result="effect2_innerShadow_281_586"/>
<feColorMatrix in="SourceAlpha" type="matrix" values="0 0 0 0 0 0 0 0 0 0 0 0 0 0 0 0 0 0 127 0" result="hardAlpha"/>
<feOffset dx="-0.25" dy="0.25"/>
<feGaussianBlur stdDeviation="0.25"/>
<feComposite in2="hardAlpha" operator="arithmetic" k2="-1" k3="1"/>
<feColorMatrix type="matrix" values="0 0 0 0 0.372549 0 0 0 0 0.607843 0 0 0 0 0.960784 0 0 0 1 0"/>
<feBlend mode="normal" in2="effect2_innerShadow_281_586" result="effect3_innerShadow_281_586"/>
</filter>
<filter id="filter2_ii_281_586" x="6.74004" y="7.8" width="2.07007" height="4.75" filterUnits="userSpaceOnUse" color-interpolation-filters="sRGB">
<feFlood flood-opacity="0" result="BackgroundImageFix"/>
<feBlend mode="normal" in="SourceGraphic" in2="BackgroundImageFix" result="shape"/>
<feColorMatrix in="SourceAlpha" type="matrix" values="0 0 0 0 0 0 0 0 0 0 0 0 0 0 0 0 0 0 127 0" result="hardAlpha"/>
<feOffset dx="-0.3" dy="0.3"/>
<feGaussianBlur stdDeviation="0.3"/>
<feComposite in2="hardAlpha" operator="arithmetic" k2="-1" k3="1"/>
<feColorMatrix type="matrix" values="0 0 0 0 0.392157 0 0 0 0 0.164706 0 0 0 0 0.254902 0 0 0 1 0"/>
<feBlend mode="normal" in2="shape" result="effect1_innerShadow_281_586"/>
<feColorMatrix in="SourceAlpha" type="matrix" values="0 0 0 0 0 0 0 0 0 0 0 0 0 0 0 0 0 0 127 0" result="hardAlpha"/>
<feOffset dx="0.2" dy="-0.2"/>
<feGaussianBlur stdDeviation="0.2"/>
<feComposite in2="hardAlpha" operator="arithmetic" k2="-1" k3="1"/>
<feColorMatrix type="matrix" values="0 0 0 0 0.501961 0 0 0 0 0.333333 0 0 0 0 0.360784 0 0 0 1 0"/>
<feBlend mode="normal" in2="effect1_innerShadow_281_586" result="effect2_innerShadow_281_586"/>
</filter>
<radialGradient id="paint0_radial_281_586" cx="0" cy="0" r="1" gradientUnits="userSpaceOnUse" gradientTransform="translate(6.55189 5.92072) rotate(-123.321) scale(2.30176 8.59615)">
<stop stop-color="#3669D9"/>
<stop offset="1" stop-color="#3669D9" stop-opacity="0"/>
</radialGradient>
<linearGradient id="paint1_linear_281_586" x1="3.29108" y1="1.0116" x2="4.18858" y2="3.2466" gradientUnits="userSpaceOnUse">
<stop stop-color="#3D89EC"/>
<stop offset="1" stop-color="#3D89EC" stop-opacity="0"/>
</linearGradient>
<radialGradient id="paint2_radial_281_586" cx="0" cy="0" r="1" gradientUnits="userSpaceOnUse" gradientTransform="translate(9.37199 5.92096) rotate(-57.265) scale(1.52435 3.34366)">
<stop stop-color="#3669D9"/>
<stop offset="1" stop-color="#3669D9" stop-opacity="0"/>
</radialGradient>
<linearGradient id="paint3_linear_281_586" x1="12.6327" y1="1.01149" x2="11.7352" y2="3.24649" gradientUnits="userSpaceOnUse">
<stop stop-color="#3D89EC"/>
<stop offset="1" stop-color="#3D89EC" stop-opacity="0"/>
</linearGradient>
<linearGradient id="paint4_linear_281_586" x1="7.87467" y1="3.53149" x2="8.04317" y2="3.62499" gradientUnits="userSpaceOnUse">
<stop stop-color="#1A6DD8"/>
<stop offset="1" stop-color="#1A6DD8" stop-opacity="0"/>
</linearGradient>
<linearGradient id="paint5_linear_281_586" x1="10.709" y1="8.28499" x2="7.20651" y2="11.717" gradientUnits="userSpaceOnUse">
<stop stop-color="#F4C654"/>
<stop offset="1" stop-color="#DC9729"/>
</linearGradient>
<linearGradient id="paint6_linear_281_586" x1="6.26801" y1="15.334" x2="7.40101" y2="8.76349" gradientUnits="userSpaceOnUse">
<stop stop-color="#FA8547"/>
<stop offset="1" stop-color="#FA8547" stop-opacity="0"/>
</linearGradient>
<linearGradient id="paint7_linear_281_586" x1="11.9817" y1="9.30655" x2="8.02369" y2="9.30655" gradientUnits="userSpaceOnUse">
<stop stop-color="#F9A842"/>
<stop offset="1" stop-color="#FAA742"/>
</linearGradient>
<linearGradient id="paint8_linear_281_586" x1="6.2707" y1="9.58494" x2="11.9277" y2="9.58494" gradientUnits="userSpaceOnUse">
<stop stop-color="#FAA945"/>
<stop offset="1" stop-color="#EC9936"/>
</linearGradient>
<radialGradient id="paint9_radial_281_586" cx="0" cy="0" r="1" gradientUnits="userSpaceOnUse" gradientTransform="translate(9.4942 10.0659) rotate(180) scale(5.26285 4.48452)">
<stop offset="0.893" stop-color="#F7B44D" stop-opacity="0"/>
<stop offset="1" stop-color="#F7B44D"/>
</radialGradient>
<radialGradient id="paint10_radial_281_586" cx="0" cy="0" r="1" gradientUnits="userSpaceOnUse" gradientTransform="translate(7.0392 10.0659) scale(5.064 4.44068)">
<stop offset="0.879" stop-color="#D2801F" stop-opacity="0"/>
<stop offset="0.983" stop-color="#D2801F"/>
</radialGradient>
<linearGradient id="paint11_linear_281_586" x1="8.21154" y1="12.25" x2="8.21154" y2="11.8415" gradientUnits="userSpaceOnUse">
<stop stop-color="#693B2E"/>
<stop offset="1" stop-color="#693B2E" stop-opacity="0"/>
</linearGradient>
</defs>
</svg>
