<svg width="20" height="20" viewBox="0 0 20 20" fill="none" xmlns="http://www.w3.org/2000/svg">
<path fill-rule="evenodd" clip-rule="evenodd" d="M4.23254 4.22417C7.39504 1.06584 12.5367 1.09917 15.7184 4.28167C18.9017 7.465 18.935 12.6092 15.7717 15.7717C12.6084 18.9342 7.46504 18.9017 4.28171 15.7183C3.38618 14.8267 2.70957 13.7396 2.305 12.5423C1.90043 11.3451 1.77893 10.0704 1.95004 8.81834C1.97247 8.65401 2.05926 8.50533 2.19132 8.405C2.32338 8.30467 2.48988 8.2609 2.65421 8.28334C2.81853 8.30577 2.96721 8.39256 3.06754 8.52462C3.16788 8.65667 3.21164 8.82318 3.18921 8.9875C3.04394 10.0486 3.14677 11.1289 3.48961 12.1436C3.83245 13.1582 4.40595 14.0795 5.16504 14.835C7.86921 17.5383 12.2217 17.5542 14.8884 14.8883C17.5542 12.2217 17.5384 7.86917 14.835 5.165C12.1325 2.46334 7.78254 2.44584 5.11587 5.10834L5.73921 5.11084C5.82128 5.11122 5.90248 5.12776 5.97816 5.15953C6.05384 5.19129 6.12253 5.23765 6.18029 5.29596C6.23806 5.35426 6.28377 5.42338 6.31483 5.49935C6.34589 5.57533 6.36167 5.65668 6.36129 5.73875C6.36091 5.82083 6.34436 5.90203 6.3126 5.97771C6.28083 6.05339 6.23448 6.12207 6.17617 6.17984C6.11786 6.23761 6.04875 6.28332 5.97277 6.31438C5.8968 6.34543 5.81545 6.36122 5.73337 6.36084L3.61171 6.35084C3.44696 6.34996 3.28922 6.28407 3.1728 6.16749C3.05638 6.05091 2.9907 5.89309 2.99004 5.72834L2.97921 3.60834C2.97877 3.52626 2.9945 3.4449 3.02551 3.36891C3.05651 3.29291 3.10218 3.22376 3.15991 3.16542C3.21763 3.10707 3.28629 3.06067 3.36195 3.02885C3.43761 2.99704 3.5188 2.98044 3.60087 2.98C3.68295 2.97956 3.76431 2.9953 3.8403 3.0263C3.9163 3.05731 3.98544 3.10298 4.04379 3.1607C4.10214 3.21843 4.14854 3.28708 4.18035 3.36275C4.21217 3.43841 4.22877 3.51959 4.22921 3.60167L4.23254 4.22417ZM9.99921 6.04084C10.165 6.04084 10.3239 6.10668 10.4411 6.22389C10.5584 6.3411 10.6242 6.50008 10.6242 6.66584V9.74084L12.525 11.6408C12.5848 11.6985 12.6324 11.7674 12.6652 11.8436C12.698 11.9199 12.7153 12.0019 12.716 12.0849C12.7168 12.1679 12.701 12.2502 12.6696 12.327C12.6382 12.4038 12.5919 12.4736 12.5332 12.5323C12.4745 12.591 12.4048 12.6375 12.328 12.6689C12.2512 12.7004 12.1689 12.7163 12.0859 12.7156C12.0029 12.7149 11.9209 12.6977 11.8446 12.665C11.7684 12.6322 11.6994 12.5847 11.6417 12.525L9.37504 10.2583V6.66667C9.37504 6.50091 9.44089 6.34194 9.5581 6.22473C9.67531 6.10752 9.83428 6.04167 10 6.04167" fill="white"/>
</svg>
