<svg width="17" height="17" viewBox="0 0 17 17" fill="none" xmlns="http://www.w3.org/2000/svg">
<path d="M13.4583 12.0417V13.4583H4.95833V12.0417C4.95833 12.0417 4.95833 9.20832 9.20833 9.20832C13.4583 9.20832 13.4583 12.0417 13.4583 12.0417ZM11.3333 5.66666C11.3333 5.24637 11.2087 4.83552 10.9752 4.48607C10.7417 4.13662 10.4098 3.86425 10.0215 3.70341C9.63324 3.54258 9.20598 3.5005 8.79377 3.58249C8.38156 3.66448 8.00292 3.86687 7.70573 4.16406C7.40854 4.46124 7.20616 4.83988 7.12416 5.25209C7.04217 5.6643 7.08425 6.09157 7.24509 6.47986C7.40593 6.86815 7.67829 7.20003 8.02775 7.43353C8.3772 7.66703 8.78805 7.79166 9.20833 7.79166C9.77192 7.79166 10.3124 7.56777 10.7109 7.16926C11.1095 6.77074 11.3333 6.23024 11.3333 5.66666ZM13.6 9.25082C13.9872 9.60804 14.2994 10.0388 14.5183 10.518C14.7372 10.9971 14.8584 11.5151 14.875 12.0417V13.4583H17V12.0417C17 12.0417 17 9.59791 13.6 9.25082ZM12.75 3.54166C12.536 3.54167 12.3233 3.57513 12.1196 3.64082C12.534 4.23509 12.7562 4.94216 12.7562 5.66666C12.7562 6.39115 12.534 7.09822 12.1196 7.69249C12.3233 7.75818 12.536 7.79164 12.75 7.79166C13.3136 7.79166 13.8541 7.56777 14.2526 7.16926C14.6511 6.77074 14.875 6.23024 14.875 5.66666C14.875 5.10307 14.6511 4.56257 14.2526 4.16406C13.8541 3.76554 13.3136 3.54166 12.75 3.54166ZM5.66667 7.08332H3.54167V4.95832H2.125V7.08332H0V8.49999H2.125V10.625H3.54167V8.49999H5.66667V7.08332Z" fill="#808080"/>
</svg>
