<svg width="24" height="24" viewBox="0 0 24 24" fill="none" xmlns="http://www.w3.org/2000/svg">
<path d="M20.1524 9.3675L12.6524 22.8675C12.5174 23.1075 12.2699 23.25 11.9999 23.25C11.9399 23.25 11.8724 23.2425 11.8124 23.2275C11.4824 23.1375 11.2499 22.845 11.2499 22.5V14.25H4.49993C4.24493 14.25 4.01243 14.1225 3.86993 13.9125C3.73493 13.7025 3.71243 13.4325 3.80993 13.2L9.05993 1.2C9.17993 0.93 9.44993 0.75 9.74993 0.75H14.2499C14.4974 0.75 14.7299 0.87 14.8724 1.08C15.0074 1.2825 15.0374 1.545 14.9474 1.7775L12.3599 8.25H19.4999C19.7624 8.25 20.0099 8.3925 20.1449 8.6175C20.2799 8.85 20.2874 9.135 20.1524 9.3675Z" fill="#494949"/>
</svg>
