<svg width="20" height="20" viewBox="0 0 20 20" fill="none" xmlns="http://www.w3.org/2000/svg">
<path fill-rule="evenodd" clip-rule="evenodd" d="M11.7412 2.45532C11.7411 2.3315 11.7014 2.21095 11.628 2.11129C11.5545 2.01163 11.4511 1.93807 11.3328 1.90138C11.2146 1.86468 11.0877 1.86677 10.9707 1.90733C10.8537 1.9479 10.7528 2.02481 10.6826 2.12684L4.29869 11.4126C4.23886 11.4997 4.20397 11.6015 4.19777 11.707C4.19158 11.8125 4.21432 11.9177 4.26354 12.0113C4.31276 12.1048 4.38658 12.1831 4.47705 12.2378C4.56752 12.2924 4.6712 12.3214 4.7769 12.3214H8.25904V17.5446C8.25912 17.6684 8.29879 17.789 8.37226 17.8886C8.44573 17.9883 8.54915 18.0619 8.6674 18.0985C8.78566 18.1352 8.91255 18.1332 9.02953 18.0926C9.14652 18.052 9.24746 17.9751 9.31761 17.8731L15.7015 8.58737C15.7614 8.50024 15.7963 8.39842 15.8025 8.2929C15.8086 8.18739 15.7859 8.08218 15.7367 7.98865C15.6875 7.89511 15.6136 7.81679 15.5232 7.76214C15.4327 7.70748 15.329 7.67858 15.2233 7.67853H11.7412V2.45532Z" fill="#151515"/>
</svg>
