<svg width="20" height="20" viewBox="0 0 20 20" fill="none" xmlns="http://www.w3.org/2000/svg">
<path d="M18.75 6.89303C18.7186 7.98104 18.2712 9.0156 17.5 9.78365L14.7851 12.5001C14.3897 12.8976 13.9194 13.2128 13.4013 13.4274C12.8833 13.6419 12.3279 13.7516 11.7671 13.7501H11.7632C11.193 13.7497 10.6285 13.635 10.1033 13.4128C9.5781 13.1906 9.10274 12.8654 8.70532 12.4564C8.3079 12.0474 7.99648 11.5629 7.78945 11.0315C7.58242 10.5001 7.48399 9.93262 7.49996 9.36256C7.50462 9.1968 7.57494 9.03968 7.69545 8.92576C7.81595 8.81185 7.97678 8.75047 8.14254 8.75514C8.3083 8.7598 8.46542 8.83012 8.57933 8.95062C8.69324 9.07113 8.75462 9.23195 8.74996 9.39771C8.73858 9.80078 8.8081 10.202 8.95443 10.5778C9.10076 10.9535 9.32092 11.2961 9.6019 11.5853C9.88288 11.8745 10.219 12.1045 10.5903 12.2616C10.9617 12.4187 11.3608 12.4998 11.764 12.5001C12.1604 12.501 12.553 12.4234 12.9192 12.2718C13.2855 12.1201 13.618 11.8974 13.8976 11.6165L16.6125 8.90162C17.1726 8.33444 17.4856 7.56869 17.4831 6.77155C17.4806 5.97441 17.1628 5.21063 16.5991 4.64696C16.0355 4.0833 15.2717 3.76553 14.4746 3.76304C13.6774 3.76054 12.9117 4.07352 12.3445 4.63365L11.4851 5.49303C11.367 5.60529 11.2096 5.66695 11.0466 5.66486C10.8837 5.66278 10.7279 5.59711 10.6127 5.48186C10.4974 5.36661 10.4318 5.21089 10.4297 5.04792C10.4276 4.88494 10.4893 4.7276 10.6015 4.60943L11.4609 3.75006C11.8574 3.35344 12.3281 3.03882 12.8462 2.82416C13.3643 2.60951 13.9196 2.49902 14.4804 2.49902C15.0412 2.49902 15.5965 2.60951 16.1146 2.82416C16.6327 3.03882 17.1035 3.35344 17.5 3.75006C17.9106 4.16174 18.2332 4.65269 18.4481 5.19302C18.663 5.73334 18.7657 6.31175 18.75 6.89303ZM8.51558 14.5047L7.65621 15.3641C7.37594 15.6463 7.04236 15.87 6.67486 16.0221C6.30737 16.1742 5.9133 16.2517 5.51558 16.2501C4.91894 16.2496 4.33583 16.0723 3.83993 15.7405C3.34403 15.4088 2.95758 14.9375 2.72942 14.3862C2.50126 13.8349 2.44163 13.2283 2.55806 12.6432C2.67449 12.058 2.96175 11.5205 3.38355 11.0985L6.09371 8.38365C6.52057 7.95453 7.0666 7.66368 7.66089 7.54887C8.25517 7.43407 8.87025 7.5006 9.42623 7.73984C9.98222 7.97909 10.4534 8.37998 10.7786 8.89045C11.1039 9.40093 11.2681 9.9974 11.25 10.6024C11.2453 10.7682 11.3067 10.929 11.4206 11.0495C11.5345 11.17 11.6916 11.2403 11.8574 11.245C12.0231 11.2496 12.184 11.1883 12.3045 11.0743C12.425 10.9604 12.4953 10.8033 12.5 10.6376C12.515 10.0572 12.4119 9.47982 12.197 8.94049C11.9822 8.40116 11.6599 7.9111 11.25 7.50006C10.4493 6.69977 9.36363 6.2502 8.2316 6.2502C7.09957 6.2502 6.01388 6.69977 5.21324 7.50006L2.49996 10.2149C1.90326 10.8114 1.49677 11.5713 1.33184 12.3987C1.16691 13.2261 1.25096 14.0838 1.57336 14.8635C1.89575 15.6431 2.44203 16.3097 3.14315 16.779C3.84428 17.2483 4.66878 17.4992 5.51246 17.5001C6.07329 17.5017 6.62888 17.392 7.14705 17.1775C7.66523 16.9629 8.13569 16.6477 8.53121 16.2501L9.39058 15.3907C9.49173 15.2715 9.54457 15.1188 9.53869 14.9627C9.53281 14.8065 9.46863 14.6582 9.35881 14.547C9.24899 14.4358 9.10149 14.3698 8.94541 14.362C8.78932 14.3541 8.63597 14.4051 8.51558 14.5047Z" fill="#151515"/>
</svg>
