<svg width="12" height="12" viewBox="0 0 12 12" fill="none" xmlns="http://www.w3.org/2000/svg">
<path fill-rule="evenodd" clip-rule="evenodd" d="M3.79608 2.06757C3.42507 2.52815 3.29995 3.19044 3.29995 4V5C3.29995 5.16568 3.16564 5.3 2.99995 5.3C2.83427 5.3 2.69995 5.16568 2.69995 5V4C2.69995 3.15455 2.82483 2.31685 3.32882 1.69118C3.8441 1.05149 4.69861 0.699997 5.99995 0.699997C7.3013 0.699997 8.1558 1.05149 8.67108 1.69118C9.17507 2.31685 9.29995 3.15455 9.29995 4V5C9.29995 5.16568 9.16564 5.3 8.99995 5.3C8.83427 5.3 8.69995 5.16568 8.69995 5V4C8.69995 3.19044 8.57483 2.52815 8.20382 2.06757C7.8441 1.621 7.19861 1.3 5.99995 1.3C4.8013 1.3 4.1558 1.621 3.79608 2.06757Z" fill="#818181"/>
<path fill-rule="evenodd" clip-rule="evenodd" d="M5.99995 7.05C5.47528 7.05 5.04995 7.47533 5.04995 8C5.04995 8.52467 5.47528 8.95 5.99995 8.95C6.52462 8.95 6.94995 8.52467 6.94995 8C6.94995 7.47533 6.52462 7.05 5.99995 7.05ZM4.44995 8C4.44995 7.14396 5.14391 6.45 5.99995 6.45C6.85599 6.45 7.54995 7.14396 7.54995 8C7.54995 8.85604 6.85599 9.55 5.99995 9.55C5.14391 9.55 4.44995 8.85604 4.44995 8Z" fill="#818181"/>
<path fill-rule="evenodd" clip-rule="evenodd" d="M1.71208 5.71213C1.43249 5.99173 1.29995 6.49785 1.29995 7.5V8.5C1.29995 9.50214 1.43249 10.0083 1.71208 10.2879C1.99168 10.5675 2.49781 10.7 3.49995 10.7H8.49995C9.5021 10.7 10.0082 10.5675 10.2878 10.2879C10.5674 10.0083 10.7 9.50214 10.7 8.5V7.5C10.7 6.49785 10.5674 5.99173 10.2878 5.71213C10.0082 5.43253 9.5021 5.3 8.49995 5.3H3.49995C2.49781 5.3 1.99168 5.43253 1.71208 5.71213ZM1.28782 5.28786C1.75822 4.81746 2.5021 4.7 3.49995 4.7H8.49995C9.49781 4.7 10.2417 4.81746 10.7121 5.28786C11.1825 5.75827 11.3 6.50214 11.3 7.5V8.5C11.3 9.49785 11.1825 10.2417 10.7121 10.7121C10.2417 11.1825 9.49781 11.3 8.49995 11.3H3.49995C2.5021 11.3 1.75822 11.1825 1.28782 10.7121C0.817417 10.2417 0.699951 9.49785 0.699951 8.5V7.5C0.699951 6.50214 0.817417 5.75827 1.28782 5.28786Z" fill="#818181"/>
</svg>
