<svg width="20" height="20" viewBox="0 0 20 20" fill="none" xmlns="http://www.w3.org/2000/svg">
<path fill-rule="evenodd" clip-rule="evenodd" d="M9.99995 0C9.01135 0 8.0227 0.255474 7.13794 0.766296C5.3684 1.78794 4.27592 3.68012 4.27592 5.7235C4.27631 6.17696 4.27483 6.68256 4.27592 7.16072H6.38407C6.39572 6.5255 6.39711 6.29594 6.40292 5.7235C6.40292 4.43676 7.12192 3.15439 8.24664 2.52914C8.76618 2.24032 9.37822 2.01926 9.99995 2.03179C10.6217 2.01926 11.2337 2.24032 11.7533 2.52914C12.878 3.15439 13.597 4.43676 13.597 5.7235C13.6028 6.29594 13.6042 6.5255 13.6158 7.16072H15.724C15.7251 6.68256 15.7236 6.17696 15.724 5.7235C15.724 3.68012 14.6315 1.78794 12.862 0.766296C11.9772 0.255474 10.9885 0 9.99995 0Z" fill="#EBEBEB"/>
<path fill-rule="evenodd" clip-rule="evenodd" d="M10 0V2.03178C10.6217 2.01925 11.2338 2.24032 11.7533 2.52914C12.878 3.15439 13.597 4.43676 13.597 5.7235C13.6028 6.29594 13.6042 6.5255 13.6159 7.16072H15.724C15.7251 6.68256 15.7236 6.17696 15.724 5.7235C15.724 3.68012 14.6316 1.78794 12.862 0.766296C11.9772 0.255474 10.9886 0 10 0Z" fill="#E0E0E0"/>
<path d="M16.0569 7.16077H3.94299C2.98297 7.16077 2.20471 7.93902 2.20471 8.89905V18.2617C2.20471 19.2218 2.98297 20 3.94299 20H16.0569C17.017 20 17.7952 19.2218 17.7952 18.2617V8.89905C17.7952 7.93902 17.017 7.16077 16.0569 7.16077Z" fill="#85E047"/>
<path fill-rule="evenodd" clip-rule="evenodd" d="M10 7.16077V20H16.0569C17.0199 20 17.7953 19.2247 17.7953 18.2617V8.89905C17.7953 7.93603 17.0199 7.16077 16.0569 7.16077H10Z" fill="#68C02B"/>
<path fill-rule="evenodd" clip-rule="evenodd" d="M10 11.0337C10.8414 11.0337 11.5234 11.7158 11.5234 12.5571C11.5234 13.1041 11.2302 13.6092 10.7551 13.8803C10.7551 14.3929 10.7579 14.8928 10.7579 15.397C10.7579 15.8017 10.4321 16.1275 10.0274 16.1275C9.6227 16.1275 9.29688 15.8017 9.29688 15.397C9.30263 14.9023 9.29825 14.365 9.29825 13.9093C8.79342 13.6473 8.47657 13.1259 8.47656 12.5571C8.47656 11.7158 9.15863 11.0337 10 11.0337Z" fill="#151515"/>
<path fill-rule="evenodd" clip-rule="evenodd" d="M10 11.0334V16.1258C10.0092 16.1262 10.0181 16.1272 10.0274 16.1272C10.4321 16.1272 10.7579 15.8015 10.7579 15.3968C10.7579 14.8925 10.7551 14.3926 10.7551 13.8801C11.2302 13.6089 11.5234 13.1039 11.5234 12.5569C11.5234 11.7155 10.8414 11.0334 10 11.0334Z" fill="#151515"/>
</svg>
