<svg width="74" height="84" viewBox="0 0 74 84" fill="none" xmlns="http://www.w3.org/2000/svg">
<path d="M46.7717 61.6609L46.5428 61.4797L62.4734 48.8181C68.1584 44.3007 68.1584 36.0502 62.4701 31.5297L25.7537 2.34982C25.0472 1.78833 24.2403 1.5356 23.4518 1.53548C21.5385 1.5352 19.7333 3.02216 19.7333 5.19453V20.6978C19.7333 22.172 20.4098 23.5667 21.5732 24.4911L37.7601 37.3529C39.6142 38.8274 39.6142 41.5172 37.7601 42.9918L21.5728 55.8567C20.4097 56.7811 19.7333 58.1757 19.7333 59.6496V71.6766C19.7333 74.885 21.1794 77.7716 23.4878 79.7991C25.594 81.6485 28.4166 82.7825 31.5244 82.7825C31.5244 82.7825 40.8853 82.7825 50.2462 82.7825C59.6071 82.7825 68.968 82.7825 68.968 82.7825C72.7168 82.7825 74.0886 77.9125 70.878 76.0024L46.7717 61.6609Z" fill="#85E047"/>
<path d="M1.23334 17.085V7.90425C1.23334 6.40774 2.46041 5.19457 3.97408 5.19457H16.9926C18.5063 5.19457 19.7333 6.40774 19.7333 7.90425V17.085C19.7333 19.0803 18.0972 20.6979 16.079 20.6979H4.88766C2.86943 20.6979 1.23334 19.0803 1.23334 17.085Z" fill="#85E047"/>
<path d="M1.23334 71.6767V63.2625C1.23334 61.2672 2.86943 59.6496 4.88766 59.6496H16.079C18.0972 59.6496 19.7333 61.2672 19.7333 63.2625V71.6767H1.23334Z" fill="#85E047"/>
<path d="M18.5877 59.6496H4.48711C2.6901 59.6496 1.16499 58.0713 2.26649 56.6676C2.72098 56.0884 3.47695 55.8567 4.21842 55.8567H18.319C19.4006 55.8567 20.1186 57.481 19.8676 58.5211C19.7207 59.1296 19.2204 59.6496 18.5877 59.6496Z" fill="#85E047"/>
<path d="M18.3189 24.4911H4.21883C3.47736 24.4911 2.72137 24.2594 2.26682 23.6802C1.16498 22.2764 2.69034 20.6978 4.48765 20.6978H18.5877C19.2204 20.6978 19.7207 21.2178 19.8676 21.8263C20.1187 22.8665 19.4005 24.4911 18.3189 24.4911Z" fill="#85E047"/>
<path d="M2.19854 2.72629C2.90216 1.97529 3.91096 1.53533 4.95179 1.53548H23.4507C22.4103 1.53564 21.4019 1.97555 20.6985 2.72629C19.6699 3.82417 18.5063 5.19453 16.9926 5.19453H3.9741C2.46043 5.19453 1.16992 3.82417 2.19854 2.72629Z" fill="#85E047"/>
<path d="M4.98784 79.7991C2.67935 77.7716 1.23334 74.8851 1.23334 71.6767H19.7333C19.7333 74.8851 21.1794 77.7716 23.4878 79.7991H4.98784Z" fill="#85E047"/>
<path d="M4.95172 1.53548C5.44854 1.53556 5.95265 1.63591 6.43434 1.85057C7.00372 2.10431 7.59415 2.34982 8.2187 2.34982H23.2608C24.0895 2.34982 24.2804 1.53561 23.4517 1.53548H4.95172Z" fill="#85E047"/>
<path d="M13.0244 82.7825C9.9166 82.7825 7.09401 81.6485 4.98785 79.7991H23.4879C25.594 81.6485 28.4166 82.7825 31.5244 82.7825H13.0244Z" fill="#85E047"/>
<path d="M11.1618 49.4279L19.2601 42.9917H37.7601L22.5756 55.0596C21.9266 55.5755 21.1188 55.8567 20.2861 55.8567H13.4513C10.0013 55.8567 8.47285 51.5649 11.1618 49.4279Z" fill="#85E047"/>
<path d="M19.26 37.3529L11.1642 30.9201C8.47485 28.7832 10.0032 24.4911 13.4534 24.4911H20.2866C21.1192 24.4911 21.9269 24.7722 22.5758 25.2879L37.76 37.3529H19.26Z" fill="#85E047"/>
<path d="M19.26 42.9918C21.1141 41.5172 21.1141 38.8274 19.26 37.3529H37.76C39.6141 38.8274 39.6141 41.5172 37.76 42.9918H19.26Z" fill="#85E047"/>
<path d="M13.3206 7.17147L43.9701 31.5297H62.4701L26.5058 2.9476C26.019 2.56074 25.4132 2.34985 24.7887 2.34985H15.0377C12.4502 2.34985 11.3039 5.56869 13.3206 7.17147Z" fill="#85E047"/>
<path d="M28.0427 61.4798L28.2715 61.6609H46.7715L46.5427 61.4798H28.0427Z" fill="#85E047"/>
<path d="M43.9733 48.8181L28.0427 61.4798H46.5427L62.4733 48.8181H43.9733Z" fill="#85E047"/>
<path d="M28.2718 61.661L51.726 75.6145C52.1527 75.8683 52.6412 76.0024 53.1391 76.0024H61.0078C63.7856 76.0024 64.801 72.387 62.4209 70.971L46.7718 61.661H28.2718Z" fill="#85E047"/>
<path d="M43.97 31.5297C49.6583 36.0502 49.6583 44.3008 43.9733 48.8181H62.4733C68.1583 44.3008 68.1583 36.0502 62.47 31.5297H43.97Z" fill="#85E047"/>
<path d="M70.1168 76.0024H62.0115C59.3003 76.0024 53.1792 82.7825 50.4679 82.7825H68.9679C72.4518 82.7825 73.8828 78.5763 71.4905 76.4488C71.1203 76.1195 70.6148 76.0024 70.1168 76.0024Z" fill="#85E047"/>
<path d="M28.2717 61.6609L28.0428 61.4797L43.9734 48.8181C49.6584 44.3007 49.6584 36.0502 43.9701 31.5297L7.25374 2.34982C4.83299 0.425964 1.23334 2.12685 1.23334 5.19453V20.6978C1.23334 22.172 1.90984 23.5667 3.07317 24.4911L19.2601 37.3529C21.1142 38.8274 21.1142 41.5172 19.2601 42.9918L3.07276 55.8567C1.90967 56.7811 1.23334 58.1757 1.23334 59.6496V71.6766C1.23334 74.885 2.67935 77.7716 4.98784 79.7991C7.094 81.6485 9.91658 82.7825 13.0244 82.7825H50.468C54.2168 82.7825 55.5886 77.9125 52.378 76.0024L28.2717 61.6609Z" fill="#151515"/>
<path fill-rule="evenodd" clip-rule="evenodd" d="M27.2107 63.1619L25.0896 61.4825L42.8132 47.3958C47.5779 43.6097 47.5789 36.7419 42.81 32.9521L6.09354 3.77218C4.88316 2.81025 3.08334 3.66069 3.08334 5.19453V20.6978C3.08334 21.6192 3.50615 22.4909 4.23323 23.0686L20.4201 35.9304L20.4208 35.9309C23.1939 38.1364 23.1939 42.2082 20.4208 44.4137L4.23298 57.279C3.50605 57.8568 3.08334 58.7284 3.08334 59.6496V71.6766C3.08334 74.3257 4.27393 76.7278 6.2176 78.4349C7.99144 79.9924 10.3785 80.9564 13.0244 80.9564H50.468C52.3424 80.9564 53.0283 78.5214 51.423 77.5664L27.2107 63.1619ZM43.9701 31.5297L7.25374 2.34982C4.83299 0.425964 1.23334 2.12685 1.23334 5.19453V20.6978C1.23334 22.172 1.90984 23.5667 3.07317 24.4911L19.2601 37.3529C21.1142 38.8274 21.1142 41.5172 19.2601 42.9918L3.07276 55.8567C1.90967 56.7811 1.23334 58.1757 1.23334 59.6496V71.6766C1.23334 74.885 2.67935 77.7716 4.98784 79.7991C7.094 81.6485 9.91658 82.7825 13.0244 82.7825H50.468C54.2168 82.7825 55.5886 77.9125 52.378 76.0024L28.2717 61.6609L28.0428 61.4797L43.9734 48.8181C49.6584 44.3007 49.6584 36.0502 43.9701 31.5297Z" fill="#85E047"/>
<path fill-rule="evenodd" clip-rule="evenodd" d="M35.4168 54.5739C35.7574 54.9886 35.6905 55.5955 35.2674 55.9293L16.8843 70.436C16.4612 70.7699 15.8422 70.7043 15.5016 70.2896C15.161 69.8748 15.2279 69.268 15.651 68.9341L34.0341 54.4275C34.4571 54.0936 35.0762 54.1592 35.4168 54.5739Z" fill="#85E047"/>
</svg>
