<svg width="73" height="18" viewBox="0 0 73 18" fill="none" xmlns="http://www.w3.org/2000/svg">
<path d="M5.5087 13.5386L5.46207 13.5003L0.764893 17.3698C1.194 17.7605 1.76907 18 2.40225 18H4.28558H12.742L5.5087 13.5386Z" fill="url(#paint0_linear_5075_9467)"/>
<path d="M8.70711 7.17413L0 0V5.37862L3.67273 8.40414C4.05048 8.7156 4.05048 9.28375 3.67273 9.59521L0 12.6214V15.6542C0 16.3318 0.294629 16.9416 0.764955 17.3698L5.50876 13.4614L8.70779 10.8259C9.86603 9.87169 9.86603 8.12897 8.70711 7.17413Z" fill="white"/>
<path d="M20.8964 13.0305H22.8737L21.0201 10.4365L21.0634 10.418C21.6013 10.1897 22.0223 9.85583 22.3142 9.42626C22.6061 8.99668 22.7541 8.47802 22.7541 7.88348C22.7541 7.28959 22.6081 6.76829 22.3196 6.33476C22.0317 5.90122 21.6148 5.56204 21.0803 5.32581C20.5437 5.08892 19.9024 4.96882 19.1739 4.96882H15.606V13.0298H17.4575V10.7632H19.2895L20.8964 13.0305ZM17.4575 9.33981V6.42912H19.0672C19.6531 6.42912 20.1058 6.55515 20.4126 6.80392C20.7221 7.05468 20.8789 7.41827 20.8789 7.8848C20.8789 8.34341 20.7221 8.70502 20.4126 8.95973C20.1051 9.21246 19.6524 9.34047 19.0665 9.34047H17.4575V9.33981Z" fill="white"/>
<path d="M26.2058 4.96951H24.3542V13.0305H26.2058V4.96951Z" fill="white"/>
<path d="M38.9478 4.96951L36.9793 10.8186L35.0473 4.96951H33.3181L31.3253 10.7711L29.4176 4.96951H27.4991L30.2116 13.0305H32.2152L34.1357 7.43941L35.9961 13.0305H38.0112L40.7115 4.96951H38.9478Z" fill="white"/>
<path d="M47.0752 11.2871L47.8132 13.0305H49.7512L46.0603 4.96951H44.206L40.5265 13.0305H42.4173L43.1552 11.2871H47.0752ZM45.1216 6.68187L46.5002 9.93241H43.7424L45.1216 6.68187Z" fill="white"/>
<path d="M56.5452 4.96951H49.3612V6.42914H52.0277V13.0305H53.8786V6.42914H56.5452V4.96951Z" fill="white"/>
<path d="M63.3649 9.63678V8.24709H59.4969V6.40539H63.8765V4.96951H57.6575V13.0305H64.0312V11.5946H59.4969V9.63678H63.3649Z" fill="white"/>
<path d="M70.7915 13.0305H72.9215L69.8427 8.86077L69.859 8.839L72.7194 4.96951H70.7314L68.8311 7.63605L66.8951 4.96951H64.7996L67.6999 8.93072L64.6455 13.0305H66.7633L68.7595 10.1779L70.7915 13.0305Z" fill="white"/>
<defs>
<linearGradient id="paint0_linear_5075_9467" x1="1.73482" y1="13.3567" x2="8.4949" y2="19.4718" gradientUnits="userSpaceOnUse">
<stop stop-color="#0EB69D"/>
<stop offset="1" stop-color="#85E047"/>
</linearGradient>
</defs>
</svg>
