<svg width="20" height="24" viewBox="0 0 20 24" fill="none" xmlns="http://www.w3.org/2000/svg">
<path d="M12.6407 17.6174L12.5788 17.5657L16.8844 13.948C18.4209 12.6574 18.4209 10.3001 16.8835 9.00849L6.96014 0.671388C6.7692 0.510963 6.55111 0.438754 6.33799 0.438721C5.82088 0.438641 5.33301 0.863486 5.33301 1.48416V5.91368C5.33301 6.33485 5.51585 6.73336 5.83026 6.99746L10.2051 10.6723C10.7062 11.0936 10.7062 11.8621 10.2051 12.2834L5.83015 15.9591C5.5158 16.2232 5.33301 16.6216 5.33301 17.0428V20.479C5.33301 21.3957 5.72382 22.2205 6.34774 22.7997C6.91697 23.3282 7.67983 23.6522 8.51979 23.6522C8.51979 23.6522 11.0498 23.6522 13.5797 23.6522C16.1097 23.6522 18.6397 23.6522 18.6397 23.6522C19.6529 23.6522 20.0236 22.2607 19.1559 21.715L12.6407 17.6174Z" fill="#818181"/>
<path d="M0.333008 4.88145V2.25839C0.333008 1.83081 0.664649 1.48419 1.07375 1.48419H4.59227C5.00137 1.48419 5.33301 1.83081 5.33301 2.25839V4.88145C5.33301 5.45155 4.89082 5.91371 4.34535 5.91371H1.32066C0.775196 5.91371 0.333008 5.45155 0.333008 4.88145Z" fill="#818181"/>
<path d="M0.333008 20.479V18.075C0.333008 17.5049 0.775196 17.0427 1.32066 17.0427H4.34535C4.89082 17.0427 5.33301 17.5049 5.33301 18.075V20.479H0.333008Z" fill="#818181"/>
<path d="M5.02338 17.0427H1.21242C0.726737 17.0427 0.314544 16.5918 0.612248 16.1907C0.735083 16.0252 0.939401 15.959 1.1398 15.959H4.95076C5.24309 15.959 5.43716 16.4231 5.3693 16.7203C5.32961 16.8942 5.19439 17.0427 5.02338 17.0427Z" fill="#818181"/>
<path d="M4.95068 6.99742H1.13986C0.939461 6.99742 0.73514 6.93123 0.612287 6.76576C0.314493 6.36465 0.726753 5.91364 1.21251 5.91364H5.02333C5.19434 5.91364 5.32956 6.0622 5.36925 6.23605C5.43711 6.53325 5.24302 6.99742 4.95068 6.99742Z" fill="#818181"/>
<path d="M0.593972 0.77895C0.784139 0.56438 1.05679 0.438677 1.33809 0.438721H6.3378C6.0566 0.438764 5.78407 0.564455 5.59397 0.77895C5.31597 1.09263 5.00147 1.48416 4.59237 1.48416H1.07385C0.664753 1.48416 0.315967 1.09263 0.593972 0.77895Z" fill="#818181"/>
<path d="M1.34774 22.7998C0.723823 22.2205 0.333008 21.3957 0.333008 20.4791H5.33301C5.33301 21.3957 5.72382 22.2205 6.34774 22.7998H1.34774Z" fill="#818181"/>
<path d="M1.33789 0.438721C1.47217 0.438741 1.60841 0.467413 1.7386 0.528746C1.89248 0.601243 2.05206 0.671388 2.22086 0.671388H6.28628C6.51025 0.671388 6.56186 0.438755 6.33789 0.438721H1.33789Z" fill="#818181"/>
<path d="M3.5197 23.6521C2.67975 23.6521 1.91689 23.3281 1.34766 22.7997H6.34766C6.91689 23.3281 7.67975 23.6521 8.5197 23.6521H3.5197Z" fill="#818181"/>
<path d="M3.01632 14.1222L5.20505 12.2833H10.205L6.10114 15.7313C5.92572 15.8787 5.70741 15.959 5.48234 15.959H3.63512C2.70267 15.959 2.28958 14.7328 3.01632 14.1222Z" fill="#818181"/>
<path d="M5.20543 10.6722L3.01738 8.8343C2.29053 8.22376 2.7036 6.99744 3.63609 6.99744H5.4829C5.70793 6.99744 5.92621 7.07775 6.10161 7.22509L10.2054 10.6722H5.20543Z" fill="#818181"/>
<path d="M5.20508 12.2833C5.70618 11.8621 5.70618 11.0935 5.20508 10.6722H10.2051C10.7062 11.0935 10.7062 11.8621 10.2051 12.2833H5.20508Z" fill="#818181"/>
<path d="M3.60038 2.04899L11.884 9.00849H16.884L7.16395 0.842171C7.03239 0.73164 6.86865 0.671387 6.69986 0.671387H4.06447C3.36513 0.671387 3.05532 1.59105 3.60038 2.04899Z" fill="#818181"/>
<path d="M7.5791 17.5657L7.64095 17.6174H12.641L12.5791 17.5657H7.5791Z" fill="#818181"/>
<path d="M11.8847 13.9481L7.5791 17.5657H12.5791L16.8847 13.9481H11.8847Z" fill="#818181"/>
<path d="M7.64062 17.6174L13.9796 21.6042C14.0949 21.6767 14.2269 21.715 14.3615 21.715H16.4882C17.239 21.715 17.5134 20.682 16.8701 20.2774L12.6406 17.6174H7.64062Z" fill="#818181"/>
<path d="M11.8838 9.00848C13.4212 10.3 13.4212 12.6574 11.8847 13.948H16.8847C18.4212 12.6574 18.4212 10.3 16.8838 9.00848H11.8838Z" fill="#818181"/>
<path d="M18.9502 21.715H16.7595C16.0268 21.715 14.3724 23.6521 13.6396 23.6521H18.6396C19.5812 23.6521 19.968 22.4504 19.3214 21.8425C19.2214 21.7484 19.0847 21.715 18.9502 21.715Z" fill="#818181"/>
<path d="M7.64067 17.6174L7.57882 17.5657L11.8844 13.948C13.4209 12.6574 13.4209 10.3001 11.8835 9.00849L1.96014 0.671388C1.30589 0.121715 0.333008 0.607681 0.333008 1.48416V5.91368C0.333008 6.33485 0.515847 6.73336 0.830261 6.99746L5.2051 10.6723C5.7062 11.0936 5.7062 11.8621 5.2051 12.2834L0.83015 15.9591C0.515801 16.2232 0.333008 16.6216 0.333008 17.0428V20.479C0.333008 21.3957 0.723823 22.2205 1.34774 22.7997C1.91697 23.3282 2.67983 23.6522 3.51979 23.6522H13.6397C14.6529 23.6522 15.0236 22.2607 14.1559 21.715L7.64067 17.6174Z" fill="#222326"/>
<path fill-rule="evenodd" clip-rule="evenodd" d="M7.35392 18.0463L6.78065 17.5664L11.5708 13.5417C12.8586 12.4599 12.8588 10.4977 11.5699 9.41489L1.64658 1.07778C1.31945 0.802939 0.833008 1.04592 0.833008 1.48416V5.91368C0.833008 6.17691 0.947282 6.42598 1.14379 6.59104L5.51863 10.2658L5.5188 10.266C6.2683 10.8961 6.2683 12.0595 5.5188 12.6896L1.14372 16.3654C0.947254 16.5305 0.833008 16.7796 0.833008 17.0428V20.479C0.833008 21.2359 1.15479 21.9222 1.68011 22.41C2.15952 22.855 2.80467 23.1304 3.51979 23.1304H13.6397C14.1463 23.1304 14.3317 22.4347 13.8978 22.1618L7.35392 18.0463ZM11.8835 9.00849L1.96014 0.671388C1.30589 0.121715 0.333008 0.607681 0.333008 1.48416V5.91368C0.333008 6.33485 0.515847 6.73336 0.830261 6.99746L5.2051 10.6723C5.7062 11.0936 5.7062 11.8621 5.2051 12.2834L0.83015 15.9591C0.515801 16.2232 0.333008 16.6216 0.333008 17.0428V20.479C0.333008 21.3957 0.723823 22.2205 1.34774 22.7997C1.91697 23.3282 2.67983 23.6522 3.51979 23.6522H13.6397C14.6529 23.6522 15.0236 22.2607 14.1559 21.715L7.64067 17.6174L7.57882 17.5657L11.8844 13.948C13.4209 12.6574 13.4209 10.3001 11.8835 9.00849Z" fill="#818181"/>
<path fill-rule="evenodd" clip-rule="evenodd" d="M9.5721 15.5925C9.66415 15.711 9.64607 15.8844 9.53173 15.9798L4.56332 20.1246C4.44898 20.22 4.28166 20.2012 4.18962 20.0827C4.09757 19.9642 4.11565 19.7908 4.22999 19.6955L9.1984 15.5507C9.31274 15.4553 9.48006 15.474 9.5721 15.5925Z" fill="#818181"/>
</svg>
