<svg width="23" height="26" viewBox="0 0 23 26" fill="none" xmlns="http://www.w3.org/2000/svg">
<path d="M8.6186 19.051L8.55412 19L2.05811 24.1593C2.65154 24.6802 3.44684 24.9996 4.3225 24.9996H6.92708H18.6219L8.6186 19.051Z" fill="#85E047"/>
<path d="M8.6186 19.051L8.55412 19L2.05811 24.1593C2.65154 24.6802 3.44684 24.9996 4.3225 24.9996H6.92708H18.6219L8.6186 19.051Z" fill="black" fill-opacity="0.3"/>
<path d="M8.6186 19.051L8.55412 19L2.05811 24.1593C2.65154 24.6802 3.44684 24.9996 4.3225 24.9996H6.92708H18.6219L8.6186 19.051Z" stroke="black" stroke-width="0.478398"/>
<path d="M12.7885 19.051L12.724 19L6.22803 24.1593C6.82146 24.6802 7.61676 24.9996 8.49243 24.9996H11.097H21.6315C21.9557 24.9996 22.0732 24.5722 21.7946 24.4065L12.7885 19.051Z" fill="#85E047"/>
<path d="M9.41309 25.0003L14.3813 20.0288L14.9844 20.3926L10.3798 25.0003H9.41309Z" fill="white" fill-opacity="0.6"/>
<path d="M11.457 25.0003L15.7427 20.7166L17.7532 21.9292L14.6793 25.0003H11.457Z" fill="white" fill-opacity="0.6"/>
<path d="M12.7885 19.051L12.724 19L6.22803 24.1593C6.82146 24.6802 7.61676 24.9996 8.49243 24.9996H11.097H21.6315C21.9557 24.9996 22.0732 24.5722 21.7946 24.4065L12.7885 19.051Z" stroke="black" stroke-width="0.478398"/>
<path d="M17.2117 10.5656L5.17007 1V8.17153L10.2493 12.2056C10.7717 12.6208 10.7717 13.3784 10.2493 13.7937L5.17007 17.8286V21.8723C5.17007 22.7759 5.57753 23.5889 6.22797 24.1599L17.2126 15.4346C18.8144 14.1623 18.8144 11.8387 17.2117 10.5656Z" fill="#85E047"/>
<path d="M1 1V8.17153L6.07924 12.2056C6.60165 12.6208 6.60165 13.3784 6.07924 13.7937L1 17.8286V21.8723C1 22.7759 1.40746 23.5889 2.0579 24.1599H6.22797C5.57753 23.5889 5.17007 22.7759 5.17007 21.8723V17.8286L10.2493 13.7937C10.7717 13.3784 10.7717 12.6208 10.2493 12.2056L5.17007 8.17153V1H1Z" fill="#85E047"/>
<path d="M17.2117 10.5656L5.17007 1V8.17153L10.2493 12.2056C10.7717 12.6208 10.7717 13.3784 10.2493 13.7937L5.17007 17.8286V21.8723C5.17007 22.7759 5.57753 23.5889 6.22797 24.1599L17.2126 15.4346C18.8144 14.1623 18.8144 11.8387 17.2117 10.5656Z" fill="white"/>
<path d="M1 1V8.17153L6.07924 12.2056C6.60165 12.6208 6.60165 13.3784 6.07924 13.7937L1 17.8286V21.8723C1 22.7759 1.40746 23.5889 2.0579 24.1599H6.22797C5.57753 23.5889 5.17007 22.7759 5.17007 21.8723V17.8286L10.2493 13.7937C10.7717 13.3784 10.7717 12.6208 10.2493 12.2056L5.17007 8.17153V1H1Z" fill="white"/>
<path d="M1 21.8723V17.8286H5.17007V21.8723C5.17007 22.7759 5.57753 23.5889 6.22797 24.1599H2.0579C1.40746 23.5889 1 22.7759 1 21.8723Z" fill="black" fill-opacity="0.1"/>
<path d="M2.0579 24.1601C1.40746 23.5891 1 22.7761 1 21.8726L1.56797 22.2633C1.88707 22.4828 2.26526 22.6004 2.65258 22.6004H5.26062C5.41482 23.2086 5.75796 23.7475 6.22797 24.1601H2.0579Z" fill="black" fill-opacity="0.2"/>
<path d="M1 8.17133V5.0184C1 4.31384 1.57116 3.74268 2.27573 3.74268H5.17007V8.17133H1Z" fill="black" fill-opacity="0.1"/>
<path d="M6.07924 12.2059L1 8.17188H5.17007L10.2493 12.2059C10.7717 12.6212 10.7717 13.3787 10.2493 13.794L5.17007 17.8289H1L6.07924 13.794C6.60165 13.3787 6.60165 12.6212 6.07924 12.2059Z" fill="black" fill-opacity="0.1"/>
<path d="M1 8.17153V1H5.17007M1 8.17153L6.07924 12.2056C6.60165 12.6208 6.60165 13.3784 6.07924 13.7937L1 17.8286M1 8.17153H5.17007M1 17.8286V21.8723C1 22.7759 1.40746 23.5889 2.0579 24.1599H6.22797M1 17.8286H5.17007M5.17007 1L17.2117 10.5656C18.8144 11.8387 18.8144 14.1623 17.2126 15.4346L6.22797 24.1599M5.17007 1V8.17153M5.17007 8.17153L10.2493 12.2056C10.7717 12.6208 10.7717 13.3784 10.2493 13.7937L5.17007 17.8286M5.17007 17.8286V21.8723C5.17007 22.7759 5.57753 23.5889 6.22797 24.1599" stroke="black" stroke-width="0.478398"/>
</svg>
