<svg width="48" height="48" viewBox="0 0 48 48" fill="none" xmlns="http://www.w3.org/2000/svg">
<path d="M27.8379 22.5657L10.3721 32.7748L15.6507 17.3611C16.1652 15.8586 17.7547 14.641 19.2014 14.641H41.9021C43.3489 14.641 44.1044 15.8586 43.59 17.3611L38.3114 32.7748L27.8379 22.5657Z" fill="#B9C5C6"/>
<path d="M38.3275 32.8743C38.3206 32.8823 38.3117 32.8879 38.3045 32.8956C37.5665 33.9349 36.3507 34.6763 35.2154 34.6763H12.1595C12.073 34.6763 11.9999 34.6552 11.9184 34.6468H11.8848C11.8765 34.6457 11.8711 34.6411 11.8628 34.64C11.3306 34.5721 10.9121 34.3342 10.6414 33.9668C10.6363 33.96 10.6275 33.9568 10.6224 33.9499L10.6282 33.9462C10.565 33.8577 10.4969 33.7725 10.4509 33.6709C10.3434 33.4328 10.285 33.1607 10.282 32.8652C10.2811 32.8629 10.2796 32.8611 10.2793 32.8586L10.2825 32.8564C10.2807 32.562 25.7524 22.9935 25.7524 22.9935C27.672 21.8033 28.4698 21.8218 29.5975 22.9935C29.5975 22.9935 38.5308 32.5697 38.3222 32.8682L38.3275 32.8743Z" fill="#96A9B2"/>
<path d="M17.1107 15.2993C17.575 14.9738 18.3446 14.6763 18.9315 14.6139L42.1923 14.613C42.7379 14.6763 43.2243 14.613 43.545 15.2992C43.8658 15.9854 43.7732 16.3737 43.7732 16.3737L28.5386 26.0869C26.6486 27.2587 25.863 27.2405 24.7528 26.0869L16.1572 16.3583C16.1572 16.3583 16.6465 15.6248 17.1107 15.2993Z" fill="#DCE2E2"/>
<path d="M12.9149 19.8673H5.41504C4.78941 19.8673 4.28223 19.3601 4.28223 18.7345C4.28223 18.1089 4.78941 17.6017 5.41504 17.6017H12.9149C13.5405 17.6017 14.0477 18.1089 14.0477 18.7345C14.0477 19.3601 13.5405 19.8673 12.9149 19.8673ZM11.8961 23.654C11.8961 23.0283 11.3889 22.5211 10.7632 22.5211H5.41504C4.78941 22.5211 4.28223 23.0283 4.28223 23.654C4.28223 24.2796 4.78941 24.7868 5.41504 24.7868H10.7632C11.3889 24.7868 11.8961 24.2796 11.8961 23.654ZM10.1613 28.5735C10.1613 27.9479 9.6541 27.4407 9.02848 27.4407H5.41504C4.78941 27.4407 4.28223 27.9479 4.28223 28.5735C4.28223 29.1991 4.78941 29.7063 5.41504 29.7063H9.0284C9.6541 29.7063 10.1613 29.1991 10.1613 28.5735Z" fill="#FFB636"/>
</svg>
