<svg width="16" height="16" viewBox="0 0 16 16" fill="none" xmlns="http://www.w3.org/2000/svg">
<path d="M12.6666 5.99998C12.6666 6.96665 12.3799 7.85332 11.8866 8.59332C11.1666 9.65999 10.0266 10.4133 8.69992 10.6066C8.47325 10.6466 8.23992 10.6666 7.99992 10.6666C7.75992 10.6666 7.52658 10.6466 7.29992 10.6066C5.97325 10.4133 4.83325 9.65999 4.11325 8.59332C3.61992 7.85332 3.33325 6.96665 3.33325 5.99998C3.33325 3.41998 5.41992 1.33331 7.99992 1.33331C10.5799 1.33331 12.6666 3.41998 12.6666 5.99998Z" stroke="#FCBF14" stroke-linecap="round" stroke-linejoin="round"/>
<path d="M14.1666 12.3133L13.0666 12.5733C12.82 12.6333 12.6266 12.82 12.5733 13.0667L12.34 14.0467C12.2133 14.58 11.5333 14.74 11.18 14.32L7.99997 10.6666L4.81997 14.3266C4.46664 14.7466 3.78664 14.5866 3.65997 14.0533L3.42664 13.0733C3.36664 12.8266 3.1733 12.6333 2.9333 12.58L1.8333 12.32C1.32664 12.2 1.14664 11.5666 1.5133 11.2L4.1133 8.59998C4.8333 9.66664 5.9733 10.42 7.29997 10.6133C7.52664 10.6533 7.75997 10.6733 7.99997 10.6733C8.23997 10.6733 8.47331 10.6533 8.69997 10.6133C10.0266 10.42 11.1666 9.66664 11.8866 8.59998L14.4866 11.2C14.8533 11.56 14.6733 12.1933 14.1666 12.3133Z" stroke="#FCBF14" stroke-linecap="round" stroke-linejoin="round"/>
<path d="M8.38657 3.98669L8.7799 4.77335C8.83323 4.88002 8.97323 4.98669 9.0999 5.00669L9.81323 5.12668C10.2666 5.20001 10.3732 5.53335 10.0466 5.86002L9.49323 6.41334C9.3999 6.50668 9.34657 6.68669 9.3799 6.82002L9.5399 7.50669C9.66657 8.04669 9.3799 8.26001 8.8999 7.97334L8.23323 7.58001C8.11323 7.50668 7.91323 7.50668 7.79323 7.58001L7.12657 7.97334C6.64657 8.25334 6.3599 8.04669 6.48657 7.50669L6.64657 6.82002C6.67323 6.69335 6.62657 6.50668 6.53323 6.41334L5.9799 5.86002C5.65323 5.53335 5.7599 5.20668 6.21323 5.12668L6.92657 5.00669C7.04657 4.98669 7.18657 4.88002 7.2399 4.77335L7.63323 3.98669C7.82657 3.56002 8.17323 3.56002 8.38657 3.98669Z" stroke="#FCBF14" stroke-linecap="round" stroke-linejoin="round"/>
</svg>
