<svg width="24" height="24" viewBox="0 0 24 24" fill="none" xmlns="http://www.w3.org/2000/svg">
<path d="M12 16C6.23997 16 5.21997 10.26 5.03997 5.70599C4.98897 4.43999 4.96397 3.80599 5.43997 3.22099C5.91497 2.63499 6.48397 2.53899 7.62297 2.34699C9.06979 2.10987 10.5339 1.9938 12 1.99999C13.784 1.99999 15.253 2.15699 16.377 2.34699C17.516 2.53899 18.085 2.63499 18.561 3.22099C19.037 3.80699 19.011 4.43999 18.961 5.70599C18.781 10.259 17.761 16 12.001 16" fill="white"/>
<path d="M17.64 12.422L20.457 10.857C21.209 10.439 21.585 10.23 21.793 9.878C22 9.526 22 9.096 22 8.235V8.162C22 7.119 22 6.597 21.717 6.204C21.434 5.811 20.939 5.646 19.949 5.316L19 5L18.983 5.085C18.978 5.274 18.97 5.48 18.961 5.706C18.873 7.931 18.584 10.439 17.641 12.422M5.04 5.706C5.127 7.931 5.416 10.439 6.36 12.422L3.543 10.857C2.791 10.439 2.414 10.23 2.207 9.878C2 9.526 2 9.096 2 8.235V8.162C2 7.119 2 6.597 2.283 6.204C2.566 5.811 3.061 5.646 4.051 5.316L5 5L5.017 5.087C5.022 5.275 5.03 5.481 5.039 5.707" fill="#686F7A"/>
<path d="M17.64 12.422L20.457 10.857C21.209 10.439 21.585 10.23 21.793 9.878C22 9.526 22 9.096 22 8.235V8.162C22 7.119 22 6.597 21.717 6.204C21.434 5.811 20.939 5.646 19.949 5.316L19 5L18.983 5.085C18.978 5.274 18.97 5.48 18.961 5.706C18.873 7.931 18.584 10.439 17.641 12.422M5.04 5.706C5.127 7.931 5.416 10.439 6.36 12.422L3.543 10.857C2.791 10.439 2.414 10.23 2.207 9.878C2 9.526 2 9.096 2 8.235V8.162C2 7.119 2 6.597 2.283 6.204C2.566 5.811 3.061 5.646 4.051 5.316L5 5L5.017 5.087C5.022 5.275 5.03 5.481 5.039 5.707" fill="url(#paint0_linear_993_403)"/>
<path fill-rule="evenodd" clip-rule="evenodd" d="M5.25 22C5.25 21.8011 5.32902 21.6103 5.46967 21.4697C5.61032 21.329 5.80109 21.25 6 21.25H18C18.1989 21.25 18.3897 21.329 18.5303 21.4697C18.671 21.6103 18.75 21.8011 18.75 22C18.75 22.1989 18.671 22.3897 18.5303 22.5303C18.3897 22.671 18.1989 22.75 18 22.75H6C5.80109 22.75 5.61032 22.671 5.46967 22.5303C5.32902 22.3897 5.25 22.1989 5.25 22Z" fill="#686F7A"/>
<path fill-rule="evenodd" clip-rule="evenodd" d="M5.25 22C5.25 21.8011 5.32902 21.6103 5.46967 21.4697C5.61032 21.329 5.80109 21.25 6 21.25H18C18.1989 21.25 18.3897 21.329 18.5303 21.4697C18.671 21.6103 18.75 21.8011 18.75 22C18.75 22.1989 18.671 22.3897 18.5303 22.5303C18.3897 22.671 18.1989 22.75 18 22.75H6C5.80109 22.75 5.61032 22.671 5.46967 22.5303C5.32902 22.3897 5.25 22.1989 5.25 22Z" fill="url(#paint1_linear_993_403)"/>
<path d="M15.458 21.25H8.54199L8.83899 19.5C8.88429 19.2734 9.00667 19.0695 9.18533 18.9229C9.36399 18.7764 9.5879 18.6962 9.81899 18.696H14.18C14.4111 18.6962 14.635 18.7764 14.8137 18.9229C14.9923 19.0695 15.1147 19.2734 15.16 19.5L15.458 21.25Z" fill="white"/>
<path d="M12 15.9999C11.74 15.9999 11.49 15.9889 11.25 15.9659V18.6959H12.75V15.9659C12.5007 15.989 12.2504 16.0004 12 15.9999Z" fill="#686F7A"/>
<path d="M12 15.9999C11.74 15.9999 11.49 15.9889 11.25 15.9659V18.6959H12.75V15.9659C12.5007 15.989 12.2504 16.0004 12 15.9999Z" fill="url(#paint2_linear_993_403)"/>
<defs>
<linearGradient id="paint0_linear_993_403" x1="3.61965" y1="4.76311" x2="14.783" y2="14.9863" gradientUnits="userSpaceOnUse">
<stop stop-color="#0EB69D"/>
<stop offset="1" stop-color="#85E047"/>
</linearGradient>
<linearGradient id="paint1_linear_993_403" x1="6.34326" y1="21.2021" x2="7.68121" y2="25.2944" gradientUnits="userSpaceOnUse">
<stop stop-color="#0EB69D"/>
<stop offset="1" stop-color="#85E047"/>
</linearGradient>
<linearGradient id="paint2_linear_993_403" x1="11.3715" y1="15.8788" x2="12.859" y2="16.1566" gradientUnits="userSpaceOnUse">
<stop stop-color="#0EB69D"/>
<stop offset="1" stop-color="#85E047"/>
</linearGradient>
</defs>
</svg>
