<svg width="24" height="24" viewBox="0 0 24 24" fill="none" xmlns="http://www.w3.org/2000/svg">
<path d="M22.7042 7.41951L20.3948 6.08087C20.1104 5.91597 19.7451 6.01128 19.5791 6.29376L13.917 15.9248L10.1893 13.764C9.95867 13.6304 9.66259 13.7076 9.52797 13.9366L8.06601 16.4234C7.9314 16.6524 8.00922 16.9464 8.23983 17.0801L14.8893 20.9345C15.1199 21.0681 15.416 20.9908 15.5506 20.7619L15.6045 20.6701C15.6055 20.6683 15.6068 20.6668 15.6079 20.665L22.9186 8.22946C23.0846 7.94703 22.9886 7.58441 22.7042 7.41951Z" fill="#686F7A"/>
<path d="M18.645 4.70342L15.8738 3.09704C15.5324 2.89916 15.0942 3.01354 14.8949 3.35251L8.10046 14.9098L3.62713 12.3168C3.3504 12.1564 2.99511 12.2492 2.83357 12.524L1.07921 15.5081C0.917674 15.7829 1.01107 16.1357 1.2878 16.2961L9.26712 20.9213C9.54385 21.0817 9.89915 20.989 10.0607 20.7142L10.1254 20.6042C10.1267 20.602 10.1282 20.6001 10.1295 20.5979L18.9023 5.67535C19.1015 5.33643 18.9863 4.9013 18.645 4.70342Z" fill="#88919F"/>
</svg>
