<svg width="24" height="24" viewBox="0 0 24 24" fill="none" xmlns="http://www.w3.org/2000/svg">
<g clip-path="url(#clip0_993_4)">
<path d="M21.1332 19.6334C21.1332 18.7667 20.9999 18.5334 20.0665 18.4667C19.8999 18.4667 19.7999 18.3334 19.7999 18.1667V17.7334C19.7999 17.6334 19.8665 17.5001 19.9665 17.4667C21.1332 16.6667 21.8999 15.3334 21.8999 13.8334L21.9332 13.6334C21.9665 13.5001 22.0665 13.4001 22.1999 13.3667C22.5999 13.2667 22.8999 13.0001 22.9999 12.6001C23.0999 12.0334 22.7332 11.5334 22.1999 11.4334C22.0999 11.4001 22.0665 11.3334 22.0665 11.2334L22.1999 9.50005C22.2332 2.76672 12.5332 2.66672 12.4665 9.36672L12.6332 11.2667C12.6332 11.3334 12.5999 11.4001 12.5332 11.4334C12.0999 11.6001 11.7999 12.1001 11.9332 12.6001C12.0332 12.9667 12.3665 13.2001 12.7665 13.3001C12.9332 13.3334 13.0332 13.4667 13.0332 13.6334V13.8001C13.0332 15.3334 13.8332 16.7001 15.0332 17.5001C15.0999 17.5334 15.0999 17.6001 15.0999 17.6334V18.1667C15.0999 18.3001 14.9999 18.4334 14.8332 18.4334C13.8332 18.5001 13.7332 18.7334 13.6999 19.5667C13.6665 19.6334 13.6665 19.6667 13.6332 19.7001C11.9999 20.4001 10.7999 21.3667 10.8332 23.7334C10.8332 23.8667 10.9665 24.0001 11.0999 24.0001H23.7332C23.8665 24.0001 23.9999 23.9001 23.9999 23.7334C24.0332 21.3667 22.8999 20.4667 21.2332 19.7667C21.1999 19.7001 21.1665 19.6667 21.1332 19.6334Z" fill="#686F7A"/>
<path d="M12.6665 18.6666C12.6665 17.6 12.5332 17.3333 11.3665 17.2333C11.1665 17.2333 11.0332 17.0666 11.0332 16.8666V16.3333C11.0332 16.2 11.0998 16.0666 11.2332 16C12.6665 15.0333 13.5998 13.4 13.5998 11.5666L13.6332 11.3333C13.6665 11.1666 13.7998 11.0333 13.9665 11C14.4332 10.9 14.8332 10.5333 14.9332 10.0666C15.0665 9.36664 14.5998 8.76664 13.9665 8.6333C13.8665 8.59997 13.7998 8.49997 13.7998 8.39997L13.9332 6.26664C13.9665 -1.90003 2.16651 -2.00003 2.09984 6.1333L2.29984 8.46664C2.29984 8.56664 2.26651 8.6333 2.16651 8.66664C1.63317 8.86664 1.26651 9.46664 1.43317 10.1C1.53317 10.5333 1.96651 10.8333 2.43317 10.9666C2.63317 11 2.76651 11.1666 2.76651 11.3666V11.5666C2.76651 13.4333 3.73317 15.1 5.19984 16.0666C5.26651 16.1 5.29984 16.1666 5.29984 16.2333V16.9C5.29984 17.0666 5.16651 17.2333 4.96651 17.2333C3.76651 17.3 3.63317 17.6 3.59984 18.6333C3.56651 18.6666 3.53317 18.7333 3.49984 18.7666C1.49984 19.6 0.0331739 20.8 0.0998405 23.7C0.0998405 23.8666 0.233174 24 0.433174 24H15.8332C15.9998 24 16.1665 23.8666 16.1665 23.7C16.2332 20.8 14.7998 19.7333 12.7998 18.8666C12.7332 18.7666 12.6998 18.7333 12.6665 18.6666Z" fill="#88919F"/>
</g>
<defs>
<clipPath id="clip0_993_4">
<rect width="24" height="24" fill="white"/>
</clipPath>
</defs>
</svg>
