<svg width="24" height="24" viewBox="0 0 24 24" fill="none" xmlns="http://www.w3.org/2000/svg">
<path d="M12 2C17.523 2 22 6.477 22 12C22 17.523 17.523 22 12 22C6.47701 22 2.00001 17.523 2.00001 12C1.99838 10.6698 2.26297 9.35266 2.7782 8.12626C3.29342 6.89986 4.04886 5.78896 5.00001 4.859" stroke="#818181" stroke-width="1.5" stroke-linecap="round"/>
<path d="M5 12C5 13.3845 5.41054 14.7378 6.17971 15.889C6.94888 17.0401 8.04213 17.9373 9.32122 18.4672C10.6003 18.997 12.0078 19.1356 13.3656 18.8655C14.7235 18.5954 15.9708 17.9287 16.9497 16.9497C17.9287 15.9708 18.5954 14.7235 18.8655 13.3656C19.1356 12.0078 18.997 10.6003 18.4672 9.32122C17.9373 8.04213 17.0401 6.94888 15.889 6.17971C14.7378 5.41054 13.3845 5 12 5" stroke="#818181" stroke-width="1.5" stroke-linecap="round"/>
<path d="M12 16C13.0609 16 14.0783 15.5786 14.8284 14.8284C15.5786 14.0783 16 13.0609 16 12C16 10.9391 15.5786 9.92172 14.8284 9.17157C14.0783 8.42143 13.0609 8 12 8" stroke="#818181" stroke-width="1.5" stroke-linecap="round"/>
</svg>
