<svg width="24" height="24" viewBox="0 0 24 24" fill="none" xmlns="http://www.w3.org/2000/svg">
<path d="M8.62302 22.6602H3.875V6.44014C3.875 5.86058 4.34483 5.39075 4.92439 5.39075H7.57363C8.15319 5.39075 8.62302 5.86058 8.62302 6.44014V22.6602Z" fill="#87909F"/>
<path d="M14.9262 22.6602H10.1782V13.8837C10.1782 13.3042 10.6481 12.8344 11.2276 12.8344H13.8768C14.4564 12.8344 14.9262 13.3042 14.9262 13.8837V22.6602Z" fill="#87909F"/>
<path d="M21.2299 22.6602H16.4819V3.79268C16.4819 3.21311 16.9518 2.74329 17.5313 2.74329H20.1806C20.7601 2.74329 21.2299 3.21311 21.2299 3.79268L21.2299 22.6602Z" fill="#87909F"/>
<path d="M22.4384 22.9415H1.5C1.41298 22.9415 1.32952 22.9069 1.26798 22.8454C1.20645 22.7838 1.17188 22.7004 1.17188 22.6133V1.875C1.17188 1.78798 1.20645 1.70452 1.26798 1.64298C1.32952 1.58145 1.41298 1.54688 1.5 1.54688C1.58702 1.54688 1.67048 1.58145 1.73202 1.64298C1.79355 1.70452 1.82812 1.78798 1.82812 1.875V22.2852H22.4384C22.5254 22.2852 22.6088 22.3198 22.6704 22.3813C22.7319 22.4429 22.7665 22.5263 22.7665 22.6133C22.7665 22.7004 22.7319 22.7838 22.6704 22.8454C22.6088 22.9069 22.5254 22.9415 22.4384 22.9415Z" fill="#87909F"/>
</svg>
