<svg width="24" height="24" viewBox="0 0 24 24" fill="none" xmlns="http://www.w3.org/2000/svg">
<g clip-path="url(#clip0_6816_1305)">
<path d="M23.5 12C23.5 5.64873 18.3513 0.5 12 0.5C5.64873 0.5 0.5 5.64873 0.5 12C0.5 18.3513 5.64873 23.5 12 23.5C18.3513 23.5 23.5 18.3513 23.5 12Z" stroke="#363738"/>
<path fill-rule="evenodd" clip-rule="evenodd" d="M8.65703 16.0714H15.3856C15.6427 16.0714 15.857 16.0286 16.1142 15.9C16.4142 15.7714 16.5856 15.5571 16.6713 15.3857C16.6713 15.3857 16.6713 15.3428 16.7142 15.3428C16.8427 15.1286 16.9285 14.8714 16.9285 14.5714C16.9285 14.3143 16.8856 14.0571 16.7142 13.8L12.4713 6.51427C12.3856 6.34284 12.2142 6.25712 11.9999 6.25712C11.8285 6.25712 11.657 6.34284 11.5285 6.51427L7.37132 13.8C7.2856 13.9714 7.11418 14.1857 7.11418 14.5286C7.07132 14.8286 7.15703 15.0857 7.2856 15.3428C7.41418 15.6 7.62846 15.8143 7.92846 15.9C8.1856 16.0714 8.4856 16.0714 8.65703 16.0714ZM11.4856 15.0428H8.65703C8.4856 15.0428 8.39989 15.0428 8.35703 15C8.27132 14.9571 8.22846 14.9143 8.1856 14.8286C8.14275 14.7857 8.14275 14.7 8.14275 14.6143C8.14275 14.5714 8.1856 14.5286 8.27132 14.3571L11.4856 8.7857V15.0428ZM12.5142 15.0428V8.74284L15.7713 14.3571C15.8142 14.4428 15.8142 14.5286 15.8142 14.6143C15.8142 14.7 15.8142 14.7857 15.7713 14.8286C15.7285 14.8714 15.7285 14.9143 15.6856 14.9143L15.6427 14.9571C15.557 15 15.4713 15 15.3427 15H12.5142V15.0428Z" fill="white"/>
</g>
<defs>
<clipPath id="clip0_6816_1305">
<rect width="24" height="24" fill="white" transform="matrix(1 0 0 -1 0 24)"/>
</clipPath>
</defs>
</svg>
