<svg width="24" height="24" viewBox="0 0 24 24" fill="none" xmlns="http://www.w3.org/2000/svg">
<g clip-path="url(#clip0_235_1022)">
<path d="M12 0C18.6274 0 24 5.37258 24 12C24 18.6274 18.6274 24 12 24C5.37258 24 0 18.6274 0 12C0 5.37258 5.37258 0 12 0Z" fill="#262626"/>
<path fill-rule="evenodd" clip-rule="evenodd" d="M8.65703 16.0715H15.3856C15.6427 16.0715 15.857 16.0286 16.1142 15.9C16.4142 15.7715 16.5856 15.5572 16.6713 15.3858C16.6713 15.3858 16.6713 15.3429 16.7142 15.3429C16.8427 15.1286 16.9285 14.8715 16.9285 14.5715C16.9285 14.3143 16.8856 14.0572 16.7142 13.8L12.4713 6.51433C12.3856 6.3429 12.2142 6.25719 11.9999 6.25719C11.8285 6.25719 11.657 6.3429 11.5285 6.51433L7.37132 13.8C7.2856 13.9715 7.11418 14.1858 7.11418 14.5286C7.07132 14.8286 7.15703 15.0858 7.2856 15.3429C7.41418 15.6 7.62846 15.8143 7.92846 15.9C8.1856 16.0715 8.4856 16.0715 8.65703 16.0715ZM11.4856 15.0429H8.65703C8.4856 15.0429 8.39989 15.0429 8.35703 15C8.27132 14.9572 8.22846 14.9143 8.1856 14.8286C8.14275 14.7858 8.14275 14.7 8.14275 14.6143C8.14275 14.5715 8.1856 14.5286 8.27132 14.3572L11.4856 8.78576V15.0429ZM12.5142 15.0429V8.7429L15.7713 14.3572C15.8142 14.4429 15.8142 14.5286 15.8142 14.6143C15.8142 14.7 15.8142 14.7858 15.7713 14.8286C15.7285 14.8715 15.7285 14.9143 15.6856 14.9143L15.6427 14.9572C15.557 15 15.4713 15 15.3427 15H12.5142V15.0429Z" fill="white"/>
</g>
<defs>
<clipPath id="clip0_235_1022">
<rect width="24" height="24" fill="white" transform="matrix(1 0 0 -1 0 24)"/>
</clipPath>
</defs>
</svg>
