<svg width="24" height="24" viewBox="0 0 24 24" fill="none" xmlns="http://www.w3.org/2000/svg">
<g clip-path="url(#clip0_6816_1280)">
<path d="M23.5 12C23.5 18.3513 18.3513 23.5 12 23.5C5.64873 23.5 0.5 18.3513 0.5 12C0.5 5.64873 5.64873 0.5 12 0.5C18.3513 0.5 23.5 5.64873 23.5 12Z" stroke="#363738"/>
<path d="M4.84781 13.2435C4.84712 11.46 5.29158 10.3158 5.85194 9.61597L5.85263 9.61514C6.25957 9.11155 6.705 8.84598 7.07372 8.73411C7.10571 8.56352 7.14974 8.37577 7.20997 8.17971C7.43386 7.44987 7.90892 6.55361 8.91388 6.14848C9.4248 5.9448 9.90831 5.85064 10.3537 5.8494C10.3571 5.8494 10.3609 5.84912 10.3648 5.84912C10.731 5.84912 11.0697 5.91337 11.3721 6.02649C11.5795 5.84497 11.8245 5.68878 12.1089 5.57566C12.6183 5.37254 13.1012 5.2788 13.5462 5.27714C13.5504 5.27714 13.5551 5.27686 13.5605 5.27686C14.5684 5.2752 15.3562 5.76231 15.7814 6.4146C15.8209 6.41751 15.8615 6.42138 15.9026 6.42637C16.4325 6.49518 16.9867 6.68668 17.4241 7.0986C17.4324 7.10524 17.4403 7.11272 17.4481 7.12144C17.6083 7.15357 17.758 7.2066 17.8942 7.29064C18.1709 7.45611 18.3376 7.761 18.3355 8.07904C18.3355 8.07904 18.3358 8.08375 18.3355 8.09414C18.3352 8.139 18.3319 8.18358 18.3268 8.2272C18.339 8.24188 18.351 8.25641 18.3629 8.27137C18.5555 8.52074 18.6731 8.79461 18.7089 9.06628C18.7175 9.13523 18.7224 9.20806 18.7224 9.28671C18.7224 9.52791 18.676 9.84194 18.4881 10.1446C18.4547 10.1986 18.417 10.2511 18.3754 10.3014C18.3878 10.3556 18.3943 10.4112 18.395 10.4665C18.3954 10.47 18.3956 10.4825 18.3943 10.4989C18.3826 10.8358 18.1818 11.1314 17.8818 11.2925C17.8643 11.3375 17.8442 11.3812 17.8226 11.4237C18.2376 11.871 18.3657 12.4202 18.3651 12.8345H18.3648C18.3648 12.8373 18.3648 12.841 18.3647 12.8453C18.3628 12.9284 18.3582 13.0079 18.3492 13.0846C18.5072 13.2016 18.6301 13.3668 18.6947 13.5642C18.7291 13.668 18.7466 13.7767 18.7466 13.8852C18.7459 14.0874 18.6872 14.2864 18.5745 14.4555C18.5915 14.5312 18.6 14.607 18.6 14.6819C18.6001 15.0243 18.4263 15.3625 18.1148 15.5507C17.9538 15.6554 17.7855 15.7522 17.6108 15.842C17.0914 17.0749 15.5537 18.4252 12.4092 18.4254C12.3987 18.4254 12.3884 18.4254 12.378 18.4252H12.3609C11.8518 18.4252 11.3011 18.3917 10.7032 18.3197C9.81346 18.2099 8.39991 17.9046 7.15943 17.1513C5.92989 16.4133 4.8564 15.1561 4.84823 13.2833L4.84781 13.2816V13.2456V13.2435Z" fill="white"/>
<path d="M14.6129 10.2399C14.5888 10.0638 14.5317 9.69825 14.2801 9.35681C14.2569 9.32455 14.2295 9.29353 14.2025 9.2621C14.1996 9.21392 14.2095 9.17182 14.2459 9.13527C15.2305 8.45847 16.6934 8.24039 17.3547 8.3045C17.8055 8.34936 18.0844 8.84145 18.1211 9.13929C18.1605 9.46218 18.0943 10.0765 17.3563 10.2662C16.481 10.4915 14.9209 10.5891 14.7001 10.368C14.6677 10.3357 14.6403 10.3057 14.6152 10.2765C14.614 10.2647 14.6144 10.2517 14.6129 10.2399Z" fill="#222326"/>
<path d="M15.2147 9.4669C15.2147 9.84573 15.5312 10.1523 15.9219 10.1523C16.3124 10.1523 16.6289 9.84573 16.6289 9.4669C16.6289 9.08862 16.3124 8.78137 15.9219 8.78137C15.5312 8.78137 15.2147 9.08862 15.2147 9.4669Z" fill="white"/>
<path d="M15.4836 9.308C15.4836 9.42846 15.5817 9.52636 15.7023 9.52636C15.823 9.52636 15.9209 9.42846 15.9209 9.308C15.9209 9.18699 15.823 9.08923 15.7023 9.08923C15.5817 9.08923 15.4836 9.18699 15.4836 9.308Z" fill="#222326"/>
<path d="M8.89308 10.7477C8.89308 10.4736 9.33934 10.4583 9.62679 10.3147C10.1042 10.0764 10.919 9.16533 12.6851 9.0421C14.0818 8.9442 14.268 9.9468 14.3118 10.2797C14.3734 10.7478 14.0907 11.5523 12.2609 11.6583C10.8644 11.7399 10.0422 11.0749 9.59148 10.9868C9.14051 10.8982 8.89308 10.9335 8.89308 10.7477Z" fill="#222326"/>
<path d="M10.9011 10.4656C10.9011 10.9292 11.2892 11.3055 11.7676 11.3055C12.2458 11.3055 12.6338 10.929 12.6338 10.4656C12.6338 10.0018 12.2458 9.62598 11.7676 9.62598C11.2892 9.62598 10.9011 10.0019 10.9011 10.4656Z" fill="white"/>
<path d="M11.2633 10.2771C11.2633 10.4147 11.3747 10.5264 11.5119 10.5264C11.6503 10.5264 11.7617 10.4147 11.7617 10.2771C11.7617 10.1394 11.6503 10.0277 11.5119 10.0277C11.3747 10.0277 11.2633 10.1394 11.2633 10.2771Z" fill="#222326"/>
<path d="M17.3859 8.00237C17.3 7.99338 17.2076 7.99005 17.109 7.99005C16.3389 7.99421 15.1088 8.22239 14.1592 8.83301C14.14 8.79382 14.1205 8.75491 14.0978 8.71891C14.0805 8.69247 14.0607 8.66824 14.0415 8.64317C14.7287 7.97759 15.5349 7.77294 16.6083 7.66771C16.7295 7.65525 16.8401 7.64957 16.9416 7.64957C17.5522 7.66287 17.7407 7.82528 17.743 8.08919C17.743 8.09501 17.7405 8.10317 17.7405 8.10913C17.635 8.05444 17.5169 8.01553 17.3859 8.00237ZM7.34942 9.25379C7.38376 9.69673 7.47459 9.86219 7.5027 9.85901C7.53136 9.8561 7.54673 9.73619 7.57151 9.52282C7.5974 9.31001 7.6316 9.00234 7.71676 8.63639C7.8033 8.27321 7.9437 7.84453 8.21716 7.45781C8.35604 7.26825 8.52731 7.0913 8.73777 6.95477C8.79191 6.92307 8.8437 6.88721 8.90213 6.86062L8.98783 6.81784L9.07784 6.78156C9.13571 6.75539 9.20536 6.73697 9.27099 6.7151C9.33787 6.69544 9.40322 6.66857 9.4719 6.65362C9.7203 6.58591 9.97382 6.54604 10.2265 6.53039C10.4789 6.52277 10.7302 6.5459 10.9687 6.61028C11.3379 6.70554 11.6726 6.91282 11.9113 7.19847C11.814 7.18213 11.7162 7.1849 11.6208 7.17811C11.5718 7.17617 11.5231 7.17161 11.4745 7.17299C11.4267 7.1759 11.3792 7.17881 11.3323 7.18171C11.2377 7.18919 11.1444 7.19085 11.0551 7.20387C10.9659 7.21882 10.8788 7.23364 10.7938 7.2479C10.7511 7.25551 10.7089 7.26313 10.6678 7.27047C10.6268 7.27947 10.5876 7.29165 10.5482 7.30217C10.4702 7.32377 10.3942 7.34496 10.3204 7.36573C10.1728 7.40242 10.0436 7.46168 9.92356 7.5071C9.68111 7.59557 9.50153 7.70067 9.3765 7.77142C9.25285 7.8437 9.18916 7.89271 9.1983 7.91251C9.20757 7.93245 9.28788 7.92054 9.42454 7.88357C9.56217 7.84827 9.75159 7.77571 9.99431 7.71701C10.4699 7.58477 11.1492 7.42679 11.8799 7.51028C12.2137 7.54587 12.5345 7.65594 12.8152 7.82459C12.884 7.86848 12.9499 7.91639 13.0154 7.96499L13.1036 8.04433C12.7876 7.95364 12.4581 7.93024 12.1381 7.94713C11.6949 7.97828 11.2867 8.08171 10.9328 8.21062C10.5781 8.33773 10.2743 8.48741 10.028 8.62559C9.53545 8.90265 9.26517 9.12419 9.28428 9.15534C9.3074 9.19356 9.61604 9.03488 10.1202 8.81224C10.3726 8.7005 10.6757 8.57547 11.0196 8.46761C11.3629 8.35822 11.7492 8.26974 12.1562 8.24081C12.5272 8.22073 12.9041 8.25811 13.2372 8.39976C13.4023 8.4701 13.5582 8.56397 13.6851 8.68347C13.7504 8.7419 13.8048 8.80905 13.8506 8.87828C13.8794 8.92176 13.9002 8.96787 13.9157 9.0119C13.6554 8.84062 13.3071 8.72694 12.871 8.73082C12.8038 8.73082 12.735 8.73304 12.664 8.73844C11.7323 8.80282 11.0367 9.07988 10.5235 9.37024C10.0156 9.65824 9.66394 9.96188 9.491 10.0426C9.3452 10.1315 9.04419 10.1341 8.76284 10.3597C8.66702 10.4404 8.58505 10.5937 8.5892 10.7475C8.58214 10.8593 8.64791 11.0153 8.74899 11.0879C8.84647 11.1632 8.93217 11.1821 9.00916 11.2007C9.1641 11.2324 9.32402 11.2429 9.53379 11.2846C9.65467 11.3012 9.97091 11.4697 10.3849 11.6385C10.8035 11.8067 11.3487 11.9687 12.0233 11.9687C12.024 11.9687 12.0247 11.9687 12.0255 11.9687C12.1077 11.9687 12.192 11.9665 12.2786 11.9614C13.1598 11.9095 13.7383 11.704 14.1129 11.4044C14.2876 11.2662 14.409 11.1064 14.4904 10.9439C14.5101 11.0366 14.5136 11.137 14.4982 11.235C14.4723 11.4156 14.3978 11.5924 14.287 11.7457C14.1761 11.8985 14.0303 12.0283 13.8653 12.1299C13.8262 12.1586 13.7801 12.1777 13.738 12.2019L13.6734 12.2367L13.6036 12.2675L13.4642 12.3286C13.4169 12.3484 13.3683 12.3642 13.3217 12.3821C13.2184 12.4229 13.1125 12.4489 13.0101 12.4817C12.9049 12.5043 12.8031 12.5338 12.7001 12.547C12.4956 12.5848 12.2947 12.5956 12.1034 12.5961C11.7197 12.5928 11.3731 12.5333 11.0847 12.4649C10.5091 12.3224 10.1571 12.1857 10.1383 12.2304C10.1225 12.2648 10.4403 12.4736 11.0239 12.6782C11.3159 12.7768 11.6799 12.8649 12.0963 12.8848C12.3038 12.8926 12.5243 12.887 12.7486 12.8507C12.862 12.8372 12.9739 12.8077 13.0887 12.7837C13.2007 12.7499 13.3167 12.7216 13.428 12.677C13.4799 12.6576 13.532 12.6397 13.5825 12.619L13.7331 12.5529L13.8087 12.52L13.8836 12.4797C13.9333 12.4516 13.9855 12.4294 14.0324 12.3958C14.2267 12.2759 14.4035 12.1193 14.5408 11.9297C14.679 11.7404 14.7747 11.5171 14.8092 11.2788C14.8279 11.1604 14.8266 11.0373 14.8063 10.9148C14.7973 10.8512 14.7787 10.7877 14.7536 10.7255C14.8088 10.7403 14.8648 10.7511 14.9255 10.763C15.0811 10.7868 15.2608 10.796 15.4601 10.7963C16.0739 10.7954 16.865 10.706 17.4329 10.5606C17.5524 10.5315 17.6573 10.4904 17.7526 10.4419C17.8296 10.5521 17.7347 10.7519 17.5736 10.8318C17.5186 10.8593 17.4559 10.8701 17.4013 10.8984C17.3552 10.9225 17.3639 10.9412 17.3365 11.0341C17.3164 11.1003 17.289 11.1666 17.2574 11.2287C17.2392 11.264 17.2188 11.2986 17.1942 11.33C17.1508 11.3858 17.1071 11.4402 17.0525 11.4851C16.9765 11.5462 16.8897 11.593 16.804 11.6384C16.715 11.6863 16.6232 11.73 16.5293 11.7677C16.476 11.7882 16.4217 11.8069 16.3666 11.8227C16.282 11.8472 16.195 11.8649 16.1075 11.8756C15.9728 11.8926 15.837 11.8951 15.7014 11.8949C15.6091 11.8948 15.5152 11.8909 15.4231 11.8988C15.3852 11.9017 15.3467 11.9067 15.3135 11.9264C15.3126 11.9267 15.3061 11.93 15.3061 11.9307C15.2428 11.944 16.2436 12.4471 17.2548 11.6947C17.6526 12.0304 17.7721 12.4895 17.7732 12.8381C17.7745 12.897 17.7703 12.9527 17.7638 13.0036C17.6061 13.0078 17.4462 13.0547 17.3047 13.1494C16.4858 13.7064 15.0476 14.062 13.5903 14.0584C13.5837 14.0584 13.5763 14.0584 13.5691 14.0584C13.5627 14.0584 13.5607 14.0584 13.5604 14.0584C12.52 14.0585 11.4638 13.8896 10.6033 13.5709C10.0961 13.3844 9.59568 13.1385 9.22834 12.8048C9.08268 12.6739 8.9348 12.5151 8.7386 12.3682C8.54434 12.2219 8.28736 12.0942 7.97568 12.0684C7.93594 12.0646 7.89703 12.0632 7.85923 12.0632C7.56002 12.0614 7.28711 12.1738 7.09202 12.353C6.89554 12.5317 6.77245 12.767 6.71651 13.0158V13.0162C6.69643 13.1058 6.68827 13.1957 6.68827 13.2844C6.68827 13.3001 6.68951 13.3156 6.69007 13.3308C6.68868 13.3542 6.68827 13.378 6.68827 13.401C6.69034 13.6817 6.76663 13.9492 6.91202 14.1735C7.54368 15.1277 8.55334 15.7494 9.67322 16.1535C10.7995 16.5564 12.0696 16.7451 13.3257 16.7462C14.5086 16.7422 15.6793 16.5759 16.7129 16.2179C16.0765 17.0521 14.7766 17.847 12.3435 17.8507C11.8599 17.8507 11.3316 17.8189 10.7545 17.7491C9.92231 17.6487 8.57051 17.3496 7.44122 16.6609C6.31068 15.9681 5.40763 14.9091 5.4057 13.2456C5.40694 10.0984 6.8396 9.34739 7.34942 9.25379ZM13.8707 8.45584C13.8146 8.40474 13.7548 8.35864 13.693 8.31627C13.6871 8.30367 13.6832 8.28927 13.6763 8.2775C13.6514 8.23485 13.632 8.18653 13.6016 8.14818L13.5168 8.02785C13.4865 7.99074 13.4534 7.95558 13.4215 7.9193L13.3729 7.86544L13.3197 7.81753L13.2124 7.72144C13.1364 7.66453 13.059 7.60845 12.9791 7.55722C12.8234 7.46334 12.6579 7.38761 12.4873 7.32862C12.4578 7.2677 12.4218 7.20234 12.4109 7.18421C12.272 6.95491 12.0887 6.75373 11.8757 6.59381C11.8221 6.55337 11.7663 6.51613 11.7094 6.4811C11.8774 6.33073 12.0722 6.20237 12.3036 6.10974C12.7586 5.92864 13.1721 5.85193 13.5398 5.85193C14.3575 5.85262 14.9521 6.23021 15.2763 6.71745C14.2711 6.88374 14.0436 7.13644 14.0591 7.1723C14.0773 7.21577 14.2772 7.16621 14.594 7.10819C14.9104 7.05336 15.3507 6.99894 15.8258 7.05571C16.1687 7.09905 16.5052 7.21204 16.7827 7.39965C16.7186 7.40284 16.6524 7.40741 16.5831 7.41405C15.4995 7.51901 14.6138 7.7375 13.8707 8.45584Z" fill="#222326"/>
<path d="M7.07066 13.0953C7.15831 12.7026 7.46846 12.3892 7.942 12.4306C8.41484 12.4725 8.66615 12.7875 8.98323 13.0747C9.40526 13.4564 9.94692 13.717 10.4761 13.9122C11.3891 14.2495 12.4841 14.423 13.5656 14.4226C15.0887 14.4263 16.5857 14.0715 17.5071 13.4512C17.7408 13.2948 18.057 13.3585 18.2129 13.5924C18.3237 13.7587 18.3219 13.9657 18.2284 14.1281C17.2887 14.7426 15.4699 15.3061 13.5101 15.3045C11.6284 15.3045 9.62126 14.7926 8.09278 13.3529C8.03421 13.2976 7.94241 13.3005 7.88717 13.3587C7.8322 13.4174 7.83524 13.5093 7.89381 13.5647C9.49221 15.0694 11.5779 15.5951 13.5094 15.5951C13.5094 15.5951 13.5098 15.5951 13.5102 15.5951C15.3624 15.5934 17.0722 15.1164 18.1224 14.5302C18.1991 14.7461 18.1238 14.9938 17.924 15.1249C16.7275 15.9075 15.0404 16.2621 13.324 16.2664C12.1053 16.2655 10.873 16.0808 9.79503 15.6952C8.72029 15.3077 7.78401 14.72 7.21494 13.8571C7.08312 13.6572 7.01458 13.3483 7.07066 13.0953Z" fill="#222326"/>
</g>
<defs>
<clipPath id="clip0_6816_1280">
<rect width="24" height="24" fill="white"/>
</clipPath>
</defs>
</svg>
