<svg width="24" height="24" viewBox="0 0 24 24" fill="none" xmlns="http://www.w3.org/2000/svg">
<g clip-path="url(#clip0_235_971)">
<path d="M12 24C18.6274 24 24 18.6274 24 12C24 5.37258 18.6274 0 12 0C5.37258 0 0 5.37258 0 12C0 18.6274 5.37258 24 12 24Z" fill="#3D8130"/>
<path d="M16.5701 15.9094L16.5654 15.9047L16.5701 15.9094Z" fill="#3D8130"/>
<path d="M7.12959 9.51563L6.59053 10.5656L6.03271 11.6672L5.63897 12.6984L5.37646 13.7953L5.2124 14.9953L5.11396 16.0313L5.00146 16.7109L5.11396 17.2406L5.30615 17.6953L5.6624 18.3234L6.4874 18.8391L7.09678 19.0781C7.24678 19.125 7.40615 19.1719 7.54209 19.2141L8.26397 19.3453L9.29522 19.3922H10.1483C10.2468 19.3922 11.1093 19.3453 11.114 19.3406L12.2108 19.3594L13.2702 19.2281L13.7296 19.0359L14.0437 18.6609L14.0577 18.1641C14.039 18.1219 13.978 17.9625 13.9593 17.9016C13.9452 17.8594 13.7343 17.6109 13.5421 17.3953L13.5374 17.3906C13.453 17.2688 13.3171 17.0578 13.3171 16.9875C13.3171 16.9172 13.4015 16.7109 13.4202 16.6734L13.4296 16.6547L13.8702 16.5281L14.1608 16.7391L14.4233 16.5938L14.7187 16.2984L15.2343 15.9188L15.703 15.6516L16.0733 15.5813L16.5608 15.9141L16.528 15.8766L16.7296 15.6984L16.9171 15.3891V15.0656L16.8796 14.9719L16.6405 15.1641L16.214 15.2859H16.2046L15.5483 15.2719L14.5968 15.3703L14.2968 15.4031L14.0671 15.3703L13.453 15.2859L12.7593 15.1547L11.639 14.9719H11.6343L10.5608 14.5266L9.61865 13.9828L9.04209 13.5938L8.98584 13.3172L9.06084 13.0594L9.29053 12.8906L9.8249 13.0125L10.9921 13.3734C11.564 13.4906 12.4358 13.6641 12.4921 13.6688C12.5202 13.6688 12.6327 13.6875 12.914 13.7344C13.214 13.7813 13.6265 13.8516 13.7108 13.8516C13.8562 13.8516 14.9765 13.9125 15.0421 13.9172C15.103 13.9172 16.0124 13.8984 16.1108 13.8984C16.1765 13.8984 16.528 13.7813 16.739 13.7063L17.0577 13.3266L17.3624 12.7969C17.3812 12.6422 17.3624 12.4875 17.3062 12.3422C17.2312 12.1453 17.0905 11.9766 16.9124 11.8641C16.8187 12.0422 16.6968 12.1547 16.5562 12.2063C16.5046 12.225 16.4437 12.2344 16.3874 12.2344C16.303 12.2344 16.2187 12.2156 16.1483 12.1781L16.1952 12.0938C16.2983 12.1453 16.4155 12.1547 16.528 12.1172C16.6546 12.0703 16.7624 11.9578 16.8468 11.7844C16.7437 11.8219 16.6312 11.8453 16.5187 11.8453C16.4483 11.8453 16.378 11.8406 16.3077 11.8219L16.3171 11.775L16.3265 11.7281C16.3312 11.7281 16.6921 11.8172 16.964 11.6063C17.1562 11.4609 17.264 11.1984 17.2827 10.8375L16.9687 11.2078L16.589 11.3813C16.4202 11.4234 15.8577 11.5641 15.8062 11.5641C15.7874 11.5641 15.7124 11.5547 15.5296 11.5219C15.2999 11.4844 14.9577 11.4328 14.8687 11.4328C14.7093 11.4328 14.4843 11.2594 14.4608 11.2406L14.4327 11.2219L14.6108 10.7016L15.103 10.1438L15.6233 9.77344H16.2702L16.8796 9.83907L17.1421 10.1391L17.2687 10.3266V9.82032L16.7624 9.63751C16.7062 9.62813 16.2046 9.55782 16.0827 9.55782C15.9655 9.55782 15.5155 9.62813 15.4405 9.63751L14.789 10.0594L14.7374 9.97969L15.403 9.54844H15.4124C15.4358 9.54376 15.9421 9.46407 16.078 9.46407C16.2093 9.46407 16.753 9.54376 16.7765 9.54844L16.7858 9.55313L17.3343 9.75469L17.3858 9.78282L17.3905 9.74532L17.1327 9.52032L16.6687 9.29532L16.1062 9.24844L15.4593 9.36094L15.2015 9.47344L15.164 9.38438L15.4358 9.26719L16.1015 9.15001L16.6921 9.20157L16.7155 9.21563L16.5374 8.93907L16.0358 8.49844L16.0405 8.49376L14.0905 8.55001C14.0905 8.55001 13.8374 8.58282 13.5468 8.62032L13.8233 9.01876L13.964 9.26719L13.8937 9.51563L13.7999 9.48751L13.8608 9.27657L13.739 9.06563L13.4437 8.63907L13.4624 8.62501C13.0968 8.67188 12.7077 8.71876 12.6843 8.71876C12.6421 8.71876 11.0765 8.83594 11.0108 8.83594C10.8796 8.82657 10.7483 8.81251 10.6218 8.78438C10.5983 8.77032 9.55303 8.39063 9.51553 8.36719C9.47803 8.34376 9.1124 7.99219 9.1124 7.99219L8.3999 7.77188L7.77646 8.54063L7.12959 9.51563ZM14.7374 11.6672C14.8312 11.7094 14.9155 11.7609 15.0046 11.8125L15.539 11.8734L15.8437 11.8078L15.8624 11.9016L15.5437 11.9672L15.1733 11.925C15.3327 12.0422 15.478 12.1734 15.6093 12.3234C15.703 12.4313 15.7874 12.5484 15.8577 12.6703L15.7733 12.7172C15.689 12.5766 15.5905 12.4406 15.4733 12.3234C15.3187 12.1641 15.1452 12.0188 14.9577 11.9016L14.6858 11.7469L14.7374 11.6672ZM9.37959 9.91407L9.80615 9.50626L10.1765 9.20157L10.7062 9.09844L11.264 9.07969H11.8593L12.3515 9.09844L13.3499 9.11719L13.664 9.30938L14.0483 9.66094L14.2687 9.93282L14.3718 10.4859L14.278 10.5047L14.1796 9.97501L13.978 9.72188L13.6077 9.38438L13.3265 9.21094L12.5437 9.19688L12.8858 9.38438C13.0687 9.47813 13.3827 9.64688 13.4155 9.71719C13.439 9.75469 13.6874 9.99844 13.9171 10.2141L13.9218 10.2188L14.2733 10.6734L14.3249 11.0484L14.2312 11.0625L14.1843 10.7156L13.8515 10.2844C13.7343 10.1766 13.3687 9.82969 13.3358 9.76407C13.3077 9.72657 13.064 9.58594 12.8483 9.47344L12.3468 9.19688L11.864 9.18282H11.2733L10.7202 9.19688L10.228 9.29063L9.87647 9.57657L9.47803 9.96094L9.43584 10.2141L9.52022 10.2891L9.73115 10.1766L10.078 9.74532L10.7062 9.50626L11.5218 9.42188L12.2108 9.48751L13.1062 9.95157L13.4765 10.1719L13.8327 10.6453L13.9968 11.1609L14.2358 11.3156V11.5266L14.0155 11.7281L13.6218 11.8922L13.453 12.0328L13.2749 12.3234L13.1858 12.4688L13.1765 12.4734C13.0593 12.5344 12.853 12.6422 12.7968 12.6422C12.7546 12.6516 12.4921 12.7688 12.2577 12.8859L12.2343 12.8906C12.2155 12.8953 11.803 13.0219 11.6999 13.0406L11.6858 12.9469C11.7749 12.9328 12.164 12.8156 12.2015 12.8016C12.4358 12.6891 12.7265 12.5531 12.778 12.5531C12.8905 12.5109 12.9983 12.4594 13.1062 12.3984L13.1483 12.3281L13.364 11.9766L13.4155 11.9344C13.2655 11.9203 13.0687 11.8969 13.0171 11.8688C12.9937 11.8594 12.853 11.8406 12.1171 11.8406C11.9343 11.8406 11.503 11.7422 11.4421 11.7234C11.3952 11.7094 10.9546 11.5781 10.9499 11.5781L10.9405 11.5734L10.9312 11.5641C10.9265 11.5594 10.5187 11.1703 10.2187 10.9969L10.2655 10.9125C10.5562 11.0813 10.9265 11.4281 10.9921 11.4891C11.0624 11.5078 11.428 11.6203 11.4749 11.6344C11.5265 11.6531 11.9483 11.7469 12.1171 11.7469C13.003 11.7469 13.0405 11.7703 13.064 11.7891C13.0968 11.8078 13.3077 11.8313 13.4858 11.8453L13.4812 11.8781L13.5515 11.8172L13.9452 11.6531L14.1187 11.4938V11.3766L13.9968 11.2969L14.0015 11.3109L13.5937 11.4609L13.0312 11.5266C13.003 11.5266 12.8812 11.5313 12.7452 11.5313C12.5858 11.5313 12.4124 11.5266 12.3608 11.5078C12.2858 11.4844 11.8124 11.3813 11.578 11.3297H11.5733L11.5687 11.325C11.2733 11.1656 10.9077 10.9641 10.8796 10.9125C10.8562 10.8844 10.6733 10.7906 10.5187 10.7156H10.514L9.99365 10.4109L9.92334 10.425L9.91397 10.3641L9.7499 10.2703L9.49678 10.4063L9.31865 10.2516L9.37959 9.91407ZM9.59522 12.1594L9.61865 12.2531L9.2999 12.3281L9.14053 12.3656L9.13115 12.3281L9.11709 12.2719L9.59522 12.1594ZM9.79678 12.6047L9.77334 12.6984C9.66553 12.675 9.55303 12.6797 9.44522 12.6984C9.26709 12.7313 9.00459 12.8344 8.75147 13.125L8.68115 13.0641C9.20147 12.4547 9.77334 12.5953 9.79678 12.6047Z" fill="#3D8130"/>
<path d="M10.439 10.2328C10.4671 10.2281 11.1327 10.1484 11.2171 10.1484C11.2499 10.1484 11.3437 10.1578 11.4655 10.1672C11.6296 10.1813 11.9062 10.2047 11.9483 10.2C12.014 10.1813 12.6702 10.125 12.7452 10.1156L13.1343 10.0875L13.0546 10.0406L12.178 9.58595L11.5171 9.52032L10.7202 9.60001L10.1296 9.82501L9.82959 10.2L10.0218 10.3125L10.439 10.2328Z" fill="#3D8130"/>
<path d="M12.7498 10.2141C12.4592 10.2422 12.0139 10.2844 11.967 10.2938C11.9248 10.3031 11.7748 10.2938 11.4561 10.2656C11.3482 10.2563 11.2451 10.2469 11.217 10.2469C11.1514 10.2469 10.6451 10.3078 10.4529 10.3266L10.1436 10.3828L10.5654 10.6313C10.6967 10.6922 10.9217 10.8047 10.9592 10.8609C10.9967 10.8984 11.3154 11.0813 11.6107 11.2406C11.6857 11.2547 12.3045 11.3906 12.3982 11.4234C12.4639 11.4469 12.8248 11.4422 13.0357 11.4375L13.5889 11.3719L13.9217 11.2453L13.9029 11.2359L13.7342 10.7016L13.4014 10.2563L13.2045 10.1391L13.2092 10.1859L12.7498 10.2141Z" fill="#3D8130"/>
<path d="M17.0812 10.1766L16.8469 9.91407L16.275 9.84845H15.6656L15.1734 10.2L14.7047 10.7297L14.5547 11.1656C14.6297 11.2219 14.7797 11.3156 14.8781 11.3156C14.9766 11.3156 15.2953 11.3672 15.5531 11.4094C15.675 11.4281 15.7969 11.4469 15.8156 11.4469C15.8578 11.4422 16.2984 11.3344 16.5703 11.2688L16.9172 11.1094L17.1937 10.7906L17.1703 10.6406L16.3172 10.2938L15.225 10.2609L15.2297 10.1672L16.3406 10.2L17.2594 10.575L17.2969 10.8141C17.2969 10.8 17.2969 10.7859 17.2969 10.7719V10.5094L17.0812 10.1766Z" fill="#3D8130"/>
<path d="M16.0594 15.675L15.7406 15.7359L15.2906 15.9937L14.7844 16.3687L14.6437 16.5094L14.9625 16.7344L14.9859 16.9125L14.7703 17.1281L14.7047 17.0625L14.8875 16.8797L14.8781 16.7906L14.5781 16.5797L14.4891 16.6687L14.3016 16.7719L14.25 17.025L14.5125 17.2547L14.8922 17.2406C14.9625 17.189 15.0797 17.1141 15.1359 17.1094C15.1922 17.0766 15.2484 17.0391 15.3 16.9969C15.4266 16.8984 15.4781 16.8656 15.5156 16.8656C15.6281 16.8094 15.7359 16.7484 15.8391 16.6781L15.8531 16.6687L16.3125 16.7203L16.4719 16.8797L16.4391 16.9125C16.3406 17.0203 16.2281 17.1609 16.2234 17.1937C16.2234 17.2172 16.2187 17.2406 16.2094 17.2594L16.3172 17.1984L16.8234 16.8375L16.8797 16.9172L16.3641 17.2828L16.125 17.4141C16.1156 17.4281 16.1063 17.4422 16.1016 17.4469L16.0828 17.4328L15.7172 17.6344L15.4641 18L15.375 18.2156L15.5578 18.4734L15.7594 18.7031L15.9984 18.7312L16.2188 18.6844L16.2141 18.6375L16.4578 18.2531L16.9172 17.8078L16.9828 17.8781L16.5281 18.3187L16.3078 18.6609L16.3219 18.9187L16.5563 19.0781L16.8656 19.1109L17.0391 19.0594L17.0062 19.0078L17.0297 18.9797C17.0391 18.9656 17.2922 18.6797 17.3438 18.6328C17.3813 18.5953 17.5969 18.3469 17.7047 18.225L17.775 18.2859C17.7609 18.3 17.4609 18.6516 17.4094 18.6984C17.3719 18.7359 17.1891 18.9375 17.1234 19.0125L17.2875 19.2562H17.5641L17.8031 19.1484L18 18.8578L18.2625 18.5766L18.3328 18.6422L18.0703 18.9187L17.8688 19.2234L17.5828 19.35H17.2359L17.0906 19.1344L16.8703 19.2L16.5187 19.1672L16.2281 18.9656L16.2188 18.7781L15.9984 18.825L15.7078 18.7875L15.4875 18.5344L15.1594 18.3375L14.8172 17.9578L14.7328 17.3672L14.8266 17.3531L14.8969 17.8594L15.3047 17.5359L15.7453 17.1141L15.9984 16.7672L15.8766 16.7531C15.7406 16.8422 15.5813 16.9406 15.525 16.95C15.4688 16.9828 15.4125 17.0203 15.3609 17.0625C15.2297 17.1609 15.1781 17.1937 15.1453 17.1937C15.075 17.2265 15.0047 17.2687 14.9437 17.3156L14.9297 17.325L14.4844 17.3437L14.1516 17.0484L14.1984 16.8234L14.1656 16.8422L13.8656 16.6266L13.5141 16.7297C13.4766 16.8141 13.4484 16.8984 13.4297 16.9875C13.4344 17.025 13.5375 17.1984 13.6312 17.3344C13.7578 17.475 14.0484 17.8078 14.0672 17.8781C14.0813 17.9297 14.1422 18.0797 14.1656 18.1359L14.1703 18.1453L14.1563 18.7828L14.3391 19.0547C14.4328 19.1109 15.1219 19.5141 15.2016 19.5609C15.2578 19.5937 15.7547 19.7344 16.0594 19.8187L17.0859 19.9172L17.9109 19.8047L18.6188 19.4812L19.0031 19.1109L18.9141 18.7828L18.4406 17.9016L18.0984 17.3812L17.5031 16.7344L16.6266 16.2516L16.4953 15.9703L16.0594 15.675Z" fill="#3D8130"/>
<path d="M16.8045 13.7766L16.7904 13.7812C16.6967 13.8141 16.2186 13.9828 16.1154 13.9828C16.017 13.9828 15.0561 13.9969 15.0467 14.0016C15.0326 14.0016 13.8607 13.9359 13.7154 13.9359C13.6217 13.9359 13.242 13.875 12.9045 13.8187C12.717 13.7859 12.5248 13.7578 12.4967 13.7578C12.4311 13.7578 11.217 13.5094 10.9732 13.4625H10.9686L9.80137 13.1016L9.31387 12.9938L9.14512 13.1203L9.08887 13.3219L9.13106 13.5375L9.6748 13.9031L10.6076 14.4422L11.667 14.8828L12.7779 15.0609L13.4717 15.1922L14.3014 15.3047L15.5482 15.1734H15.5529L16.2045 15.1875L16.5982 15.075L16.9311 14.8078L17.2029 14.3906L17.2639 14.1984L17.1748 13.9828C16.7811 14.3391 16.7389 14.3531 16.7154 14.3578L16.3123 14.4562L15.192 14.5078H15.1873L14.0154 14.4422L12.8529 14.2313L11.9154 14.25H11.9107L10.9357 14.0016L10.0732 13.7016L9.61387 13.4203L9.66543 13.3406L10.1201 13.6172L10.9686 13.9125L11.9295 14.1562L12.867 14.1375H12.8717L14.0342 14.3484L15.1967 14.4141L16.3076 14.3672L16.6967 14.2687C16.7201 14.2594 16.8514 14.1563 17.1279 13.9031C17.1654 13.8703 17.1889 13.8469 17.1982 13.8375L17.5545 13.35L17.6764 13.1203C17.6576 13.0406 17.6389 12.9656 17.6295 12.8859C17.5826 12.8109 17.5311 12.7453 17.4701 12.6797C17.4701 12.7219 17.4701 12.7641 17.4607 12.8063V12.8156L17.1373 13.3734L16.8045 13.7766Z" fill="#983B1F"/>
<path d="M18.9891 18.75L18.5109 17.8594L18.1641 17.3297L17.5641 16.6594L16.6969 16.1859L16.5703 15.9141L16.5469 15.9281C16.5469 15.9281 16.6266 16.2188 16.6828 16.2469C16.7391 16.275 17.4891 16.6594 17.5266 16.6781C17.5641 16.6969 18.2156 17.475 18.2156 17.475L18.7406 18.3891L19.0547 19.0922C19.0547 19.0922 18.6516 19.5047 18.6281 19.5094C18.6047 19.5141 17.8266 19.8937 17.8031 19.8937C17.7797 19.8937 17.025 19.9781 16.9828 19.9688C16.9406 19.9547 16.0125 19.875 15.9422 19.8703C15.8672 19.8656 15.0094 19.5234 15.0094 19.5234L14.2687 19.0781L14.0578 18.75L13.7625 19.0828C13.7625 19.0828 13.3453 19.2938 13.2891 19.2938C13.2328 19.2938 12.2109 19.4297 12.1312 19.4297H10.0734C10.0734 19.4297 8.03906 19.3922 7.95 19.35C7.92188 19.3359 7.75781 19.2844 7.54219 19.2141L7.36875 19.1813L7.09687 19.0781C6.76406 18.975 6.46406 18.8859 6.46406 18.8859L5.625 18.3422C5.625 18.3422 5.27344 17.7328 5.25937 17.7C5.24531 17.6672 5.02969 17.1562 5.02969 17.1328C5.02969 17.1094 4.95469 16.7016 4.95469 16.7016L5.10469 15.7687L5.17031 14.7891L5.32969 13.7203C5.32969 13.7203 5.59688 12.6469 5.60156 12.6C5.60625 12.5484 6.0375 11.4891 6.0375 11.4891L6.49219 10.6688L7.09219 9.43125L7.75312 8.49844L8.39531 7.73438L8.4375 7.74844L8.3625 7.6875L7.73906 8.46094L7.04531 9.46875L6.50156 10.5281L5.94375 11.625L5.54531 12.6656L5.27812 13.7719L5.11406 14.9813L5.01562 16.0172L4.89844 16.7156L5.01562 17.2687L5.21719 17.7375L5.5875 18.3937L6.43594 18.9281L7.33125 19.2797L8.24531 19.4484L9.29062 19.5H10.1437C10.2422 19.5 11.0625 19.4531 11.1141 19.4484L12.2156 19.4672H12.2203L13.2938 19.3359H13.2984L13.7906 19.1297L14.0438 18.825L14.2547 19.1391L14.2641 19.1437C14.2734 19.1484 15.0562 19.6031 15.1359 19.6547C15.2203 19.7062 15.9375 19.9031 16.0219 19.9219L17.0719 20.0203L17.9156 19.9031H17.9203L18.6516 19.5703L18.6609 19.5656L19.0969 19.1437L18.9891 18.75Z" fill="black"/>
<path d="M7.75303 8.49844L7.09209 9.43125L6.49209 10.6688L6.0374 11.4891C6.0374 11.4891 5.60615 12.5484 5.60147 12.6C5.59678 12.6516 5.32959 13.7203 5.32959 13.7203L5.17022 14.7891L5.10459 15.7687L4.95459 16.7016C4.95459 16.7016 5.02959 17.1094 5.02959 17.1328C5.02959 17.1562 5.24521 17.6672 5.25928 17.7C5.27334 17.7328 5.6249 18.3422 5.6249 18.3422L6.46396 18.8859C6.46396 18.8859 6.76396 18.975 7.09678 19.0781L6.4874 18.8391L5.6624 18.3234L5.30615 17.6953L5.11396 17.2406L5.00146 16.7109L5.11396 16.0312L5.2124 14.9953L5.37646 13.7953L5.63897 12.6984L6.03271 11.6672L6.59053 10.5656L7.12959 9.51562L7.81865 8.51719L8.44209 7.74844L8.3999 7.73438L7.75303 8.49844Z" fill="black"/>
<path d="M16.0781 15.5765L15.7078 15.6469L15.2391 15.914L14.7234 16.2937L14.4281 16.589L14.1656 16.7344L13.875 16.5234L13.4344 16.65L13.425 16.6687C13.4062 16.7109 13.3219 16.9125 13.3219 16.9828C13.3219 17.0531 13.4625 17.2687 13.5422 17.3859L13.5469 17.3906C13.7391 17.6062 13.95 17.8547 13.9641 17.8969C13.9781 17.9578 14.0438 18.1172 14.0625 18.1594L14.0484 18.6562L13.7344 19.0312L13.275 19.2234L12.2156 19.3547L11.1188 19.3359C11.1094 19.3359 10.2469 19.3875 10.1531 19.3875H9.3L8.26875 19.3406L7.54688 19.2094C7.75781 19.275 7.92656 19.3312 7.95469 19.3453C8.03906 19.3875 10.0781 19.425 10.0781 19.425H12.1359C12.2156 19.425 13.2422 19.289 13.2938 19.289C13.35 19.289 13.7672 19.0781 13.7672 19.0781L14.0625 18.7453L14.2734 19.0734L15.0141 19.5187C15.0141 19.5187 15.8719 19.8562 15.9469 19.8656C16.0219 19.8703 16.9453 19.95 16.9875 19.964C17.0297 19.9781 17.7844 19.889 17.8078 19.889C17.8313 19.889 18.6094 19.514 18.6328 19.5047C18.6563 19.5 19.0594 19.0875 19.0594 19.0875L18.7453 18.3844L18.2203 17.4703C18.2203 17.4703 17.5688 16.6922 17.5313 16.6734C17.4938 16.6547 16.7438 16.2703 16.6875 16.2422C16.6313 16.214 16.5516 15.9234 16.5516 15.9234L16.575 15.9094V15.9047L16.0781 15.5765ZM16.6219 16.2515L17.4984 16.7344L18.0844 17.3812L18.4266 17.9015L18.9 18.7828L18.9891 19.1109L18.6047 19.4812L17.8969 19.8047L17.0719 19.9172L16.0453 19.8187C15.7406 19.7344 15.2438 19.5937 15.1875 19.5609C15.1078 19.514 14.4188 19.1109 14.325 19.0547L14.1422 18.7828L14.1563 18.1453V18.1406C14.1328 18.0844 14.0719 17.9344 14.0578 17.8828C14.0391 17.8125 13.7484 17.4797 13.6219 17.339C13.5281 17.1984 13.4203 17.025 13.4203 16.9922C13.4391 16.9031 13.4672 16.8187 13.5047 16.7344L13.8563 16.6312L14.1563 16.8469L14.1891 16.8281L14.1422 17.0531L14.475 17.3484L14.9203 17.3297L14.9344 17.3203C14.9953 17.2734 15.0656 17.2312 15.1359 17.1984C15.1734 17.1984 15.2203 17.1656 15.3516 17.0672C15.4031 17.025 15.4594 16.9875 15.5156 16.9547C15.5719 16.95 15.7359 16.8469 15.8672 16.7578L15.9891 16.7719L15.7359 17.1187L15.2953 17.5406L14.8875 17.864L14.8172 17.3578L14.7234 17.3719L14.8078 17.9625L15.15 18.3422L15.4781 18.539L15.6984 18.7922L15.9891 18.8297L16.2094 18.7828L16.2188 18.9703L16.5094 19.1719L16.8609 19.2047L17.0813 19.139L17.2266 19.3547H17.5734L17.8594 19.2281L18.0609 18.9234L18.3234 18.6469L18.2531 18.5812L17.9906 18.8625L17.7938 19.1531L17.5547 19.2609H17.2781L17.1141 19.0172C17.1797 18.9422 17.3625 18.7406 17.4 18.7031C17.4516 18.6515 17.7516 18.3047 17.7656 18.2906L17.6953 18.2297C17.5875 18.3562 17.3719 18.6 17.3344 18.6375C17.2828 18.689 17.0297 18.975 17.0203 18.9844L16.9969 19.0125L17.0297 19.064L16.8563 19.1156L16.5469 19.0828L16.3125 18.9234L16.2984 18.6656L16.5188 18.3234L16.9734 17.8828L16.9078 17.8125L16.4484 18.2578L16.2047 18.6422L16.2094 18.689L15.9891 18.7359L15.75 18.7078L15.5484 18.4781L15.3656 18.2203L15.4547 18.0047L15.7078 17.639L16.0734 17.4375L16.0922 17.4515C16.0969 17.4422 16.1062 17.4328 16.1156 17.4187L16.3547 17.2875L16.8703 16.9219L16.8141 16.8422L16.3078 17.2031L16.2 17.264C16.2094 17.2453 16.2141 17.2219 16.2141 17.1984C16.2188 17.1609 16.3313 17.025 16.4297 16.9172L16.4625 16.8844L16.3031 16.725L15.8438 16.6734L15.8297 16.6828C15.7266 16.7531 15.6187 16.8187 15.5062 16.8703C15.4688 16.8703 15.4172 16.9078 15.2906 17.0015C15.2391 17.0437 15.1828 17.0812 15.1266 17.114C15.0703 17.1187 14.9578 17.1937 14.8828 17.2453L14.5031 17.2594L14.2406 17.0297L14.2922 16.7765L14.4797 16.6734L14.5687 16.5844L14.8688 16.7953L14.8781 16.8844L14.6953 17.0672L14.7609 17.1328L14.9766 16.9172L14.9531 16.739L14.6344 16.514L14.775 16.3734L15.2813 15.9984L15.7313 15.7406L16.05 15.6797L16.4813 15.975L16.6219 16.2515ZM15.3375 18.3469L15.2109 18.2719L14.9297 17.9625L15.3609 17.625L15.8063 17.1937L16.0969 16.7906L16.2609 16.8094L16.3313 16.8797C16.2422 16.9781 16.1203 17.1234 16.1203 17.189C16.1063 17.2453 16.0781 17.2969 16.0453 17.339L15.6375 17.564L15.3656 17.9531L15.2531 18.2344L15.3375 18.3469Z" fill="black"/>
<path d="M16.4857 8.79376L16.7248 9.10782C16.7248 9.10782 16.842 9.29064 16.8842 9.3047C16.9264 9.31876 17.3154 9.54376 17.3154 9.54376L17.4748 9.72189L17.442 9.82501L17.3201 9.78751L17.3389 10.3922H17.3764V9.84845L17.4842 9.90939L17.5123 9.6797L17.2076 9.41251L16.8795 9.25314L16.8936 9.24376L16.6404 8.84532L16.1295 8.39532L16.0732 8.46095H16.1248L16.4857 8.79376Z" fill="black"/>
<path d="M17.2826 11.2641C17.2826 11.2641 17.1092 11.6109 17.0904 11.6203C17.0717 11.6344 16.917 11.7 16.917 11.7L16.9311 11.7844C17.0014 11.8359 17.0717 11.8922 17.1326 11.9531C17.142 11.9672 17.2451 12.1734 17.3295 12.3281H17.4139C17.3342 12.0938 17.1748 11.8922 16.9639 11.7656C16.9732 11.7469 16.9826 11.7234 16.992 11.7047C17.0061 11.6953 17.0248 11.6859 17.0389 11.6719C17.2686 11.4984 17.3857 11.1984 17.3998 10.7766V10.4813L17.3436 10.3969L17.3576 10.8516L17.2826 11.2641Z" fill="black"/>
<path d="M16.5705 8.91563L16.7486 9.19219L16.7252 9.17813L16.1346 9.12657L15.4689 9.24376L15.1971 9.36094L15.2346 9.45001L15.4924 9.33751L16.1393 9.22501L16.7018 9.27188L17.1658 9.49688L17.4236 9.72188L17.4189 9.75938L17.3674 9.73126L16.8189 9.52969L16.8096 9.52501C16.7861 9.52032 16.2471 9.44063 16.1111 9.44063C15.9752 9.44063 15.4689 9.52032 15.4455 9.52501H15.4361L14.7705 9.95626L14.8221 10.0359L15.4736 9.61407C15.5486 9.60469 15.9986 9.53438 16.1158 9.53438C16.2377 9.53438 16.7393 9.60938 16.7955 9.61407L17.3018 9.79688V10.3125L17.1752 10.125L16.9127 9.82501L16.3033 9.75938H15.6564L15.1361 10.1297L14.6439 10.6875L14.4658 11.2078L14.4939 11.2266C14.5174 11.2453 14.7424 11.4188 14.9018 11.4188C14.9908 11.4188 15.3377 11.475 15.5627 11.5078C15.7455 11.5359 15.8205 11.55 15.8393 11.55C15.8908 11.55 16.4533 11.4094 16.6221 11.3672L17.0018 11.1938L17.3158 10.8234C17.2971 11.1844 17.1893 11.4469 16.9971 11.5922C16.7205 11.8031 16.3596 11.7141 16.3596 11.7141L16.3502 11.7609L16.3408 11.8078C16.4111 11.8219 16.4814 11.8313 16.5518 11.8313C16.6643 11.8313 16.7768 11.8125 16.8799 11.7703C16.7955 11.9438 16.6877 12.0563 16.5611 12.1031C16.4533 12.1406 16.3314 12.1313 16.2283 12.0797L16.1814 12.1641C16.2564 12.2016 16.3408 12.2203 16.4205 12.2203C16.4768 12.2203 16.533 12.2109 16.5893 12.1922C16.7299 12.1406 16.8471 12.0281 16.9455 11.85C17.1236 11.9625 17.2643 12.1313 17.3393 12.3281H17.3533C17.2736 12.1734 17.1658 11.9672 17.1564 11.9531C17.0908 11.8922 17.0252 11.8359 16.9549 11.7844L16.9408 11.7C16.9408 11.7 17.0955 11.6344 17.1143 11.6203C17.133 11.6063 17.3064 11.2641 17.3064 11.2641L17.3814 10.8563L17.3674 10.4016L17.3486 9.79688L17.4705 9.83438L17.5033 9.73126L17.3439 9.55313C17.3439 9.55313 16.9549 9.32344 16.9127 9.31407C16.8705 9.30001 16.7533 9.11719 16.7533 9.11719L16.5143 8.80313L16.1486 8.47501H16.0971L16.0924 8.47969L16.5705 8.91563ZM17.3018 10.8141L17.2643 10.575L16.3455 10.2L15.2346 10.1672L15.2299 10.2609L16.3221 10.2938L17.1752 10.6406L17.1986 10.7906L16.9221 11.1094L16.5752 11.2688C16.3033 11.3344 15.8627 11.4422 15.8205 11.4469C15.8018 11.4469 15.6799 11.4281 15.558 11.4094C15.3002 11.3672 14.9814 11.3156 14.883 11.3156C14.7893 11.3156 14.6393 11.2219 14.5596 11.1656L14.7096 10.7297L15.1783 10.2L15.6705 9.84844H16.2799L16.8518 9.91407L17.0861 10.1766L17.3064 10.5094V10.7719C17.3018 10.7859 17.3018 10.8 17.3018 10.8141Z" fill="black"/>
<path d="M14.3063 15.3938L14.6063 15.361H14.0767L14.3063 15.3938Z" fill="black"/>
<path d="M16.9732 15.3797C16.9592 15.4031 16.6873 15.8438 16.6873 15.8438L16.5654 15.9094L16.5936 15.9422L16.8092 15.7547L17.0154 15.4078V15.361H16.9732C16.9779 15.3703 16.9779 15.375 16.9732 15.3797Z" fill="black"/>
<path d="M16.9735 15.3797C16.9735 15.375 16.9782 15.3656 16.9782 15.361H16.9267V15.3797L16.7392 15.6891L16.5376 15.8672L16.5704 15.9047L16.5751 15.9094L16.697 15.8438C16.6923 15.8438 16.9642 15.4078 16.9735 15.3797Z" fill="black"/>
<path d="M17.4233 12.5062L17.4655 12.5672C17.4562 12.4875 17.4421 12.4078 17.414 12.3281H17.3296C17.3812 12.4266 17.4233 12.5062 17.4233 12.5062Z" fill="black"/>
<path d="M17.7283 13.0312C17.7236 13.0547 17.6674 13.2422 17.6533 13.2703C17.6393 13.3031 17.1986 13.9078 17.1986 13.9078L17.3018 14.1187C17.3018 14.1187 17.3205 14.2687 17.3064 14.2922C17.2924 14.3156 16.9033 14.9203 16.9033 14.9203L16.9643 15.0891C16.9643 15.0891 16.9783 15.3 16.9736 15.3656H17.0158V15.0422L16.9643 14.9016L17.0064 14.8687L17.2924 14.4281L17.3674 14.1891L17.2549 13.9125C17.2643 13.9031 17.2689 13.8984 17.2689 13.8984L17.6346 13.3969L17.7799 13.1297L17.7752 13.1109C17.7564 13.0359 17.7377 12.9562 17.7283 12.8766C17.7283 12.8578 17.7283 12.8062 17.4846 12.5484L17.4658 12.5672L17.6111 12.7734C17.6111 12.7734 17.733 13.0078 17.7283 13.0312Z" fill="black"/>
<path d="M17.3298 12.3281H17.3157C17.372 12.4734 17.3907 12.6281 17.372 12.7828L17.0626 13.3125L16.7438 13.6922C16.5282 13.7672 16.1767 13.8844 16.1157 13.8844C16.0173 13.8844 15.1079 13.8984 15.047 13.9031C14.9767 13.8984 13.861 13.8375 13.7157 13.8375C13.6313 13.8375 13.2188 13.7719 12.9188 13.7203C12.6423 13.6734 12.5251 13.6547 12.497 13.6547C12.436 13.65 11.5688 13.4766 10.997 13.3594L9.82978 12.9984L9.29541 12.8766L9.06572 13.0453L8.99072 13.3031L9.04697 13.5797L9.62354 13.9688L10.5657 14.5125L11.6392 14.9578H11.6438L12.7642 15.1406L13.4579 15.2719L14.072 15.3563H14.6063L15.5579 15.2578L16.2142 15.2719H16.2235L16.6501 15.15L16.8892 14.9578L16.9267 15.0516V15.3563H16.9782C16.9829 15.2906 16.9688 15.0797 16.9688 15.0797L16.9079 14.9109C16.9079 14.9109 17.297 14.3063 17.311 14.2828C17.3251 14.2594 17.3063 14.1094 17.3063 14.1094L17.2032 13.8984C17.2032 13.8984 17.6485 13.2937 17.6579 13.2609C17.672 13.2281 17.7235 13.0453 17.7329 13.0219C17.7376 12.9984 17.6157 12.7641 17.6157 12.7641L17.4704 12.5578L17.4282 12.4969C17.4235 12.5063 17.3813 12.4266 17.3298 12.3281ZM17.4657 12.8063C17.4704 12.7641 17.4751 12.7219 17.4751 12.6797C17.536 12.7406 17.5876 12.8109 17.6345 12.8859C17.6438 12.9656 17.6579 13.0453 17.6813 13.1203L17.5595 13.35L17.2032 13.8375C17.1938 13.8469 17.1657 13.8703 17.1329 13.9031C16.8563 14.1563 16.7298 14.2547 16.7017 14.2687L16.3126 14.3672L15.2017 14.4141L14.0392 14.3484L12.8767 14.1375H12.872L11.9345 14.1562L10.9735 13.9125L10.1251 13.6172L9.67041 13.3406L9.61885 13.4203L10.0782 13.7016L10.9407 14.0016L11.9157 14.25H11.9204L12.8579 14.2313L14.0204 14.4422L15.1923 14.5078H15.197L16.3173 14.4562L16.7204 14.3578C16.7392 14.3531 16.786 14.3391 17.1798 13.9828L17.2688 14.1984L17.2079 14.3906L16.936 14.8078L16.6032 15.075L16.2095 15.1875L15.5579 15.1734H15.5532L14.3063 15.3047L13.4767 15.1922L12.7829 15.0609L11.672 14.8828L10.6126 14.4422L9.67979 13.9031L9.13603 13.5375L9.09385 13.3219L9.1501 13.1203L9.31885 12.9938L9.80635 13.1016L10.9735 13.4625H10.9782C11.222 13.5141 12.4313 13.7578 12.5017 13.7578C12.5251 13.7578 12.722 13.7906 12.9095 13.8187C13.247 13.875 13.6267 13.9359 13.7204 13.9359C13.8657 13.9359 15.0376 14.0016 15.0517 14.0016C15.061 14.0016 16.022 13.9828 16.1204 13.9828C16.2235 13.9828 16.7017 13.8141 16.7954 13.7812L16.8095 13.7766L17.147 13.3734L17.4704 12.8156L17.4657 12.8063Z" fill="black"/>
<path d="M9.44521 12.6984C9.55303 12.675 9.66553 12.675 9.77334 12.6984L9.79678 12.6047C9.77334 12.6 9.20146 12.4547 8.68115 13.0641L8.75146 13.125C9.00459 12.8297 9.26709 12.7312 9.44521 12.6984Z" fill="black"/>
<path d="M9.29531 12.3281L9.61406 12.2531L9.59531 12.1594L9.11719 12.2719L9.13125 12.3281H9.29531Z" fill="black"/>
<path d="M9.14072 12.3656L9.29541 12.3281H9.13135L9.14072 12.3656Z" fill="black"/>
<path d="M14.9674 11.9062C15.1549 12.0281 15.3283 12.1687 15.483 12.3281H15.6143C15.483 12.1781 15.3377 12.0469 15.1783 11.9297L15.5486 11.9719L15.8674 11.9062L15.8486 11.8125L15.5439 11.8781L15.0096 11.8172C14.9252 11.7609 14.8361 11.7141 14.7424 11.6719L14.7002 11.7563L14.9674 11.9062Z" fill="black"/>
<path d="M15.7782 12.7219L15.8626 12.675C15.7923 12.5531 15.7079 12.4359 15.6142 12.3281H15.4829C15.5954 12.45 15.6938 12.5812 15.7782 12.7219Z" fill="black"/>
<path d="M9.75019 10.2703L9.91426 10.3641L9.92363 10.425L9.99394 10.4109L10.5143 10.7156H10.5189C10.6736 10.7906 10.8564 10.8844 10.8799 10.9125C10.9127 10.9594 11.2736 11.1609 11.5689 11.325L11.5736 11.3297H11.5783C11.8174 11.3813 12.2861 11.4844 12.3611 11.5078C12.4174 11.5266 12.5908 11.5313 12.7455 11.5313C12.8814 11.5313 13.008 11.5266 13.0314 11.5266L13.5939 11.4609L14.0018 11.3109L13.9971 11.2969L14.1189 11.3766V11.4938L13.9455 11.6531L13.5518 11.8172L13.4814 11.8781L13.4861 11.8453C13.308 11.8313 13.0971 11.8031 13.0643 11.7891C13.0408 11.775 13.0033 11.7469 12.1174 11.7469C11.9486 11.7469 11.5268 11.6531 11.4752 11.6344C11.4283 11.6203 11.0627 11.5078 10.9924 11.4891C10.9314 11.4281 10.5611 11.0859 10.2658 10.9125L10.2189 10.9969C10.5236 11.175 10.9314 11.5594 10.9314 11.5641L10.9408 11.5734L10.9502 11.5781C10.9549 11.5781 11.3955 11.7094 11.4424 11.7234C11.4986 11.7422 11.9299 11.8406 12.1174 11.8406C12.8533 11.8406 12.9893 11.8594 13.0174 11.8688C13.0689 11.8969 13.2658 11.9203 13.4158 11.9344L13.3643 11.9766L13.1486 12.3281H13.2611L13.4393 12.0375L13.608 11.8969L14.0018 11.7328L14.2221 11.5313V11.3203L13.983 11.1656L13.8189 10.65L13.4627 10.1766L13.0924 9.95626L12.1971 9.49219L11.508 9.42657L10.6924 9.51094L10.0643 9.75001L9.71738 10.1813L9.50645 10.2938L9.42207 10.2188L9.46426 9.96563L9.86269 9.58126L10.2143 9.29532L10.7064 9.20157L11.2596 9.18751H11.8502L12.333 9.20157L12.8346 9.47813C13.0502 9.59063 13.2986 9.73126 13.3221 9.76876C13.3549 9.83438 13.7205 10.1813 13.8377 10.2891L14.1705 10.7203L14.2174 11.0672L14.3111 11.0531L14.2596 10.6781L13.908 10.2234L13.9033 10.2188C13.6736 10.0078 13.4252 9.76407 13.4018 9.72188C13.3689 9.65157 13.0549 9.48282 12.8721 9.38907L12.5299 9.20157L13.3127 9.21563L13.5939 9.38907L13.9643 9.72657L14.1658 9.97969L14.2643 10.5094L14.358 10.4906L14.2549 9.93751L14.0346 9.66563L13.6502 9.31407L13.3361 9.12188L12.3377 9.10313L11.8455 9.08438H11.2502L10.6924 9.10313L10.1627 9.20626L9.79238 9.51094L9.36582 9.91876L9.30957 10.2563L9.48769 10.4109L9.75019 10.2703ZM13.4064 10.2516L13.7393 10.6969L13.908 11.2313L13.9268 11.2406L13.5939 11.3672L13.0408 11.4328C12.8299 11.4375 12.4689 11.4422 12.4033 11.4188C12.3096 11.3859 11.6908 11.2547 11.6158 11.2359C11.3205 11.0766 10.9971 10.8938 10.9643 10.8563C10.9268 10.8047 10.7018 10.6922 10.5705 10.6266L10.1486 10.3781L10.458 10.3219C10.6502 10.2984 11.1564 10.2422 11.2221 10.2422C11.2502 10.2422 11.3533 10.2516 11.4611 10.2609C11.7799 10.2891 11.9299 10.2984 11.9721 10.2891C12.0189 10.2797 12.4643 10.2328 12.7549 10.2094L13.2143 10.1766L13.2096 10.1297L13.4064 10.2516ZM10.1252 9.82969L10.7158 9.60469L11.5127 9.52501L12.1736 9.59063L13.0502 10.0453L13.1299 10.0922L12.7408 10.1203C12.6658 10.125 12.0096 10.1859 11.9439 10.2047C11.9018 10.2141 11.6299 10.1859 11.4611 10.1719C11.3393 10.1625 11.2455 10.1531 11.2127 10.1531C11.1283 10.1531 10.4627 10.2328 10.4346 10.2375L10.0127 10.3172L9.82051 10.2047L10.1252 9.82969Z" fill="black"/>
<path d="M13.1063 12.3984C12.9985 12.4594 12.8907 12.5062 12.7782 12.5531C12.7267 12.5531 12.436 12.6891 12.2017 12.8016C12.1595 12.8156 11.7751 12.9328 11.686 12.9469L11.7001 13.0406C11.7985 13.0219 12.2157 12.8953 12.2345 12.8906L12.2392 12.8859C12.4735 12.7734 12.7407 12.6516 12.7782 12.6422C12.8345 12.6375 13.0407 12.5344 13.1579 12.4734L13.1673 12.4687L13.2563 12.3234H13.1438L13.1063 12.3984Z" fill="black"/>
<path d="M13.5561 8.55939L13.4951 8.60157C13.5232 8.59689 13.5514 8.59689 13.5795 8.5922L13.5561 8.55939Z" fill="black"/>
<path d="M13.7768 9.04218L13.8986 9.25311L13.8377 9.46405L13.9314 9.49218L14.0018 9.24374L13.8611 8.9953L13.5846 8.59686C13.5564 8.60155 13.5283 8.60155 13.5002 8.60624L13.4814 8.6203L13.7768 9.04218Z" fill="black"/>
<path d="M16.6451 8.92969L17.0623 8.88751C17.0623 8.88751 18.1029 9.19688 18.1451 9.23907C18.1873 9.28126 18.7123 9.51094 18.7123 9.51094L19.0217 9.53907L19.0639 9.25782L18.8342 8.92969L18.1732 8.44219L17.4186 8.07657L16.9451 7.91251L16.7764 5.52188L16.3779 4.92657L15.7826 4.43907L15.0139 4.05938L14.217 4.04532L12.717 4.23282L11.3389 4.50469L11.2592 4.27032C11.1514 4.24219 11.0436 4.22344 10.9357 4.20938C10.8561 4.20938 10.1248 4.43438 10.1248 4.43438L9.67949 4.66876L9.58574 4.94063L8.94824 5.29219L8.43262 5.93907L8.13731 6.56251C8.13731 6.56251 7.9873 7.18594 7.9873 7.22344C7.9873 7.26094 8.06699 7.60313 8.12324 7.62657C8.17949 7.65001 8.59668 7.76251 8.59668 7.76251L9.14512 8.03438L9.9373 8.49376L10.9217 8.81719C10.9217 8.81719 11.8545 8.75157 11.9482 8.75157C12.042 8.75157 13.4482 8.60157 13.5279 8.60157C13.6076 8.60157 15.1498 8.47969 15.192 8.47969C15.2342 8.47969 16.1529 8.46563 16.1529 8.46563L16.5186 8.78907L16.6451 8.92969Z" fill="#C82727"/>
<path d="M16.2797 10.2562L16.4016 10.5141L16.4766 10.8094L16.4391 10.9969L16.2797 11.4047L15.7734 11.4891L14.9578 11.3437L14.8594 11.0578L14.8969 10.8L14.9813 10.3922L15.1922 10.1578L15.3281 10.2328L16.2281 10.2562" fill="black"/>
<path d="M12.5674 10.2187L12.7174 10.5047L12.7314 10.8516L12.6564 11.1609L12.4971 11.4094L12.2393 11.4234L11.2502 11.1281L10.8564 10.7812L10.908 10.5609L11.0439 10.35L11.2268 10.2047L11.9205 10.2234C11.9111 10.2187 12.5393 10.2703 12.5674 10.2187Z" fill="black"/>
<path d="M18.9373 8.96719L18.5529 8.62969L17.9998 8.25938L17.0904 7.92656L16.9639 7.875L16.9264 7.09219C16.8795 6.70781 16.8139 6.12656 16.8139 6.07969C16.8139 6.01406 16.7811 5.53594 16.7811 5.51719V5.50781L16.5092 5.01563L16.0545 4.54688L15.3561 4.14844L14.7748 3.98438H13.9779L13.1951 4.08281C12.8811 4.13437 12.3889 4.21406 12.3326 4.21406C12.2482 4.21406 11.592 4.36406 11.517 4.37813L11.2873 4.43906L11.3248 4.42031L11.2498 4.27031L11.0061 4.17656L10.6498 4.20938L10.0779 4.35L9.64668 4.62656L9.55762 4.85625L9.61855 4.87969L9.37949 4.94063H9.37012L8.86387 5.25937L8.51231 5.65781L8.19356 6.19219L7.94043 7.06406V7.37812L8.10449 7.66875L9.13105 8.03438L9.47324 8.34375L10.2373 8.69063L10.9123 8.85938L12.1732 8.775L13.9967 8.57813L15.2951 8.47969L16.3732 8.49375L17.5123 8.65781L18.4123 9.08438L18.4545 9L17.5451 8.56875L16.3873 8.40469L15.2951 8.38594L13.992 8.48438L12.1686 8.68125L10.9264 8.76094L10.2795 8.60156L9.53418 8.25938L9.1873 7.94531L8.1748 7.58438L8.04356 7.35V7.07344L8.28731 6.22969L8.59668 5.71406L8.93418 5.32969L9.41699 5.025L11.5451 4.46719C11.8217 4.40625 12.2857 4.30313 12.342 4.30313C12.4264 4.30313 13.1389 4.18594 13.2186 4.17188L13.9873 4.07344H14.7654L15.3139 4.23281L15.9936 4.62187L16.4295 5.07187L16.6826 5.53594C16.692 5.70938 16.7154 6.03281 16.7154 6.07969C16.7154 6.14531 16.8186 7.00781 16.8326 7.10156L16.8701 7.8375L16.317 7.62656L15.2248 7.50938L14.3998 7.425L13.5889 7.49063L12.6514 7.58906L11.5592 7.8375L10.7389 8.03438L10.1904 8.06719L9.4873 7.92656L9.84355 8.18438L10.1342 8.35313L10.7998 8.51719L11.4514 8.53594H11.4561L12.0373 8.47031L12.8576 8.33906L13.6592 8.20781L14.5592 8.14219L15.1826 8.10938L15.9326 8.15625L16.9498 8.2875L18.2623 8.53594L18.492 8.68594L18.8576 9.00469L18.9607 9.24375L18.9373 9.42188L18.7404 9.43594L18.3561 9.25781L17.6482 8.97656L17.0904 8.80781L16.6029 8.85938L16.6123 8.95313L17.0811 8.90625L17.6107 9.06563L18.3139 9.34219L18.7217 9.52969L19.017 9.51094L19.0592 9.22969L18.9373 8.96719ZM9.65605 4.86563L9.72637 4.6875L10.1154 4.43906L10.6639 4.30781L10.9967 4.275L11.1842 4.34531L11.2357 4.44844L9.65605 4.86563ZM16.9639 8.2125L15.9373 8.08125L15.1779 8.02969L14.5498 8.0625L13.6451 8.12813L12.8342 8.25938L12.0139 8.39063L11.442 8.45625L10.8092 8.44219L10.1623 8.28281L9.89043 8.12344H9.88574L10.1717 8.17969L10.7389 8.14688L11.5686 7.95L12.6514 7.70625L13.5842 7.60781L14.3857 7.54219L15.2014 7.62188L16.2795 7.73438L17.0482 8.02969L17.9482 8.35781L18.0514 8.42813L16.9639 8.2125Z" fill="black"/>
<path d="M12.2582 10.9958C12.4145 10.9493 12.5096 10.805 12.4704 10.6735C12.4313 10.542 12.2729 10.473 12.1166 10.5195C11.9602 10.566 11.8652 10.7103 11.9043 10.8419C11.9434 10.9734 12.1019 11.0423 12.2582 10.9958Z" fill="white"/>
<path d="M11.4939 10.9688C11.5613 10.9688 11.6158 10.9142 11.6158 10.8469C11.6158 10.7796 11.5613 10.725 11.4939 10.725C11.4266 10.725 11.3721 10.7796 11.3721 10.8469C11.3721 10.9142 11.4266 10.9688 11.4939 10.9688Z" fill="white"/>
<path d="M11.4188 10.5891C11.4861 10.5891 11.5406 10.5345 11.5406 10.4672C11.5406 10.3999 11.4861 10.3453 11.4188 10.3453C11.3514 10.3453 11.2969 10.3999 11.2969 10.4672C11.2969 10.5345 11.3514 10.5891 11.4188 10.5891Z" fill="white"/>
<path d="M15.3889 11.1234C15.451 11.1234 15.5014 11.0731 15.5014 11.0109C15.5014 10.9488 15.451 10.8984 15.3889 10.8984C15.3267 10.8984 15.2764 10.9488 15.2764 11.0109C15.2764 11.0731 15.3267 11.1234 15.3889 11.1234Z" fill="white"/>
<path d="M15.3748 10.6969C15.4421 10.6969 15.4967 10.6423 15.4967 10.575C15.4967 10.5077 15.4421 10.4531 15.3748 10.4531C15.3075 10.4531 15.2529 10.5077 15.2529 10.575C15.2529 10.6423 15.3075 10.6969 15.3748 10.6969Z" fill="white"/>
<path d="M16.0455 11.0437C16.1672 11.0437 16.2658 10.9451 16.2658 10.8234C16.2658 10.7018 16.1672 10.6031 16.0455 10.6031C15.9238 10.6031 15.8252 10.7018 15.8252 10.8234C15.8252 10.9451 15.9238 11.0437 16.0455 11.0437Z" fill="white"/>
</g>
<defs>
<clipPath id="clip0_235_971">
<rect width="24" height="24" fill="white"/>
</clipPath>
</defs>
</svg>
