<svg width="20" height="20" viewBox="0 0 20 20" fill="none" xmlns="http://www.w3.org/2000/svg">
<path fill-rule="evenodd" clip-rule="evenodd" d="M10.0001 1.04163C5.05258 1.04163 1.04175 5.05246 1.04175 9.99996C1.04175 14.9475 5.05258 18.9583 10.0001 18.9583C14.9476 18.9583 18.9584 14.9475 18.9584 9.99996C18.9584 5.05246 14.9476 1.04163 10.0001 1.04163ZM12.9167 11.875C12.6405 11.875 12.3755 11.9847 12.1802 12.1801C11.9848 12.3754 11.8751 12.6404 11.8751 12.9166C11.8751 13.1929 11.9848 13.4578 12.1802 13.6532C12.3755 13.8485 12.6405 13.9583 12.9167 13.9583C13.193 13.9583 13.458 13.8485 13.6533 13.6532C13.8487 13.4578 13.9584 13.1929 13.9584 12.9166C13.9584 12.6404 13.8487 12.3754 13.6533 12.1801C13.458 11.9847 13.193 11.875 12.9167 11.875ZM6.04175 7.08329C6.04175 6.80703 6.15149 6.54207 6.34685 6.34672C6.5422 6.15137 6.80715 6.04163 7.08341 6.04163C7.35968 6.04163 7.62463 6.15137 7.81998 6.34672C8.01533 6.54207 8.12508 6.80703 8.12508 7.08329C8.12508 7.35956 8.01533 7.62451 7.81998 7.81986C7.62463 8.01521 7.35968 8.12496 7.08341 8.12496C6.80715 8.12496 6.5422 8.01521 6.34685 7.81986C6.15149 7.62451 6.04175 7.35956 6.04175 7.08329ZM12.8917 6.22496C12.949 6.16355 13.018 6.1143 13.0946 6.08014C13.1713 6.04598 13.2541 6.02761 13.338 6.02613C13.4219 6.02465 13.5053 6.04009 13.5831 6.07152C13.6609 6.10296 13.7316 6.14974 13.7909 6.20909C13.8503 6.26844 13.8971 6.33914 13.9285 6.41696C13.96 6.49478 13.9754 6.57814 13.9739 6.66206C13.9724 6.74598 13.9541 6.82874 13.9199 6.90541C13.8857 6.98207 13.8365 7.05107 13.7751 7.10829L7.10841 13.775C6.98994 13.8854 6.83323 13.9455 6.67131 13.9426C6.5094 13.9397 6.35491 13.8742 6.2404 13.7596C6.12589 13.6451 6.06029 13.4906 6.05744 13.3287C6.05458 13.1668 6.11468 13.0101 6.22508 12.8916L12.8917 6.22496Z" fill="white"/>
</svg>
