<svg width="16" height="16" viewBox="0 0 16 16" fill="none" xmlns="http://www.w3.org/2000/svg">
<g clip-path="url(#clip0_2646_4152)">
<path fill-rule="evenodd" clip-rule="evenodd" d="M8 0.833313C4.042 0.833313 0.833336 4.04198 0.833336 7.99998C0.833336 11.958 4.042 15.1666 8 15.1666C11.958 15.1666 15.1667 11.958 15.1667 7.99998C15.1667 4.04198 11.958 0.833313 8 0.833313ZM10.3333 9.49998C10.1123 9.49998 9.90036 9.58778 9.74408 9.74406C9.5878 9.90034 9.5 10.1123 9.5 10.3333C9.5 10.5543 9.5878 10.7663 9.74408 10.9226C9.90036 11.0788 10.1123 11.1666 10.3333 11.1666C10.5543 11.1666 10.7663 11.0788 10.9226 10.9226C11.0789 10.7663 11.1667 10.5543 11.1667 10.3333C11.1667 10.1123 11.0789 9.90034 10.9226 9.74406C10.7663 9.58778 10.5543 9.49998 10.3333 9.49998ZM4.83334 5.66665C4.83334 5.44563 4.92113 5.23367 5.07741 5.07739C5.23369 4.92111 5.44566 4.83331 5.66667 4.83331C5.88768 4.83331 6.09964 4.92111 6.25592 5.07739C6.4122 5.23367 6.5 5.44563 6.5 5.66665C6.5 5.88766 6.4122 6.09962 6.25592 6.2559C6.09964 6.41218 5.88768 6.49998 5.66667 6.49998C5.44566 6.49998 5.23369 6.41218 5.07741 6.2559C4.92113 6.09962 4.83334 5.88766 4.83334 5.66665ZM10.3133 4.97998C10.3591 4.93085 10.4143 4.89145 10.4756 4.86413C10.537 4.8368 10.6032 4.8221 10.6703 4.82092C10.7375 4.81973 10.8041 4.83208 10.8664 4.85723C10.9287 4.88238 10.9852 4.91981 11.0327 4.96729C11.0802 5.01477 11.1176 5.07132 11.1428 5.13358C11.1679 5.19584 11.1802 5.26253 11.1791 5.32966C11.1779 5.3968 11.1632 5.46301 11.1359 5.52434C11.1085 5.58567 11.0691 5.64087 11.02 5.68665L5.68667 11.02C5.59189 11.1083 5.46652 11.1564 5.33699 11.1541C5.20745 11.1518 5.08386 11.0993 4.99225 11.0077C4.90065 10.9161 4.84817 10.7925 4.84589 10.663C4.8436 10.5335 4.89168 10.4081 4.98 10.3133L10.3133 4.97998Z" fill="#85E047"/>
</g>
<defs>
<clipPath id="clip0_2646_4152">
<rect width="16" height="16" fill="white"/>
</clipPath>
</defs>
</svg>
