<svg width="16" height="16" viewBox="0 0 16 16" fill="none" xmlns="http://www.w3.org/2000/svg">
<g clip-path="url(#clip0_250_403)">
<path fill-rule="evenodd" clip-rule="evenodd" d="M8.00016 0.833252C4.04216 0.833252 0.833496 4.04192 0.833496 7.99992C0.833496 11.9579 4.04216 15.1666 8.00016 15.1666C11.9582 15.1666 15.1668 11.9579 15.1668 7.99992C15.1668 4.04192 11.9582 0.833252 8.00016 0.833252ZM10.3335 9.49992C10.1125 9.49992 9.90052 9.58772 9.74424 9.744C9.58796 9.90028 9.50016 10.1122 9.50016 10.3333C9.50016 10.5543 9.58796 10.7662 9.74424 10.9225C9.90052 11.0788 10.1125 11.1666 10.3335 11.1666C10.5545 11.1666 10.7665 11.0788 10.9228 10.9225C11.079 10.7662 11.1668 10.5543 11.1668 10.3333C11.1668 10.1122 11.079 9.90028 10.9228 9.744C10.7665 9.58772 10.5545 9.49992 10.3335 9.49992ZM4.8335 5.66658C4.8335 5.44557 4.92129 5.23361 5.07757 5.07733C5.23385 4.92105 5.44582 4.83325 5.66683 4.83325C5.88784 4.83325 6.0998 4.92105 6.25608 5.07733C6.41236 5.23361 6.50016 5.44557 6.50016 5.66658C6.50016 5.8876 6.41236 6.09956 6.25608 6.25584C6.0998 6.41212 5.88784 6.49992 5.66683 6.49992C5.44582 6.49992 5.23385 6.41212 5.07757 6.25584C4.92129 6.09956 4.8335 5.8876 4.8335 5.66658ZM10.3135 4.97992C10.3593 4.93079 10.4145 4.89139 10.4758 4.86406C10.5371 4.83674 10.6033 4.82204 10.6705 4.82086C10.7376 4.81967 10.8043 4.83202 10.8666 4.85717C10.9288 4.88232 10.9854 4.91975 11.0329 4.96723C11.0803 5.01471 11.1178 5.07126 11.1429 5.13352C11.1681 5.19578 11.1804 5.26247 11.1792 5.3296C11.178 5.39674 11.1633 5.46294 11.136 5.52428C11.1087 5.58561 11.0693 5.64081 11.0202 5.68658L5.68683 11.0199C5.59205 11.1082 5.46668 11.1563 5.33715 11.154C5.20761 11.1517 5.08402 11.0993 4.99241 11.0077C4.90081 10.9161 4.84833 10.7925 4.84605 10.6629C4.84376 10.5334 4.89184 10.408 4.98016 10.3133L10.3135 4.97992Z" fill="#46B75B"/>
</g>
<defs>
<clipPath id="clip0_250_403">
<rect width="16" height="16" fill="white"/>
</clipPath>
</defs>
</svg>
