<svg width="296" height="296" viewBox="0 0 296 296" fill="none" xmlns="http://www.w3.org/2000/svg">
<rect width="296" height="296" rx="40" fill="white"/>
<path d="M106.609 36.1581C108.971 36.1581 110.885 34.2436 110.885 31.882C110.885 29.5204 108.971 27.606 106.609 27.606C104.248 27.606 102.333 29.5204 102.333 31.882C102.333 34.2436 104.248 36.1581 106.609 36.1581Z" fill="#151515"/>
<path d="M123.216 36.1581C125.577 36.1581 127.492 34.2436 127.492 31.882C127.492 29.5204 125.577 27.606 123.216 27.606C120.854 27.606 118.939 29.5204 118.939 31.882C118.939 34.2436 120.854 36.1581 123.216 36.1581Z" fill="#151515"/>
<path d="M139.821 36.1581C142.183 36.1581 144.098 34.2436 144.098 31.882C144.098 29.5204 142.183 27.606 139.821 27.606C137.46 27.606 135.545 29.5204 135.545 31.882C135.545 34.2436 137.46 36.1581 139.821 36.1581Z" fill="#151515"/>
<path d="M148.125 36.1581C150.486 36.1581 152.401 34.2436 152.401 31.882C152.401 29.5204 150.486 27.606 148.125 27.606C145.763 27.606 143.849 29.5204 143.849 31.882C143.849 34.2436 145.763 36.1581 148.125 36.1581Z" fill="#151515"/>
<path d="M156.428 36.1581C158.789 36.1581 160.704 34.2436 160.704 31.882C160.704 29.5204 158.789 27.606 156.428 27.606C154.066 27.606 152.151 29.5204 152.151 31.882C152.151 34.2436 154.066 36.1581 156.428 36.1581Z" fill="#151515"/>
<path d="M189.64 36.1581C192.001 36.1581 193.916 34.2436 193.916 31.882C193.916 29.5204 192.001 27.606 189.64 27.606C187.278 27.606 185.364 29.5204 185.364 31.882C185.364 34.2436 187.278 36.1581 189.64 36.1581Z" fill="#151515"/>
<path d="M197.943 36.1581C200.304 36.1581 202.219 34.2436 202.219 31.882C202.219 29.5204 200.304 27.606 197.943 27.606C195.581 27.606 193.667 29.5204 193.667 31.882C193.667 34.2436 195.581 36.1581 197.943 36.1581Z" fill="#151515"/>
<path d="M123.216 44.4611C125.577 44.4611 127.492 42.5466 127.492 40.185C127.492 37.8234 125.577 35.9089 123.216 35.9089C120.854 35.9089 118.939 37.8234 118.939 40.185C118.939 42.5466 120.854 44.4611 123.216 44.4611Z" fill="#151515"/>
<path d="M131.518 44.4611C133.88 44.4611 135.795 42.5466 135.795 40.185C135.795 37.8234 133.88 35.9089 131.518 35.9089C129.157 35.9089 127.242 37.8234 127.242 40.185C127.242 42.5466 129.157 44.4611 131.518 44.4611Z" fill="#151515"/>
<path d="M139.821 44.4611C142.183 44.4611 144.098 42.5466 144.098 40.185C144.098 37.8234 142.183 35.9089 139.821 35.9089C137.46 35.9089 135.545 37.8234 135.545 40.185C135.545 42.5466 137.46 44.4611 139.821 44.4611Z" fill="#151515"/>
<path d="M148.125 44.4611C150.486 44.4611 152.401 42.5466 152.401 40.185C152.401 37.8234 150.486 35.9089 148.125 35.9089C145.763 35.9089 143.849 37.8234 143.849 40.185C143.849 42.5466 145.763 44.4611 148.125 44.4611Z" fill="#151515"/>
<path d="M156.428 44.4611C158.789 44.4611 160.704 42.5466 160.704 40.185C160.704 37.8234 158.789 35.9089 156.428 35.9089C154.066 35.9089 152.151 37.8234 152.151 40.185C152.151 42.5466 154.066 44.4611 156.428 44.4611Z" fill="#151515"/>
<path d="M164.731 44.4611C167.092 44.4611 169.007 42.5466 169.007 40.185C169.007 37.8234 167.092 35.9089 164.731 35.9089C162.369 35.9089 160.455 37.8234 160.455 40.185C160.455 42.5466 162.369 44.4611 164.731 44.4611Z" fill="#151515"/>
<path d="M181.337 44.4611C183.698 44.4611 185.613 42.5466 185.613 40.185C185.613 37.8234 183.698 35.9089 181.337 35.9089C178.975 35.9089 177.061 37.8234 177.061 40.185C177.061 42.5466 178.975 44.4611 181.337 44.4611Z" fill="#151515"/>
<path d="M197.943 44.4611C200.304 44.4611 202.219 42.5466 202.219 40.185C202.219 37.8234 200.304 35.9089 197.943 35.9089C195.581 35.9089 193.667 37.8234 193.667 40.185C193.667 42.5466 195.581 44.4611 197.943 44.4611Z" fill="#151515"/>
<path d="M98.3063 52.764C100.668 52.764 102.582 50.8496 102.582 48.488C102.582 46.1264 100.668 44.2119 98.3063 44.2119C95.9447 44.2119 94.0303 46.1264 94.0303 48.488C94.0303 50.8496 95.9447 52.764 98.3063 52.764Z" fill="#151515"/>
<path d="M131.518 52.764C133.88 52.764 135.795 50.8496 135.795 48.488C135.795 46.1264 133.88 44.2119 131.518 44.2119C129.157 44.2119 127.242 46.1264 127.242 48.488C127.242 50.8496 129.157 52.764 131.518 52.764Z" fill="#151515"/>
<path d="M139.821 52.764C142.183 52.764 144.098 50.8496 144.098 48.488C144.098 46.1264 142.183 44.2119 139.821 44.2119C137.46 44.2119 135.545 46.1264 135.545 48.488C135.545 50.8496 137.46 52.764 139.821 52.764Z" fill="#151515"/>
<path d="M156.428 52.764C158.789 52.764 160.704 50.8496 160.704 48.488C160.704 46.1264 158.789 44.2119 156.428 44.2119C154.066 44.2119 152.151 46.1264 152.151 48.488C152.151 50.8496 154.066 52.764 156.428 52.764Z" fill="#151515"/>
<path d="M181.337 52.764C183.698 52.764 185.613 50.8496 185.613 48.488C185.613 46.1264 183.698 44.2119 181.337 44.2119C178.975 44.2119 177.061 46.1264 177.061 48.488C177.061 50.8496 178.975 52.764 181.337 52.764Z" fill="#151515"/>
<path d="M98.3063 61.0673C100.668 61.0673 102.582 59.1528 102.582 56.7912C102.582 54.4296 100.668 52.5151 98.3063 52.5151C95.9447 52.5151 94.0303 54.4296 94.0303 56.7912C94.0303 59.1528 95.9447 61.0673 98.3063 61.0673Z" fill="#151515"/>
<path d="M114.912 61.0673C117.274 61.0673 119.188 59.1528 119.188 56.7912C119.188 54.4296 117.274 52.5151 114.912 52.5151C112.551 52.5151 110.636 54.4296 110.636 56.7912C110.636 59.1528 112.551 61.0673 114.912 61.0673Z" fill="#151515"/>
<path d="M123.216 61.0673C125.577 61.0673 127.492 59.1528 127.492 56.7912C127.492 54.4296 125.577 52.5151 123.216 52.5151C120.854 52.5151 118.939 54.4296 118.939 56.7912C118.939 59.1528 120.854 61.0673 123.216 61.0673Z" fill="#151515"/>
<path d="M148.125 61.0673C150.486 61.0673 152.401 59.1528 152.401 56.7912C152.401 54.4296 150.486 52.5151 148.125 52.5151C145.763 52.5151 143.849 54.4296 143.849 56.7912C143.849 59.1528 145.763 61.0673 148.125 61.0673Z" fill="#151515"/>
<path d="M156.428 61.0673C158.789 61.0673 160.704 59.1528 160.704 56.7912C160.704 54.4296 158.789 52.5151 156.428 52.5151C154.066 52.5151 152.151 54.4296 152.151 56.7912C152.151 59.1528 154.066 61.0673 156.428 61.0673Z" fill="#151515"/>
<path d="M173.034 61.0673C175.395 61.0673 177.31 59.1528 177.31 56.7912C177.31 54.4296 175.395 52.5151 173.034 52.5151C170.672 52.5151 168.758 54.4296 168.758 56.7912C168.758 59.1528 170.672 61.0673 173.034 61.0673Z" fill="#151515"/>
<path d="M98.3063 69.3702C100.668 69.3702 102.582 67.4558 102.582 65.0942C102.582 62.7326 100.668 60.8181 98.3063 60.8181C95.9447 60.8181 94.0303 62.7326 94.0303 65.0942C94.0303 67.4558 95.9447 69.3702 98.3063 69.3702Z" fill="#151515"/>
<path d="M114.912 69.3702C117.274 69.3702 119.188 67.4558 119.188 65.0942C119.188 62.7326 117.274 60.8181 114.912 60.8181C112.551 60.8181 110.636 62.7326 110.636 65.0942C110.636 67.4558 112.551 69.3702 114.912 69.3702Z" fill="#151515"/>
<path d="M156.428 69.3702C158.789 69.3702 160.704 67.4558 160.704 65.0942C160.704 62.7326 158.789 60.8181 156.428 60.8181C154.066 60.8181 152.151 62.7326 152.151 65.0942C152.151 67.4558 154.066 69.3702 156.428 69.3702Z" fill="#151515"/>
<path d="M164.731 69.3702C167.092 69.3702 169.007 67.4558 169.007 65.0942C169.007 62.7326 167.092 60.8181 164.731 60.8181C162.369 60.8181 160.455 62.7326 160.455 65.0942C160.455 67.4558 162.369 69.3702 164.731 69.3702Z" fill="#151515"/>
<path d="M189.64 69.3702C192.001 69.3702 193.916 67.4558 193.916 65.0942C193.916 62.7326 192.001 60.8181 189.64 60.8181C187.278 60.8181 185.364 62.7326 185.364 65.0942C185.364 67.4558 187.278 69.3702 189.64 69.3702Z" fill="#151515"/>
<path d="M197.943 69.3702C200.304 69.3702 202.219 67.4558 202.219 65.0942C202.219 62.7326 200.304 60.8181 197.943 60.8181C195.581 60.8181 193.667 62.7326 193.667 65.0942C193.667 67.4558 195.581 69.3702 197.943 69.3702Z" fill="#151515"/>
<path d="M98.3063 77.6732C100.668 77.6732 102.582 75.7588 102.582 73.3972C102.582 71.0356 100.668 69.1211 98.3063 69.1211C95.9447 69.1211 94.0303 71.0356 94.0303 73.3972C94.0303 75.7588 95.9447 77.6732 98.3063 77.6732Z" fill="#151515"/>
<path d="M123.216 77.6732C125.577 77.6732 127.492 75.7588 127.492 73.3972C127.492 71.0356 125.577 69.1211 123.216 69.1211C120.854 69.1211 118.939 71.0356 118.939 73.3972C118.939 75.7588 120.854 77.6732 123.216 77.6732Z" fill="#151515"/>
<path d="M181.337 77.6732C183.698 77.6732 185.613 75.7588 185.613 73.3972C185.613 71.0356 183.698 69.1211 181.337 69.1211C178.975 69.1211 177.061 71.0356 177.061 73.3972C177.061 75.7588 178.975 77.6732 181.337 77.6732Z" fill="#151515"/>
<path d="M197.943 77.6732C200.304 77.6732 202.219 75.7588 202.219 73.3972C202.219 71.0356 200.304 69.1211 197.943 69.1211C195.581 69.1211 193.667 71.0356 193.667 73.3972C193.667 75.7588 195.581 77.6732 197.943 77.6732Z" fill="#151515"/>
<path d="M98.3063 85.9762C100.668 85.9762 102.582 84.0617 102.582 81.7001C102.582 79.3385 100.668 77.4241 98.3063 77.4241C95.9447 77.4241 94.0303 79.3385 94.0303 81.7001C94.0303 84.0617 95.9447 85.9762 98.3063 85.9762Z" fill="#151515"/>
<path d="M114.912 85.9762C117.274 85.9762 119.188 84.0617 119.188 81.7001C119.188 79.3385 117.274 77.4241 114.912 77.4241C112.551 77.4241 110.636 79.3385 110.636 81.7001C110.636 84.0617 112.551 85.9762 114.912 85.9762Z" fill="#151515"/>
<path d="M131.518 85.9762C133.88 85.9762 135.795 84.0617 135.795 81.7001C135.795 79.3385 133.88 77.4241 131.518 77.4241C129.157 77.4241 127.242 79.3385 127.242 81.7001C127.242 84.0617 129.157 85.9762 131.518 85.9762Z" fill="#151515"/>
<path d="M148.125 85.9762C150.486 85.9762 152.401 84.0617 152.401 81.7001C152.401 79.3385 150.486 77.4241 148.125 77.4241C145.763 77.4241 143.849 79.3385 143.849 81.7001C143.849 84.0617 145.763 85.9762 148.125 85.9762Z" fill="#151515"/>
<path d="M164.731 85.9762C167.092 85.9762 169.007 84.0617 169.007 81.7001C169.007 79.3385 167.092 77.4241 164.731 77.4241C162.369 77.4241 160.455 79.3385 160.455 81.7001C160.455 84.0617 162.369 85.9762 164.731 85.9762Z" fill="#151515"/>
<path d="M181.337 85.9762C183.698 85.9762 185.613 84.0617 185.613 81.7001C185.613 79.3385 183.698 77.4241 181.337 77.4241C178.975 77.4241 177.061 79.3385 177.061 81.7001C177.061 84.0617 178.975 85.9762 181.337 85.9762Z" fill="#151515"/>
<path d="M197.943 85.9762C200.304 85.9762 202.219 84.0617 202.219 81.7001C202.219 79.3385 200.304 77.4241 197.943 77.4241C195.581 77.4241 193.667 79.3385 193.667 81.7001C193.667 84.0617 195.581 85.9762 197.943 85.9762Z" fill="#151515"/>
<path d="M98.3063 94.2792C100.668 94.2792 102.582 92.3647 102.582 90.0031C102.582 87.6415 100.668 85.7271 98.3063 85.7271C95.9447 85.7271 94.0303 87.6415 94.0303 90.0031C94.0303 92.3647 95.9447 94.2792 98.3063 94.2792Z" fill="#151515"/>
<path d="M106.609 94.2792C108.971 94.2792 110.885 92.3647 110.885 90.0031C110.885 87.6415 108.971 85.7271 106.609 85.7271C104.248 85.7271 102.333 87.6415 102.333 90.0031C102.333 92.3647 104.248 94.2792 106.609 94.2792Z" fill="#151515"/>
<path d="M123.216 94.2792C125.577 94.2792 127.492 92.3647 127.492 90.0031C127.492 87.6415 125.577 85.7271 123.216 85.7271C120.854 85.7271 118.939 87.6415 118.939 90.0031C118.939 92.3647 120.854 94.2792 123.216 94.2792Z" fill="#151515"/>
<path d="M148.125 94.2792C150.486 94.2792 152.401 92.3647 152.401 90.0031C152.401 87.6415 150.486 85.7271 148.125 85.7271C145.763 85.7271 143.849 87.6415 143.849 90.0031C143.849 92.3647 145.763 94.2792 148.125 94.2792Z" fill="#151515"/>
<path d="M164.731 94.2792C167.092 94.2792 169.007 92.3647 169.007 90.0031C169.007 87.6415 167.092 85.7271 164.731 85.7271C162.369 85.7271 160.455 87.6415 160.455 90.0031C160.455 92.3647 162.369 94.2792 164.731 94.2792Z" fill="#151515"/>
<path d="M181.337 94.2792C183.698 94.2792 185.613 92.3647 185.613 90.0031C185.613 87.6415 183.698 85.7271 181.337 85.7271C178.975 85.7271 177.061 87.6415 177.061 90.0031C177.061 92.3647 178.975 94.2792 181.337 94.2792Z" fill="#151515"/>
<path d="M189.64 94.2792C192.001 94.2792 193.916 92.3647 193.916 90.0031C193.916 87.6415 192.001 85.7271 189.64 85.7271C187.278 85.7271 185.364 87.6415 185.364 90.0031C185.364 92.3647 187.278 94.2792 189.64 94.2792Z" fill="#151515"/>
<path d="M197.943 94.2792C200.304 94.2792 202.219 92.3647 202.219 90.0031C202.219 87.6415 200.304 85.7271 197.943 85.7271C195.581 85.7271 193.667 87.6415 193.667 90.0031C193.667 92.3647 195.581 94.2792 197.943 94.2792Z" fill="#151515"/>
<path d="M31.8821 102.582C34.2437 102.582 36.1582 100.668 36.1582 98.3063C36.1582 95.9447 34.2437 94.0303 31.8821 94.0303C29.5205 94.0303 27.6061 95.9447 27.6061 98.3063C27.6061 100.668 29.5205 102.582 31.8821 102.582Z" fill="#151515"/>
<path d="M48.4882 102.582C50.8498 102.582 52.7643 100.668 52.7643 98.3063C52.7643 95.9447 50.8498 94.0303 48.4882 94.0303C46.1266 94.0303 44.2122 95.9447 44.2122 98.3063C44.2122 100.668 46.1266 102.582 48.4882 102.582Z" fill="#151515"/>
<path d="M56.7912 102.582C59.1528 102.582 61.0673 100.668 61.0673 98.3063C61.0673 95.9447 59.1528 94.0303 56.7912 94.0303C54.4296 94.0303 52.5151 95.9447 52.5151 98.3063C52.5151 100.668 54.4296 102.582 56.7912 102.582Z" fill="#151515"/>
<path d="M65.0943 102.582C67.4559 102.582 69.3704 100.668 69.3704 98.3063C69.3704 95.9447 67.4559 94.0303 65.0943 94.0303C62.7327 94.0303 60.8182 95.9447 60.8182 98.3063C60.8182 100.668 62.7327 102.582 65.0943 102.582Z" fill="#151515"/>
<path d="M73.3973 102.582C75.7589 102.582 77.6733 100.668 77.6733 98.3063C77.6733 95.9447 75.7589 94.0303 73.3973 94.0303C71.0357 94.0303 69.1212 95.9447 69.1212 98.3063C69.1212 100.668 71.0357 102.582 73.3973 102.582Z" fill="#151515"/>
<path d="M81.7004 102.582C84.062 102.582 85.9764 100.668 85.9764 98.3063C85.9764 95.9447 84.062 94.0303 81.7004 94.0303C79.3388 94.0303 77.4243 95.9447 77.4243 98.3063C77.4243 100.668 79.3388 102.582 81.7004 102.582Z" fill="#151515"/>
<path d="M106.609 102.582C108.971 102.582 110.885 100.668 110.885 98.3063C110.885 95.9447 108.971 94.0303 106.609 94.0303C104.248 94.0303 102.333 95.9447 102.333 98.3063C102.333 100.668 104.248 102.582 106.609 102.582Z" fill="#151515"/>
<path d="M114.912 102.582C117.274 102.582 119.188 100.668 119.188 98.3063C119.188 95.9447 117.274 94.0303 114.912 94.0303C112.551 94.0303 110.636 95.9447 110.636 98.3063C110.636 100.668 112.551 102.582 114.912 102.582Z" fill="#151515"/>
<path d="M123.216 102.582C125.577 102.582 127.492 100.668 127.492 98.3063C127.492 95.9447 125.577 94.0303 123.216 94.0303C120.854 94.0303 118.939 95.9447 118.939 98.3063C118.939 100.668 120.854 102.582 123.216 102.582Z" fill="#151515"/>
<path d="M131.518 102.582C133.88 102.582 135.795 100.668 135.795 98.3063C135.795 95.9447 133.88 94.0303 131.518 94.0303C129.157 94.0303 127.242 95.9447 127.242 98.3063C127.242 100.668 129.157 102.582 131.518 102.582Z" fill="#151515"/>
<path d="M164.731 102.582C167.092 102.582 169.007 100.668 169.007 98.3063C169.007 95.9447 167.092 94.0303 164.731 94.0303C162.369 94.0303 160.455 95.9447 160.455 98.3063C160.455 100.668 162.369 102.582 164.731 102.582Z" fill="#151515"/>
<path d="M189.64 102.582C192.001 102.582 193.916 100.668 193.916 98.3063C193.916 95.9447 192.001 94.0303 189.64 94.0303C187.278 94.0303 185.364 95.9447 185.364 98.3063C185.364 100.668 187.278 102.582 189.64 102.582Z" fill="#151515"/>
<path d="M197.943 102.582C200.304 102.582 202.219 100.668 202.219 98.3063C202.219 95.9447 200.304 94.0303 197.943 94.0303C195.581 94.0303 193.667 95.9447 193.667 98.3063C193.667 100.668 195.581 102.582 197.943 102.582Z" fill="#151515"/>
<path d="M214.549 102.582C216.91 102.582 218.825 100.668 218.825 98.3063C218.825 95.9447 216.91 94.0303 214.549 94.0303C212.187 94.0303 210.273 95.9447 210.273 98.3063C210.273 100.668 212.187 102.582 214.549 102.582Z" fill="#151515"/>
<path d="M222.852 102.582C225.213 102.582 227.128 100.668 227.128 98.3063C227.128 95.9447 225.213 94.0303 222.852 94.0303C220.49 94.0303 218.576 95.9447 218.576 98.3063C218.576 100.668 220.49 102.582 222.852 102.582Z" fill="#151515"/>
<path d="M231.155 102.582C233.516 102.582 235.431 100.668 235.431 98.3063C235.431 95.9447 233.516 94.0303 231.155 94.0303C228.793 94.0303 226.879 95.9447 226.879 98.3063C226.879 100.668 228.793 102.582 231.155 102.582Z" fill="#151515"/>
<path d="M239.458 102.582C241.82 102.582 243.734 100.668 243.734 98.3063C243.734 95.9447 241.82 94.0303 239.458 94.0303C237.096 94.0303 235.182 95.9447 235.182 98.3063C235.182 100.668 237.096 102.582 239.458 102.582Z" fill="#151515"/>
<path d="M247.761 102.582C250.123 102.582 252.037 100.668 252.037 98.3063C252.037 95.9447 250.123 94.0303 247.761 94.0303C245.399 94.0303 243.485 95.9447 243.485 98.3063C243.485 100.668 245.399 102.582 247.761 102.582Z" fill="#151515"/>
<path d="M56.7912 110.885C59.1528 110.885 61.0673 108.971 61.0673 106.609C61.0673 104.248 59.1528 102.333 56.7912 102.333C54.4296 102.333 52.5151 104.248 52.5151 106.609C52.5151 108.971 54.4296 110.885 56.7912 110.885Z" fill="#151515"/>
<path d="M73.3973 110.885C75.7589 110.885 77.6733 108.971 77.6733 106.609C77.6733 104.248 75.7589 102.333 73.3973 102.333C71.0357 102.333 69.1212 104.248 69.1212 106.609C69.1212 108.971 71.0357 110.885 73.3973 110.885Z" fill="#151515"/>
<path d="M98.3063 110.885C100.668 110.885 102.582 108.971 102.582 106.609C102.582 104.248 100.668 102.333 98.3063 102.333C95.9447 102.333 94.0303 104.248 94.0303 106.609C94.0303 108.971 95.9447 110.885 98.3063 110.885Z" fill="#151515"/>
<path d="M114.912 110.885C117.274 110.885 119.188 108.971 119.188 106.609C119.188 104.248 117.274 102.333 114.912 102.333C112.551 102.333 110.636 104.248 110.636 106.609C110.636 108.971 112.551 110.885 114.912 110.885Z" fill="#151515"/>
<path d="M131.518 110.885C133.88 110.885 135.795 108.971 135.795 106.609C135.795 104.248 133.88 102.333 131.518 102.333C129.157 102.333 127.242 104.248 127.242 106.609C127.242 108.971 129.157 110.885 131.518 110.885Z" fill="#151515"/>
<path d="M139.821 110.885C142.183 110.885 144.098 108.971 144.098 106.609C144.098 104.248 142.183 102.333 139.821 102.333C137.46 102.333 135.545 104.248 135.545 106.609C135.545 108.971 137.46 110.885 139.821 110.885Z" fill="#151515"/>
<path d="M148.125 110.885C150.486 110.885 152.401 108.971 152.401 106.609C152.401 104.248 150.486 102.333 148.125 102.333C145.763 102.333 143.849 104.248 143.849 106.609C143.849 108.971 145.763 110.885 148.125 110.885Z" fill="#151515"/>
<path d="M156.428 110.885C158.789 110.885 160.704 108.971 160.704 106.609C160.704 104.248 158.789 102.333 156.428 102.333C154.066 102.333 152.151 104.248 152.151 106.609C152.151 108.971 154.066 110.885 156.428 110.885Z" fill="#151515"/>
<path d="M173.034 110.885C175.395 110.885 177.31 108.971 177.31 106.609C177.31 104.248 175.395 102.333 173.034 102.333C170.672 102.333 168.758 104.248 168.758 106.609C168.758 108.971 170.672 110.885 173.034 110.885Z" fill="#151515"/>
<path d="M197.943 110.885C200.304 110.885 202.219 108.971 202.219 106.609C202.219 104.248 200.304 102.333 197.943 102.333C195.581 102.333 193.667 104.248 193.667 106.609C193.667 108.971 195.581 110.885 197.943 110.885Z" fill="#151515"/>
<path d="M206.246 110.885C208.607 110.885 210.522 108.971 210.522 106.609C210.522 104.248 208.607 102.333 206.246 102.333C203.884 102.333 201.97 104.248 201.97 106.609C201.97 108.971 203.884 110.885 206.246 110.885Z" fill="#151515"/>
<path d="M214.549 110.885C216.91 110.885 218.825 108.971 218.825 106.609C218.825 104.248 216.91 102.333 214.549 102.333C212.187 102.333 210.273 104.248 210.273 106.609C210.273 108.971 212.187 110.885 214.549 110.885Z" fill="#151515"/>
<path d="M231.155 110.885C233.516 110.885 235.431 108.971 235.431 106.609C235.431 104.248 233.516 102.333 231.155 102.333C228.793 102.333 226.879 104.248 226.879 106.609C226.879 108.971 228.793 110.885 231.155 110.885Z" fill="#151515"/>
<path d="M264.367 110.885C266.729 110.885 268.643 108.971 268.643 106.609C268.643 104.248 266.729 102.333 264.367 102.333C262.005 102.333 260.091 104.248 260.091 106.609C260.091 108.971 262.005 110.885 264.367 110.885Z" fill="#151515"/>
<path d="M31.8821 119.188C34.2437 119.188 36.1582 117.274 36.1582 114.912C36.1582 112.551 34.2437 110.636 31.8821 110.636C29.5205 110.636 27.6061 112.551 27.6061 114.912C27.6061 117.274 29.5205 119.188 31.8821 119.188Z" fill="#151515"/>
<path d="M73.3973 119.188C75.7589 119.188 77.6733 117.274 77.6733 114.912C77.6733 112.551 75.7589 110.636 73.3973 110.636C71.0357 110.636 69.1212 112.551 69.1212 114.912C69.1212 117.274 71.0357 119.188 73.3973 119.188Z" fill="#151515"/>
<path d="M81.7004 119.188C84.062 119.188 85.9764 117.274 85.9764 114.912C85.9764 112.551 84.062 110.636 81.7004 110.636C79.3388 110.636 77.4243 112.551 77.4243 114.912C77.4243 117.274 79.3388 119.188 81.7004 119.188Z" fill="#151515"/>
<path d="M90.0034 119.188C92.365 119.188 94.2794 117.274 94.2794 114.912C94.2794 112.551 92.365 110.636 90.0034 110.636C87.6418 110.636 85.7273 112.551 85.7273 114.912C85.7273 117.274 87.6418 119.188 90.0034 119.188Z" fill="#151515"/>
<path d="M114.912 119.188C117.274 119.188 119.188 117.274 119.188 114.912C119.188 112.551 117.274 110.636 114.912 110.636C112.551 110.636 110.636 112.551 110.636 114.912C110.636 117.274 112.551 119.188 114.912 119.188Z" fill="#151515"/>
<path d="M131.518 119.188C133.88 119.188 135.795 117.274 135.795 114.912C135.795 112.551 133.88 110.636 131.518 110.636C129.157 110.636 127.242 112.551 127.242 114.912C127.242 117.274 129.157 119.188 131.518 119.188Z" fill="#151515"/>
<path d="M139.821 119.188C142.183 119.188 144.098 117.274 144.098 114.912C144.098 112.551 142.183 110.636 139.821 110.636C137.46 110.636 135.545 112.551 135.545 114.912C135.545 117.274 137.46 119.188 139.821 119.188Z" fill="#151515"/>
<path d="M148.125 119.188C150.486 119.188 152.401 117.274 152.401 114.912C152.401 112.551 150.486 110.636 148.125 110.636C145.763 110.636 143.849 112.551 143.849 114.912C143.849 117.274 145.763 119.188 148.125 119.188Z" fill="#151515"/>
<path d="M156.428 119.188C158.789 119.188 160.704 117.274 160.704 114.912C160.704 112.551 158.789 110.636 156.428 110.636C154.066 110.636 152.151 112.551 152.151 114.912C152.151 117.274 154.066 119.188 156.428 119.188Z" fill="#151515"/>
<path d="M164.731 119.188C167.092 119.188 169.007 117.274 169.007 114.912C169.007 112.551 167.092 110.636 164.731 110.636C162.369 110.636 160.455 112.551 160.455 114.912C160.455 117.274 162.369 119.188 164.731 119.188Z" fill="#151515"/>
<path d="M173.034 119.188C175.395 119.188 177.31 117.274 177.31 114.912C177.31 112.551 175.395 110.636 173.034 110.636C170.672 110.636 168.758 112.551 168.758 114.912C168.758 117.274 170.672 119.188 173.034 119.188Z" fill="#151515"/>
<path d="M214.549 119.188C216.91 119.188 218.825 117.274 218.825 114.912C218.825 112.551 216.91 110.636 214.549 110.636C212.187 110.636 210.273 112.551 210.273 114.912C210.273 117.274 212.187 119.188 214.549 119.188Z" fill="#151515"/>
<path d="M222.852 119.188C225.213 119.188 227.128 117.274 227.128 114.912C227.128 112.551 225.213 110.636 222.852 110.636C220.49 110.636 218.576 112.551 218.576 114.912C218.576 117.274 220.49 119.188 222.852 119.188Z" fill="#151515"/>
<path d="M231.155 119.188C233.516 119.188 235.431 117.274 235.431 114.912C235.431 112.551 233.516 110.636 231.155 110.636C228.793 110.636 226.879 112.551 226.879 114.912C226.879 117.274 228.793 119.188 231.155 119.188Z" fill="#151515"/>
<path d="M31.8821 127.491C34.2437 127.491 36.1582 125.577 36.1582 123.215C36.1582 120.854 34.2437 118.939 31.8821 118.939C29.5205 118.939 27.6061 120.854 27.6061 123.215C27.6061 125.577 29.5205 127.491 31.8821 127.491Z" fill="#151515"/>
<path d="M40.1851 127.491C42.5467 127.491 44.4612 125.577 44.4612 123.215C44.4612 120.854 42.5467 118.939 40.1851 118.939C37.8235 118.939 35.9091 120.854 35.9091 123.215C35.9091 125.577 37.8235 127.491 40.1851 127.491Z" fill="#151515"/>
<path d="M48.4882 127.491C50.8498 127.491 52.7643 125.577 52.7643 123.215C52.7643 120.854 50.8498 118.939 48.4882 118.939C46.1266 118.939 44.2122 120.854 44.2122 123.215C44.2122 125.577 46.1266 127.491 48.4882 127.491Z" fill="#151515"/>
<path d="M73.3973 127.491C75.7589 127.491 77.6733 125.577 77.6733 123.215C77.6733 120.854 75.7589 118.939 73.3973 118.939C71.0357 118.939 69.1212 120.854 69.1212 123.215C69.1212 125.577 71.0357 127.491 73.3973 127.491Z" fill="#151515"/>
<path d="M90.0034 127.491C92.365 127.491 94.2794 125.577 94.2794 123.215C94.2794 120.854 92.365 118.939 90.0034 118.939C87.6418 118.939 85.7273 120.854 85.7273 123.215C85.7273 125.577 87.6418 127.491 90.0034 127.491Z" fill="#151515"/>
<path d="M114.912 127.491C117.274 127.491 119.188 125.577 119.188 123.215C119.188 120.854 117.274 118.939 114.912 118.939C112.551 118.939 110.636 120.854 110.636 123.215C110.636 125.577 112.551 127.491 114.912 127.491Z" fill="#151515"/>
<path d="M139.821 127.491C142.183 127.491 144.098 125.577 144.098 123.215C144.098 120.854 142.183 118.939 139.821 118.939C137.46 118.939 135.545 120.854 135.545 123.215C135.545 125.577 137.46 127.491 139.821 127.491Z" fill="#151515"/>
<path d="M156.428 127.491C158.789 127.491 160.704 125.577 160.704 123.215C160.704 120.854 158.789 118.939 156.428 118.939C154.066 118.939 152.151 120.854 152.151 123.215C152.151 125.577 154.066 127.491 156.428 127.491Z" fill="#151515"/>
<path d="M214.549 127.491C216.91 127.491 218.825 125.577 218.825 123.215C218.825 120.854 216.91 118.939 214.549 118.939C212.187 118.939 210.273 120.854 210.273 123.215C210.273 125.577 212.187 127.491 214.549 127.491Z" fill="#151515"/>
<path d="M222.852 127.491C225.213 127.491 227.128 125.577 227.128 123.215C227.128 120.854 225.213 118.939 222.852 118.939C220.49 118.939 218.576 120.854 218.576 123.215C218.576 125.577 220.49 127.491 222.852 127.491Z" fill="#151515"/>
<path d="M231.155 127.491C233.516 127.491 235.431 125.577 235.431 123.215C235.431 120.854 233.516 118.939 231.155 118.939C228.793 118.939 226.879 120.854 226.879 123.215C226.879 125.577 228.793 127.491 231.155 127.491Z" fill="#151515"/>
<path d="M239.458 127.491C241.82 127.491 243.734 125.577 243.734 123.215C243.734 120.854 241.82 118.939 239.458 118.939C237.096 118.939 235.182 120.854 235.182 123.215C235.182 125.577 237.096 127.491 239.458 127.491Z" fill="#151515"/>
<path d="M256.064 127.491C258.426 127.491 260.34 125.577 260.34 123.215C260.34 120.854 258.426 118.939 256.064 118.939C253.702 118.939 251.788 120.854 251.788 123.215C251.788 125.577 253.702 127.491 256.064 127.491Z" fill="#151515"/>
<path d="M31.8821 135.795C34.2437 135.795 36.1582 133.88 36.1582 131.518C36.1582 129.157 34.2437 127.242 31.8821 127.242C29.5205 127.242 27.6061 129.157 27.6061 131.518C27.6061 133.88 29.5205 135.795 31.8821 135.795Z" fill="#151515"/>
<path d="M40.1851 135.795C42.5467 135.795 44.4612 133.88 44.4612 131.518C44.4612 129.157 42.5467 127.242 40.1851 127.242C37.8235 127.242 35.9091 129.157 35.9091 131.518C35.9091 133.88 37.8235 135.795 40.1851 135.795Z" fill="#151515"/>
<path d="M56.7912 135.795C59.1528 135.795 61.0673 133.88 61.0673 131.518C61.0673 129.157 59.1528 127.242 56.7912 127.242C54.4296 127.242 52.5151 129.157 52.5151 131.518C52.5151 133.88 54.4296 135.795 56.7912 135.795Z" fill="#151515"/>
<path d="M81.7004 135.795C84.062 135.795 85.9764 133.88 85.9764 131.518C85.9764 129.157 84.062 127.242 81.7004 127.242C79.3388 127.242 77.4243 129.157 77.4243 131.518C77.4243 133.88 79.3388 135.795 81.7004 135.795Z" fill="#151515"/>
<path d="M90.0034 135.795C92.365 135.795 94.2794 133.88 94.2794 131.518C94.2794 129.157 92.365 127.242 90.0034 127.242C87.6418 127.242 85.7273 129.157 85.7273 131.518C85.7273 133.88 87.6418 135.795 90.0034 135.795Z" fill="#151515"/>
<path d="M98.3063 135.795C100.668 135.795 102.582 133.88 102.582 131.518C102.582 129.157 100.668 127.242 98.3063 127.242C95.9447 127.242 94.0303 129.157 94.0303 131.518C94.0303 133.88 95.9447 135.795 98.3063 135.795Z" fill="#151515"/>
<path d="M114.912 135.795C117.274 135.795 119.188 133.88 119.188 131.518C119.188 129.157 117.274 127.242 114.912 127.242C112.551 127.242 110.636 129.157 110.636 131.518C110.636 133.88 112.551 135.795 114.912 135.795Z" fill="#151515"/>
<path d="M131.518 135.795C133.88 135.795 135.795 133.88 135.795 131.518C135.795 129.157 133.88 127.242 131.518 127.242C129.157 127.242 127.242 129.157 127.242 131.518C127.242 133.88 129.157 135.795 131.518 135.795Z" fill="#151515"/>
<path d="M148.125 135.795C150.486 135.795 152.401 133.88 152.401 131.518C152.401 129.157 150.486 127.242 148.125 127.242C145.763 127.242 143.849 129.157 143.849 131.518C143.849 133.88 145.763 135.795 148.125 135.795Z" fill="#151515"/>
<path d="M156.428 135.795C158.789 135.795 160.704 133.88 160.704 131.518C160.704 129.157 158.789 127.242 156.428 127.242C154.066 127.242 152.151 129.157 152.151 131.518C152.151 133.88 154.066 135.795 156.428 135.795Z" fill="#151515"/>
<path d="M173.034 135.795C175.395 135.795 177.31 133.88 177.31 131.518C177.31 129.157 175.395 127.242 173.034 127.242C170.672 127.242 168.758 129.157 168.758 131.518C168.758 133.88 170.672 135.795 173.034 135.795Z" fill="#151515"/>
<path d="M189.64 135.795C192.001 135.795 193.916 133.88 193.916 131.518C193.916 129.157 192.001 127.242 189.64 127.242C187.278 127.242 185.364 129.157 185.364 131.518C185.364 133.88 187.278 135.795 189.64 135.795Z" fill="#151515"/>
<path d="M197.943 135.795C200.304 135.795 202.219 133.88 202.219 131.518C202.219 129.157 200.304 127.242 197.943 127.242C195.581 127.242 193.667 129.157 193.667 131.518C193.667 133.88 195.581 135.795 197.943 135.795Z" fill="#151515"/>
<path d="M239.458 135.795C241.82 135.795 243.734 133.88 243.734 131.518C243.734 129.157 241.82 127.242 239.458 127.242C237.096 127.242 235.182 129.157 235.182 131.518C235.182 133.88 237.096 135.795 239.458 135.795Z" fill="#151515"/>
<path d="M247.761 135.795C250.123 135.795 252.037 133.88 252.037 131.518C252.037 129.157 250.123 127.242 247.761 127.242C245.399 127.242 243.485 129.157 243.485 131.518C243.485 133.88 245.399 135.795 247.761 135.795Z" fill="#151515"/>
<path d="M31.8821 144.098C34.2437 144.098 36.1582 142.183 36.1582 139.821C36.1582 137.46 34.2437 135.545 31.8821 135.545C29.5205 135.545 27.6061 137.46 27.6061 139.821C27.6061 142.183 29.5205 144.098 31.8821 144.098Z" fill="#151515"/>
<path d="M56.7912 144.098C59.1528 144.098 61.0673 142.183 61.0673 139.821C61.0673 137.46 59.1528 135.545 56.7912 135.545C54.4296 135.545 52.5151 137.46 52.5151 139.821C52.5151 142.183 54.4296 144.098 56.7912 144.098Z" fill="#151515"/>
<path d="M65.0943 144.098C67.4559 144.098 69.3704 142.183 69.3704 139.821C69.3704 137.46 67.4559 135.545 65.0943 135.545C62.7327 135.545 60.8182 137.46 60.8182 139.821C60.8182 142.183 62.7327 144.098 65.0943 144.098Z" fill="#151515"/>
<path d="M73.3973 144.098C75.7589 144.098 77.6733 142.183 77.6733 139.821C77.6733 137.46 75.7589 135.545 73.3973 135.545C71.0357 135.545 69.1212 137.46 69.1212 139.821C69.1212 142.183 71.0357 144.098 73.3973 144.098Z" fill="#151515"/>
<path d="M90.0034 144.098C92.365 144.098 94.2794 142.183 94.2794 139.821C94.2794 137.46 92.365 135.545 90.0034 135.545C87.6418 135.545 85.7273 137.46 85.7273 139.821C85.7273 142.183 87.6418 144.098 90.0034 144.098Z" fill="#151515"/>
<path d="M123.216 144.098C125.577 144.098 127.492 142.183 127.492 139.821C127.492 137.46 125.577 135.545 123.216 135.545C120.854 135.545 118.939 137.46 118.939 139.821C118.939 142.183 120.854 144.098 123.216 144.098Z" fill="#151515"/>
<path d="M131.518 144.098C133.88 144.098 135.795 142.183 135.795 139.821C135.795 137.46 133.88 135.545 131.518 135.545C129.157 135.545 127.242 137.46 127.242 139.821C127.242 142.183 129.157 144.098 131.518 144.098Z" fill="#151515"/>
<path d="M156.428 144.098C158.789 144.098 160.704 142.183 160.704 139.821C160.704 137.46 158.789 135.545 156.428 135.545C154.066 135.545 152.151 137.46 152.151 139.821C152.151 142.183 154.066 144.098 156.428 144.098Z" fill="#151515"/>
<path d="M164.731 144.098C167.092 144.098 169.007 142.183 169.007 139.821C169.007 137.46 167.092 135.545 164.731 135.545C162.369 135.545 160.455 137.46 160.455 139.821C160.455 142.183 162.369 144.098 164.731 144.098Z" fill="#151515"/>
<path d="M181.337 144.098C183.698 144.098 185.613 142.183 185.613 139.821C185.613 137.46 183.698 135.545 181.337 135.545C178.975 135.545 177.061 137.46 177.061 139.821C177.061 142.183 178.975 144.098 181.337 144.098Z" fill="#151515"/>
<path d="M189.64 144.098C192.001 144.098 193.916 142.183 193.916 139.821C193.916 137.46 192.001 135.545 189.64 135.545C187.278 135.545 185.364 137.46 185.364 139.821C185.364 142.183 187.278 144.098 189.64 144.098Z" fill="#151515"/>
<path d="M197.943 144.098C200.304 144.098 202.219 142.183 202.219 139.821C202.219 137.46 200.304 135.545 197.943 135.545C195.581 135.545 193.667 137.46 193.667 139.821C193.667 142.183 195.581 144.098 197.943 144.098Z" fill="#151515"/>
<path d="M214.549 144.098C216.91 144.098 218.825 142.183 218.825 139.821C218.825 137.46 216.91 135.545 214.549 135.545C212.187 135.545 210.273 137.46 210.273 139.821C210.273 142.183 212.187 144.098 214.549 144.098Z" fill="#151515"/>
<path d="M222.852 144.098C225.213 144.098 227.128 142.183 227.128 139.821C227.128 137.46 225.213 135.545 222.852 135.545C220.49 135.545 218.576 137.46 218.576 139.821C218.576 142.183 220.49 144.098 222.852 144.098Z" fill="#151515"/>
<path d="M231.155 144.098C233.516 144.098 235.431 142.183 235.431 139.821C235.431 137.46 233.516 135.545 231.155 135.545C228.793 135.545 226.879 137.46 226.879 139.821C226.879 142.183 228.793 144.098 231.155 144.098Z" fill="#151515"/>
<path d="M264.367 144.098C266.729 144.098 268.643 142.183 268.643 139.821C268.643 137.46 266.729 135.545 264.367 135.545C262.005 135.545 260.091 137.46 260.091 139.821C260.091 142.183 262.005 144.098 264.367 144.098Z" fill="#151515"/>
<path d="M73.3973 152.401C75.7589 152.401 77.6733 150.486 77.6733 148.124C77.6733 145.763 75.7589 143.848 73.3973 143.848C71.0357 143.848 69.1212 145.763 69.1212 148.124C69.1212 150.486 71.0357 152.401 73.3973 152.401Z" fill="#151515"/>
<path d="M81.7004 152.401C84.062 152.401 85.9764 150.486 85.9764 148.124C85.9764 145.763 84.062 143.848 81.7004 143.848C79.3388 143.848 77.4243 145.763 77.4243 148.124C77.4243 150.486 79.3388 152.401 81.7004 152.401Z" fill="#151515"/>
<path d="M90.0034 152.401C92.365 152.401 94.2794 150.486 94.2794 148.124C94.2794 145.763 92.365 143.848 90.0034 143.848C87.6418 143.848 85.7273 145.763 85.7273 148.124C85.7273 150.486 87.6418 152.401 90.0034 152.401Z" fill="#151515"/>
<path d="M98.3063 152.401C100.668 152.401 102.582 150.486 102.582 148.124C102.582 145.763 100.668 143.848 98.3063 143.848C95.9447 143.848 94.0303 145.763 94.0303 148.124C94.0303 150.486 95.9447 152.401 98.3063 152.401Z" fill="#151515"/>
<path d="M114.912 152.401C117.274 152.401 119.188 150.486 119.188 148.124C119.188 145.763 117.274 143.848 114.912 143.848C112.551 143.848 110.636 145.763 110.636 148.124C110.636 150.486 112.551 152.401 114.912 152.401Z" fill="#151515"/>
<path d="M131.518 152.401C133.88 152.401 135.795 150.486 135.795 148.124C135.795 145.763 133.88 143.848 131.518 143.848C129.157 143.848 127.242 145.763 127.242 148.124C127.242 150.486 129.157 152.401 131.518 152.401Z" fill="#151515"/>
<path d="M173.034 152.401C175.395 152.401 177.31 150.486 177.31 148.124C177.31 145.763 175.395 143.848 173.034 143.848C170.672 143.848 168.758 145.763 168.758 148.124C168.758 150.486 170.672 152.401 173.034 152.401Z" fill="#151515"/>
<path d="M181.337 152.401C183.698 152.401 185.613 150.486 185.613 148.124C185.613 145.763 183.698 143.848 181.337 143.848C178.975 143.848 177.061 145.763 177.061 148.124C177.061 150.486 178.975 152.401 181.337 152.401Z" fill="#151515"/>
<path d="M197.943 152.401C200.304 152.401 202.219 150.486 202.219 148.124C202.219 145.763 200.304 143.848 197.943 143.848C195.581 143.848 193.667 145.763 193.667 148.124C193.667 150.486 195.581 152.401 197.943 152.401Z" fill="#151515"/>
<path d="M206.246 152.401C208.607 152.401 210.522 150.486 210.522 148.124C210.522 145.763 208.607 143.848 206.246 143.848C203.884 143.848 201.97 145.763 201.97 148.124C201.97 150.486 203.884 152.401 206.246 152.401Z" fill="#151515"/>
<path d="M222.852 152.401C225.213 152.401 227.128 150.486 227.128 148.124C227.128 145.763 225.213 143.848 222.852 143.848C220.49 143.848 218.576 145.763 218.576 148.124C218.576 150.486 220.49 152.401 222.852 152.401Z" fill="#151515"/>
<path d="M231.155 152.401C233.516 152.401 235.431 150.486 235.431 148.124C235.431 145.763 233.516 143.848 231.155 143.848C228.793 143.848 226.879 145.763 226.879 148.124C226.879 150.486 228.793 152.401 231.155 152.401Z" fill="#151515"/>
<path d="M239.458 152.401C241.82 152.401 243.734 150.486 243.734 148.124C243.734 145.763 241.82 143.848 239.458 143.848C237.096 143.848 235.182 145.763 235.182 148.124C235.182 150.486 237.096 152.401 239.458 152.401Z" fill="#151515"/>
<path d="M247.761 152.401C250.123 152.401 252.037 150.486 252.037 148.124C252.037 145.763 250.123 143.848 247.761 143.848C245.399 143.848 243.485 145.763 243.485 148.124C243.485 150.486 245.399 152.401 247.761 152.401Z" fill="#151515"/>
<path d="M40.1851 160.703C42.5467 160.703 44.4612 158.789 44.4612 156.427C44.4612 154.066 42.5467 152.151 40.1851 152.151C37.8235 152.151 35.9091 154.066 35.9091 156.427C35.9091 158.789 37.8235 160.703 40.1851 160.703Z" fill="#151515"/>
<path d="M65.0943 160.703C67.4559 160.703 69.3704 158.789 69.3704 156.427C69.3704 154.066 67.4559 152.151 65.0943 152.151C62.7327 152.151 60.8182 154.066 60.8182 156.427C60.8182 158.789 62.7327 160.703 65.0943 160.703Z" fill="#151515"/>
<path d="M90.0034 160.703C92.365 160.703 94.2794 158.789 94.2794 156.427C94.2794 154.066 92.365 152.151 90.0034 152.151C87.6418 152.151 85.7273 154.066 85.7273 156.427C85.7273 158.789 87.6418 160.703 90.0034 160.703Z" fill="#151515"/>
<path d="M98.3063 160.703C100.668 160.703 102.582 158.789 102.582 156.427C102.582 154.066 100.668 152.151 98.3063 152.151C95.9447 152.151 94.0303 154.066 94.0303 156.427C94.0303 158.789 95.9447 160.703 98.3063 160.703Z" fill="#151515"/>
<path d="M123.216 160.703C125.577 160.703 127.492 158.789 127.492 156.427C127.492 154.066 125.577 152.151 123.216 152.151C120.854 152.151 118.939 154.066 118.939 156.427C118.939 158.789 120.854 160.703 123.216 160.703Z" fill="#151515"/>
<path d="M148.125 160.703C150.486 160.703 152.401 158.789 152.401 156.427C152.401 154.066 150.486 152.151 148.125 152.151C145.763 152.151 143.849 154.066 143.849 156.427C143.849 158.789 145.763 160.703 148.125 160.703Z" fill="#151515"/>
<path d="M164.731 160.703C167.092 160.703 169.007 158.789 169.007 156.427C169.007 154.066 167.092 152.151 164.731 152.151C162.369 152.151 160.455 154.066 160.455 156.427C160.455 158.789 162.369 160.703 164.731 160.703Z" fill="#151515"/>
<path d="M181.337 160.703C183.698 160.703 185.613 158.789 185.613 156.427C185.613 154.066 183.698 152.151 181.337 152.151C178.975 152.151 177.061 154.066 177.061 156.427C177.061 158.789 178.975 160.703 181.337 160.703Z" fill="#151515"/>
<path d="M197.943 160.703C200.304 160.703 202.219 158.789 202.219 156.427C202.219 154.066 200.304 152.151 197.943 152.151C195.581 152.151 193.667 154.066 193.667 156.427C193.667 158.789 195.581 160.703 197.943 160.703Z" fill="#151515"/>
<path d="M206.246 160.703C208.607 160.703 210.522 158.789 210.522 156.427C210.522 154.066 208.607 152.151 206.246 152.151C203.884 152.151 201.97 154.066 201.97 156.427C201.97 158.789 203.884 160.703 206.246 160.703Z" fill="#151515"/>
<path d="M214.549 160.703C216.91 160.703 218.825 158.789 218.825 156.427C218.825 154.066 216.91 152.151 214.549 152.151C212.187 152.151 210.273 154.066 210.273 156.427C210.273 158.789 212.187 160.703 214.549 160.703Z" fill="#151515"/>
<path d="M222.852 160.703C225.213 160.703 227.128 158.789 227.128 156.427C227.128 154.066 225.213 152.151 222.852 152.151C220.49 152.151 218.576 154.066 218.576 156.427C218.576 158.789 220.49 160.703 222.852 160.703Z" fill="#151515"/>
<path d="M256.064 160.703C258.426 160.703 260.34 158.789 260.34 156.427C260.34 154.066 258.426 152.151 256.064 152.151C253.702 152.151 251.788 154.066 251.788 156.427C251.788 158.789 253.702 160.703 256.064 160.703Z" fill="#151515"/>
<path d="M31.8821 169.006C34.2437 169.006 36.1582 167.092 36.1582 164.73C36.1582 162.369 34.2437 160.454 31.8821 160.454C29.5205 160.454 27.6061 162.369 27.6061 164.73C27.6061 167.092 29.5205 169.006 31.8821 169.006Z" fill="#151515"/>
<path d="M73.3973 169.006C75.7589 169.006 77.6733 167.092 77.6733 164.73C77.6733 162.369 75.7589 160.454 73.3973 160.454C71.0357 160.454 69.1212 162.369 69.1212 164.73C69.1212 167.092 71.0357 169.006 73.3973 169.006Z" fill="#151515"/>
<path d="M81.7004 169.006C84.062 169.006 85.9764 167.092 85.9764 164.73C85.9764 162.369 84.062 160.454 81.7004 160.454C79.3388 160.454 77.4243 162.369 77.4243 164.73C77.4243 167.092 79.3388 169.006 81.7004 169.006Z" fill="#151515"/>
<path d="M90.0034 169.006C92.365 169.006 94.2794 167.092 94.2794 164.73C94.2794 162.369 92.365 160.454 90.0034 160.454C87.6418 160.454 85.7273 162.369 85.7273 164.73C85.7273 167.092 87.6418 169.006 90.0034 169.006Z" fill="#151515"/>
<path d="M98.3063 169.006C100.668 169.006 102.582 167.092 102.582 164.73C102.582 162.369 100.668 160.454 98.3063 160.454C95.9447 160.454 94.0303 162.369 94.0303 164.73C94.0303 167.092 95.9447 169.006 98.3063 169.006Z" fill="#151515"/>
<path d="M106.609 169.006C108.971 169.006 110.885 167.092 110.885 164.73C110.885 162.369 108.971 160.454 106.609 160.454C104.248 160.454 102.333 162.369 102.333 164.73C102.333 167.092 104.248 169.006 106.609 169.006Z" fill="#151515"/>
<path d="M114.912 169.006C117.274 169.006 119.188 167.092 119.188 164.73C119.188 162.369 117.274 160.454 114.912 160.454C112.551 160.454 110.636 162.369 110.636 164.73C110.636 167.092 112.551 169.006 114.912 169.006Z" fill="#151515"/>
<path d="M164.731 169.006C167.092 169.006 169.007 167.092 169.007 164.73C169.007 162.369 167.092 160.454 164.731 160.454C162.369 160.454 160.455 162.369 160.455 164.73C160.455 167.092 162.369 169.006 164.731 169.006Z" fill="#151515"/>
<path d="M173.034 169.006C175.395 169.006 177.31 167.092 177.31 164.73C177.31 162.369 175.395 160.454 173.034 160.454C170.672 160.454 168.758 162.369 168.758 164.73C168.758 167.092 170.672 169.006 173.034 169.006Z" fill="#151515"/>
<path d="M239.458 169.006C241.82 169.006 243.734 167.092 243.734 164.73C243.734 162.369 241.82 160.454 239.458 160.454C237.096 160.454 235.182 162.369 235.182 164.73C235.182 167.092 237.096 169.006 239.458 169.006Z" fill="#151515"/>
<path d="M247.761 169.006C250.123 169.006 252.037 167.092 252.037 164.73C252.037 162.369 250.123 160.454 247.761 160.454C245.399 160.454 243.485 162.369 243.485 164.73C243.485 167.092 245.399 169.006 247.761 169.006Z" fill="#151515"/>
<path d="M31.8821 177.31C34.2437 177.31 36.1582 175.395 36.1582 173.034C36.1582 170.672 34.2437 168.758 31.8821 168.758C29.5205 168.758 27.6061 170.672 27.6061 173.034C27.6061 175.395 29.5205 177.31 31.8821 177.31Z" fill="#151515"/>
<path d="M40.1851 177.31C42.5467 177.31 44.4612 175.395 44.4612 173.034C44.4612 170.672 42.5467 168.758 40.1851 168.758C37.8235 168.758 35.9091 170.672 35.9091 173.034C35.9091 175.395 37.8235 177.31 40.1851 177.31Z" fill="#151515"/>
<path d="M48.4882 177.31C50.8498 177.31 52.7643 175.395 52.7643 173.034C52.7643 170.672 50.8498 168.758 48.4882 168.758C46.1266 168.758 44.2122 170.672 44.2122 173.034C44.2122 175.395 46.1266 177.31 48.4882 177.31Z" fill="#151515"/>
<path d="M56.7912 177.31C59.1528 177.31 61.0673 175.395 61.0673 173.034C61.0673 170.672 59.1528 168.758 56.7912 168.758C54.4296 168.758 52.5151 170.672 52.5151 173.034C52.5151 175.395 54.4296 177.31 56.7912 177.31Z" fill="#151515"/>
<path d="M90.0034 177.31C92.365 177.31 94.2794 175.395 94.2794 173.034C94.2794 170.672 92.365 168.758 90.0034 168.758C87.6418 168.758 85.7273 170.672 85.7273 173.034C85.7273 175.395 87.6418 177.31 90.0034 177.31Z" fill="#151515"/>
<path d="M131.518 177.31C133.88 177.31 135.795 175.395 135.795 173.034C135.795 170.672 133.88 168.758 131.518 168.758C129.157 168.758 127.242 170.672 127.242 173.034C127.242 175.395 129.157 177.31 131.518 177.31Z" fill="#151515"/>
<path d="M139.821 177.31C142.183 177.31 144.098 175.395 144.098 173.034C144.098 170.672 142.183 168.758 139.821 168.758C137.46 168.758 135.545 170.672 135.545 173.034C135.545 175.395 137.46 177.31 139.821 177.31Z" fill="#151515"/>
<path d="M148.125 177.31C150.486 177.31 152.401 175.395 152.401 173.034C152.401 170.672 150.486 168.758 148.125 168.758C145.763 168.758 143.849 170.672 143.849 173.034C143.849 175.395 145.763 177.31 148.125 177.31Z" fill="#151515"/>
<path d="M156.428 177.31C158.789 177.31 160.704 175.395 160.704 173.034C160.704 170.672 158.789 168.758 156.428 168.758C154.066 168.758 152.151 170.672 152.151 173.034C152.151 175.395 154.066 177.31 156.428 177.31Z" fill="#151515"/>
<path d="M173.034 177.31C175.395 177.31 177.31 175.395 177.31 173.034C177.31 170.672 175.395 168.758 173.034 168.758C170.672 168.758 168.758 170.672 168.758 173.034C168.758 175.395 170.672 177.31 173.034 177.31Z" fill="#151515"/>
<path d="M181.337 177.31C183.698 177.31 185.613 175.395 185.613 173.034C185.613 170.672 183.698 168.758 181.337 168.758C178.975 168.758 177.061 170.672 177.061 173.034C177.061 175.395 178.975 177.31 181.337 177.31Z" fill="#151515"/>
<path d="M189.64 177.31C192.001 177.31 193.916 175.395 193.916 173.034C193.916 170.672 192.001 168.758 189.64 168.758C187.278 168.758 185.364 170.672 185.364 173.034C185.364 175.395 187.278 177.31 189.64 177.31Z" fill="#151515"/>
<path d="M197.943 177.31C200.304 177.31 202.219 175.395 202.219 173.034C202.219 170.672 200.304 168.758 197.943 168.758C195.581 168.758 193.667 170.672 193.667 173.034C193.667 175.395 195.581 177.31 197.943 177.31Z" fill="#151515"/>
<path d="M206.246 177.31C208.607 177.31 210.522 175.395 210.522 173.034C210.522 170.672 208.607 168.758 206.246 168.758C203.884 168.758 201.97 170.672 201.97 173.034C201.97 175.395 203.884 177.31 206.246 177.31Z" fill="#151515"/>
<path d="M214.549 177.31C216.91 177.31 218.825 175.395 218.825 173.034C218.825 170.672 216.91 168.758 214.549 168.758C212.187 168.758 210.273 170.672 210.273 173.034C210.273 175.395 212.187 177.31 214.549 177.31Z" fill="#151515"/>
<path d="M222.852 177.31C225.213 177.31 227.128 175.395 227.128 173.034C227.128 170.672 225.213 168.758 222.852 168.758C220.49 168.758 218.576 170.672 218.576 173.034C218.576 175.395 220.49 177.31 222.852 177.31Z" fill="#151515"/>
<path d="M231.155 177.31C233.516 177.31 235.431 175.395 235.431 173.034C235.431 170.672 233.516 168.758 231.155 168.758C228.793 168.758 226.879 170.672 226.879 173.034C226.879 175.395 228.793 177.31 231.155 177.31Z" fill="#151515"/>
<path d="M247.761 177.31C250.123 177.31 252.037 175.395 252.037 173.034C252.037 170.672 250.123 168.758 247.761 168.758C245.399 168.758 243.485 170.672 243.485 173.034C243.485 175.395 245.399 177.31 247.761 177.31Z" fill="#151515"/>
<path d="M264.367 177.31C266.729 177.31 268.643 175.395 268.643 173.034C268.643 170.672 266.729 168.758 264.367 168.758C262.005 168.758 260.091 170.672 260.091 173.034C260.091 175.395 262.005 177.31 264.367 177.31Z" fill="#151515"/>
<path d="M31.8821 185.613C34.2437 185.613 36.1582 183.698 36.1582 181.337C36.1582 178.975 34.2437 177.061 31.8821 177.061C29.5205 177.061 27.6061 178.975 27.6061 181.337C27.6061 183.698 29.5205 185.613 31.8821 185.613Z" fill="#151515"/>
<path d="M56.7912 185.613C59.1528 185.613 61.0673 183.698 61.0673 181.337C61.0673 178.975 59.1528 177.061 56.7912 177.061C54.4296 177.061 52.5151 178.975 52.5151 181.337C52.5151 183.698 54.4296 185.613 56.7912 185.613Z" fill="#151515"/>
<path d="M81.7004 185.613C84.062 185.613 85.9764 183.698 85.9764 181.337C85.9764 178.975 84.062 177.061 81.7004 177.061C79.3388 177.061 77.4243 178.975 77.4243 181.337C77.4243 183.698 79.3388 185.613 81.7004 185.613Z" fill="#151515"/>
<path d="M98.3063 185.613C100.668 185.613 102.582 183.698 102.582 181.337C102.582 178.975 100.668 177.061 98.3063 177.061C95.9447 177.061 94.0303 178.975 94.0303 181.337C94.0303 183.698 95.9447 185.613 98.3063 185.613Z" fill="#151515"/>
<path d="M106.609 185.613C108.971 185.613 110.885 183.698 110.885 181.337C110.885 178.975 108.971 177.061 106.609 177.061C104.248 177.061 102.333 178.975 102.333 181.337C102.333 183.698 104.248 185.613 106.609 185.613Z" fill="#151515"/>
<path d="M114.912 185.613C117.274 185.613 119.188 183.698 119.188 181.337C119.188 178.975 117.274 177.061 114.912 177.061C112.551 177.061 110.636 178.975 110.636 181.337C110.636 183.698 112.551 185.613 114.912 185.613Z" fill="#151515"/>
<path d="M123.216 185.613C125.577 185.613 127.492 183.698 127.492 181.337C127.492 178.975 125.577 177.061 123.216 177.061C120.854 177.061 118.939 178.975 118.939 181.337C118.939 183.698 120.854 185.613 123.216 185.613Z" fill="#151515"/>
<path d="M131.518 185.613C133.88 185.613 135.795 183.698 135.795 181.337C135.795 178.975 133.88 177.061 131.518 177.061C129.157 177.061 127.242 178.975 127.242 181.337C127.242 183.698 129.157 185.613 131.518 185.613Z" fill="#151515"/>
<path d="M139.821 185.613C142.183 185.613 144.098 183.698 144.098 181.337C144.098 178.975 142.183 177.061 139.821 177.061C137.46 177.061 135.545 178.975 135.545 181.337C135.545 183.698 137.46 185.613 139.821 185.613Z" fill="#151515"/>
<path d="M148.125 185.613C150.486 185.613 152.401 183.698 152.401 181.337C152.401 178.975 150.486 177.061 148.125 177.061C145.763 177.061 143.849 178.975 143.849 181.337C143.849 183.698 145.763 185.613 148.125 185.613Z" fill="#151515"/>
<path d="M156.428 185.613C158.789 185.613 160.704 183.698 160.704 181.337C160.704 178.975 158.789 177.061 156.428 177.061C154.066 177.061 152.151 178.975 152.151 181.337C152.151 183.698 154.066 185.613 156.428 185.613Z" fill="#151515"/>
<path d="M164.731 185.613C167.092 185.613 169.007 183.698 169.007 181.337C169.007 178.975 167.092 177.061 164.731 177.061C162.369 177.061 160.455 178.975 160.455 181.337C160.455 183.698 162.369 185.613 164.731 185.613Z" fill="#151515"/>
<path d="M173.034 185.613C175.395 185.613 177.31 183.698 177.31 181.337C177.31 178.975 175.395 177.061 173.034 177.061C170.672 177.061 168.758 178.975 168.758 181.337C168.758 183.698 170.672 185.613 173.034 185.613Z" fill="#151515"/>
<path d="M206.246 185.613C208.607 185.613 210.522 183.698 210.522 181.337C210.522 178.975 208.607 177.061 206.246 177.061C203.884 177.061 201.97 178.975 201.97 181.337C201.97 183.698 203.884 185.613 206.246 185.613Z" fill="#151515"/>
<path d="M214.549 185.613C216.91 185.613 218.825 183.698 218.825 181.337C218.825 178.975 216.91 177.061 214.549 177.061C212.187 177.061 210.273 178.975 210.273 181.337C210.273 183.698 212.187 185.613 214.549 185.613Z" fill="#151515"/>
<path d="M247.761 185.613C250.123 185.613 252.037 183.698 252.037 181.337C252.037 178.975 250.123 177.061 247.761 177.061C245.399 177.061 243.485 178.975 243.485 181.337C243.485 183.698 245.399 185.613 247.761 185.613Z" fill="#151515"/>
<path d="M31.8821 193.916C34.2437 193.916 36.1582 192.001 36.1582 189.64C36.1582 187.278 34.2437 185.364 31.8821 185.364C29.5205 185.364 27.6061 187.278 27.6061 189.64C27.6061 192.001 29.5205 193.916 31.8821 193.916Z" fill="#151515"/>
<path d="M48.4882 193.916C50.8498 193.916 52.7643 192.001 52.7643 189.64C52.7643 187.278 50.8498 185.364 48.4882 185.364C46.1266 185.364 44.2122 187.278 44.2122 189.64C44.2122 192.001 46.1266 193.916 48.4882 193.916Z" fill="#151515"/>
<path d="M56.7912 193.916C59.1528 193.916 61.0673 192.001 61.0673 189.64C61.0673 187.278 59.1528 185.364 56.7912 185.364C54.4296 185.364 52.5151 187.278 52.5151 189.64C52.5151 192.001 54.4296 193.916 56.7912 193.916Z" fill="#151515"/>
<path d="M65.0943 193.916C67.4559 193.916 69.3704 192.001 69.3704 189.64C69.3704 187.278 67.4559 185.364 65.0943 185.364C62.7327 185.364 60.8182 187.278 60.8182 189.64C60.8182 192.001 62.7327 193.916 65.0943 193.916Z" fill="#151515"/>
<path d="M114.912 193.916C117.274 193.916 119.188 192.001 119.188 189.64C119.188 187.278 117.274 185.364 114.912 185.364C112.551 185.364 110.636 187.278 110.636 189.64C110.636 192.001 112.551 193.916 114.912 193.916Z" fill="#151515"/>
<path d="M139.821 193.916C142.183 193.916 144.098 192.001 144.098 189.64C144.098 187.278 142.183 185.364 139.821 185.364C137.46 185.364 135.545 187.278 135.545 189.64C135.545 192.001 137.46 193.916 139.821 193.916Z" fill="#151515"/>
<path d="M156.428 193.916C158.789 193.916 160.704 192.001 160.704 189.64C160.704 187.278 158.789 185.364 156.428 185.364C154.066 185.364 152.151 187.278 152.151 189.64C152.151 192.001 154.066 193.916 156.428 193.916Z" fill="#151515"/>
<path d="M197.943 193.916C200.304 193.916 202.219 192.001 202.219 189.64C202.219 187.278 200.304 185.364 197.943 185.364C195.581 185.364 193.667 187.278 193.667 189.64C193.667 192.001 195.581 193.916 197.943 193.916Z" fill="#151515"/>
<path d="M222.852 193.916C225.213 193.916 227.128 192.001 227.128 189.64C227.128 187.278 225.213 185.364 222.852 185.364C220.49 185.364 218.576 187.278 218.576 189.64C218.576 192.001 220.49 193.916 222.852 193.916Z" fill="#151515"/>
<path d="M256.064 193.916C258.426 193.916 260.34 192.001 260.34 189.64C260.34 187.278 258.426 185.364 256.064 185.364C253.702 185.364 251.788 187.278 251.788 189.64C251.788 192.001 253.702 193.916 256.064 193.916Z" fill="#151515"/>
<path d="M31.8821 202.219C34.2437 202.219 36.1582 200.304 36.1582 197.943C36.1582 195.581 34.2437 193.667 31.8821 193.667C29.5205 193.667 27.6061 195.581 27.6061 197.943C27.6061 200.304 29.5205 202.219 31.8821 202.219Z" fill="#151515"/>
<path d="M65.0943 202.219C67.4559 202.219 69.3704 200.304 69.3704 197.943C69.3704 195.581 67.4559 193.667 65.0943 193.667C62.7327 193.667 60.8182 195.581 60.8182 197.943C60.8182 200.304 62.7327 202.219 65.0943 202.219Z" fill="#151515"/>
<path d="M73.3973 202.219C75.7589 202.219 77.6733 200.304 77.6733 197.943C77.6733 195.581 75.7589 193.667 73.3973 193.667C71.0357 193.667 69.1212 195.581 69.1212 197.943C69.1212 200.304 71.0357 202.219 73.3973 202.219Z" fill="#151515"/>
<path d="M81.7004 202.219C84.062 202.219 85.9764 200.304 85.9764 197.943C85.9764 195.581 84.062 193.667 81.7004 193.667C79.3388 193.667 77.4243 195.581 77.4243 197.943C77.4243 200.304 79.3388 202.219 81.7004 202.219Z" fill="#151515"/>
<path d="M98.3063 202.219C100.668 202.219 102.582 200.304 102.582 197.943C102.582 195.581 100.668 193.667 98.3063 193.667C95.9447 193.667 94.0303 195.581 94.0303 197.943C94.0303 200.304 95.9447 202.219 98.3063 202.219Z" fill="#151515"/>
<path d="M148.125 202.219C150.486 202.219 152.401 200.304 152.401 197.943C152.401 195.581 150.486 193.667 148.125 193.667C145.763 193.667 143.849 195.581 143.849 197.943C143.849 200.304 145.763 202.219 148.125 202.219Z" fill="#151515"/>
<path d="M156.428 202.219C158.789 202.219 160.704 200.304 160.704 197.943C160.704 195.581 158.789 193.667 156.428 193.667C154.066 193.667 152.151 195.581 152.151 197.943C152.151 200.304 154.066 202.219 156.428 202.219Z" fill="#151515"/>
<path d="M173.034 202.219C175.395 202.219 177.31 200.304 177.31 197.943C177.31 195.581 175.395 193.667 173.034 193.667C170.672 193.667 168.758 195.581 168.758 197.943C168.758 200.304 170.672 202.219 173.034 202.219Z" fill="#151515"/>
<path d="M197.943 202.219C200.304 202.219 202.219 200.304 202.219 197.943C202.219 195.581 200.304 193.667 197.943 193.667C195.581 193.667 193.667 195.581 193.667 197.943C193.667 200.304 195.581 202.219 197.943 202.219Z" fill="#151515"/>
<path d="M206.246 202.219C208.607 202.219 210.522 200.304 210.522 197.943C210.522 195.581 208.607 193.667 206.246 193.667C203.884 193.667 201.97 195.581 201.97 197.943C201.97 200.304 203.884 202.219 206.246 202.219Z" fill="#151515"/>
<path d="M214.549 202.219C216.91 202.219 218.825 200.304 218.825 197.943C218.825 195.581 216.91 193.667 214.549 193.667C212.187 193.667 210.273 195.581 210.273 197.943C210.273 200.304 212.187 202.219 214.549 202.219Z" fill="#151515"/>
<path d="M222.852 202.219C225.213 202.219 227.128 200.304 227.128 197.943C227.128 195.581 225.213 193.667 222.852 193.667C220.49 193.667 218.576 195.581 218.576 197.943C218.576 200.304 220.49 202.219 222.852 202.219Z" fill="#151515"/>
<path d="M231.155 202.219C233.516 202.219 235.431 200.304 235.431 197.943C235.431 195.581 233.516 193.667 231.155 193.667C228.793 193.667 226.879 195.581 226.879 197.943C226.879 200.304 228.793 202.219 231.155 202.219Z" fill="#151515"/>
<path d="M247.761 202.219C250.123 202.219 252.037 200.304 252.037 197.943C252.037 195.581 250.123 193.667 247.761 193.667C245.399 193.667 243.485 195.581 243.485 197.943C243.485 200.304 245.399 202.219 247.761 202.219Z" fill="#151515"/>
<path d="M256.064 202.219C258.426 202.219 260.34 200.304 260.34 197.943C260.34 195.581 258.426 193.667 256.064 193.667C253.702 193.667 251.788 195.581 251.788 197.943C251.788 200.304 253.702 202.219 256.064 202.219Z" fill="#151515"/>
<path d="M264.367 202.219C266.729 202.219 268.643 200.304 268.643 197.943C268.643 195.581 266.729 193.667 264.367 193.667C262.005 193.667 260.091 195.581 260.091 197.943C260.091 200.304 262.005 202.219 264.367 202.219Z" fill="#151515"/>
<path d="M98.3063 210.522C100.668 210.522 102.582 208.607 102.582 206.246C102.582 203.884 100.668 201.969 98.3063 201.969C95.9447 201.969 94.0303 203.884 94.0303 206.246C94.0303 208.607 95.9447 210.522 98.3063 210.522Z" fill="#151515"/>
<path d="M123.216 210.522C125.577 210.522 127.492 208.607 127.492 206.246C127.492 203.884 125.577 201.969 123.216 201.969C120.854 201.969 118.939 203.884 118.939 206.246C118.939 208.607 120.854 210.522 123.216 210.522Z" fill="#151515"/>
<path d="M131.518 210.522C133.88 210.522 135.795 208.607 135.795 206.246C135.795 203.884 133.88 201.969 131.518 201.969C129.157 201.969 127.242 203.884 127.242 206.246C127.242 208.607 129.157 210.522 131.518 210.522Z" fill="#151515"/>
<path d="M156.428 210.522C158.789 210.522 160.704 208.607 160.704 206.246C160.704 203.884 158.789 201.969 156.428 201.969C154.066 201.969 152.151 203.884 152.151 206.246C152.151 208.607 154.066 210.522 156.428 210.522Z" fill="#151515"/>
<path d="M164.731 210.522C167.092 210.522 169.007 208.607 169.007 206.246C169.007 203.884 167.092 201.969 164.731 201.969C162.369 201.969 160.455 203.884 160.455 206.246C160.455 208.607 162.369 210.522 164.731 210.522Z" fill="#151515"/>
<path d="M189.64 210.522C192.001 210.522 193.916 208.607 193.916 206.246C193.916 203.884 192.001 201.969 189.64 201.969C187.278 201.969 185.364 203.884 185.364 206.246C185.364 208.607 187.278 210.522 189.64 210.522Z" fill="#151515"/>
<path d="M197.943 210.522C200.304 210.522 202.219 208.607 202.219 206.246C202.219 203.884 200.304 201.969 197.943 201.969C195.581 201.969 193.667 203.884 193.667 206.246C193.667 208.607 195.581 210.522 197.943 210.522Z" fill="#151515"/>
<path d="M231.155 210.522C233.516 210.522 235.431 208.607 235.431 206.246C235.431 203.884 233.516 201.969 231.155 201.969C228.793 201.969 226.879 203.884 226.879 206.246C226.879 208.607 228.793 210.522 231.155 210.522Z" fill="#151515"/>
<path d="M239.458 210.522C241.82 210.522 243.734 208.607 243.734 206.246C243.734 203.884 241.82 201.969 239.458 201.969C237.096 201.969 235.182 203.884 235.182 206.246C235.182 208.607 237.096 210.522 239.458 210.522Z" fill="#151515"/>
<path d="M247.761 210.522C250.123 210.522 252.037 208.607 252.037 206.246C252.037 203.884 250.123 201.969 247.761 201.969C245.399 201.969 243.485 203.884 243.485 206.246C243.485 208.607 245.399 210.522 247.761 210.522Z" fill="#151515"/>
<path d="M256.064 210.522C258.426 210.522 260.34 208.607 260.34 206.246C260.34 203.884 258.426 201.969 256.064 201.969C253.702 201.969 251.788 203.884 251.788 206.246C251.788 208.607 253.702 210.522 256.064 210.522Z" fill="#151515"/>
<path d="M264.367 210.522C266.729 210.522 268.643 208.607 268.643 206.246C268.643 203.884 266.729 201.969 264.367 201.969C262.005 201.969 260.091 203.884 260.091 206.246C260.091 208.607 262.005 210.522 264.367 210.522Z" fill="#151515"/>
<path d="M106.609 218.825C108.971 218.825 110.885 216.91 110.885 214.549C110.885 212.187 108.971 210.273 106.609 210.273C104.248 210.273 102.333 212.187 102.333 214.549C102.333 216.91 104.248 218.825 106.609 218.825Z" fill="#151515"/>
<path d="M114.912 218.825C117.274 218.825 119.188 216.91 119.188 214.549C119.188 212.187 117.274 210.273 114.912 210.273C112.551 210.273 110.636 212.187 110.636 214.549C110.636 216.91 112.551 218.825 114.912 218.825Z" fill="#151515"/>
<path d="M131.518 218.825C133.88 218.825 135.795 216.91 135.795 214.549C135.795 212.187 133.88 210.273 131.518 210.273C129.157 210.273 127.242 212.187 127.242 214.549C127.242 216.91 129.157 218.825 131.518 218.825Z" fill="#151515"/>
<path d="M189.64 218.825C192.001 218.825 193.916 216.91 193.916 214.549C193.916 212.187 192.001 210.273 189.64 210.273C187.278 210.273 185.364 212.187 185.364 214.549C185.364 216.91 187.278 218.825 189.64 218.825Z" fill="#151515"/>
<path d="M197.943 218.825C200.304 218.825 202.219 216.91 202.219 214.549C202.219 212.187 200.304 210.273 197.943 210.273C195.581 210.273 193.667 212.187 193.667 214.549C193.667 216.91 195.581 218.825 197.943 218.825Z" fill="#151515"/>
<path d="M214.549 218.825C216.91 218.825 218.825 216.91 218.825 214.549C218.825 212.187 216.91 210.273 214.549 210.273C212.187 210.273 210.273 212.187 210.273 214.549C210.273 216.91 212.187 218.825 214.549 218.825Z" fill="#151515"/>
<path d="M231.155 218.825C233.516 218.825 235.431 216.91 235.431 214.549C235.431 212.187 233.516 210.273 231.155 210.273C228.793 210.273 226.879 212.187 226.879 214.549C226.879 216.91 228.793 218.825 231.155 218.825Z" fill="#151515"/>
<path d="M239.458 218.825C241.82 218.825 243.734 216.91 243.734 214.549C243.734 212.187 241.82 210.273 239.458 210.273C237.096 210.273 235.182 212.187 235.182 214.549C235.182 216.91 237.096 218.825 239.458 218.825Z" fill="#151515"/>
<path d="M247.761 218.825C250.123 218.825 252.037 216.91 252.037 214.549C252.037 212.187 250.123 210.273 247.761 210.273C245.399 210.273 243.485 212.187 243.485 214.549C243.485 216.91 245.399 218.825 247.761 218.825Z" fill="#151515"/>
<path d="M98.3063 227.128C100.668 227.128 102.582 225.213 102.582 222.852C102.582 220.49 100.668 218.576 98.3063 218.576C95.9447 218.576 94.0303 220.49 94.0303 222.852C94.0303 225.213 95.9447 227.128 98.3063 227.128Z" fill="#151515"/>
<path d="M106.609 227.128C108.971 227.128 110.885 225.213 110.885 222.852C110.885 220.49 108.971 218.576 106.609 218.576C104.248 218.576 102.333 220.49 102.333 222.852C102.333 225.213 104.248 227.128 106.609 227.128Z" fill="#151515"/>
<path d="M123.216 227.128C125.577 227.128 127.492 225.213 127.492 222.852C127.492 220.49 125.577 218.576 123.216 218.576C120.854 218.576 118.939 220.49 118.939 222.852C118.939 225.213 120.854 227.128 123.216 227.128Z" fill="#151515"/>
<path d="M148.125 227.128C150.486 227.128 152.401 225.213 152.401 222.852C152.401 220.49 150.486 218.576 148.125 218.576C145.763 218.576 143.849 220.49 143.849 222.852C143.849 225.213 145.763 227.128 148.125 227.128Z" fill="#151515"/>
<path d="M164.731 227.128C167.092 227.128 169.007 225.213 169.007 222.852C169.007 220.49 167.092 218.576 164.731 218.576C162.369 218.576 160.455 220.49 160.455 222.852C160.455 225.213 162.369 227.128 164.731 227.128Z" fill="#151515"/>
<path d="M181.337 227.128C183.698 227.128 185.613 225.213 185.613 222.852C185.613 220.49 183.698 218.576 181.337 218.576C178.975 218.576 177.061 220.49 177.061 222.852C177.061 225.213 178.975 227.128 181.337 227.128Z" fill="#151515"/>
<path d="M189.64 227.128C192.001 227.128 193.916 225.213 193.916 222.852C193.916 220.49 192.001 218.576 189.64 218.576C187.278 218.576 185.364 220.49 185.364 222.852C185.364 225.213 187.278 227.128 189.64 227.128Z" fill="#151515"/>
<path d="M197.943 227.128C200.304 227.128 202.219 225.213 202.219 222.852C202.219 220.49 200.304 218.576 197.943 218.576C195.581 218.576 193.667 220.49 193.667 222.852C193.667 225.213 195.581 227.128 197.943 227.128Z" fill="#151515"/>
<path d="M231.155 227.128C233.516 227.128 235.431 225.213 235.431 222.852C235.431 220.49 233.516 218.576 231.155 218.576C228.793 218.576 226.879 220.49 226.879 222.852C226.879 225.213 228.793 227.128 231.155 227.128Z" fill="#151515"/>
<path d="M256.064 227.128C258.426 227.128 260.34 225.213 260.34 222.852C260.34 220.49 258.426 218.576 256.064 218.576C253.702 218.576 251.788 220.49 251.788 222.852C251.788 225.213 253.702 227.128 256.064 227.128Z" fill="#151515"/>
<path d="M98.3063 235.431C100.668 235.431 102.582 233.516 102.582 231.155C102.582 228.793 100.668 226.879 98.3063 226.879C95.9447 226.879 94.0303 228.793 94.0303 231.155C94.0303 233.516 95.9447 235.431 98.3063 235.431Z" fill="#151515"/>
<path d="M106.609 235.431C108.971 235.431 110.885 233.516 110.885 231.155C110.885 228.793 108.971 226.879 106.609 226.879C104.248 226.879 102.333 228.793 102.333 231.155C102.333 233.516 104.248 235.431 106.609 235.431Z" fill="#151515"/>
<path d="M114.912 235.431C117.274 235.431 119.188 233.516 119.188 231.155C119.188 228.793 117.274 226.879 114.912 226.879C112.551 226.879 110.636 228.793 110.636 231.155C110.636 233.516 112.551 235.431 114.912 235.431Z" fill="#151515"/>
<path d="M131.518 235.431C133.88 235.431 135.795 233.516 135.795 231.155C135.795 228.793 133.88 226.879 131.518 226.879C129.157 226.879 127.242 228.793 127.242 231.155C127.242 233.516 129.157 235.431 131.518 235.431Z" fill="#151515"/>
<path d="M164.731 235.431C167.092 235.431 169.007 233.516 169.007 231.155C169.007 228.793 167.092 226.879 164.731 226.879C162.369 226.879 160.455 228.793 160.455 231.155C160.455 233.516 162.369 235.431 164.731 235.431Z" fill="#151515"/>
<path d="M181.337 235.431C183.698 235.431 185.613 233.516 185.613 231.155C185.613 228.793 183.698 226.879 181.337 226.879C178.975 226.879 177.061 228.793 177.061 231.155C177.061 233.516 178.975 235.431 181.337 235.431Z" fill="#151515"/>
<path d="M197.943 235.431C200.304 235.431 202.219 233.516 202.219 231.155C202.219 228.793 200.304 226.879 197.943 226.879C195.581 226.879 193.667 228.793 193.667 231.155C193.667 233.516 195.581 235.431 197.943 235.431Z" fill="#151515"/>
<path d="M206.246 235.431C208.607 235.431 210.522 233.516 210.522 231.155C210.522 228.793 208.607 226.879 206.246 226.879C203.884 226.879 201.97 228.793 201.97 231.155C201.97 233.516 203.884 235.431 206.246 235.431Z" fill="#151515"/>
<path d="M214.549 235.431C216.91 235.431 218.825 233.516 218.825 231.155C218.825 228.793 216.91 226.879 214.549 226.879C212.187 226.879 210.273 228.793 210.273 231.155C210.273 233.516 212.187 235.431 214.549 235.431Z" fill="#151515"/>
<path d="M222.852 235.431C225.213 235.431 227.128 233.516 227.128 231.155C227.128 228.793 225.213 226.879 222.852 226.879C220.49 226.879 218.576 228.793 218.576 231.155C218.576 233.516 220.49 235.431 222.852 235.431Z" fill="#151515"/>
<path d="M231.155 235.431C233.516 235.431 235.431 233.516 235.431 231.155C235.431 228.793 233.516 226.879 231.155 226.879C228.793 226.879 226.879 228.793 226.879 231.155C226.879 233.516 228.793 235.431 231.155 235.431Z" fill="#151515"/>
<path d="M247.761 235.431C250.123 235.431 252.037 233.516 252.037 231.155C252.037 228.793 250.123 226.879 247.761 226.879C245.399 226.879 243.485 228.793 243.485 231.155C243.485 233.516 245.399 235.431 247.761 235.431Z" fill="#151515"/>
<path d="M264.367 235.431C266.729 235.431 268.643 233.516 268.643 231.155C268.643 228.793 266.729 226.879 264.367 226.879C262.005 226.879 260.091 228.793 260.091 231.155C260.091 233.516 262.005 235.431 264.367 235.431Z" fill="#151515"/>
<path d="M98.3063 243.734C100.668 243.734 102.582 241.819 102.582 239.458C102.582 237.096 100.668 235.182 98.3063 235.182C95.9447 235.182 94.0303 237.096 94.0303 239.458C94.0303 241.819 95.9447 243.734 98.3063 243.734Z" fill="#151515"/>
<path d="M114.912 243.734C117.274 243.734 119.188 241.819 119.188 239.458C119.188 237.096 117.274 235.182 114.912 235.182C112.551 235.182 110.636 237.096 110.636 239.458C110.636 241.819 112.551 243.734 114.912 243.734Z" fill="#151515"/>
<path d="M123.216 243.734C125.577 243.734 127.492 241.819 127.492 239.458C127.492 237.096 125.577 235.182 123.216 235.182C120.854 235.182 118.939 237.096 118.939 239.458C118.939 241.819 120.854 243.734 123.216 243.734Z" fill="#151515"/>
<path d="M139.821 243.734C142.183 243.734 144.098 241.819 144.098 239.458C144.098 237.096 142.183 235.182 139.821 235.182C137.46 235.182 135.545 237.096 135.545 239.458C135.545 241.819 137.46 243.734 139.821 243.734Z" fill="#151515"/>
<path d="M148.125 243.734C150.486 243.734 152.401 241.819 152.401 239.458C152.401 237.096 150.486 235.182 148.125 235.182C145.763 235.182 143.849 237.096 143.849 239.458C143.849 241.819 145.763 243.734 148.125 243.734Z" fill="#151515"/>
<path d="M156.428 243.734C158.789 243.734 160.704 241.819 160.704 239.458C160.704 237.096 158.789 235.182 156.428 235.182C154.066 235.182 152.151 237.096 152.151 239.458C152.151 241.819 154.066 243.734 156.428 243.734Z" fill="#151515"/>
<path d="M173.034 243.734C175.395 243.734 177.31 241.819 177.31 239.458C177.31 237.096 175.395 235.182 173.034 235.182C170.672 235.182 168.758 237.096 168.758 239.458C168.758 241.819 170.672 243.734 173.034 243.734Z" fill="#151515"/>
<path d="M181.337 243.734C183.698 243.734 185.613 241.819 185.613 239.458C185.613 237.096 183.698 235.182 181.337 235.182C178.975 235.182 177.061 237.096 177.061 239.458C177.061 241.819 178.975 243.734 181.337 243.734Z" fill="#151515"/>
<path d="M189.64 243.734C192.001 243.734 193.916 241.819 193.916 239.458C193.916 237.096 192.001 235.182 189.64 235.182C187.278 235.182 185.364 237.096 185.364 239.458C185.364 241.819 187.278 243.734 189.64 243.734Z" fill="#151515"/>
<path d="M239.458 243.734C241.82 243.734 243.734 241.819 243.734 239.458C243.734 237.096 241.82 235.182 239.458 235.182C237.096 235.182 235.182 237.096 235.182 239.458C235.182 241.819 237.096 243.734 239.458 243.734Z" fill="#151515"/>
<path d="M247.761 243.734C250.123 243.734 252.037 241.819 252.037 239.458C252.037 237.096 250.123 235.182 247.761 235.182C245.399 235.182 243.485 237.096 243.485 239.458C243.485 241.819 245.399 243.734 247.761 243.734Z" fill="#151515"/>
<path d="M98.3063 252.037C100.668 252.037 102.582 250.123 102.582 247.761C102.582 245.399 100.668 243.485 98.3063 243.485C95.9447 243.485 94.0303 245.399 94.0303 247.761C94.0303 250.123 95.9447 252.037 98.3063 252.037Z" fill="#151515"/>
<path d="M106.609 252.037C108.971 252.037 110.885 250.123 110.885 247.761C110.885 245.399 108.971 243.485 106.609 243.485C104.248 243.485 102.333 245.399 102.333 247.761C102.333 250.123 104.248 252.037 106.609 252.037Z" fill="#151515"/>
<path d="M114.912 252.037C117.274 252.037 119.188 250.123 119.188 247.761C119.188 245.399 117.274 243.485 114.912 243.485C112.551 243.485 110.636 245.399 110.636 247.761C110.636 250.123 112.551 252.037 114.912 252.037Z" fill="#151515"/>
<path d="M131.518 252.037C133.88 252.037 135.795 250.123 135.795 247.761C135.795 245.399 133.88 243.485 131.518 243.485C129.157 243.485 127.242 245.399 127.242 247.761C127.242 250.123 129.157 252.037 131.518 252.037Z" fill="#151515"/>
<path d="M156.428 252.037C158.789 252.037 160.704 250.123 160.704 247.761C160.704 245.399 158.789 243.485 156.428 243.485C154.066 243.485 152.151 245.399 152.151 247.761C152.151 250.123 154.066 252.037 156.428 252.037Z" fill="#151515"/>
<path d="M164.731 252.037C167.092 252.037 169.007 250.123 169.007 247.761C169.007 245.399 167.092 243.485 164.731 243.485C162.369 243.485 160.455 245.399 160.455 247.761C160.455 250.123 162.369 252.037 164.731 252.037Z" fill="#151515"/>
<path d="M173.034 252.037C175.395 252.037 177.31 250.123 177.31 247.761C177.31 245.399 175.395 243.485 173.034 243.485C170.672 243.485 168.758 245.399 168.758 247.761C168.758 250.123 170.672 252.037 173.034 252.037Z" fill="#151515"/>
<path d="M214.549 252.037C216.91 252.037 218.825 250.123 218.825 247.761C218.825 245.399 216.91 243.485 214.549 243.485C212.187 243.485 210.273 245.399 210.273 247.761C210.273 250.123 212.187 252.037 214.549 252.037Z" fill="#151515"/>
<path d="M231.155 252.037C233.516 252.037 235.431 250.123 235.431 247.761C235.431 245.399 233.516 243.485 231.155 243.485C228.793 243.485 226.879 245.399 226.879 247.761C226.879 250.123 228.793 252.037 231.155 252.037Z" fill="#151515"/>
<path d="M239.458 252.037C241.82 252.037 243.734 250.123 243.734 247.761C243.734 245.399 241.82 243.485 239.458 243.485C237.096 243.485 235.182 245.399 235.182 247.761C235.182 250.123 237.096 252.037 239.458 252.037Z" fill="#151515"/>
<path d="M247.761 252.037C250.123 252.037 252.037 250.123 252.037 247.761C252.037 245.399 250.123 243.485 247.761 243.485C245.399 243.485 243.485 245.399 243.485 247.761C243.485 250.123 245.399 252.037 247.761 252.037Z" fill="#151515"/>
<path d="M256.064 252.037C258.426 252.037 260.34 250.123 260.34 247.761C260.34 245.399 258.426 243.485 256.064 243.485C253.702 243.485 251.788 245.399 251.788 247.761C251.788 250.123 253.702 252.037 256.064 252.037Z" fill="#151515"/>
<path d="M123.216 260.34C125.577 260.34 127.492 258.426 127.492 256.064C127.492 253.702 125.577 251.788 123.216 251.788C120.854 251.788 118.939 253.702 118.939 256.064C118.939 258.426 120.854 260.34 123.216 260.34Z" fill="#151515"/>
<path d="M131.518 260.34C133.88 260.34 135.795 258.426 135.795 256.064C135.795 253.702 133.88 251.788 131.518 251.788C129.157 251.788 127.242 253.702 127.242 256.064C127.242 258.426 129.157 260.34 131.518 260.34Z" fill="#151515"/>
<path d="M148.125 260.34C150.486 260.34 152.401 258.426 152.401 256.064C152.401 253.702 150.486 251.788 148.125 251.788C145.763 251.788 143.849 253.702 143.849 256.064C143.849 258.426 145.763 260.34 148.125 260.34Z" fill="#151515"/>
<path d="M156.428 260.34C158.789 260.34 160.704 258.426 160.704 256.064C160.704 253.702 158.789 251.788 156.428 251.788C154.066 251.788 152.151 253.702 152.151 256.064C152.151 258.426 154.066 260.34 156.428 260.34Z" fill="#151515"/>
<path d="M173.034 260.34C175.395 260.34 177.31 258.426 177.31 256.064C177.31 253.702 175.395 251.788 173.034 251.788C170.672 251.788 168.758 253.702 168.758 256.064C168.758 258.426 170.672 260.34 173.034 260.34Z" fill="#151515"/>
<path d="M181.337 260.34C183.698 260.34 185.613 258.426 185.613 256.064C185.613 253.702 183.698 251.788 181.337 251.788C178.975 251.788 177.061 253.702 177.061 256.064C177.061 258.426 178.975 260.34 181.337 260.34Z" fill="#151515"/>
<path d="M197.943 260.34C200.304 260.34 202.219 258.426 202.219 256.064C202.219 253.702 200.304 251.788 197.943 251.788C195.581 251.788 193.667 253.702 193.667 256.064C193.667 258.426 195.581 260.34 197.943 260.34Z" fill="#151515"/>
<path d="M231.155 260.34C233.516 260.34 235.431 258.426 235.431 256.064C235.431 253.702 233.516 251.788 231.155 251.788C228.793 251.788 226.879 253.702 226.879 256.064C226.879 258.426 228.793 260.34 231.155 260.34Z" fill="#151515"/>
<path d="M239.458 260.34C241.82 260.34 243.734 258.426 243.734 256.064C243.734 253.702 241.82 251.788 239.458 251.788C237.096 251.788 235.182 253.702 235.182 256.064C235.182 258.426 237.096 260.34 239.458 260.34Z" fill="#151515"/>
<path d="M256.064 260.34C258.426 260.34 260.34 258.426 260.34 256.064C260.34 253.702 258.426 251.788 256.064 251.788C253.702 251.788 251.788 253.702 251.788 256.064C251.788 258.426 253.702 260.34 256.064 260.34Z" fill="#151515"/>
<path d="M98.3063 268.643C100.668 268.643 102.582 266.728 102.582 264.367C102.582 262.005 100.668 260.091 98.3063 260.091C95.9447 260.091 94.0303 262.005 94.0303 264.367C94.0303 266.728 95.9447 268.643 98.3063 268.643Z" fill="#151515"/>
<path d="M106.609 268.643C108.971 268.643 110.885 266.728 110.885 264.367C110.885 262.005 108.971 260.091 106.609 260.091C104.248 260.091 102.333 262.005 102.333 264.367C102.333 266.728 104.248 268.643 106.609 268.643Z" fill="#151515"/>
<path d="M114.912 268.643C117.274 268.643 119.188 266.728 119.188 264.367C119.188 262.005 117.274 260.091 114.912 260.091C112.551 260.091 110.636 262.005 110.636 264.367C110.636 266.728 112.551 268.643 114.912 268.643Z" fill="#151515"/>
<path d="M123.216 268.643C125.577 268.643 127.492 266.728 127.492 264.367C127.492 262.005 125.577 260.091 123.216 260.091C120.854 260.091 118.939 262.005 118.939 264.367C118.939 266.728 120.854 268.643 123.216 268.643Z" fill="#151515"/>
<path d="M139.821 268.643C142.183 268.643 144.098 266.728 144.098 264.367C144.098 262.005 142.183 260.091 139.821 260.091C137.46 260.091 135.545 262.005 135.545 264.367C135.545 266.728 137.46 268.643 139.821 268.643Z" fill="#151515"/>
<path d="M148.125 268.643C150.486 268.643 152.401 266.728 152.401 264.367C152.401 262.005 150.486 260.091 148.125 260.091C145.763 260.091 143.849 262.005 143.849 264.367C143.849 266.728 145.763 268.643 148.125 268.643Z" fill="#151515"/>
<path d="M156.428 268.643C158.789 268.643 160.704 266.728 160.704 264.367C160.704 262.005 158.789 260.091 156.428 260.091C154.066 260.091 152.151 262.005 152.151 264.367C152.151 266.728 154.066 268.643 156.428 268.643Z" fill="#151515"/>
<path d="M189.64 268.643C192.001 268.643 193.916 266.728 193.916 264.367C193.916 262.005 192.001 260.091 189.64 260.091C187.278 260.091 185.364 262.005 185.364 264.367C185.364 266.728 187.278 268.643 189.64 268.643Z" fill="#151515"/>
<path d="M214.549 268.643C216.91 268.643 218.825 266.728 218.825 264.367C218.825 262.005 216.91 260.091 214.549 260.091C212.187 260.091 210.273 262.005 210.273 264.367C210.273 266.728 212.187 268.643 214.549 268.643Z" fill="#151515"/>
<path d="M222.852 268.643C225.213 268.643 227.128 266.728 227.128 264.367C227.128 262.005 225.213 260.091 222.852 260.091C220.49 260.091 218.576 262.005 218.576 264.367C218.576 266.728 220.49 268.643 222.852 268.643Z" fill="#151515"/>
<path d="M231.155 268.643C233.516 268.643 235.431 266.728 235.431 264.367C235.431 262.005 233.516 260.091 231.155 260.091C228.793 260.091 226.879 262.005 226.879 264.367C226.879 266.728 228.793 268.643 231.155 268.643Z" fill="#151515"/>
<path d="M239.458 268.643C241.82 268.643 243.734 266.728 243.734 264.367C243.734 262.005 241.82 260.091 239.458 260.091C237.096 260.091 235.182 262.005 235.182 264.367C235.182 266.728 237.096 268.643 239.458 268.643Z" fill="#151515"/>
<path d="M247.761 268.643C250.123 268.643 252.037 266.728 252.037 264.367C252.037 262.005 250.123 260.091 247.761 260.091C245.399 260.091 243.485 262.005 243.485 264.367C243.485 266.728 245.399 268.643 247.761 268.643Z" fill="#151515"/>
<path d="M46.2879 85.7272H67.4606C77.4243 85.7272 85.7273 77.4241 85.7273 67.4605V46.2878C85.7273 35.909 77.4243 27.606 67.0455 27.606H45.8727C35.9091 27.606 27.6061 35.909 27.6061 45.8726V67.0453C27.6061 77.4241 35.9091 85.7272 46.2879 85.7272ZM77.4243 47.5332V65.7999C77.4243 72.0272 72.0273 77.4241 65.8 77.4241H47.5334C40.8909 77.4241 35.9091 72.4423 35.9091 65.7999V47.5332C35.9091 41.306 41.3061 35.909 47.5334 35.909H65.8C72.4424 35.909 77.4243 40.8908 77.4243 47.5332Z" fill="#151515"/>
<path d="M228.955 85.7272H250.127C260.091 85.7272 268.394 77.4241 268.394 67.4605V46.2878C268.394 35.909 260.091 27.606 249.712 27.606H228.539C218.576 27.606 210.273 35.909 210.273 45.8726V67.0453C210.273 77.4241 218.576 85.7272 228.955 85.7272ZM260.091 47.5332V65.7999C260.091 72.0272 254.694 77.4241 248.467 77.4241H230.2C223.558 77.4241 218.576 72.4423 218.576 65.7999V47.5332C218.576 41.306 223.973 35.909 230.2 35.909H248.467C255.109 35.909 260.091 40.8908 260.091 47.5332Z" fill="#151515"/>
<path d="M46.2879 268.394H67.4606C77.4243 268.394 85.7273 260.091 85.7273 250.127V228.955C85.7273 218.576 77.4243 210.273 67.0455 210.273H45.8727C35.9091 210.273 27.6061 218.576 27.6061 228.539V249.712C27.6061 260.091 35.9091 268.394 46.2879 268.394ZM77.4243 230.2V248.467C77.4243 254.694 72.0273 260.091 65.8 260.091H47.5334C40.8909 260.091 35.9091 255.109 35.9091 248.467V230.2C35.9091 223.973 41.3061 218.576 47.5334 218.576H65.8C72.4424 218.576 77.4243 223.558 77.4243 230.2Z" fill="#151515"/>
<path d="M69.1212 51.2695V62.4786C69.1212 65.7998 65.8 69.121 62.0637 69.121H51.2697C47.1182 69.121 44.2122 66.2149 44.2122 62.0634V51.2695C44.2122 47.5331 47.5334 44.2119 51.2697 44.2119H62.4788C66.2152 44.2119 69.1212 47.118 69.1212 51.2695Z" fill="#151515"/>
<path d="M251.788 51.2695V62.4786C251.788 65.7998 248.467 69.121 244.73 69.121H233.936C229.785 69.121 226.879 66.2149 226.879 62.0634V51.2695C226.879 47.5331 230.2 44.2119 233.936 44.2119H245.145C248.882 44.2119 251.788 47.118 251.788 51.2695Z" fill="#151515"/>
<path d="M69.1212 233.936V245.145C69.1212 248.467 65.8 251.788 62.0637 251.788H51.2697C47.1182 251.788 44.2122 248.882 44.2122 244.73V233.936C44.2122 230.2 47.5334 226.879 51.2697 226.879H62.4788C66.2152 226.879 69.1212 229.785 69.1212 233.936Z" fill="#151515"/>
</svg>
