<svg width="20" height="20" viewBox="0 0 20 20" fill="none" xmlns="http://www.w3.org/2000/svg">
<path d="M10 1.25C12.3206 1.25 14.5462 2.17187 16.1872 3.81282C17.8281 5.45376 18.75 7.67936 18.75 10C18.75 12.3206 17.8281 14.5462 16.1872 16.1872C14.5462 17.8281 12.3206 18.75 10 18.75C7.67936 18.75 5.45376 17.8281 3.81282 16.1872C2.17187 14.5462 1.25 12.3206 1.25 10C1.25 7.67936 2.17187 5.45376 3.81282 3.81282C5.45376 2.17187 7.67936 1.25 10 1.25ZM10.4638 4.99C9.44625 4.99 8.64875 5.27875 8.0575 5.85625C7.4525 6.43375 7.16375 7.23125 7.16375 8.24875H8.73125C8.73125 7.67125 8.84125 7.2175 9.075 6.90125C9.33625 6.51625 9.7625 6.3375 10.3675 6.3375C10.835 6.3375 11.2063 6.46125 11.4675 6.7225C11.715 6.98375 11.8525 7.34125 11.8525 7.795C11.8525 8.13875 11.7288 8.46875 11.4813 8.77125L11.3163 8.96375C10.4225 9.76125 9.88625 10.3387 9.7075 10.71C9.515 11.0813 9.4325 11.535 9.4325 12.0575V12.25H11.0138V12.0575C11.0138 11.7275 11.0825 11.4387 11.22 11.1637C11.3438 10.9162 11.5225 10.6825 11.77 10.4762C12.43 9.89875 12.8288 9.5275 12.9525 9.39C13.2825 8.95 13.4613 8.38625 13.4613 7.69875C13.4613 6.86 13.1863 6.2 12.6363 5.71875C12.0863 5.22375 11.3575 4.99 10.4638 4.99ZM10.2163 12.9237C9.93589 12.9162 9.66395 13.02 9.46 13.2125C9.3593 13.3073 9.28017 13.4227 9.22797 13.5508C9.17578 13.679 9.15175 13.8168 9.1575 13.955C9.1575 14.2575 9.25375 14.505 9.46 14.6975C9.66242 14.894 9.93417 15.0027 10.2163 15C10.5188 15 10.7662 14.9038 10.9725 14.7113C11.0753 14.6144 11.1566 14.4971 11.2111 14.3668C11.2656 14.2365 11.2921 14.0962 11.2887 13.955C11.2914 13.8172 11.2659 13.6803 11.2139 13.5526C11.1619 13.425 11.0844 13.3092 10.9862 13.2125C10.777 13.0196 10.5007 12.916 10.2163 12.9237Z" fill="#818181"/>
</svg>
