<svg width="17" height="17" viewBox="0 0 17 17" fill="none" xmlns="http://www.w3.org/2000/svg">
<path d="M5.78151 8.50001C4.98151 8.52427 4.32719 8.83482 3.81855 9.43166H2.82595C2.42101 9.43166 2.08027 9.3334 1.80373 9.13688C1.52719 8.94036 1.38892 8.65285 1.38892 8.27437C1.38892 6.56149 1.69509 5.70506 2.30743 5.70506C2.33706 5.70506 2.44447 5.756 2.62966 5.8579C2.81484 5.9598 3.05558 6.06292 3.35188 6.16724C3.64818 6.27157 3.942 6.32373 4.23336 6.32373C4.56422 6.32373 4.89262 6.26793 5.21855 6.15632C5.19385 6.33586 5.18151 6.49599 5.18151 6.63671C5.18151 7.31118 5.38151 7.93228 5.78151 8.50001ZM13.7148 13.1364C13.7148 13.7187 13.5346 14.1785 13.1741 14.5157C12.8136 14.8529 12.3346 15.0216 11.7371 15.0216H5.26299C4.66546 15.0216 4.18645 14.8529 3.82595 14.5157C3.46546 14.1785 3.28521 13.7187 3.28521 13.1364C3.28521 12.8792 3.29385 12.6281 3.31114 12.3831C3.32842 12.1381 3.36299 11.8736 3.41484 11.5897C3.46669 11.3059 3.53213 11.0426 3.61114 10.8C3.69015 10.5574 3.79632 10.3208 3.92966 10.0904C4.06299 9.85988 4.21608 9.66336 4.38892 9.5008C4.56176 9.33825 4.77287 9.20845 5.02225 9.1114C5.27163 9.01435 5.54694 8.96583 5.84818 8.96583C5.89756 8.96583 6.00373 9.01799 6.16669 9.12232C6.32966 9.22664 6.5099 9.3431 6.70743 9.47169C6.90497 9.60028 7.16916 9.71673 7.50003 9.82106C7.83089 9.92538 8.16422 9.97754 8.50003 9.97754C8.83583 9.97754 9.16916 9.92538 9.50003 9.82106C9.83089 9.71673 10.0951 9.60028 10.2926 9.47169C10.4902 9.3431 10.6704 9.22664 10.8334 9.12232C10.9963 9.01799 11.1025 8.96583 11.1519 8.96583C11.4531 8.96583 11.7284 9.01435 11.9778 9.1114C12.2272 9.20845 12.4383 9.33825 12.6111 9.5008C12.784 9.66336 12.9371 9.85988 13.0704 10.0904C13.2037 10.3208 13.3099 10.5574 13.3889 10.8C13.4679 11.0426 13.5334 11.3059 13.5852 11.5897C13.6371 11.8736 13.6716 12.1381 13.6889 12.3831C13.7062 12.6281 13.7148 12.8792 13.7148 13.1364ZM6.12966 3.84175C6.12966 4.3561 5.94447 4.79524 5.5741 5.15917C5.20373 5.52309 4.75682 5.70506 4.23336 5.70506C3.7099 5.70506 3.26299 5.52309 2.89262 5.15917C2.52225 4.79524 2.33706 4.3561 2.33706 3.84175C2.33706 3.32741 2.52225 2.88827 2.89262 2.52434C3.26299 2.16042 3.7099 1.97845 4.23336 1.97845C4.75682 1.97845 5.20373 2.16042 5.5741 2.52434C5.94447 2.88827 6.12966 3.32741 6.12966 3.84175ZM11.3445 6.63671C11.3445 7.40823 11.0667 8.06693 10.5111 8.61282C9.95558 9.15871 9.28521 9.43166 8.50003 9.43166C7.71484 9.43166 7.04447 9.15871 6.48892 8.61282C5.93336 8.06693 5.65558 7.40823 5.65558 6.63671C5.65558 5.86518 5.93336 5.20648 6.48892 4.66059C7.04447 4.1147 7.71484 3.84175 8.50003 3.84175C9.28521 3.84175 9.95558 4.1147 10.5111 4.66059C11.0667 5.20648 11.3445 5.86518 11.3445 6.63671ZM15.6111 8.27437C15.6111 8.65285 15.4729 8.94036 15.1963 9.13688C14.9198 9.3334 14.579 9.43166 14.1741 9.43166H13.1815C12.6729 8.83482 12.0185 8.52427 11.2185 8.50001C11.6185 7.93228 11.8185 7.31118 11.8185 6.63671C11.8185 6.49599 11.8062 6.33586 11.7815 6.15632C12.1074 6.26793 12.4358 6.32373 12.7667 6.32373C13.0581 6.32373 13.3519 6.27157 13.6482 6.16724C13.9445 6.06292 14.1852 5.9598 14.3704 5.8579C14.5556 5.756 14.663 5.70506 14.6926 5.70506C15.305 5.70506 15.6111 6.56149 15.6111 8.27437ZM14.663 3.84175C14.663 4.3561 14.4778 4.79524 14.1074 5.15917C13.7371 5.52309 13.2902 5.70506 12.7667 5.70506C12.2432 5.70506 11.7963 5.52309 11.426 5.15917C11.0556 4.79524 10.8704 4.3561 10.8704 3.84175C10.8704 3.32741 11.0556 2.88827 11.426 2.52434C11.7963 2.16042 12.2432 1.97845 12.7667 1.97845C13.2902 1.97845 13.7371 2.16042 14.1074 2.52434C14.4778 2.88827 14.663 3.32741 14.663 3.84175Z" fill="#818181"/>
</svg>
