<svg width="40" height="40" viewBox="0 0 40 40" fill="none" xmlns="http://www.w3.org/2000/svg">
<rect x="0.5" y="0.5" width="39" height="39" rx="7.5" fill="url(#paint0_radial_250_3326)" fill-opacity="0.2"/>
<rect x="0.5" y="0.5" width="39" height="39" rx="7.5" stroke="url(#paint1_linear_250_3326)"/>
<path d="M29.4099 27.8647C29.4099 26.9717 29.2726 26.7313 28.3109 26.6627C28.1392 26.6627 28.0362 26.5253 28.0362 26.3536V25.9071C28.0362 25.8041 28.1049 25.6667 28.2079 25.6323C29.4099 24.8081 30.1998 23.4344 30.1998 21.8889L30.2342 21.6829C30.2685 21.5455 30.3716 21.4425 30.5089 21.4081C30.921 21.3051 31.2301 21.0303 31.3332 20.6182C31.4362 20.0344 31.0584 19.5192 30.5089 19.4162C30.4059 19.3818 30.3716 19.3132 30.3716 19.2101L30.5089 17.4243C30.5433 10.4869 20.5493 10.3839 20.4806 17.2869L20.6524 19.2445C20.6524 19.3132 20.618 19.3818 20.5493 19.4162C20.1029 19.5879 19.7938 20.1031 19.9312 20.6182C20.0342 20.996 20.3776 21.2364 20.7897 21.3394C20.9615 21.3738 21.0645 21.5111 21.0645 21.6829V21.8546C21.0645 23.4344 21.8887 24.8425 23.1251 25.6667C23.1938 25.701 23.1938 25.7697 23.1938 25.8041V26.3536C23.1938 26.4909 23.0907 26.6283 22.919 26.6283C21.8887 26.697 21.7857 26.9374 21.7514 27.796C21.717 27.8647 21.717 27.899 21.6827 27.9334C19.9998 28.6546 18.7635 29.6505 18.7978 32.0889C18.7978 32.2263 18.9352 32.3637 19.0726 32.3637H32.0887C32.2261 32.3637 32.3635 32.2606 32.3635 32.0889C32.3978 29.6505 31.2301 28.7233 29.513 28.002C29.4786 27.9334 29.4443 27.899 29.4099 27.8647Z" fill="url(#paint2_linear_250_3326)"/>
<path d="M20.687 26.8688C20.687 25.7698 20.5497 25.4951 19.3476 25.392C19.1416 25.392 19.0042 25.2203 19.0042 25.0143V24.4648C19.0042 24.3274 19.0729 24.19 19.2103 24.1213C20.687 23.1254 21.6486 21.4426 21.6486 19.5537L21.683 19.3133C21.7173 19.1415 21.8547 19.0042 22.0264 18.9698C22.5072 18.8668 22.9194 18.489 23.0224 18.0082C23.1598 17.287 22.6789 16.6688 22.0264 16.5314C21.9234 16.4971 21.8547 16.3941 21.8547 16.291L21.9921 14.0931C22.0264 5.67891 9.86885 5.57588 9.80016 13.9557L10.0062 16.3597C10.0062 16.4628 9.97188 16.5314 9.86885 16.5658C9.31935 16.7718 8.94158 17.39 9.11329 18.0425C9.21632 18.489 9.66279 18.7981 10.1436 18.9355C10.3497 18.9698 10.487 19.1415 10.487 19.3476V19.5537C10.487 21.4769 11.483 23.1941 12.9941 24.19C13.0628 24.2244 13.0971 24.2931 13.0971 24.3617V25.0486C13.0971 25.2203 12.9598 25.392 12.7537 25.392C11.5173 25.4607 11.38 25.7698 11.3456 26.8345C11.3113 26.8688 11.2769 26.9375 11.2426 26.9718C9.18198 27.8304 7.67087 29.0668 7.73956 32.0547C7.73956 32.2264 7.87693 32.3638 8.08299 32.3638H23.9497C24.1214 32.3638 24.2931 32.2264 24.2931 32.0547C24.3618 29.0668 22.885 27.9678 20.8244 27.0749C20.7557 26.9718 20.7214 26.9375 20.687 26.8688Z" fill="white"/>
<defs>
<radialGradient id="paint0_radial_250_3326" cx="0" cy="0" r="1" gradientUnits="userSpaceOnUse" gradientTransform="rotate(45) scale(56.5685)">
<stop stop-color="#FAFAFA"/>
<stop offset="1" stop-color="#F7F7F7" stop-opacity="0"/>
</radialGradient>
<linearGradient id="paint1_linear_250_3326" x1="20" y1="0" x2="20" y2="40" gradientUnits="userSpaceOnUse">
<stop stop-color="white"/>
<stop offset="1" stop-color="white" stop-opacity="0"/>
</linearGradient>
<linearGradient id="paint2_linear_250_3326" x1="19.8958" y1="11.5204" x2="33.1298" y2="14.5413" gradientUnits="userSpaceOnUse">
<stop stop-color="#0EB69D"/>
<stop offset="1" stop-color="#85E047"/>
</linearGradient>
</defs>
</svg>
