<svg width="16" height="16" viewBox="0 0 16 16" fill="none" xmlns="http://www.w3.org/2000/svg">
<path d="M13.3276 12.4528C13.3276 11.9472 13.2498 11.8111 12.7054 11.7722C12.6081 11.7722 12.5498 11.6945 12.5498 11.5972V11.3445C12.5498 11.2861 12.5887 11.2083 12.647 11.1889C13.3276 10.7222 13.7748 9.94446 13.7748 9.06946L13.7942 8.95279C13.8137 8.87501 13.872 8.81668 13.9498 8.79723C14.1831 8.7389 14.3581 8.58334 14.4165 8.35001C14.4748 8.01946 14.2609 7.72779 13.9498 7.66946C13.8915 7.65001 13.872 7.61112 13.872 7.55279L13.9498 6.54168C13.9692 2.6139 8.31091 2.55557 8.27202 6.4639L8.36924 7.57223C8.36924 7.61112 8.3498 7.65001 8.31091 7.66946C8.05813 7.76668 7.88313 8.05834 7.96091 8.35001C8.01924 8.5639 8.21369 8.70001 8.44702 8.75835C8.54424 8.77779 8.60258 8.85557 8.60258 8.95279V9.05001C8.60258 9.94446 9.06924 10.7417 9.76924 11.2083C9.80813 11.2278 9.80813 11.2667 9.80813 11.2861V11.5972C9.80813 11.675 9.7498 11.7528 9.65258 11.7528C9.06924 11.7917 9.01091 11.9278 8.99146 12.4139C8.97202 12.4528 8.97202 12.4722 8.95258 12.4917C7.9998 12.9 7.2998 13.4639 7.31924 14.8445C7.31924 14.9222 7.39702 15 7.4748 15H14.8442C14.922 15 14.9998 14.9417 14.9998 14.8445C15.0192 13.4639 14.3581 12.9389 13.3859 12.5306C13.3665 12.4917 13.347 12.4722 13.3276 12.4528Z" fill="url(#paint0_linear_2646_4157)"/>
<path d="M8.38896 11.8889C8.38896 11.2667 8.31118 11.1112 7.63062 11.0528C7.51396 11.0528 7.43618 10.9556 7.43618 10.8389V10.5278C7.43618 10.45 7.47507 10.3723 7.55285 10.3334C8.38896 9.76949 8.9334 8.81671 8.9334 7.74727L8.95285 7.61116C8.97229 7.51393 9.05007 7.43616 9.14729 7.41671C9.41951 7.35838 9.65285 7.14449 9.71118 6.87227C9.78896 6.46393 9.51674 6.11393 9.14729 6.03616C9.08896 6.01671 9.05007 5.95838 9.05007 5.90004L9.12785 4.6556C9.14729 -0.108289 2.26396 -0.166622 2.22507 4.57782L2.34174 5.93893C2.34174 5.99727 2.32229 6.03616 2.26396 6.0556C1.95285 6.17227 1.73896 6.52227 1.83618 6.89171C1.89451 7.14449 2.14729 7.31949 2.41951 7.39727C2.53618 7.41671 2.61396 7.51393 2.61396 7.6306V7.74727C2.61396 8.83616 3.17785 9.80838 4.0334 10.3723C4.07229 10.3917 4.09174 10.4306 4.09174 10.4695V10.8584C4.09174 10.9556 4.01396 11.0528 3.89729 11.0528C3.19729 11.0917 3.11951 11.2667 3.10007 11.8695C3.08063 11.8889 3.06118 11.9278 3.04174 11.9473C1.87507 12.4334 1.01951 13.1334 1.0584 14.825C1.0584 14.9223 1.13618 15 1.25285 15H10.2362C10.3334 15 10.4306 14.9223 10.4306 14.825C10.4695 13.1334 9.6334 12.5112 8.46674 12.0056C8.42785 11.9473 8.4084 11.9278 8.38896 11.8889Z" fill="white"/>
<defs>
<linearGradient id="paint0_linear_2646_4157" x1="7.9409" y1="3.19903" x2="15.4337" y2="4.9094" gradientUnits="userSpaceOnUse">
<stop stop-color="#0EB69D"/>
<stop offset="1" stop-color="#85E047"/>
</linearGradient>
</defs>
</svg>
