<svg width="12" height="12" viewBox="0 0 12 12" fill="none" xmlns="http://www.w3.org/2000/svg">
<path fill-rule="evenodd" clip-rule="evenodd" d="M6 1.375C3.42808 1.375 1.375 3.44613 1.375 6C1.375 6.20711 1.20711 6.375 1 6.375C0.792893 6.375 0.625 6.20711 0.625 6C0.625 3.03387 3.01192 0.625 6 0.625C7.77884 0.625 9.11092 1.368 9.99084 2.10204C10.2365 2.30701 10.4479 2.51192 10.625 2.70101V1.28C10.625 1.07289 10.7929 0.905 11 0.905C11.2071 0.905 11.375 1.07289 11.375 1.28V3.78C11.375 3.98711 11.2071 4.155 11 4.155H8.78C8.57289 4.155 8.405 3.98711 8.405 3.78C8.405 3.57289 8.57289 3.405 8.78 3.405H10.2496C10.063 3.1887 9.81647 2.93328 9.51041 2.67796C8.72408 2.022 7.55616 1.375 6 1.375ZM11 5.625C11.2071 5.625 11.375 5.79289 11.375 6C11.375 8.96711 8.96711 11.375 6 11.375C4.48977 11.375 3.29224 10.6149 2.49056 9.88776C2.27777 9.69476 2.09048 9.50198 1.93 9.32273V10.72C1.93 10.9271 1.76211 11.095 1.555 11.095C1.34789 11.095 1.18 10.9271 1.18 10.72V8.22C1.18 8.01289 1.34789 7.845 1.555 7.845H3.815C4.02211 7.845 4.19 8.01289 4.19 8.22C4.19 8.42711 4.02211 8.595 3.815 8.595H2.29355C2.47394 8.81431 2.70921 9.07353 2.99444 9.33224C3.72526 9.9951 4.75023 10.625 6 10.625C8.55289 10.625 10.625 8.55289 10.625 6C10.625 5.79289 10.7929 5.625 11 5.625Z" fill="#818181"/>
</svg>
