<svg width="32" height="32" viewBox="0 0 32 32" fill="none" xmlns="http://www.w3.org/2000/svg">
<path d="M23.9999 9.54663C23.9199 9.5333 23.8266 9.5333 23.7466 9.54663C21.9066 9.47996 20.4399 7.9733 20.4399 6.10663C20.4399 4.19996 21.9733 2.66663 23.8799 2.66663C25.7866 2.66663 27.3199 4.2133 27.3199 6.10663C27.3066 7.9733 25.8399 9.47996 23.9999 9.54663Z" stroke="white" stroke-width="1.5" stroke-linecap="round" stroke-linejoin="round"/>
<path d="M22.6266 19.2533C24.4532 19.5599 26.4666 19.2399 27.8799 18.2933C29.7599 17.0399 29.7599 14.9866 27.8799 13.7333C26.4532 12.7866 24.4132 12.4666 22.5865 12.7866" stroke="white" stroke-width="1.5" stroke-linecap="round" stroke-linejoin="round"/>
<path d="M7.96002 9.54663C8.04002 9.5333 8.13335 9.5333 8.21335 9.54663C10.0533 9.47996 11.52 7.9733 11.52 6.10663C11.52 4.19996 9.98668 2.66663 8.08002 2.66663C6.17335 2.66663 4.64001 4.2133 4.64001 6.10663C4.65335 7.9733 6.12002 9.47996 7.96002 9.54663Z" stroke="white" stroke-width="1.5" stroke-linecap="round" stroke-linejoin="round"/>
<path d="M9.33337 19.2533C7.50671 19.5599 5.49338 19.2399 4.08004 18.2933C2.20004 17.0399 2.20004 14.9866 4.08004 13.7333C5.50671 12.7866 7.54671 12.4666 9.37337 12.7866" stroke="white" stroke-width="1.5" stroke-linecap="round" stroke-linejoin="round"/>
<path d="M15.9999 19.5067C15.9199 19.4934 15.8266 19.4934 15.7466 19.5067C13.9066 19.44 12.4399 17.9334 12.4399 16.0667C12.4399 14.16 13.9733 12.6267 15.8799 12.6267C17.7866 12.6267 19.3199 14.1734 19.3199 16.0667C19.3066 17.9334 17.8399 19.4534 15.9999 19.5067Z" stroke="white" stroke-width="1.5" stroke-linecap="round" stroke-linejoin="round"/>
<path d="M12.12 23.7067C10.24 24.9601 10.24 27.0134 12.12 28.2667C14.2533 29.6934 17.7466 29.6934 19.88 28.2667C21.76 27.0134 21.76 24.9601 19.88 23.7067C17.76 22.2934 14.2533 22.2934 12.12 23.7067Z" stroke="white" stroke-width="1.5" stroke-linecap="round" stroke-linejoin="round"/>
</svg>
