<svg width="16" height="16" viewBox="0 0 16 16" fill="none" xmlns="http://www.w3.org/2000/svg">
<g clip-path="url(#clip0_137_760)">
<path d="M0.539062 15.4099C0.65234 15.0916 0.799804 14.6868 0.96483 14.2674C1.5859 12.6849 1.91502 12.2118 2.05661 12.0706C2.26851 11.8582 2.53122 11.7152 2.81637 11.6561L2.91499 11.6356L4.01945 10.5184L5.34166 12.0457L4.31338 13.0306L4.29188 13.1317C4.23329 13.4168 4.08973 13.6795 3.87783 13.8924C3.73624 14.033 3.2636 14.3631 1.68159 14.9837C1.26173 15.1482 0.856428 15.2967 0.539062 15.4099Z" fill="#FFCE54"/>
<path d="M4.03606 10.0292L2.74898 11.3304C2.41402 11.3998 2.08881 11.5682 1.82126 11.8358C1.13768 12.5193 0 15.9485 0 15.9485C0 15.9485 3.42864 14.8113 4.11318 14.1272C4.37977 13.8601 4.54873 13.5344 4.61804 13.199L5.79963 12.0672L4.03606 10.0292ZM4.15812 12.7185L4.00872 12.8621L3.96672 13.0647C3.92081 13.2859 3.80854 13.491 3.64251 13.657C3.58783 13.7117 3.22943 14.0188 1.56248 14.6731C1.4033 14.7351 1.24705 14.7952 1.09668 14.8513C1.15331 14.701 1.2129 14.5447 1.2754 14.3865C1.92969 12.719 2.2363 12.3606 2.29196 12.3059C2.45799 12.1395 2.66307 12.0276 2.88375 11.9822L3.081 11.9412L3.22259 11.7982L4.00284 11.0082L4.88269 12.0243L4.15812 12.7185Z" fill="#F6BB42"/>
<path d="M6.24712 13.2307C6.43364 13.1433 6.62017 13.0505 6.80569 12.9534L10.6025 10.2416C10.7578 10.0965 10.9111 9.9481 11.0624 9.79773C11.1493 9.70986 11.2363 9.62195 11.3212 9.53308C11.3066 11.263 10.5136 13.1556 9.00781 14.6619C8.50589 15.1633 7.96194 15.5857 7.39458 15.927C7.39067 15.9294 7.36817 15.9426 7.36817 15.9426C7.24221 16.011 7.08106 15.9919 6.97462 15.8855C6.93947 15.8498 6.91406 15.8083 6.89844 15.7644C6.89844 15.7644 6.88672 15.7297 6.88378 15.7146L6.19824 13.2532C6.2149 13.2459 6.23052 13.2381 6.24712 13.2307Z" fill="#DA4453"/>
<path d="M6.48545 4.6958C6.39658 4.78124 6.3087 4.86817 6.2208 4.95554C6.0704 5.10641 5.92197 5.25972 5.77744 5.415C5.11243 5.50874 3.06465 9.21228 3.06465 9.21228C2.96796 9.39784 2.87522 9.5839 2.78731 9.77089C2.7795 9.78702 2.77266 9.80311 2.76485 9.81923L0.302954 9.13366C0.288298 9.13072 0.253143 9.11901 0.253143 9.11901C0.209207 9.10338 0.168177 9.07801 0.132053 9.04235C0.0256191 8.93592 0.00705721 8.77527 0.0754301 8.6488C0.0754301 8.6488 0.0881172 8.62683 0.0910546 8.62293C0.431856 8.05554 0.853718 7.51162 1.35567 7.0097C2.86247 5.5029 4.755 4.70996 6.48545 4.6958Z" fill="#DA4453"/>
<path d="M6.15592 4.72019C4.26823 6.60832 2.90696 8.765 2.14817 10.8543C2.10814 10.9715 2.13352 11.1053 2.22726 11.1986L4.81803 13.7903C4.91177 13.8831 5.04555 13.909 5.16274 13.8689C7.25255 13.1101 9.40876 11.7493 11.2964 9.86122C14.23 6.92865 15.8764 3.39014 15.9995 0.372608C16.0034 0.282767 15.9711 0.183645 15.9028 0.114804C15.8334 0.0459623 15.7348 0.0137446 15.644 0.0176507C12.6265 0.140678 9.08849 1.78763 6.15592 4.72019Z" fill="#E6E9ED"/>
<path d="M9.92478 7.4227C9.56932 7.4227 9.23536 7.28402 8.98437 7.03306C8.73341 6.7816 8.59473 6.44761 8.59473 6.09215C8.59473 5.73669 8.73341 5.4027 8.98437 5.15124C9.23533 4.90028 9.57029 4.7616 9.92478 4.7616C10.2802 4.7616 10.6142 4.90028 10.8662 5.15124C11.3847 5.67029 11.3847 6.51448 10.8662 7.03306C10.6142 7.28402 10.2802 7.4227 9.92575 7.4227C9.92478 7.4227 9.92478 7.4227 9.92478 7.4227Z" fill="#434A54"/>
<path d="M7.10254 10.245C6.74709 10.245 6.41313 10.1068 6.16214 9.85532C5.91114 9.60436 5.77246 9.26987 5.77246 8.91488C5.77246 8.55943 5.91114 8.22497 6.16214 7.97351C6.4131 7.72255 6.74709 7.58386 7.10254 7.58386C7.45803 7.58386 7.79199 7.72255 8.04395 7.97351C8.5625 8.49255 8.5625 9.33678 8.04395 9.85532C7.79199 10.1068 7.45803 10.245 7.10254 10.245Z" fill="#434A54"/>
<path d="M11.1015 4.9165C10.787 4.60254 10.3691 4.4292 9.92476 4.4292C9.4814 4.4292 9.06347 4.60254 8.74902 4.9165C8.43556 5.23046 8.26172 5.64841 8.26172 6.09224C8.26172 6.53657 8.43553 6.95406 8.74902 7.26849C9.06344 7.58241 9.48143 7.75528 9.92476 7.75528C10.3691 7.75528 10.787 7.58244 11.1015 7.26849C11.7499 6.62007 11.7499 5.56494 11.1015 4.9165ZM10.6308 6.79781C10.4355 6.99262 10.1806 7.09027 9.92476 7.09027C9.66989 7.09027 9.41403 6.99262 9.21972 6.79781C8.83008 6.40817 8.83008 5.77634 9.21972 5.3867C9.41406 5.19189 9.66989 5.09471 9.92476 5.09471C10.1806 5.09471 10.4355 5.19186 10.6308 5.3867C11.0204 5.77634 11.0204 6.40817 10.6308 6.79781Z" fill="#CCD1D9"/>
<path d="M7.10253 7.25195C6.6582 7.25195 6.24124 7.42479 5.92675 7.73875C5.61232 8.05268 5.43945 8.47067 5.43945 8.915C5.43945 9.35886 5.61229 9.77631 5.92675 10.0908C6.24121 10.4047 6.6582 10.5781 7.10253 10.5781C7.54689 10.5781 7.96484 10.4047 8.2793 10.0908C8.92772 9.44235 8.92772 8.38717 8.2793 7.73875C7.96484 7.42479 7.54689 7.25195 7.10253 7.25195ZM7.8086 9.62007C7.61329 9.81537 7.35839 9.91253 7.10253 9.91253C6.84766 9.91253 6.59179 9.81537 6.39749 9.62007C6.00781 9.23039 6.00781 8.5986 6.39749 8.20895C6.59182 8.01412 6.84766 7.91696 7.10253 7.91696C7.35839 7.91696 7.61329 8.01412 7.8086 8.20895C8.19824 8.59857 8.19824 9.23039 7.8086 9.62007Z" fill="#CCD1D9"/>
<path d="M14.9755 4.55663L11.4609 1.04253C12.8925 0.419982 14.3193 0.0718365 15.6444 0.0176507C15.7352 0.0137446 15.8339 0.0459623 15.9032 0.114804C15.9716 0.183646 16.0038 0.282767 15.9999 0.372608C15.9462 1.69875 15.5976 3.12502 14.9755 4.55663Z" fill="#DA4453"/>
</g>
<defs>
<clipPath id="clip0_137_760">
<rect width="16" height="16" fill="white"/>
</clipPath>
</defs>
</svg>
