<svg width="40" height="40" viewBox="0 0 40 40" fill="none" xmlns="http://www.w3.org/2000/svg">
<rect width="40" height="40" rx="20" fill="#85E047"/>
<path d="M13.8594 27.2343C19.072 29.1352 24.8298 27.8891 26.6429 27.3725C26.7175 27.4809 26.7704 27.5864 26.8031 27.6888C26.9008 27.9947 26.8181 28.2738 26.5961 28.5262C25.4577 29.8203 20.6567 30.4131 17.7217 30.3298C15.5167 30.2672 14.2624 29.7382 12.8164 28.6095C12.6314 28.4651 12.4433 28.3108 12.2496 28.1465C11.9818 27.0228 11.464 24.246 11.5349 22.1282C12.7487 19.1031 15.5421 18.0767 18.7567 19.7622C20.3543 18.3285 23.4818 17.4474 24.6901 19.6763C25.9986 19.5289 27.1972 19.9954 27.8156 21.5062C28.4098 22.2823 27.8815 22.947 27.543 23.1824C27.4399 23.469 27.2624 23.7538 27.0254 24.0232C26.3718 24.766 25.2657 25.3918 24.0192 25.6172C21.427 26.0858 16.1753 25.8306 15.1146 25.5156C13.312 24.9802 12.7455 26.8282 13.8594 27.2343Z" fill="#548B37"/>
<path d="M21.0285 21.4216C21.7829 20.7751 22.7025 20.2253 23.6296 19.9167M24.6901 19.6763C25.9986 19.5289 27.1972 19.9954 27.8156 21.5062C28.4098 22.2823 27.8815 22.947 27.543 23.1824C27.4399 23.469 27.2624 23.7538 27.0254 24.0232C26.3718 24.766 25.2657 25.3918 24.0192 25.6172C21.427 26.0858 16.1753 25.8306 15.1146 25.5156C13.312 24.9802 12.7455 26.8282 13.8594 27.2343C19.072 29.1352 24.8298 27.8891 26.6429 27.3725C26.7175 27.4809 26.7704 27.5864 26.8031 27.6888C26.9008 27.9947 26.8181 28.2738 26.5961 28.5262C25.4577 29.8203 20.6567 30.4131 17.7217 30.3298C15.5167 30.2672 14.2624 29.7382 12.8164 28.6095C12.6314 28.4651 12.4433 28.3108 12.2496 28.1465C11.9818 27.0228 11.464 24.246 11.5349 22.1282C12.7487 19.1031 15.5421 18.0767 18.7567 19.7622C20.3543 18.3285 23.4818 17.4474 24.6901 19.6763ZM24.6901 19.6763C24.3414 19.7156 23.985 19.7984 23.6296 19.9167M23.6296 19.9167C23.1283 19.6846 21.6625 19.491 19.8095 20.5732M18.7567 20.651C17.8003 20.0282 15.393 19.3216 13.4155 21.4783M13.1527 23.6778C13.4853 23.7226 14.3817 23.5732 15.3061 22.6169C16.2305 21.6607 17.9917 21.3167 18.7567 21.2642" stroke="black" stroke-width="0.2"/>
<path d="M26.5962 28.5261C27.0099 28.8338 27.2573 29.2357 27.3623 29.4693C28.3518 28.806 29.3873 28.0315 29.7829 24.959L29.7833 24.9555C30.0775 22.6711 30.3044 20.9091 29.463 19.361C28.8955 18.3169 28.1638 17.958 27.8889 17.8037C29.101 16.802 27.973 15.3204 26.8871 16.4821C26.2894 15.8592 24.9931 15.9854 25.818 17.5343C24.9762 18.1236 25.3143 19.6547 27.0723 18.5361C27.5241 18.797 28.4882 19.5058 28.7307 20.2533C29.0377 21.2001 28.675 23.5879 28.537 24.9C28.4276 25.9411 28.3098 26.7351 26.8033 27.6887C26.9009 27.9947 26.8182 28.2737 26.5962 28.5261Z" fill="#548B37" stroke="black" stroke-width="0.2"/>
<path d="M26.6427 27.3725C27.1406 27.0262 27.2454 26.6536 26.8444 25.9917C28.4068 25.1389 27.6159 24.324 27.0252 24.0232C26.3716 24.7661 25.2655 25.3919 24.019 25.6172C21.4268 26.0858 16.1751 25.8306 15.1144 25.5156C13.3118 24.9802 12.7453 26.8282 13.8592 27.2344C19.0718 29.1352 24.8296 27.8892 26.6427 27.3725Z" fill="#A05D36"/>
<path d="M26.8444 25.9917C27.2454 26.6536 27.1406 27.0262 26.6427 27.3725C24.8296 27.8892 19.0718 29.1352 13.8592 27.2344C12.7453 26.8282 13.3118 24.9802 15.1144 25.5156C16.1751 25.8306 21.4268 26.0858 24.019 25.6172C25.2655 25.3919 26.3716 24.7661 27.0252 24.0232C27.6159 24.324 28.4068 25.1389 26.8444 25.9917ZM26.8444 25.9917C25.0629 26.721 20.2344 27.8534 15.1723 26.5488" stroke="black" stroke-width="0.2"/>
<path d="M18.1466 21.8281C19.3014 21.4045 21.2868 21.8586 21.6194 22.419C21.8447 22.3652 22.4677 22.0743 23.1571 21.3402C24.0188 20.4225 27.0723 20.5361 27.8151 21.5062C28.4094 22.2822 27.881 22.947 27.5425 23.1823C27.2174 23.2691 26.8922 23.3745 26.4888 23.4658C26.2203 23.5266 25.9173 23.5811 25.5566 23.6198C25.1053 23.6681 24.6052 23.9214 24.0812 24.0942C23.9837 24.1263 23.8853 24.1557 23.7863 24.1804C22.8544 24.4132 22.1819 24.3398 21.3477 23.8597C21.1515 24.0802 20.8818 24.2901 20.5339 24.4715C20.4727 24.5034 20.3899 24.5471 20.2895 24.5979C19.7215 24.8851 18.5893 25.3984 17.6178 25.2784C17.0549 25.2089 15.694 24.9266 14.8127 24.3374C14.1786 23.9135 14.7948 23.8983 15.3056 23.7639C15.7143 23.6563 16.1964 22.5434 18.1466 21.8281Z" fill="white"/>
<path d="M21.6194 22.419C21.2868 21.8586 19.3014 21.4045 18.1466 21.8281C16.1964 22.5434 15.7143 23.6563 15.3056 23.7639C14.7948 23.8983 14.1786 23.9135 14.8127 24.3374C15.694 24.9266 17.0549 25.2089 17.6178 25.2784C18.5893 25.3984 19.7215 24.8851 20.2895 24.5979C20.3899 24.5471 20.4727 24.5034 20.5339 24.4715C20.8818 24.2901 21.1515 24.0802 21.3477 23.8597M21.6194 22.419C21.8447 22.3652 22.4677 22.0743 23.1571 21.3402C24.0188 20.4225 27.0723 20.5361 27.8151 21.5062C28.4094 22.2822 27.881 22.947 27.5425 23.1823C27.2174 23.2691 26.8922 23.3745 26.4888 23.4658C26.2203 23.5266 25.9173 23.5811 25.5566 23.6198C25.1053 23.6681 24.6052 23.9214 24.0812 24.0942C23.9837 24.1263 23.8853 24.1557 23.7863 24.1804C22.8544 24.4132 22.1819 24.3398 21.3477 23.8597M21.6194 22.419C21.8584 22.8216 21.7859 23.3673 21.3477 23.8597" stroke="black" stroke-width="0.2"/>
<path d="M20.2903 24.598C19.7222 24.8852 18.59 25.3985 17.6186 25.2785C15.4461 21.2642 20.5925 21.1524 20.2903 24.598Z" fill="black"/>
<path d="M24.0819 24.0943C24.6059 23.9215 25.106 23.6682 25.5573 23.6198C25.918 23.5812 26.2211 23.5267 26.4895 23.4659C26.6922 19.6328 22.1407 20.7438 24.0819 24.0943Z" fill="black"/>
<path d="M20.2903 24.598C19.7222 24.8852 18.59 25.3985 17.6186 25.2785C15.4461 21.2642 20.5925 21.1524 20.2903 24.598Z" stroke="black" stroke-width="0.2"/>
<path d="M24.0819 24.0943C24.6059 23.9215 25.106 23.6682 25.5573 23.6198C25.918 23.5812 26.2211 23.5267 26.4895 23.4659C26.6922 19.6328 22.1407 20.7438 24.0819 24.0943Z" stroke="black" stroke-width="0.2"/>
<path d="M17.7212 30.3299C15.5163 30.2674 14.262 29.7384 12.816 28.6096C11.6715 29.9764 9.53975 33.3557 11.1754 33.9196C17.7212 36.176 24.6877 34.991 27.5142 33.9907C29.2477 33.3773 29.1484 31.4222 26.8027 30.0506C26.7713 29.9092 26.8473 29.6154 27.4024 29.571L27.3617 29.4695C27.2568 29.2359 27.0093 28.8341 26.5956 28.5264C25.4572 29.8204 20.6562 30.4132 17.7212 30.3299Z" fill="#0342EF" stroke="black" stroke-width="0.2"/>
<path d="M15.1151 25.5154C13.3125 24.98 12.7461 26.828 13.86 27.2341C14.1155 27.3273 14.3724 27.413 14.6301 27.4915C13.3946 26.5411 14.5275 25.801 15.2483 25.5498C15.1985 25.5384 15.154 25.5269 15.1151 25.5154Z" fill="black" fill-opacity="0.2"/>
<path d="M12.2502 28.1463C11.9824 27.0226 11.4645 24.2458 11.5355 22.128C12.1797 20.5223 13.269 19.4798 14.6301 19.1069C12.7139 20.2854 10.1282 24.0969 15.1151 29.9152C14.7051 30.6662 14.3072 32.7369 15.995 35.0112C14.4083 34.8181 12.7797 34.4719 11.1764 33.9192C9.54073 33.3554 11.6725 29.9761 12.8169 28.6093C12.6319 28.4649 12.4438 28.3106 12.2502 28.1463Z" fill="black" fill-opacity="0.2"/>
<path d="M14.8137 24.3372C14.1796 23.9133 14.7958 23.8981 15.3066 23.7637C15.5842 23.6906 15.8957 23.1538 16.678 22.5927C16.6816 22.59 16.6852 22.5875 16.6886 22.5851C16.6851 22.5876 16.6815 22.5902 16.678 22.5927C16.472 22.7467 15.9639 23.4863 15.6857 23.7637C15.4593 23.9895 15.01 24.0775 14.8137 24.0933L15.7132 24.7916C15.393 24.6667 15.0813 24.5161 14.8137 24.3372Z" fill="black" fill-opacity="0.2"/>
<path d="M21.2776 22.1212C21.4387 22.2133 21.5583 22.3142 21.6204 22.4188C21.8331 22.3681 22.4002 22.1059 23.043 21.4592C22.9153 21.6738 22.5451 22.1837 22.0857 22.5066C22.1383 22.7787 22.1638 23.4378 21.8444 23.8971C21.973 24.0086 22.3345 24.2464 22.7523 24.3056C22.2826 24.2864 21.8442 24.1447 21.3487 23.8595C21.2078 24.0179 21.029 24.1707 20.8105 24.3115C21.7942 23.4148 21.5318 22.4776 21.2776 22.1212Z" fill="black" fill-opacity="0.2"/>
<path d="M27.1178 29.0555C27.2325 29.2124 27.3134 29.3594 27.3627 29.4692C28.2618 28.8665 29.1987 28.1721 29.6592 25.7458C28.9714 28.0034 27.6783 28.8929 27.1178 29.0555Z" fill="black" fill-opacity="0.2"/>
<path d="M11.5349 22.1282C11.4639 24.246 11.9818 27.0229 12.2495 28.1466C12.2857 28.5087 12.5561 29.3361 13.3485 29.7485C13.5429 30.2663 13.7392 31.4865 12.9686 32.2246C11.1887 31.2181 10.2071 30.783 9.99796 24.8966C9.85885 20.9806 9.81865 18.1178 12.7713 16.5946C11.8724 15.3581 13.0861 14.5332 13.9259 15.6982C14.5452 14.3769 16.1749 15.6248 14.7104 16.5285C15.7794 17.3097 14.4157 18.5848 13.3754 17.3772C11.5928 18.0734 11.4845 20.5986 11.5349 22.1282Z" fill="#548B37" stroke="black" stroke-width="0.2"/>
<path d="M12.9691 32.2245C13.1096 32.0899 13.218 31.9392 13.3001 31.7797C12.6207 31.6633 11.0582 30.7473 10.2432 28.0142C10.67 30.998 11.5745 31.4359 12.9691 32.2245Z" fill="black" fill-opacity="0.2"/>
<ellipse cx="19.1958" cy="23.3293" rx="0.486816" ry="0.543945" fill="white"/>
<ellipse cx="25.4624" cy="22.4336" rx="0.399902" ry="0.517578" fill="white"/>
<ellipse cx="24.5444" cy="21.9323" rx="0.327637" ry="0.38269" fill="white"/>
<ellipse cx="24.4194" cy="22.8748" rx="0.26709" ry="0.253662" fill="white"/>
<ellipse cx="24.7968" cy="23.3406" rx="0.177625" ry="0.168695" fill="white"/>
<ellipse cx="17.9653" cy="22.9932" rx="0.385254" ry="0.419678" fill="white"/>
<ellipse cx="18.2144" cy="23.8627" rx="0.262207" ry="0.259155" fill="white"/>
<ellipse cx="18.4996" cy="24.3911" rx="0.174378" ry="0.172348" fill="white"/>
<rect x="11.1659" y="7.71488" width="15.1991" height="15.1991" rx="7.59954" transform="rotate(-16.8732 11.1659 7.71488)" fill="#85E047"/>
<rect x="11.1659" y="7.71488" width="15.1991" height="15.1991" rx="7.59954" transform="rotate(-16.8732 11.1659 7.71488)" stroke="#151515" stroke-width="0.593333"/>
<path d="M22.9858 11.0471L17.8315 8.93767C17.5032 8.80331 17.166 9.1102 17.269 9.44966L17.8578 11.3909C17.8945 11.5122 17.984 11.6105 18.1013 11.6585L20.2806 12.5504C20.5278 12.6515 20.6196 12.9542 20.4703 13.1756L19.1536 15.1279C19.0827 15.233 19.063 15.3644 19.0997 15.4856L19.6886 17.4269C19.7915 17.7664 20.2424 17.8342 20.4407 17.5401L23.5547 12.9228C24.0027 12.2586 23.7272 11.3506 22.9858 11.0471Z" fill="#151515"/>
</svg>
