<svg width="16" height="16" viewBox="0 0 16 16" fill="none" xmlns="http://www.w3.org/2000/svg">
<path fill-rule="evenodd" clip-rule="evenodd" d="M8 6.5C7.17157 6.5 6.5 7.17157 6.5 8C6.5 8.82843 7.17157 9.5 8 9.5C8.82843 9.5 9.5 8.82843 9.5 8C9.5 7.17157 8.82843 6.5 8 6.5ZM5.5 8C5.5 6.61929 6.61929 5.5 8 5.5C9.38071 5.5 10.5 6.61929 10.5 8C10.5 9.38071 9.38071 10.5 8 10.5C6.61929 10.5 5.5 9.38071 5.5 8Z" fill="white"/>
<path fill-rule="evenodd" clip-rule="evenodd" d="M6.40223 2.51344C6.22379 2.21615 5.84798 2.12366 5.5689 2.2897L5.56163 2.29403L4.40826 2.95396C4.04334 3.16249 3.91745 3.63525 4.12618 3.99653L3.69325 4.24666L4.12584 3.99593C4.48255 4.61135 4.57844 5.28587 4.2598 5.83881C3.9412 6.39168 3.30978 6.64666 2.59992 6.64666C2.17777 6.64666 1.83325 6.99443 1.83325 7.41333V8.58666C1.83325 9.00557 2.17777 9.35333 2.59992 9.35333C3.30978 9.35333 3.9412 9.60832 4.2598 10.1612C4.5784 10.714 4.48257 11.3885 4.12598 12.0038C3.91753 12.3651 4.04319 12.8374 4.40799 13.0459L5.56893 13.7102C5.84801 13.8763 6.22377 13.7839 6.40222 13.4866L6.47387 13.3628C6.83045 12.7476 7.36794 12.3283 8.00575 12.3283C8.64405 12.3283 9.17989 12.7479 9.53322 13.3638C9.53338 13.3641 9.53354 13.3644 9.5337 13.3647L9.60427 13.4865C9.78271 13.7838 10.1585 13.8763 10.4376 13.7103L10.4449 13.706L11.5982 13.046C11.9622 12.8381 12.09 12.3718 11.8798 12.0025C11.5238 11.3875 11.4283 10.7137 11.7467 10.1612C12.0653 9.60832 12.6967 9.35333 13.4066 9.35333C13.8287 9.35333 14.1733 9.00557 14.1733 8.58666V7.41333C14.1733 6.99118 13.8255 6.64666 13.4066 6.64666C12.6967 6.64666 12.0653 6.39168 11.7467 5.83881C11.4281 5.28598 11.5239 4.61161 11.8805 3.99629C12.089 3.63505 11.9634 3.1626 11.5985 2.95412L10.4376 2.28976C10.1585 2.12372 9.78271 2.21615 9.60427 2.51345L9.53263 2.63718C9.17605 3.25239 8.63856 3.67166 8.00075 3.67166C7.36252 3.67166 6.82673 3.25216 6.47339 2.63635C6.4732 2.63601 6.473 2.63567 6.4728 2.63533L6.40223 2.51344ZM5.06157 1.42794C5.83453 0.971031 6.81497 1.25135 7.26296 2.00435L7.266 2.00946L7.3393 2.13615L7.34037 2.138C7.58704 2.5683 7.84434 2.67166 8.00075 2.67166C8.15792 2.67166 8.41716 2.56743 8.66721 2.13614C8.66716 2.13622 8.66725 2.13607 8.66721 2.13614L8.74352 2.00433C9.19151 1.25133 10.172 0.971029 10.9449 1.42795L12.0947 2.08588C12.9431 2.57069 13.2308 3.65808 12.7462 4.4968L12.7458 4.4974C12.4959 4.92864 12.5351 5.20412 12.6131 5.33951C12.6912 5.47498 12.9098 5.64666 13.4066 5.64666C14.3743 5.64666 15.1733 6.43548 15.1733 7.41333V8.58666C15.1733 9.55443 14.3844 10.3533 13.4066 10.3533C12.9098 10.3533 12.6912 10.525 12.6131 10.6605C12.5351 10.7959 12.4959 11.0713 12.7458 11.5026L12.7474 11.5053C13.2295 12.349 12.9437 13.4287 12.0949 13.914C12.0948 13.914 12.095 13.9139 12.0949 13.914L10.9449 14.5721C10.1719 15.0289 9.19153 14.7486 8.74355 13.9956L8.74051 13.9905L8.66721 13.8638L8.66614 13.862C8.41947 13.4317 8.16217 13.3283 8.00575 13.3283C7.84859 13.3283 7.58934 13.4326 7.3393 13.8638C7.33926 13.8639 7.33934 13.8638 7.3393 13.8638L7.26299 13.9957C6.81501 14.7486 5.83458 15.0289 5.06163 14.5721L3.91185 13.9141C3.91176 13.9141 3.91194 13.9142 3.91185 13.9141C3.06364 13.4292 2.77577 12.3418 3.26032 11.5032L3.26066 11.5026C3.51062 11.0713 3.47139 10.7959 3.39337 10.6605C3.3153 10.525 3.09673 10.3533 2.59992 10.3533C1.62207 10.3533 0.833252 9.55443 0.833252 8.58666V7.41333C0.833252 6.44557 1.62207 5.64666 2.59992 5.64666C3.09673 5.64666 3.3153 5.47498 3.39337 5.33951C3.47139 5.20412 3.51062 4.92864 3.26066 4.4974L3.26032 4.4968C2.77577 3.65816 3.06337 2.57092 3.91158 2.08603L5.06157 1.42794Z" fill="white"/>
</svg>
