<svg width="16" height="16" viewBox="0 0 16 16" fill="none" xmlns="http://www.w3.org/2000/svg">
<g filter="url(#filter0_iii_281_606)">
<path d="M7.01758 1.7761L9.14958 5.4181L6.14158 6.2731C4.06408 5.5866 2.84058 4.2651 2.10258 2.9071C1.79158 2.3341 1.79408 1.2821 3.03058 1.2821H6.15458C6.32907 1.28207 6.50053 1.3277 6.65192 1.41445C6.80332 1.5012 6.92938 1.62555 7.01758 1.7761Z" fill="#4686EC"/>
<path d="M7.01758 1.7761L9.14958 5.4181L6.14158 6.2731C4.06408 5.5866 2.84058 4.2651 2.10258 2.9071C1.79158 2.3341 1.79408 1.2821 3.03058 1.2821H6.15458C6.32907 1.28207 6.50053 1.3277 6.65192 1.41445C6.80332 1.5012 6.92938 1.62555 7.01758 1.7761Z" fill="url(#paint0_radial_281_606)"/>
<path d="M7.01758 1.7761L9.14958 5.4181L6.14158 6.2731C4.06408 5.5866 2.84058 4.2651 2.10258 2.9071C1.79158 2.3341 1.79408 1.2821 3.03058 1.2821H6.15458C6.32907 1.28207 6.50053 1.3277 6.65192 1.41445C6.80332 1.5012 6.92938 1.62555 7.01758 1.7761Z" fill="url(#paint1_linear_281_606)"/>
</g>
<g filter="url(#filter1_iii_281_606)">
<path d="M8.90617 1.77599L6.77417 5.41799L9.78217 6.27299C11.8597 5.58599 13.0832 4.26449 13.8212 2.90649C14.1322 2.33349 14.1297 1.28149 12.8932 1.28149H9.76917C9.59468 1.28146 9.42322 1.32709 9.27183 1.41384C9.12043 1.50059 8.99437 1.62544 8.90617 1.77599Z" fill="#4686EC"/>
<path d="M8.90617 1.77599L6.77417 5.41799L9.78217 6.27299C11.8597 5.58599 13.0832 4.26449 13.8212 2.90649C14.1322 2.33349 14.1297 1.28149 12.8932 1.28149H9.76917C9.59468 1.28146 9.42322 1.32709 9.27183 1.41384C9.12043 1.50059 8.99437 1.62544 8.90617 1.77599Z" fill="url(#paint2_radial_281_606)"/>
<path d="M8.90617 1.77599L6.77417 5.41799L9.78217 6.27299C11.8597 5.58599 13.0832 4.26449 13.8212 2.90649C14.1322 2.33349 14.1297 1.28149 12.8932 1.28149H9.76917C9.59468 1.28146 9.42322 1.32709 9.27183 1.41384C9.12043 1.50059 8.99437 1.62544 8.90617 1.77599Z" fill="url(#paint3_linear_281_606)"/>
</g>
<path d="M8.90617 1.77599L6.77417 5.41799L9.78217 6.27299C11.8597 5.58599 13.0832 4.26449 13.8212 2.90649C14.1322 2.33349 14.1297 1.28149 12.8932 1.28149H9.76917C9.59468 1.28146 9.42322 1.32709 9.27183 1.41384C9.12043 1.50059 8.99437 1.62544 8.90617 1.77599Z" fill="url(#paint4_linear_281_606)"/>
<path d="M8.02351 15.09C10.7982 15.09 13.0475 12.8407 13.0475 10.066C13.0475 7.29131 10.7982 5.04199 8.02351 5.04199C5.24883 5.04199 2.99951 7.29131 2.99951 10.066C2.99951 12.8407 5.24883 15.09 8.02351 15.09Z" fill="url(#paint5_linear_281_606)"/>
<path d="M8.02351 15.09C10.7982 15.09 13.0475 12.8407 13.0475 10.066C13.0475 7.29131 10.7982 5.04199 8.02351 5.04199C5.24883 5.04199 2.99951 7.29131 2.99951 10.066C2.99951 12.8407 5.24883 15.09 8.02351 15.09Z" fill="url(#paint6_linear_281_606)"/>
<path d="M8.02369 14.41C10.4228 14.41 12.3677 12.4652 12.3677 10.066C12.3677 7.66692 10.4228 5.72205 8.02369 5.72205C5.62456 5.72205 3.67969 7.66692 3.67969 10.066C3.67969 12.4652 5.62456 14.41 8.02369 14.41Z" fill="url(#paint7_linear_281_606)"/>
<path d="M8.0237 13.8584C10.1182 13.8584 11.8162 12.1605 11.8162 10.0659C11.8162 7.9714 10.1182 6.27344 8.0237 6.27344C5.92916 6.27344 4.2312 7.9714 4.2312 10.0659C4.2312 12.1605 5.92916 13.8584 8.0237 13.8584Z" fill="url(#paint8_linear_281_606)"/>
<path d="M8.0237 13.8584C10.1182 13.8584 11.8162 12.1605 11.8162 10.0659C11.8162 7.9714 10.1182 6.27344 8.0237 6.27344C5.92916 6.27344 4.2312 7.9714 4.2312 10.0659C4.2312 12.1605 5.92916 13.8584 8.0237 13.8584Z" fill="url(#paint9_radial_281_606)"/>
<path d="M8.0237 13.8584C10.1182 13.8584 11.8162 12.1605 11.8162 10.0659C11.8162 7.9714 10.1182 6.27344 8.0237 6.27344C5.92916 6.27344 4.2312 7.9714 4.2312 10.0659C4.2312 12.1605 5.92916 13.8584 8.0237 13.8584Z" fill="url(#paint10_radial_281_606)"/>
<path d="M8.0237 13.8584C10.1182 13.8584 11.8162 12.1605 11.8162 10.0659C11.8162 7.9714 10.1182 6.27344 8.0237 6.27344C5.92916 6.27344 4.2312 7.9714 4.2312 10.0659C4.2312 12.1605 5.92916 13.8584 8.0237 13.8584Z" fill="url(#paint11_radial_281_606)"/>
<g filter="url(#filter2_ii_281_606)">
<path d="M9.01866 12.2859H7.03366C6.93803 12.2862 6.84433 12.259 6.76368 12.2076C6.68304 12.1562 6.61882 12.0827 6.57866 11.9959C6.53696 11.9099 6.52091 11.8138 6.53244 11.7189C6.54397 11.624 6.58258 11.5345 6.64366 11.4609L8.29366 9.43595C8.42366 9.27595 8.36366 9.10595 8.34366 9.05595C8.32041 8.99774 8.28048 8.9477 8.22888 8.91212C8.17729 8.87654 8.11633 8.85699 8.05366 8.85595H8.02866C7.86866 8.85595 7.72366 8.93095 7.62866 9.06095C7.46866 9.28595 7.15366 9.34095 6.92366 9.18095C6.86942 9.14259 6.82327 9.09392 6.78788 9.0377C6.75248 8.98148 6.72852 8.91884 6.71737 8.85335C6.70622 8.78786 6.70811 8.72081 6.72291 8.65605C6.73772 8.59129 6.76516 8.53009 6.80366 8.47595C7.08366 8.08095 7.53866 7.84595 8.02366 7.84595H8.08866C8.59866 7.87095 9.04366 8.17595 9.25366 8.64095C9.46866 9.12095 9.39866 9.66595 9.06866 10.0709L8.09366 11.2709H9.01366C9.29366 11.2709 9.51866 11.4959 9.51866 11.7759C9.51866 12.0559 9.29866 12.2859 9.01866 12.2859Z" fill="#6A6372"/>
</g>
<defs>
<filter id="filter0_iii_281_606" x="1.68018" y="1.0821" width="7.66948" height="5.44097" filterUnits="userSpaceOnUse" color-interpolation-filters="sRGB">
<feFlood flood-opacity="0" result="BackgroundImageFix"/>
<feBlend mode="normal" in="SourceGraphic" in2="BackgroundImageFix" result="shape"/>
<feColorMatrix in="SourceAlpha" type="matrix" values="0 0 0 0 0 0 0 0 0 0 0 0 0 0 0 0 0 0 127 0" result="hardAlpha"/>
<feOffset dx="-0.2" dy="-0.2"/>
<feGaussianBlur stdDeviation="0.2"/>
<feComposite in2="hardAlpha" operator="arithmetic" k2="-1" k3="1"/>
<feColorMatrix type="matrix" values="0 0 0 0 0.317647 0 0 0 0 0.458824 0 0 0 0 0.886275 0 0 0 1 0"/>
<feBlend mode="normal" in2="shape" result="effect1_innerShadow_281_606"/>
<feColorMatrix in="SourceAlpha" type="matrix" values="0 0 0 0 0 0 0 0 0 0 0 0 0 0 0 0 0 0 127 0" result="hardAlpha"/>
<feOffset dx="0.2" dy="0.2"/>
<feGaussianBlur stdDeviation="0.2"/>
<feComposite in2="hardAlpha" operator="arithmetic" k2="-1" k3="1"/>
<feColorMatrix type="matrix" values="0 0 0 0 0.317647 0 0 0 0 0.458824 0 0 0 0 0.886275 0 0 0 1 0"/>
<feBlend mode="normal" in2="effect1_innerShadow_281_606" result="effect2_innerShadow_281_606"/>
<feColorMatrix in="SourceAlpha" type="matrix" values="0 0 0 0 0 0 0 0 0 0 0 0 0 0 0 0 0 0 127 0" result="hardAlpha"/>
<feOffset dx="-0.25" dy="0.25"/>
<feGaussianBlur stdDeviation="0.25"/>
<feComposite in2="hardAlpha" operator="arithmetic" k2="-1" k3="1"/>
<feColorMatrix type="matrix" values="0 0 0 0 0.372549 0 0 0 0 0.607843 0 0 0 0 0.960784 0 0 0 1 0"/>
<feBlend mode="normal" in2="effect2_innerShadow_281_606" result="effect3_innerShadow_281_606"/>
</filter>
<filter id="filter1_iii_281_606" x="6.52417" y="1.08149" width="7.66948" height="5.44146" filterUnits="userSpaceOnUse" color-interpolation-filters="sRGB">
<feFlood flood-opacity="0" result="BackgroundImageFix"/>
<feBlend mode="normal" in="SourceGraphic" in2="BackgroundImageFix" result="shape"/>
<feColorMatrix in="SourceAlpha" type="matrix" values="0 0 0 0 0 0 0 0 0 0 0 0 0 0 0 0 0 0 127 0" result="hardAlpha"/>
<feOffset dx="-0.2" dy="-0.2"/>
<feGaussianBlur stdDeviation="0.2"/>
<feComposite in2="hardAlpha" operator="arithmetic" k2="-1" k3="1"/>
<feColorMatrix type="matrix" values="0 0 0 0 0.317647 0 0 0 0 0.458824 0 0 0 0 0.886275 0 0 0 1 0"/>
<feBlend mode="normal" in2="shape" result="effect1_innerShadow_281_606"/>
<feColorMatrix in="SourceAlpha" type="matrix" values="0 0 0 0 0 0 0 0 0 0 0 0 0 0 0 0 0 0 127 0" result="hardAlpha"/>
<feOffset dx="0.2" dy="0.2"/>
<feGaussianBlur stdDeviation="0.2"/>
<feComposite in2="hardAlpha" operator="arithmetic" k2="-1" k3="1"/>
<feColorMatrix type="matrix" values="0 0 0 0 0.317647 0 0 0 0 0.458824 0 0 0 0 0.886275 0 0 0 1 0"/>
<feBlend mode="normal" in2="effect1_innerShadow_281_606" result="effect2_innerShadow_281_606"/>
<feColorMatrix in="SourceAlpha" type="matrix" values="0 0 0 0 0 0 0 0 0 0 0 0 0 0 0 0 0 0 127 0" result="hardAlpha"/>
<feOffset dx="-0.25" dy="0.25"/>
<feGaussianBlur stdDeviation="0.25"/>
<feComposite in2="hardAlpha" operator="arithmetic" k2="-1" k3="1"/>
<feColorMatrix type="matrix" values="0 0 0 0 0.372549 0 0 0 0 0.607843 0 0 0 0 0.960784 0 0 0 1 0"/>
<feBlend mode="normal" in2="effect2_innerShadow_281_606" result="effect3_innerShadow_281_606"/>
</filter>
<filter id="filter2_ii_281_606" x="6.22881" y="7.64595" width="3.48975" height="4.93994" filterUnits="userSpaceOnUse" color-interpolation-filters="sRGB">
<feFlood flood-opacity="0" result="BackgroundImageFix"/>
<feBlend mode="normal" in="SourceGraphic" in2="BackgroundImageFix" result="shape"/>
<feColorMatrix in="SourceAlpha" type="matrix" values="0 0 0 0 0 0 0 0 0 0 0 0 0 0 0 0 0 0 127 0" result="hardAlpha"/>
<feOffset dx="-0.3" dy="0.3"/>
<feGaussianBlur stdDeviation="0.3"/>
<feComposite in2="hardAlpha" operator="arithmetic" k2="-1" k3="1"/>
<feColorMatrix type="matrix" values="0 0 0 0 0.286275 0 0 0 0 0.223529 0 0 0 0 0.345098 0 0 0 1 0"/>
<feBlend mode="normal" in2="shape" result="effect1_innerShadow_281_606"/>
<feColorMatrix in="SourceAlpha" type="matrix" values="0 0 0 0 0 0 0 0 0 0 0 0 0 0 0 0 0 0 127 0" result="hardAlpha"/>
<feOffset dx="0.2" dy="-0.2"/>
<feGaussianBlur stdDeviation="0.2"/>
<feComposite in2="hardAlpha" operator="arithmetic" k2="-1" k3="1"/>
<feColorMatrix type="matrix" values="0 0 0 0 0.482353 0 0 0 0 0.47451 0 0 0 0 0.490196 0 0 0 1 0"/>
<feBlend mode="normal" in2="effect1_innerShadow_281_606" result="effect2_innerShadow_281_606"/>
</filter>
<radialGradient id="paint0_radial_281_606" cx="0" cy="0" r="1" gradientUnits="userSpaceOnUse" gradientTransform="translate(6.55189 5.92072) rotate(-123.321) scale(2.30176 8.59615)">
<stop stop-color="#3669D9"/>
<stop offset="1" stop-color="#3669D9" stop-opacity="0"/>
</radialGradient>
<linearGradient id="paint1_linear_281_606" x1="3.29108" y1="1.0116" x2="4.18858" y2="3.2466" gradientUnits="userSpaceOnUse">
<stop stop-color="#3D89EC"/>
<stop offset="1" stop-color="#3D89EC" stop-opacity="0"/>
</linearGradient>
<radialGradient id="paint2_radial_281_606" cx="0" cy="0" r="1" gradientUnits="userSpaceOnUse" gradientTransform="translate(9.37199 5.92096) rotate(-57.265) scale(1.52435 3.34366)">
<stop stop-color="#3669D9"/>
<stop offset="1" stop-color="#3669D9" stop-opacity="0"/>
</radialGradient>
<linearGradient id="paint3_linear_281_606" x1="12.6327" y1="1.01149" x2="11.7352" y2="3.24649" gradientUnits="userSpaceOnUse">
<stop stop-color="#3D89EC"/>
<stop offset="1" stop-color="#3D89EC" stop-opacity="0"/>
</linearGradient>
<linearGradient id="paint4_linear_281_606" x1="7.87467" y1="3.53149" x2="8.04317" y2="3.62499" gradientUnits="userSpaceOnUse">
<stop stop-color="#1A6DD8"/>
<stop offset="1" stop-color="#1A6DD8" stop-opacity="0"/>
</linearGradient>
<linearGradient id="paint5_linear_281_606" x1="11.8985" y1="7.46899" x2="7.22501" y2="11.742" gradientUnits="userSpaceOnUse">
<stop stop-color="#EFEAF6"/>
<stop offset="1" stop-color="#B5A8C3"/>
</linearGradient>
<linearGradient id="paint6_linear_281_606" x1="6.26801" y1="15.334" x2="7.40101" y2="8.76349" gradientUnits="userSpaceOnUse">
<stop stop-color="#D0A9F4"/>
<stop offset="1" stop-color="#D0A9F4" stop-opacity="0"/>
</linearGradient>
<linearGradient id="paint7_linear_281_606" x1="11.9817" y1="9.30655" x2="8.02369" y2="9.30655" gradientUnits="userSpaceOnUse">
<stop stop-color="#D3C6E2"/>
<stop offset="1" stop-color="#D6C6E8"/>
</linearGradient>
<linearGradient id="paint8_linear_281_606" x1="5.6432" y1="11.0514" x2="11.9547" y2="9.14144" gradientUnits="userSpaceOnUse">
<stop stop-color="#E0D3EF"/>
<stop offset="1" stop-color="#C1B0D4"/>
</linearGradient>
<radialGradient id="paint9_radial_281_606" cx="0" cy="0" r="1" gradientUnits="userSpaceOnUse" gradientTransform="translate(9.46292 9.49109) rotate(156.644) scale(5.6985 4.85574)">
<stop offset="0.837" stop-color="#F6ECFE" stop-opacity="0"/>
<stop offset="1" stop-color="#F6ECFE"/>
</radialGradient>
<radialGradient id="paint10_radial_281_606" cx="0" cy="0" r="1" gradientUnits="userSpaceOnUse" gradientTransform="translate(7.53932 10.5156) rotate(-41.294) scale(4.48199 4.30358)">
<stop offset="0.91" stop-color="#B396CF" stop-opacity="0"/>
<stop offset="0.992" stop-color="#B796D5"/>
</radialGradient>
<radialGradient id="paint11_radial_281_606" cx="0" cy="0" r="1" gradientUnits="userSpaceOnUse" gradientTransform="translate(7.9142 9.74994) rotate(37.9308) scale(4.21947 4.78166)">
<stop offset="0.926" stop-color="#AB9CBB" stop-opacity="0"/>
<stop offset="1" stop-color="#AB9CBB"/>
</radialGradient>
</defs>
</svg>
