<svg width="24" height="24" viewBox="0 0 24 24" fill="none" xmlns="http://www.w3.org/2000/svg">
<circle cx="12" cy="12" r="11.5" stroke="#363738"/>
<path d="M7.49947 14.6324C7.57994 14.5554 7.69057 14.5105 7.80791 14.5105H18.4491C18.6436 14.5105 18.7408 14.7351 18.6033 14.8666L16.5012 16.8782C16.4208 16.9552 16.3101 17.0001 16.1928 17.0001H5.5516C5.35715 17.0001 5.25993 16.7755 5.39738 16.644L7.49947 14.6324Z" fill="white"/>
<path d="M7.49898 7.12191C7.5828 7.04492 7.69344 7 7.80742 7H18.4486C18.6431 7 18.7403 7.22458 18.6028 7.35611L16.5008 9.36766C16.4203 9.44466 16.3097 9.48958 16.1923 9.48958H5.55112C5.35666 9.48958 5.25944 9.265 5.3969 9.13346L7.49898 7.12191Z" fill="white"/>
<path d="M16.5012 10.8531C16.4208 10.7761 16.3101 10.7312 16.1928 10.7312H5.5516C5.35715 10.7312 5.25993 10.9558 5.39738 11.0873L7.49947 13.0989C7.57994 13.1759 7.69057 13.2208 7.80791 13.2208H18.4491C18.6436 13.2208 18.7408 12.9962 18.6033 12.8647L16.5012 10.8531Z" fill="white"/>
</svg>
