<svg width="12" height="12" viewBox="0 0 12 12" fill="none" xmlns="http://www.w3.org/2000/svg">
<g clip-path="url(#clip0_1179_3546)">
<path opacity="0.4" fill-rule="evenodd" clip-rule="evenodd" d="M6 2.25002C5.00544 2.25002 4.05161 2.6451 3.34835 3.34836C2.64509 4.05163 2.25 5.00545 2.25 6.00002C2.25 6.99458 2.64509 7.9484 3.34835 8.65167C4.05161 9.35493 5.00544 9.75002 6 9.75002C6.99456 9.75002 7.94839 9.35493 8.65165 8.65167C9.35491 7.9484 9.75 6.99458 9.75 6.00002C9.75 5.00545 9.35491 4.05163 8.65165 3.34836C7.94839 2.6451 6.99456 2.25002 6 2.25002ZM0.75 6.00002C0.75 3.10052 3.1005 0.750015 6 0.750015C8.8995 0.750015 11.25 3.10052 11.25 6.00002C11.25 8.89952 8.8995 11.25 6 11.25C3.1005 11.25 0.75 8.89952 0.75 6.00002Z" fill="#151515"/>
<path fill-rule="evenodd" clip-rule="evenodd" d="M5.99988 2.25001C5.03307 2.24794 4.10323 2.62134 3.40638 3.29151C3.26202 3.42498 3.07102 3.49644 2.87449 3.49048C2.67797 3.48452 2.49164 3.40163 2.35563 3.25965C2.21962 3.11768 2.1448 2.92797 2.14728 2.73137C2.14975 2.53477 2.22933 2.34701 2.36888 2.20851C3.3449 1.27082 4.64642 0.748028 5.99988 0.750006C6.19879 0.750006 6.38956 0.829023 6.53021 0.969676C6.67086 1.11033 6.74988 1.30109 6.74988 1.50001C6.74988 1.69892 6.67086 1.88968 6.53021 2.03034C6.38956 2.17099 6.19879 2.25001 5.99988 2.25001Z" fill="#151515"/>
</g>
<defs>
<clipPath id="clip0_1179_3546">
<rect width="12" height="12" fill="white"/>
</clipPath>
</defs>
</svg>
