<svg width="20" height="20" viewBox="0 0 20 20" fill="none" xmlns="http://www.w3.org/2000/svg">
<mask id="mask0_1014_7488" style="mask-type:luminance" maskUnits="userSpaceOnUse" x="1" y="1" width="18" height="18">
<path d="M1.42847 1.42856H18.5713V18.5714H1.42847V1.42856Z" fill="white"/>
<path d="M12.5957 6.18304C12.7403 6.28149 12.8398 6.43332 12.8723 6.60514C12.9049 6.77695 12.8679 6.95467 12.7695 7.0992C12.671 7.24372 12.5192 7.34322 12.3474 7.37581C12.1756 7.40839 11.9978 7.37138 11.8533 7.27293C11.2446 6.85912 10.5149 6.66092 9.78048 6.70992C9.04605 6.75891 8.34915 7.05227 7.80079 7.54327C7.25243 8.03427 6.88416 8.69466 6.75464 9.41923C6.62513 10.1438 6.74182 10.8909 7.08614 11.5414C7.43045 12.192 7.98257 12.7086 8.65455 13.009C9.32652 13.3094 10.0797 13.3762 10.7941 13.1989C11.5085 13.0216 12.1429 12.6103 12.5965 12.0306C13.05 11.4509 13.2965 10.736 13.2966 9.99996C13.2966 9.8251 13.3661 9.65739 13.4897 9.53374C13.6134 9.41009 13.7811 9.34062 13.956 9.34062C14.1308 9.34062 14.2985 9.41009 14.4222 9.53374C14.5458 9.65739 14.6153 9.8251 14.6153 9.99996C14.6151 11.0305 14.2701 12.0314 13.6351 12.843C13.0001 13.6547 12.1118 14.2305 11.1116 14.4788C10.1114 14.727 9.05688 14.6333 8.11608 14.2127C7.17529 13.792 6.40234 13.0687 5.92038 12.1578C5.43842 11.2469 5.27518 10.2009 5.45666 9.18644C5.63815 8.172 6.15393 7.24749 6.92182 6.5602C7.6897 5.87291 8.66552 5.46238 9.69379 5.39403C10.7221 5.32568 11.7436 5.60344 12.5957 6.18304Z" fill="black"/>
<path d="M12.3334 11.6523C12.2605 11.6989 12.1791 11.7308 12.0938 11.746C12.0086 11.7612 11.9211 11.7594 11.8366 11.7409C11.752 11.7223 11.6719 11.6872 11.6008 11.6377C11.5298 11.5881 11.4692 11.5251 11.4226 11.4522C11.3283 11.3048 11.2964 11.1261 11.334 10.9553C11.3715 10.7845 11.4753 10.6355 11.6227 10.5413L13.9185 9.07293C14.0658 8.98178 14.243 8.95224 14.4119 8.99071C14.5808 9.02918 14.7277 9.13255 14.821 9.27849C14.9143 9.42444 14.9464 9.60122 14.9104 9.77065C14.8744 9.94007 14.7732 10.0885 14.6286 10.1839L12.3334 11.6523Z" fill="black"/>
<path d="M15.8699 11.589C15.9372 11.748 15.9395 11.927 15.8762 12.0877C15.8129 12.2483 15.6892 12.3777 15.5315 12.4481C15.3738 12.5185 15.1948 12.5242 15.033 12.464C14.8712 12.4039 14.7394 12.2826 14.666 12.1263L13.6717 9.89776C13.6344 9.81842 13.6133 9.73244 13.6097 9.64486C13.6061 9.55727 13.6199 9.46984 13.6505 9.38768C13.681 9.30551 13.7276 9.23026 13.7876 9.16633C13.8476 9.10239 13.9197 9.05106 13.9997 9.01533C14.0798 8.97961 14.1662 8.9602 14.2538 8.95825C14.3414 8.9563 14.4286 8.97184 14.5101 9.00397C14.5917 9.0361 14.666 9.08417 14.7288 9.14537C14.7916 9.20657 14.8415 9.27967 14.8757 9.3604L15.8699 11.589Z" fill="black"/>
</mask>
<g mask="url(#mask0_1014_7488)">
<path d="M9.9999 18.5714C14.7338 18.5714 18.5713 14.7339 18.5713 9.99999C18.5713 5.26612 14.7338 1.42856 9.9999 1.42856C5.26603 1.42856 1.42847 5.26612 1.42847 9.99999C1.42847 14.7339 5.26603 18.5714 9.9999 18.5714Z" fill="#FCBF14"/>
</g>
</svg>
