<svg width="32" height="32" viewBox="0 0 32 32" fill="none" xmlns="http://www.w3.org/2000/svg">
<path d="M13.8915 19.1691L13.8812 19.1451C13.7267 19.1029 13.5735 19.056 13.4218 19.0045L13.4104 19C11.8316 18.4598 10.4612 17.4395 9.4911 16.0818C8.52097 14.7242 7.99965 13.0972 8.0001 11.4285C7.99959 9.38067 8.78445 7.41057 10.193 5.92405C11.6016 4.43752 13.5266 3.54776 15.5715 3.43805C17.6164 3.32833 19.6256 4.00701 21.1851 5.33429C22.7446 6.66157 23.7358 8.53637 23.9544 10.5725C24.0047 11.0434 23.6161 11.4285 23.143 11.4285C22.6698 11.4285 22.2915 11.0423 22.2287 10.5737C22.0767 9.46771 21.6329 8.42216 20.943 7.54449C20.2531 6.66681 19.3419 5.98868 18.3031 5.57978C17.2643 5.17088 16.1354 5.04596 15.0323 5.21786C13.9292 5.38977 12.8918 5.85229 12.0267 6.5579C11.1616 7.26351 10.5 8.18675 10.1099 9.23274C9.71976 10.2787 9.6152 11.4097 9.80694 12.5095C9.99868 13.6093 10.4798 14.6382 11.2009 15.4905C11.922 16.3427 12.857 16.9876 13.9098 17.3588C14.1219 16.8794 14.4923 16.4875 14.959 16.2487C15.4257 16.01 15.9603 15.9389 16.4732 16.0474C16.986 16.1559 17.446 16.4374 17.776 16.8447C18.1061 17.252 18.286 17.7603 18.2858 18.2845C18.2863 18.8129 18.1039 19.325 17.7694 19.734C17.4349 20.1429 16.9691 20.4233 16.4512 20.5276C15.9333 20.6319 15.3952 20.5535 14.9286 20.3058C14.4619 20.0582 14.0955 19.6565 13.8915 19.1691ZM12.7201 20.5748C11.3726 20.0909 10.1487 19.315 9.1361 18.3028C8.50998 18.3757 7.93242 18.676 7.51314 19.1466C7.09386 19.6173 6.86208 20.2256 6.86182 20.856V21.9074C6.86182 22.5611 7.06524 23.1988 7.44467 23.7314C9.20696 26.2045 12.0915 27.4285 16.0001 27.4285C19.9087 27.4285 22.7944 26.2034 24.5601 23.7314C24.9413 23.1983 25.1463 22.5593 25.1464 21.904V20.8548C25.1464 20.1732 24.8758 19.5195 24.394 19.0374C23.9123 18.5552 23.2588 18.284 22.5772 18.2834H20.0001C20.0003 19.1347 19.7289 19.9638 19.2254 20.6502C18.7219 21.3365 18.0125 21.8444 17.2005 22.0999C16.3885 22.3553 15.5161 22.3451 14.7103 22.0706C13.9045 21.7961 13.2073 21.2729 12.7201 20.5748ZM20.5715 11.4285C20.5715 10.7605 20.4251 10.1005 20.1426 9.49511C19.86 8.88972 19.4482 8.35362 18.9361 7.92455C18.4608 7.52691 17.9095 7.23008 17.3159 7.05209C16.7223 6.8741 16.0987 6.81867 15.4829 6.88917C14.8672 6.95967 14.2723 7.15463 13.7343 7.46219C13.1962 7.76975 12.7264 8.1835 12.3532 8.67828C11.98 9.17307 11.7114 9.73857 11.5635 10.3404C11.4157 10.9423 11.3918 11.5679 11.4932 12.1792C11.5947 12.7906 11.8194 13.375 12.1536 13.8968C12.4879 14.4187 12.9248 14.8671 13.4378 15.2148C14.1568 14.6147 15.0636 14.2859 16.0001 14.2857C16.975 14.2857 17.8687 14.6343 18.5635 15.2148C19.1822 14.7959 19.6887 14.2317 20.0387 13.5716C20.3888 12.9115 20.5717 12.1757 20.5715 11.4285Z" fill="white"/>
</svg>
