<svg width="44" height="44" viewBox="0 0 44 44" fill="none" xmlns="http://www.w3.org/2000/svg">
<rect x="0.5" y="0.5" width="43" height="43" rx="7.5" fill="url(#paint0_radial_1533_3709)" fill-opacity="0.2"/>
<rect x="0.5" y="0.5" width="43" height="43" rx="7.5" stroke="url(#paint1_linear_1533_3709)"/>
<path d="M7.83153 17.0974C6.40322 14.6235 7.25391 11.4487 9.72782 10.0204C12.2017 8.59204 15.3766 9.44274 16.8049 11.9166C17.543 13.1951 17.6711 14.6601 17.2826 15.9752L18.073 17.3402C18.0933 17.328 18.1136 17.3162 18.134 17.3044C18.2475 17.2389 18.3628 17.1802 18.4788 17.1256C19.2711 15.2555 19.2096 13.0488 18.1182 11.1584C16.2717 7.9603 12.1679 6.86068 8.96977 8.70712C5.77165 10.5536 4.67203 14.6574 6.51847 17.8555C7.70019 19.9023 9.8068 21.0876 12.0087 21.1931L11.0425 19.5245C9.73526 19.1921 8.5576 18.355 7.83153 17.0974Z" fill="url(#paint2_linear_1533_3709)"/>
<path d="M31.2942 18.8372C29.4268 16.5798 27.4293 17.2798 26.6373 17.6997C26.4131 17.8186 26.1463 17.8184 25.9214 17.7009C24.7998 17.1147 23.8628 17.331 23.1878 17.7208C22.8788 17.899 22.6247 18.1137 22.4328 18.3045C22.3763 18.3604 22.3136 18.4081 22.2466 18.4468C22.0082 18.5845 21.7158 18.6083 21.4574 18.4923C20.4175 18.0254 19.5384 18.2443 18.892 18.6175C18.7191 18.7174 18.5628 18.8283 18.4245 18.94C18.3876 18.9699 18.3492 18.9961 18.3096 19.019C17.8961 19.2578 17.353 19.1234 17.105 18.695L14.4278 14.0707C13.7359 12.8758 12.4942 12.7961 11.5974 13.3138C10.6988 13.8326 10.1465 14.9509 10.8397 16.1481C12.002 18.1555 15.4927 24.1849 16.5445 26.0016C16.7223 26.3087 16.6989 26.6924 16.4839 26.9745C13.7824 30.519 22.0346 34.6573 23.4829 35.3469C23.6242 35.4142 23.7444 35.5174 23.8326 35.6467L25.5148 38.1155C25.7753 38.4977 26.2971 38.6327 26.6977 38.4014C26.6981 38.4012 26.6984 38.401 26.6987 38.4008L35.2858 33.4044C35.6694 33.1822 35.8241 32.7012 35.6542 32.2916L34.4609 29.4157C34.4106 29.2942 34.3877 29.1599 34.3943 29.0286C34.6418 24.1469 33.025 20.9295 31.2942 18.8372Z" fill="white"/>
<defs>
<radialGradient id="paint0_radial_1533_3709" cx="0" cy="0" r="1" gradientUnits="userSpaceOnUse" gradientTransform="rotate(45) scale(62.2254)">
<stop stop-color="#FAFAFA"/>
<stop offset="1" stop-color="#F7F7F7" stop-opacity="0"/>
</radialGradient>
<linearGradient id="paint1_linear_1533_3709" x1="22" y1="0" x2="22" y2="44" gradientUnits="userSpaceOnUse">
<stop stop-color="white"/>
<stop offset="1" stop-color="white" stop-opacity="0"/>
</linearGradient>
<linearGradient id="paint2_linear_1533_3709" x1="3.91248" y1="11.1724" x2="16.6223" y2="8.99057" gradientUnits="userSpaceOnUse">
<stop stop-color="#0EB69D"/>
<stop offset="1" stop-color="#85E047"/>
</linearGradient>
</defs>
</svg>
