<svg width="32" height="32" viewBox="0 0 32 32" fill="none" xmlns="http://www.w3.org/2000/svg">
<circle cx="13.6876" cy="6.50006" r="4.75629" stroke="white"/>
<circle cx="13.6876" cy="6.50006" r="4.75629" stroke="white"/>
<path d="M9.55433 16.058L9.55451 16.0579C10.1214 15.8107 10.7561 15.8049 11.3278 16.0395L11.3278 16.0396C11.5086 16.1138 11.6763 16.2092 11.8285 16.3233V9.49038C11.8285 8.26455 12.8232 7.26331 14.0555 7.26331C15.284 7.26331 16.2779 8.26543 16.2779 9.49038V12.4671C16.3719 12.4552 16.4674 12.4492 16.5637 12.4492C17.5411 12.4492 18.3778 13.0861 18.673 13.9684C18.8037 13.9442 18.9386 13.9315 19.0767 13.9315C19.97 13.9315 20.7403 14.4628 21.0934 15.2234C21.2521 15.1876 21.4165 15.1691 21.5849 15.1691C22.8099 15.1691 23.812 16.1631 23.812 17.3915V22.0974C23.812 25.9086 20.7295 29.0133 16.9284 29.0535C16.8069 29.0708 16.6166 29.0868 16.3755 29.0868C15.6445 29.0868 14.3878 28.9247 13.0961 28.0219C11.8004 27.1163 10.5195 25.5002 9.68437 22.6818L9.68404 22.6807C9.39921 21.7113 9.04431 20.7932 8.71979 19.9701L8.71916 19.9685C8.5689 19.5836 8.4297 19.2236 8.31841 18.9092L9.55433 16.058ZM9.55433 16.058C8.46186 16.5348 7.92032 17.7867 8.31828 18.9089L9.55433 16.058Z" fill="white" stroke="#151515"/>
<path d="M16.4069 8.11255C16.689 7.63911 16.8402 7.10017 16.8402 6.5411C16.8402 4.81853 15.4399 3.41333 13.7174 3.41333C11.9948 3.41333 10.5946 4.81853 10.5946 6.5411C10.5946 7.33688 10.9069 8.09743 11.4408 8.67169C11.5566 8.31907 11.738 7.99673 11.9696 7.71966C11.7329 7.3772 11.6019 6.96415 11.6019 6.5411C11.6019 5.37263 12.5489 4.42067 13.7174 4.42067C14.8859 4.42067 15.8328 5.37263 15.8328 6.5411C15.8328 6.80302 15.7824 7.06493 15.6867 7.30165C15.9789 7.51825 16.2256 7.79524 16.4069 8.11255Z" fill="white"/>
</svg>
