<svg width="96" height="96" viewBox="0 0 96 96" fill="none" xmlns="http://www.w3.org/2000/svg">
<path d="M17.0873 37.3037C13.971 31.906 15.827 24.9791 21.2247 21.8628C26.6223 18.7465 33.5492 20.6025 36.6655 26.0002C38.276 28.7896 38.5554 31.9858 37.7079 34.8551L39.4322 37.8335C39.4767 37.8068 39.5209 37.781 39.5654 37.7553C39.8129 37.6124 40.0646 37.4842 40.3177 37.3652C42.0464 33.2849 41.9122 28.4704 39.5309 24.3459C35.5023 17.3681 26.5484 14.969 19.5707 18.9976C12.593 23.0261 10.1938 31.98 14.2224 38.9577C16.8007 43.4234 21.397 46.0094 26.201 46.2397L24.0931 42.5991C21.2409 41.8738 18.6714 40.0475 17.0873 37.3037Z" fill="url(#paint0_linear_1518_2697)"/>
<path d="M68.2784 41.0996C64.2042 36.1745 59.8459 37.7016 58.1178 38.6178C57.6287 38.8773 57.0466 38.8769 56.556 38.6205C54.109 37.3414 52.0646 37.8134 50.5917 38.6638C49.9175 39.0527 49.3631 39.5211 48.9444 39.9373C48.8213 40.0593 48.6844 40.1635 48.5383 40.2479C48.018 40.5483 47.3801 40.6001 46.8164 40.3472C44.5474 39.3285 42.6294 39.8061 41.2191 40.6204C40.8419 40.8382 40.5009 41.0802 40.1991 41.3239C40.1186 41.3891 40.0349 41.4464 39.9484 41.4963C39.0462 42.0172 37.8613 41.724 37.3202 40.7894L31.4791 30.6999C29.9695 28.093 27.2602 27.919 25.3036 29.0487C23.3431 30.1805 22.138 32.6205 23.6505 35.2325C26.1864 39.6123 33.8025 52.7674 36.0974 56.7311C36.4852 57.4011 36.4342 58.2382 35.9651 58.8538C30.0708 66.5873 48.0758 75.6163 51.2356 77.1209C51.5438 77.2677 51.8062 77.4928 51.9987 77.7748L55.6689 83.1614C56.2372 83.9953 57.3757 84.2898 58.2498 83.7852C58.2505 83.7848 58.2512 83.7843 58.2519 83.7839L76.9873 72.8827C77.8245 72.3978 78.1618 71.3483 77.7911 70.4548L75.1877 64.18C75.0779 63.9149 75.0278 63.6219 75.0423 63.3354C75.5823 52.6844 72.0548 45.6647 68.2784 41.0996Z" fill="white"/>
<defs>
<linearGradient id="paint0_linear_1518_2697" x1="8.53664" y1="24.3764" x2="36.2671" y2="19.616" gradientUnits="userSpaceOnUse">
<stop stop-color="#0EB69D"/>
<stop offset="1" stop-color="#85E047"/>
</linearGradient>
</defs>
</svg>
