<svg width="40" height="40" viewBox="0 0 40 40" fill="none" xmlns="http://www.w3.org/2000/svg">
<rect x="0.5" y="0.5" width="39" height="39" rx="7.5" fill="#292A2F"/>
<rect x="0.5" y="0.5" width="39" height="39" rx="7.5" fill="url(#paint0_radial_2648_10473)" fill-opacity="0.2"/>
<rect x="0.5" y="0.5" width="39" height="39" rx="7.5" stroke="url(#paint1_linear_2648_10473)"/>
<g clip-path="url(#clip0_2648_10473)">
<path d="M20 33C27.1797 33 33 27.1797 33 20C33 12.8203 27.1797 7 20 7C12.8203 7 7 12.8203 7 20C7 27.1797 12.8203 33 20 33Z" fill="url(#paint2_linear_2648_10473)"/>
<path d="M31.5 20C31.5 26.3513 26.3513 31.5 20 31.5C13.6487 31.5 8.5 26.3513 8.5 20C8.5 13.6487 13.6487 8.5 20 8.5C26.3513 8.5 31.5 13.6487 31.5 20Z" stroke="white"/>
<path d="M25.8411 18.3913C26.0962 16.6883 24.7986 15.7726 23.0258 15.1616L23.601 12.8541L22.197 12.5047L21.6364 14.7513C21.2675 14.6586 20.8889 14.5725 20.5111 14.4864L21.0757 12.2252L19.6717 11.875L19.0965 14.1817C18.791 14.1118 18.4904 14.0436 18.1995 13.9704L18.2011 13.9631L16.2641 13.4797L15.8904 14.9796C15.8904 14.9796 16.9328 15.2184 16.9109 15.2331C17.4796 15.3753 17.582 15.7514 17.5649 16.0504L16.9101 18.6789C16.9491 18.6886 16.9994 18.7033 17.0563 18.7252L16.9076 18.6886L15.9895 22.3709C15.9196 22.5431 15.7433 22.8023 15.3452 22.704C15.3598 22.7243 14.3247 22.4497 14.3247 22.4497L13.6276 24.0568L15.4557 24.5126C15.7953 24.5979 16.1284 24.6873 16.4559 24.771L15.8749 27.1045L17.2781 27.4539L17.8534 25.1464C18.2369 25.2496 18.609 25.3454 18.973 25.4364L18.3994 27.7342L19.8034 28.0836L20.3843 25.7549C22.7796 26.2083 24.5801 26.0255 25.3381 23.8594C25.9491 22.1158 25.3081 21.1091 24.0479 20.4534C24.966 20.2421 25.6566 19.6384 25.8411 18.3913ZM22.6317 22.8909C22.1986 24.6353 19.2614 23.692 18.3092 23.4556L19.0811 20.364C20.0333 20.6021 23.0859 21.0725 22.6317 22.8909ZM23.0664 18.3661C22.6707 19.9529 20.2267 19.1461 19.4345 18.9486L20.1332 16.1455C20.9254 16.3429 23.4791 16.711 23.0664 18.3661Z" fill="white"/>
</g>
<defs>
<radialGradient id="paint0_radial_2648_10473" cx="0" cy="0" r="1" gradientUnits="userSpaceOnUse" gradientTransform="rotate(45) scale(56.5685)">
<stop stop-color="#FAFAFA"/>
<stop offset="1" stop-color="#F7F7F7" stop-opacity="0"/>
</radialGradient>
<linearGradient id="paint1_linear_2648_10473" x1="20" y1="0" x2="20" y2="40" gradientUnits="userSpaceOnUse">
<stop stop-color="white"/>
<stop offset="1" stop-color="white" stop-opacity="0"/>
</linearGradient>
<linearGradient id="paint2_linear_2648_10473" x1="9.10554" y1="6.17017" x2="33.026" y2="14.2994" gradientUnits="userSpaceOnUse">
<stop stop-color="#0EB69D"/>
<stop offset="1" stop-color="#85E047"/>
</linearGradient>
<clipPath id="clip0_2648_10473">
<rect width="26" height="26" fill="white" transform="translate(7 7)"/>
</clipPath>
</defs>
</svg>
