<svg width="40" height="40" viewBox="0 0 40 40" fill="none" xmlns="http://www.w3.org/2000/svg">
<rect x="0.5" y="0.5" width="39" height="39" rx="7.5" fill="url(#paint0_radial_1480_1397)" fill-opacity="0.2"/>
<rect x="0.5" y="0.5" width="39" height="39" rx="7.5" stroke="url(#paint1_linear_1480_1397)"/>
<path d="M28.11 13.2781C28.2493 12.3431 27.3937 11.6052 26.5936 11.9702L10.6576 19.2395C10.0838 19.5013 10.1258 20.4042 10.7209 20.6011L14.0073 21.6885C14.6345 21.896 15.3137 21.7887 15.8614 21.3955L23.2708 16.0771C23.4942 15.9167 23.7378 16.2468 23.5469 16.4513L18.2134 22.1643C17.6961 22.7185 17.7988 23.6576 18.4211 24.0631L24.3924 27.9536C25.0622 28.3899 25.9238 27.9516 26.0491 27.1107L28.11 13.2781Z" fill="white"/>
<defs>
<radialGradient id="paint0_radial_1480_1397" cx="0" cy="0" r="1" gradientUnits="userSpaceOnUse" gradientTransform="rotate(45) scale(56.5685)">
<stop stop-color="#FAFAFA"/>
<stop offset="1" stop-color="#F7F7F7" stop-opacity="0"/>
</radialGradient>
<linearGradient id="paint1_linear_1480_1397" x1="20" y1="0" x2="20" y2="40" gradientUnits="userSpaceOnUse">
<stop stop-color="white"/>
<stop offset="1" stop-color="white" stop-opacity="0"/>
</linearGradient>
</defs>
</svg>
