<svg width="13" height="13" viewBox="0 0 13 13" fill="none" xmlns="http://www.w3.org/2000/svg">
<path d="M6.49992 2.70834C7.72102 2.70834 8.89211 3.19342 9.75556 4.05687C10.619 4.92032 11.1041 6.0914 11.1041 7.31251C11.1041 8.53361 10.619 9.70469 9.75556 10.5681C8.89211 11.4316 7.72102 11.9167 6.49992 11.9167C5.27882 11.9167 4.10773 11.4316 3.24428 10.5681C2.38083 9.70469 1.89575 8.53361 1.89575 7.31251C1.89575 6.0914 2.38083 4.92032 3.24428 4.05687C4.10773 3.19342 5.27882 2.70834 6.49992 2.70834ZM6.49992 3.52084C5.49431 3.52084 4.52988 3.92032 3.81881 4.63139C3.10773 5.34247 2.70825 6.30689 2.70825 7.31251C2.70825 8.31812 3.10773 9.28254 3.81881 9.99362C4.52988 10.7047 5.49431 11.1042 6.49992 11.1042C7.50553 11.1042 8.46996 10.7047 9.18103 9.99362C9.89211 9.28254 10.2916 8.31812 10.2916 7.31251C10.2916 6.30689 9.89211 5.34247 9.18103 4.63139C8.46996 3.92032 7.50553 3.52084 6.49992 3.52084ZM6.49992 4.33334C6.59809 4.33334 6.69294 4.36889 6.76692 4.43342C6.84091 4.49795 6.88903 4.58708 6.90238 4.68434L6.90617 4.73959V7.17709C6.90614 7.28002 6.86704 7.3791 6.79677 7.45431C6.7265 7.52952 6.6303 7.57525 6.52761 7.58227C6.42492 7.58928 6.32339 7.55706 6.24355 7.4921C6.1637 7.42715 6.11149 7.33431 6.09746 7.23234L6.09367 7.17709V4.73959C6.09367 4.63184 6.13647 4.52851 6.21266 4.45233C6.28884 4.37614 6.39217 4.33334 6.49992 4.33334ZM10.3712 2.77009L10.4162 2.80259L11.0434 3.32476C11.122 3.39081 11.1726 3.48414 11.1851 3.58599C11.1977 3.68785 11.1712 3.79068 11.1111 3.87382C11.0509 3.95696 10.9615 4.01425 10.8608 4.03418C10.7602 4.05411 10.6557 4.0352 10.5684 3.98126L10.524 3.94876L9.89617 3.42659C9.81763 3.36053 9.767 3.2672 9.75445 3.16535C9.7419 3.06349 9.76837 2.96067 9.82853 2.87752C9.88869 2.79438 9.97809 2.73709 10.0788 2.71716C10.1794 2.69723 10.2839 2.71614 10.3712 2.77009ZM7.71867 1.35417C7.8216 1.3542 7.92068 1.3933 7.99589 1.46357C8.0711 1.53384 8.11683 1.63004 8.12385 1.73273C8.13087 1.83542 8.09864 1.93695 8.03368 2.01679C7.96873 2.09664 7.87589 2.14885 7.77392 2.16288L7.71867 2.16667H5.28117C5.17824 2.16664 5.07916 2.12754 5.00395 2.05727C4.92874 1.987 4.883 1.8908 4.87599 1.78811C4.86897 1.68542 4.9012 1.5839 4.96615 1.50405C5.03111 1.42421 5.12395 1.37199 5.22592 1.35796L5.28117 1.35417H7.71867Z" fill="#818181"/>
</svg>
