<svg width="14" height="14" viewBox="0 0 14 14" fill="none" xmlns="http://www.w3.org/2000/svg">
<path d="M7.00008 10.5C7.9723 10.5 8.79869 10.1597 9.47925 9.47917C10.1598 8.79862 10.5001 7.97223 10.5001 7C10.5001 6.02778 10.1598 5.20139 9.47925 4.52084C8.79869 3.84028 7.9723 3.50001 7.00008 3.50001V7L4.52092 9.47917C4.86119 9.8 5.24289 10.0504 5.666 10.2305C6.08911 10.4106 6.5338 10.5004 7.00008 10.5ZM7.00008 12.8333C6.19314 12.8333 5.4348 12.6801 4.72508 12.3737C4.01536 12.0672 3.398 11.6517 2.873 11.1271C2.348 10.6025 1.93247 9.98512 1.62642 9.275C1.32036 8.56489 1.16714 7.80656 1.16675 7C1.16636 6.19345 1.31958 5.43512 1.62642 4.72501C1.93325 4.01489 2.34878 3.39753 2.873 2.87292C3.39722 2.34831 4.01458 1.93278 4.72508 1.62634C5.43558 1.31989 6.19391 1.16667 7.00008 1.16667C7.80625 1.16667 8.56458 1.31989 9.27508 1.62634C9.98558 1.93278 10.6029 2.34831 11.1272 2.87292C11.6514 3.39753 12.0671 4.01489 12.3743 4.72501C12.6816 5.43512 12.8346 6.19345 12.8334 7C12.8322 7.80656 12.679 8.56489 12.3737 9.275C12.0685 9.98512 11.6529 10.6025 11.1272 11.1271C10.6014 11.6517 9.98403 12.0674 9.27508 12.3743C8.56614 12.6811 7.8078 12.8341 7.00008 12.8333Z" fill="#87909F"/>
</svg>
