<svg width="24" height="24" viewBox="0 0 24 24" fill="none" xmlns="http://www.w3.org/2000/svg">
<g clip-path="url(#clip0_6816_1253)">
<path d="M23.5 12C23.5 18.3513 18.3513 23.5 12 23.5C5.64873 23.5 0.5 18.3513 0.5 12C0.5 5.64873 5.64873 0.5 12 0.5C18.3513 0.5 23.5 5.64873 23.5 12Z" stroke="#363738"/>
<path fill-rule="evenodd" clip-rule="evenodd" d="M8.65703 7.92859H15.3856C15.6427 7.92859 15.857 7.97145 16.1142 8.10002C16.4142 8.22859 16.5856 8.44287 16.6713 8.6143C16.6713 8.6143 16.6713 8.65716 16.7142 8.65716C16.8427 8.87145 16.9285 9.12859 16.9285 9.42859C16.9285 9.68573 16.8856 9.94287 16.7142 10.2L12.4713 17.4857C12.3856 17.6572 12.2142 17.7429 11.9999 17.7429C11.8285 17.7429 11.657 17.6572 11.5285 17.4857L7.37132 10.2C7.2856 10.0286 7.11418 9.8143 7.11418 9.47145C7.07132 9.17145 7.15703 8.9143 7.2856 8.65716C7.41418 8.40002 7.62846 8.18573 7.92846 8.10002C8.1856 7.92859 8.4856 7.92859 8.65703 7.92859ZM11.4856 8.95716H8.65703C8.4856 8.95716 8.39989 8.95716 8.35703 9.00002C8.27132 9.04287 8.22846 9.08573 8.1856 9.17145C8.14275 9.2143 8.14275 9.30002 8.14275 9.38573C8.14275 9.42859 8.1856 9.47145 8.27132 9.64287L11.4856 15.2143V8.95716ZM12.5142 8.95716V15.2572L15.7713 9.64287C15.8142 9.55716 15.8142 9.47145 15.8142 9.38573C15.8142 9.30002 15.8142 9.2143 15.7713 9.17145C15.7285 9.12859 15.7285 9.08573 15.6856 9.08573L15.6427 9.04287C15.557 9.00002 15.4713 9.00002 15.3427 9.00002H12.5142V8.95716Z" fill="white"/>
</g>
<defs>
<clipPath id="clip0_6816_1253">
<rect width="24" height="24" fill="white"/>
</clipPath>
</defs>
</svg>
