<svg width="16" height="16" viewBox="0 0 16 16" fill="none" xmlns="http://www.w3.org/2000/svg">
<path d="M14.416 4.45867L8.60398 13.714C8.49701 13.8835 8.32921 14.0055 8.13505 14.0551C7.94089 14.1047 7.73511 14.0781 7.55998 13.9807C7.44383 13.9156 7.34576 13.8226 7.27465 13.71L1.57665 4.45467C1.41701 4.19529 1.33275 3.89658 1.33332 3.592C1.34051 3.14235 1.52579 2.71392 1.8485 2.40071C2.1712 2.0875 2.60498 1.9151 3.05465 1.92134H12.9533C13.898 1.92134 14.6666 2.66667 14.6666 3.588C14.6666 3.89467 14.58 4.196 14.4153 4.45867M2.97532 4.14934L7.21532 10.686V3.49H3.41865C2.97998 3.49 2.78332 3.78067 2.97598 4.14934M8.78398 10.686L13.024 4.14934C13.2193 3.78067 13.0193 3.49 12.5806 3.49H8.78398V10.686Z" fill="white"/>
</svg>
