<svg width="24" height="24" viewBox="0 0 24 24" fill="none" xmlns="http://www.w3.org/2000/svg">
<g clip-path="url(#clip0_235_864)">
<path d="M12 24C18.6274 24 24 18.6274 24 12C24 5.37258 18.6274 0 12 0C5.37258 0 0 5.37258 0 12C0 18.6274 5.37258 24 12 24Z" fill="#0088CC"/>
<path fill-rule="evenodd" clip-rule="evenodd" d="M8.65703 7.92856H15.3856C15.6427 7.92856 15.857 7.97142 16.1142 8.09999C16.4142 8.22856 16.5856 8.44284 16.6713 8.61427C16.6713 8.61427 16.6713 8.65713 16.7142 8.65713C16.8427 8.87142 16.9285 9.12856 16.9285 9.42856C16.9285 9.6857 16.8856 9.94284 16.7142 10.2L12.4713 17.4857C12.3856 17.6571 12.2142 17.7428 11.9999 17.7428C11.8285 17.7428 11.657 17.6571 11.5285 17.4857L7.37132 10.2C7.2856 10.0286 7.11418 9.81427 7.11418 9.47142C7.07132 9.17142 7.15703 8.91427 7.2856 8.65713C7.41418 8.39999 7.62846 8.1857 7.92846 8.09999C8.1856 7.92856 8.4856 7.92856 8.65703 7.92856ZM11.4856 8.95713H8.65703C8.4856 8.95713 8.39989 8.95713 8.35703 8.99999C8.27132 9.04284 8.22846 9.0857 8.1856 9.17142C8.14275 9.21427 8.14275 9.29999 8.14275 9.3857C8.14275 9.42856 8.1856 9.47142 8.27132 9.64284L11.4856 15.2143V8.95713ZM12.5142 8.95713V15.2571L15.7713 9.64284C15.8142 9.55713 15.8142 9.47142 15.8142 9.3857C15.8142 9.29999 15.8142 9.21427 15.7713 9.17142C15.7285 9.12856 15.7285 9.0857 15.6856 9.0857L15.6427 9.04284C15.557 8.99999 15.4713 8.99999 15.3427 8.99999H12.5142V8.95713Z" fill="white"/>
</g>
<defs>
<clipPath id="clip0_235_864">
<rect width="24" height="24" fill="white"/>
</clipPath>
</defs>
</svg>
