<svg width="16" height="16" viewBox="0 0 16 16" fill="none" xmlns="http://www.w3.org/2000/svg">
<path d="M14.416 4.45867L8.60404 13.714C8.49707 13.8835 8.32927 14.0055 8.13511 14.0551C7.94096 14.1047 7.73518 14.0781 7.56004 13.9807C7.44389 13.9156 7.34582 13.8226 7.27471 13.71L1.57671 4.45467C1.41707 4.19529 1.33281 3.89658 1.33338 3.592C1.34057 3.14235 1.52585 2.71392 1.84856 2.40071C2.17127 2.0875 2.60504 1.9151 3.05471 1.92134H12.9534C13.898 1.92134 14.6667 2.66667 14.6667 3.588C14.6667 3.89467 14.58 4.196 14.4154 4.45867M2.97538 4.14934L7.21538 10.686V3.49H3.41871C2.98004 3.49 2.78338 3.78067 2.97604 4.14934M8.78404 10.686L13.024 4.14934C13.2194 3.78067 13.0194 3.49 12.5807 3.49H8.78404V10.686Z" fill="#151515"/>
</svg>
