<svg width="32" height="32" viewBox="0 0 32 32" fill="none" xmlns="http://www.w3.org/2000/svg">
<path d="M6.625 4.75H25.375V9.2125H6.625V4.75ZM18.8125 17.425V27.2688H13.1875V17.425H18.8125Z" fill="white"/>
<path d="M15.9999 11.7812C9.1374 11.7812 3.5874 13.15 3.5874 14.8187C3.5874 16.4875 9.15615 17.8562 15.9999 17.8562C22.8437 17.8562 28.4124 16.4875 28.4124 14.8187C28.4124 13.15 22.8437 11.7812 15.9999 11.7812ZM15.9999 16.4688C9.6624 16.4688 4.5249 15.5313 4.5249 14.3688C4.5249 13.2063 9.6624 12.2688 15.9999 12.2688C22.3374 12.2688 27.4749 13.2063 27.4749 14.3688C27.4749 15.5313 22.3374 16.4688 15.9999 16.4688Z" fill="white"/>
<path d="M16 15.775C16.975 15.775 17.9125 15.7563 18.8125 15.7V8.03125H13.1875V15.7C14.0875 15.7375 15.025 15.775 16 15.775Z" fill="white"/>
</svg>
