<svg width="14" height="14" viewBox="0 0 14 14" fill="none" xmlns="http://www.w3.org/2000/svg">
<path d="M2.89844 2.07812H11.1016V4.03047H2.89844V2.07812ZM8.23047 7.62344V11.9301H5.76953V7.62344H8.23047Z" fill="#818181"/>
<path d="M6.9998 5.1543C3.99746 5.1543 1.56934 5.75312 1.56934 6.4832C1.56934 7.21328 4.00566 7.81211 6.9998 7.81211C9.99395 7.81211 12.4303 7.21328 12.4303 6.4832C12.4303 5.75312 9.99395 5.1543 6.9998 5.1543ZM6.9998 7.20508C4.22715 7.20508 1.97949 6.79492 1.97949 6.28633C1.97949 5.77773 4.22715 5.36758 6.9998 5.36758C9.77246 5.36758 12.0201 5.77773 12.0201 6.28633C12.0201 6.79492 9.77246 7.20508 6.9998 7.20508Z" fill="#818181"/>
<path d="M7 6.90156C7.42656 6.90156 7.83672 6.89336 8.23047 6.86875V3.51367H5.76953V6.86875C6.16328 6.88516 6.57344 6.90156 7 6.90156Z" fill="#818181"/>
</svg>
