<svg width="32" height="32" viewBox="0 0 32 32" fill="none" xmlns="http://www.w3.org/2000/svg">
<path d="M16 16C19.6819 16 22.6667 13.0152 22.6667 9.33329C22.6667 5.65139 19.6819 2.66663 16 2.66663C12.3181 2.66663 9.33337 5.65139 9.33337 9.33329C9.33337 13.0152 12.3181 16 16 16Z" stroke="white" stroke-width="1.5" stroke-linecap="round" stroke-linejoin="round"/>
<path d="M4.54663 29.3333C4.54663 24.1733 9.67996 20 16 20C17.28 20 18.52 20.1733 19.68 20.4933" stroke="white" stroke-width="1.5" stroke-linecap="round" stroke-linejoin="round"/>
<path d="M29.3333 24C29.3333 25 29.0533 25.9466 28.56 26.7466C28.28 27.2266 27.92 27.6533 27.5066 28C26.5733 28.84 25.3466 29.3333 24 29.3333C22.0533 29.3333 20.3599 28.2933 19.4399 26.7466C18.9466 25.9466 18.6666 25 18.6666 24C18.6666 22.32 19.44 20.8133 20.6666 19.84C21.5866 19.1066 22.7466 18.6666 24 18.6666C26.9466 18.6666 29.3333 21.0533 29.3333 24Z" stroke="white" stroke-width="1.5" stroke-miterlimit="10" stroke-linecap="round" stroke-linejoin="round"/>
<path d="M21.9199 24L23.2399 25.32L26.0799 22.6934" stroke="white" stroke-width="1.5" stroke-linecap="round" stroke-linejoin="round"/>
</svg>
