<svg width="16" height="16" viewBox="0 0 16 16" fill="none" xmlns="http://www.w3.org/2000/svg">
<path fill-rule="evenodd" clip-rule="evenodd" d="M14.0667 5.33604C14.03 5.33337 13.9893 5.33337 13.9467 5.33337H12.2633C10.8847 5.33337 9.70534 6.41871 9.70534 7.83337C9.70534 9.24804 10.8853 10.3334 12.2633 10.3334H13.9467C13.9893 10.3334 14.03 10.3334 14.068 10.3307C14.3514 10.3136 14.6188 10.1941 14.8206 9.99443C15.0224 9.79475 15.1446 9.52853 15.1647 9.24537C15.1673 9.20537 15.1673 9.16204 15.1673 9.12204V6.54471C15.1673 6.50471 15.1673 6.46137 15.1647 6.42137C15.1446 6.13822 15.0224 5.872 14.8206 5.67232C14.6188 5.47264 14.3514 5.35313 14.068 5.33604M12.116 8.50004C12.4707 8.50004 12.758 8.20137 12.758 7.83337C12.758 7.46537 12.4707 7.16671 12.116 7.16671C11.7607 7.16671 11.4733 7.46537 11.4733 7.83337C11.4733 8.20137 11.7607 8.50004 12.116 8.50004Z" fill="#151515"/>
<path fill-rule="evenodd" clip-rule="evenodd" d="M13.9453 11.3333C13.9684 11.3324 13.9913 11.3369 14.0123 11.3465C14.0333 11.3561 14.0517 11.3706 14.066 11.3886C14.0804 11.4067 14.0903 11.4279 14.0949 11.4505C14.0995 11.4731 14.0988 11.4964 14.0927 11.5187C13.9593 11.9933 13.7467 12.3987 13.406 12.7387C12.9067 13.2387 12.274 13.4593 11.4927 13.5647C10.7327 13.6667 9.76267 13.6667 8.53734 13.6667H7.12934C5.904 13.6667 4.93334 13.6667 4.174 13.5647C3.39267 13.4593 2.76 13.238 2.26067 12.7393C1.762 12.24 1.54067 11.6073 1.43534 10.826C1.33334 10.066 1.33334 9.096 1.33334 7.87067V7.796C1.33334 6.57067 1.33334 5.6 1.43534 4.84C1.54067 4.05867 1.762 3.426 2.26067 2.92667C2.76 2.428 3.39267 2.20667 4.174 2.10133C4.934 2 5.904 2 7.12934 2H8.53734C9.76267 2 10.7333 2 11.4927 2.102C12.274 2.20733 12.9067 2.42867 13.406 2.92733C13.7467 3.26867 13.9593 3.67333 14.0927 4.148C14.0988 4.17025 14.0995 4.19362 14.0949 4.21621C14.0903 4.23881 14.0804 4.26 14.066 4.27805C14.0517 4.29611 14.0333 4.31053 14.0123 4.32013C13.9913 4.32974 13.9684 4.33426 13.9453 4.33333H12.2627C10.3713 4.33333 8.70467 5.82667 8.70467 7.83333C8.70467 9.84 10.3713 11.3333 12.2627 11.3333H13.9453ZM3.83334 4.66667C3.70073 4.66667 3.57355 4.71935 3.47978 4.81311C3.38601 4.90688 3.33334 5.03406 3.33334 5.16667C3.33334 5.29927 3.38601 5.42645 3.47978 5.52022C3.57355 5.61399 3.70073 5.66667 3.83334 5.66667H6.5C6.63261 5.66667 6.75979 5.61399 6.85356 5.52022C6.94732 5.42645 7 5.29927 7 5.16667C7 5.03406 6.94732 4.90688 6.85356 4.81311C6.75979 4.71935 6.63261 4.66667 6.5 4.66667H3.83334Z" fill="#151515"/>
</svg>
