<svg width="13" height="13" viewBox="0 0 13 13" fill="none" xmlns="http://www.w3.org/2000/svg">
<path fill-rule="evenodd" clip-rule="evenodd" d="M3.38574 4.875C3.38574 4.65063 3.56763 4.46875 3.79199 4.46875H7.04199C7.26636 4.46875 7.44824 4.65063 7.44824 4.875C7.44824 5.09937 7.26636 5.28125 7.04199 5.28125H3.79199C3.56763 5.28125 3.38574 5.09937 3.38574 4.875Z" fill="#818181"/>
<path fill-rule="evenodd" clip-rule="evenodd" d="M10.2486 5.7959C10.0541 5.7959 9.88309 5.87131 9.75969 5.99804L9.7524 6.00534C9.60829 6.14601 9.52779 6.34631 9.54805 6.55904L9.54851 6.56381L9.54848 6.56382C9.57714 6.90777 9.90786 7.20422 10.3136 7.20422H11.366C11.4535 7.19857 11.5107 7.1301 11.5107 7.05799V5.94213C11.5107 5.87002 11.4535 5.80155 11.366 5.7959H10.2486ZM9.18116 5.42754C9.45829 5.14489 9.83823 4.9834 10.2486 4.9834H11.3753C11.3801 4.9834 11.385 4.98348 11.3898 4.98366C11.906 5.00209 12.3232 5.41981 12.3232 5.94213V7.05799C12.3232 7.58031 11.906 7.99802 11.3898 8.01646C11.385 8.01663 11.3801 8.01672 11.3753 8.01672H10.3136C9.55011 8.01672 8.80906 7.45842 8.73899 6.63369C8.69525 6.16667 8.87305 5.73038 9.18116 5.42754Z" fill="#818181"/>
<path fill-rule="evenodd" clip-rule="evenodd" d="M3.79183 2.30212C3.65953 2.30212 3.53398 2.31157 3.41485 2.3299L3.40366 2.33146C2.80386 2.40673 2.33236 2.66353 2.0095 3.04232C1.68581 3.42208 1.48975 3.95034 1.48975 4.60421V8.39587C1.48975 9.11606 1.72803 9.68464 2.11555 10.0722C2.50307 10.4597 3.07165 10.698 3.79183 10.698H8.66683C9.38701 10.698 9.95559 10.4597 10.3431 10.0722C10.7306 9.68464 10.9689 9.11606 10.9689 8.39587V8.0167H10.3135C9.54998 8.0167 8.80892 7.4584 8.73885 6.63366C8.69512 6.16665 8.87292 5.73035 9.18103 5.42751C9.45816 5.14487 9.8381 4.98338 10.2485 4.98338H10.9689V4.60421C10.9689 3.94592 10.7694 3.41436 10.4406 3.03337C10.1126 2.65324 9.63378 2.39714 9.02616 2.32648C9.01951 2.32571 9.01289 2.32477 9.00629 2.32367C8.90885 2.30743 8.79929 2.30212 8.66683 2.30212H3.79183ZM3.29693 1.52599C3.45769 1.50156 3.62277 1.48962 3.79183 1.48962H8.66683C8.81291 1.48962 8.97057 1.49491 9.12968 1.52056C9.91537 1.61407 10.5841 1.95595 11.0557 2.50254C11.5286 3.05051 11.7814 3.77833 11.7814 4.60421V5.38963C11.7814 5.614 11.5995 5.79588 11.3752 5.79588H10.2485C10.054 5.79588 9.88295 5.87129 9.75955 5.99802L9.75227 6.00532C9.60816 6.14599 9.52766 6.34629 9.54792 6.55902L9.54837 6.5638L9.54834 6.5638C9.57701 6.90775 9.90773 7.2042 10.3135 7.2042H11.3752C11.5995 7.2042 11.7814 7.38609 11.7814 7.61045V8.39587C11.7814 9.30069 11.478 10.0863 10.9176 10.6467C10.3572 11.2071 9.57165 11.5105 8.66683 11.5105H3.79183C2.88701 11.5105 2.10143 11.2071 1.54103 10.6467C0.980626 10.0863 0.677246 9.30069 0.677246 8.39587V4.60421C0.677246 3.78474 0.925346 3.06175 1.39114 2.51526C1.85665 1.9691 2.51789 1.62499 3.29693 1.52599Z" fill="#818181"/>
</svg>
