<svg width="24" height="24" viewBox="0 0 24 24" fill="none" xmlns="http://www.w3.org/2000/svg">
<path fill-rule="evenodd" clip-rule="evenodd" d="M1.91992 12C1.91992 6.43281 6.43274 1.92 11.9999 1.92C17.5671 1.92 22.0799 6.43281 22.0799 12C22.0799 17.5672 17.5671 22.08 11.9999 22.08C6.43274 22.08 1.91992 17.5672 1.91992 12ZM11.9999 13.008C11.7326 13.008 11.4762 12.9018 11.2872 12.7128C11.0981 12.5237 10.9919 12.2673 10.9919 12V7.968C10.9919 7.70066 11.0981 7.44427 11.2872 7.25523C11.4762 7.0662 11.7326 6.96 11.9999 6.96C12.2673 6.96 12.5236 7.0662 12.7127 7.25523C12.9017 7.44427 13.0079 7.70066 13.0079 7.968V12C13.0079 12.2673 12.9017 12.5237 12.7127 12.7128C12.5236 12.9018 12.2673 13.008 11.9999 13.008ZM10.4879 16.032C10.4879 15.631 10.6472 15.2464 10.9308 14.9629C11.2143 14.6793 11.5989 14.52 11.9999 14.52H12.01C12.411 14.52 12.7956 14.6793 13.0791 14.9629C13.3627 15.2464 13.522 15.631 13.522 16.032V16.0421C13.522 16.4431 13.3627 16.8277 13.0791 17.1112C12.7956 17.3948 12.411 17.5541 12.01 17.5541H11.9999C11.5989 17.5541 11.2143 17.3948 10.9308 17.1112C10.6472 16.8277 10.4879 16.4431 10.4879 16.0421V16.032Z" fill="#DA4453"/>
</svg>
