<svg width="16" height="16" viewBox="0 0 16 16" fill="none" xmlns="http://www.w3.org/2000/svg">
<path d="M14.4 8C14.4 11.5346 11.5346 14.4 7.99998 14.4C4.46535 14.4 1.59998 11.5346 1.59998 8C1.59998 4.46538 4.46535 1.6 7.99998 1.6C11.5346 1.6 14.4 4.46538 14.4 8Z" fill="#87909F"/>
<path d="M10.793 6.26759C11.0859 5.97469 11.0859 5.49982 10.793 5.20693C10.5002 4.91403 10.0253 4.91403 9.73239 5.20693L10.793 6.26759ZM5.2069 9.73241C4.91401 10.0253 4.91401 10.5002 5.2069 10.7931C5.4998 11.086 5.97467 11.086 6.26756 10.7931L5.2069 9.73241ZM9.73239 10.7931C10.0253 11.086 10.5002 11.086 10.793 10.7931C11.0859 10.5002 11.0859 10.0253 10.793 9.73241L9.73239 10.7931ZM6.26756 5.20693C5.97467 4.91403 5.4998 4.91403 5.2069 5.20693C4.91401 5.49982 4.91401 5.97469 5.2069 6.26759L6.26756 5.20693ZM13.65 8C13.65 11.1204 11.1204 13.65 7.99998 13.65V15.15C11.9488 15.15 15.15 11.9488 15.15 8H13.65ZM7.99998 13.65C4.87957 13.65 2.34998 11.1204 2.34998 8H0.849976C0.849976 11.9488 4.05114 15.15 7.99998 15.15V13.65ZM2.34998 8C2.34998 4.87959 4.87957 2.35 7.99998 2.35V0.849998C4.05114 0.849998 0.849976 4.05116 0.849976 8H2.34998ZM7.99998 2.35C11.1204 2.35 13.65 4.87959 13.65 8H15.15C15.15 4.05116 11.9488 0.849998 7.99998 0.849998V2.35ZM9.73239 5.20693L7.46965 7.46967L8.53031 8.53033L10.793 6.26759L9.73239 5.20693ZM7.46965 7.46967L5.2069 9.73241L6.26756 10.7931L8.53031 8.53033L7.46965 7.46967ZM10.793 9.73241L8.53031 7.46967L7.46965 8.53033L9.73239 10.7931L10.793 9.73241ZM8.53031 7.46967L6.26756 5.20693L5.2069 6.26759L7.46965 8.53033L8.53031 7.46967Z" fill="#292A2F"/>
</svg>
