<svg width="32" height="32" viewBox="0 0 32 32" fill="none" xmlns="http://www.w3.org/2000/svg">
<path fill-rule="evenodd" clip-rule="evenodd" d="M15.9998 6.15385C17.0521 6.15385 18.1315 6.18093 19.1777 6.22524L20.4134 6.28432L21.5961 6.35447L22.7038 6.42955L23.7155 6.50832C24.8136 6.59187 25.847 7.06023 26.6336 7.8309C27.4203 8.60157 27.9098 9.62511 28.0158 10.7212L28.0651 11.2443L28.1574 12.3643C28.2435 13.5249 28.3075 14.7902 28.3075 16C28.3075 17.2099 28.2435 18.4751 28.1574 19.6357L28.0651 20.7557L28.0158 21.2788C27.9097 22.3751 27.4201 23.3988 26.6332 24.1695C25.8463 24.9402 24.8126 25.4084 23.7143 25.4917L22.7051 25.5692L21.5974 25.6455L20.4134 25.7157L19.1777 25.7748C18.119 25.8206 17.0595 25.8444 15.9998 25.8462C14.9402 25.8444 13.8807 25.8206 12.822 25.7748L11.5863 25.7157L10.4035 25.6455L9.29583 25.5692L8.28414 25.4917C7.18606 25.4081 6.15269 24.9398 5.36604 24.1691C4.57939 23.3984 4.08991 22.3749 3.98383 21.2788L3.9346 20.7557L3.84229 19.6357C3.74855 18.426 3.69846 17.2133 3.69214 16C3.69214 14.7902 3.75614 13.5249 3.84229 12.3643L3.9346 11.2443L3.98383 10.7212C4.08987 9.6253 4.57917 8.60192 5.36557 7.83128C6.15197 7.06063 7.18505 6.59215 8.28291 6.50832L9.29337 6.42955L10.4011 6.35447L11.5851 6.28432L12.8208 6.22524C13.8798 6.17936 14.9398 6.15556 15.9998 6.15385ZM13.5383 13.0154V18.9846C13.5383 19.5532 14.1537 19.9077 14.646 19.6246L19.8152 16.64C19.9277 16.5753 20.0211 16.482 20.0861 16.3697C20.1511 16.2573 20.1853 16.1298 20.1853 16C20.1853 15.8702 20.1511 15.7427 20.0861 15.6304C20.0211 15.518 19.9277 15.4248 19.8152 15.36L14.646 12.3766C14.5337 12.3118 14.4063 12.2777 14.2766 12.2777C14.147 12.2777 14.0196 12.3119 13.9073 12.3767C13.795 12.4416 13.7018 12.5349 13.637 12.6472C13.5723 12.7596 13.5382 12.887 13.5383 13.0166V13.0154Z" fill="white"/>
</svg>
