<svg width="48" height="48" viewBox="0 0 48 48" fill="none" xmlns="http://www.w3.org/2000/svg">
<rect x="0.5" y="0.5" width="47" height="47" rx="7.5" fill="url(#paint0_radial_1542_275)" fill-opacity="0.2"/>
<rect x="0.5" y="0.5" width="47" height="47" rx="7.5" stroke="url(#paint1_linear_1542_275)"/>
<path d="M24.3022 20.9924L29.1337 4L10.9998 27.0076H23.6973L18.8662 44L36.9998 20.9924H24.3022Z" fill="url(#paint2_linear_1542_275)"/>
<path d="M15.0014 15.6086C14.9217 15.6087 14.8428 15.5931 14.7692 15.5625C14.6956 15.532 14.6288 15.4872 14.5726 15.4307L13.7337 14.5915C13.6232 14.477 13.5621 14.3238 13.5635 14.1647C13.5649 14.0057 13.6287 13.8535 13.7412 13.7411C13.8537 13.6286 14.0059 13.5648 14.165 13.5635C14.324 13.5621 14.4773 13.6233 14.5917 13.7339L15.4306 14.5731C15.5154 14.658 15.5731 14.7661 15.5965 14.8837C15.6199 15.0014 15.6078 15.1234 15.5619 15.2342C15.5159 15.345 15.4382 15.4397 15.3384 15.5064C15.2387 15.573 15.1214 15.6086 15.0014 15.6086Z" fill="white"/>
<path d="M12.4872 13.0938C12.4075 13.0939 12.3285 13.0783 12.2549 13.0478C12.1812 13.0172 12.1143 12.9725 12.058 12.916L9.42933 10.287C9.37302 10.2306 9.32835 10.1638 9.29787 10.0902C9.26739 10.0166 9.25171 9.93778 9.25171 9.85814C9.25171 9.77851 9.26739 9.69965 9.29787 9.62607C9.32835 9.55249 9.37302 9.48564 9.42933 9.42933C9.48564 9.37302 9.55249 9.32835 9.62607 9.29787C9.69965 9.26739 9.77851 9.25171 9.85814 9.25171C9.93778 9.25171 10.0166 9.26739 10.0902 9.29787C10.1638 9.32835 10.2306 9.37302 10.287 9.42933L12.916 12.0584C13.0008 12.1432 13.0585 12.2513 13.0819 12.3689C13.1053 12.4866 13.0933 12.6085 13.0474 12.7193C13.0015 12.8301 12.9238 12.9248 12.8241 12.9915C12.7244 13.0582 12.6071 13.0938 12.4872 13.0938Z" fill="white"/>
<path d="M33.8374 34.444C33.7577 34.4441 33.6788 34.4284 33.6052 34.3979C33.5316 34.3674 33.4648 34.3226 33.4086 34.2661L32.5697 33.4272C32.5134 33.3708 32.4687 33.3038 32.4383 33.2301C32.4079 33.1565 32.3923 33.0775 32.3923 32.9978C32.3924 32.9181 32.4082 32.8392 32.4388 32.7655C32.4694 32.6919 32.5141 32.625 32.5706 32.5687C32.627 32.5124 32.694 32.4678 32.7676 32.4373C32.8413 32.4069 32.9203 32.3913 33 32.3914C33.0797 32.3914 33.1586 32.4072 33.2323 32.4378C33.3059 32.4684 33.3727 32.5132 33.4291 32.5696L34.268 33.4085C34.3528 33.4933 34.4105 33.6014 34.4339 33.719C34.4572 33.8367 34.4452 33.9586 34.3993 34.0694C34.3534 34.1802 34.2757 34.275 34.176 34.3416C34.0763 34.4083 33.9591 34.4439 33.8392 34.444H33.8374Z" fill="white"/>
<path d="M38.1436 38.7489C38.0639 38.7489 37.985 38.7332 37.9114 38.7027C37.8378 38.6722 37.771 38.6274 37.7148 38.571L35.0861 35.942C35.0298 35.8857 34.9851 35.8188 34.9546 35.7452C34.9241 35.6717 34.9084 35.5928 34.9084 35.5132C34.9084 35.4335 34.9241 35.3547 34.9546 35.2811C34.9851 35.2075 35.0298 35.1407 35.0861 35.0844C35.1424 35.028 35.2092 34.9834 35.2828 34.9529C35.3564 34.9224 35.4352 34.9067 35.5149 34.9067C35.5945 34.9067 35.6734 34.9224 35.747 34.9529C35.8205 34.9834 35.8874 35.028 35.9437 35.0844L38.5727 37.7134C38.6575 37.7983 38.7153 37.9064 38.7386 38.024C38.762 38.1417 38.75 38.2637 38.704 38.3745C38.6581 38.4853 38.5803 38.58 38.4806 38.6467C38.3808 38.7133 38.2635 38.7489 38.1436 38.7489Z" fill="white"/>
<path d="M32.9985 15.6085C32.8786 15.6083 32.7615 15.5727 32.6618 15.506C32.5622 15.4393 32.4845 15.3447 32.4386 15.2339C32.3927 15.1231 32.3806 15.0013 32.4039 14.8837C32.4272 14.766 32.4847 14.658 32.5694 14.573L33.4083 13.7338C33.522 13.62 33.6763 13.556 33.8372 13.5559C33.9981 13.5558 34.1524 13.6197 34.2663 13.7334C34.3801 13.8472 34.4441 14.0014 34.4441 14.1623C34.4442 14.3232 34.3803 14.4776 34.2666 14.5914L33.4291 15.4307C33.3726 15.4873 33.3055 15.5322 33.2316 15.5627C33.1577 15.5932 33.0785 15.6088 32.9985 15.6085Z" fill="white"/>
<path d="M35.5133 13.0937C35.3934 13.0936 35.2762 13.058 35.1765 12.9914C35.0767 12.9247 34.999 12.83 34.9531 12.7192C34.9073 12.6083 34.8952 12.4864 34.9186 12.3688C34.942 12.2511 34.9997 12.1431 35.0845 12.0582L37.7132 9.42919C37.7692 9.37123 37.8361 9.32501 37.9101 9.2932C37.9841 9.26139 38.0637 9.24464 38.1443 9.24392C38.2248 9.2432 38.3047 9.25854 38.3793 9.28903C38.4538 9.31951 38.5216 9.36455 38.5785 9.42149C38.6355 9.47844 38.6806 9.54617 38.7111 9.62071C38.7416 9.69526 38.757 9.77514 38.7563 9.85569C38.7556 9.93624 38.7389 10.0159 38.7071 10.0899C38.6753 10.1639 38.6291 10.2308 38.5712 10.2868L35.9421 12.9159C35.8859 12.9723 35.8191 13.0171 35.7455 13.0477C35.6719 13.0782 35.593 13.0938 35.5133 13.0937Z" fill="white"/>
<path d="M14.1631 34.4439C14.0431 34.444 13.9258 34.4084 13.8261 34.3418C13.7263 34.2751 13.6486 34.1804 13.6026 34.0696C13.5567 33.9587 13.5446 33.8368 13.568 33.7191C13.5914 33.6014 13.6491 33.4933 13.7339 33.4085L14.5728 32.5696C14.6293 32.5132 14.6962 32.4686 14.7699 32.4381C14.8436 32.4077 14.9226 32.392 15.0023 32.3921C15.082 32.3922 15.161 32.4079 15.2346 32.4385C15.3083 32.4691 15.3752 32.5138 15.4315 32.5703C15.4878 32.6267 15.5325 32.6937 15.563 32.7674C15.5934 32.841 15.6091 32.92 15.609 32.9997C15.6089 33.0795 15.5932 33.1584 15.5626 33.2321C15.532 33.3057 15.4872 33.3726 15.4308 33.4289L14.5919 34.2678C14.5355 34.324 14.4686 34.3684 14.395 34.3986C14.3215 34.4288 14.2426 34.4442 14.1631 34.4439Z" fill="white"/>
<path d="M9.85806 38.7487C9.73812 38.7487 9.62089 38.7131 9.52118 38.6464C9.42147 38.5797 9.34376 38.485 9.29787 38.3742C9.25198 38.2634 9.23997 38.1414 9.26335 38.0238C9.28673 37.9062 9.34446 37.7981 9.42924 37.7133L12.0579 35.0842C12.1139 35.0263 12.1808 34.98 12.2548 34.9482C12.3288 34.9164 12.4084 34.8997 12.489 34.8989C12.5695 34.8982 12.6494 34.9136 12.724 34.9441C12.7985 34.9745 12.8663 35.0196 12.9233 35.0765C12.9802 35.1335 13.0253 35.2012 13.0558 35.2757C13.0863 35.3503 13.1017 35.4302 13.101 35.5107C13.1003 35.5913 13.0836 35.6709 13.0518 35.7449C13.02 35.8189 12.9738 35.8859 12.9159 35.9418L10.2869 38.5709C10.2307 38.6274 10.1638 38.6722 10.0902 38.7027C10.0166 38.7332 9.93773 38.7489 9.85806 38.7487Z" fill="white"/>
<path d="M39.2058 33.1468C39.1018 33.1467 38.9996 33.1199 38.909 33.0688L34.7984 30.7597C34.7275 30.7215 34.6649 30.6695 34.6143 30.6068C34.5637 30.5442 34.5261 30.472 34.5037 30.3947C34.4813 30.3173 34.4745 30.2363 34.4837 30.1563C34.493 30.0763 34.518 29.9989 34.5575 29.9287C34.5969 29.8584 34.65 29.7968 34.7135 29.7473C34.777 29.6978 34.8498 29.6614 34.9275 29.6403C35.0052 29.6192 35.0864 29.6138 35.1662 29.6244C35.2461 29.635 35.323 29.6614 35.3925 29.7021L39.5032 32.0104C39.6202 32.0761 39.7122 32.1788 39.7646 32.3023C39.8171 32.4259 39.8271 32.5633 39.7931 32.6931C39.7591 32.823 39.683 32.9379 39.5767 33.0198C39.4704 33.1018 39.34 33.1462 39.2058 33.1461V33.1468Z" fill="white"/>
<path d="M12.9042 18.3751C12.8003 18.3752 12.6981 18.3484 12.6075 18.2974L8.49686 15.9887C8.42597 15.9505 8.36341 15.8985 8.31282 15.8358C8.26223 15.7732 8.22463 15.701 8.20221 15.6237C8.17978 15.5463 8.17299 15.4653 8.18222 15.3853C8.19145 15.3053 8.21652 15.2279 8.25597 15.1577C8.29542 15.0874 8.34845 15.0258 8.41198 14.9763C8.47551 14.9268 8.54827 14.8904 8.626 14.8693C8.70373 14.8482 8.78488 14.8428 8.86472 14.8534C8.94456 14.864 9.02149 14.8904 9.09103 14.9311L13.2017 17.2401C13.3188 17.3057 13.4109 17.4084 13.4634 17.5319C13.5159 17.6554 13.526 17.7929 13.4919 17.9228C13.4579 18.0527 13.3818 18.1676 13.2754 18.2495C13.169 18.3314 13.0385 18.3757 12.9042 18.3754V18.3751Z" fill="white"/>
<path d="M15.4594 39.8131C15.3536 39.813 15.2497 39.7852 15.1579 39.7326C15.0662 39.6799 14.9898 39.6041 14.9363 39.5128C14.8829 39.4215 14.8543 39.3178 14.8533 39.212C14.8523 39.1062 14.879 39.002 14.9308 38.9097L17.2402 34.7983C17.319 34.6581 17.4502 34.5549 17.6051 34.5114C17.7599 34.4679 17.9257 34.4877 18.066 34.5664C18.2062 34.6452 18.3094 34.7764 18.3529 34.9313C18.3964 35.0861 18.3766 35.2519 18.2979 35.3922L15.9891 39.5035C15.9364 39.5976 15.8595 39.6759 15.7664 39.7303C15.6733 39.7847 15.5673 39.8133 15.4594 39.8131Z" fill="white"/>
<path d="M30.2311 13.5112C30.1253 13.511 30.0214 13.4832 29.9297 13.4305C29.838 13.3778 29.7616 13.3021 29.7082 13.2108C29.6548 13.1195 29.6262 13.0158 29.6253 12.91C29.6243 12.8042 29.651 12.7 29.7028 12.6078L32.0112 8.49679C32.0907 8.35797 32.2218 8.25617 32.376 8.21356C32.5302 8.17096 32.695 8.19098 32.8345 8.26928C32.974 8.34758 33.0769 8.47782 33.1209 8.63165C33.1648 8.78547 33.1462 8.95043 33.0692 9.09061L30.7597 13.2016C30.7071 13.2955 30.6303 13.3737 30.5374 13.4281C30.4445 13.4825 30.3388 13.5112 30.2311 13.5112Z" fill="white"/>
<path d="M8.79438 33.1469C8.66017 33.147 8.52971 33.1026 8.42343 33.0206C8.31715 32.9387 8.24105 32.8238 8.20705 32.6939C8.17305 32.5641 8.18306 32.4267 8.23551 32.3031C8.28797 32.1796 8.37991 32.0769 8.49695 32.0112L12.6076 29.7029C12.6772 29.6604 12.7546 29.6324 12.8352 29.6205C12.9158 29.6086 12.998 29.6131 13.0769 29.6337C13.1557 29.6543 13.2296 29.6905 13.2942 29.7403C13.3587 29.7901 13.4126 29.8523 13.4525 29.9234C13.4924 29.9944 13.5176 30.0728 13.5266 30.1538C13.5356 30.2348 13.5282 30.3168 13.5048 30.3949C13.4814 30.4729 13.4425 30.5455 13.3904 30.6082C13.3384 30.6709 13.2742 30.7225 13.2018 30.7598L9.09112 33.0689C9.00053 33.1199 8.89834 33.1468 8.79438 33.1469Z" fill="white"/>
<path d="M35.0959 18.375C34.9617 18.3751 34.8314 18.3308 34.7251 18.2489C34.6189 18.167 34.5428 18.0521 34.5088 17.9224C34.4748 17.7926 34.4848 17.6553 34.5372 17.5318C34.5896 17.4083 34.6815 17.3057 34.7984 17.24L38.9091 14.9313C38.9786 14.8907 39.0556 14.8643 39.1354 14.8537C39.2152 14.8431 39.2964 14.8485 39.3741 14.8696C39.4519 14.8907 39.5246 14.927 39.5881 14.9765C39.6517 15.026 39.7047 15.0877 39.7442 15.1579C39.7836 15.2281 39.8087 15.3055 39.8179 15.3855C39.8271 15.4655 39.8203 15.5466 39.7979 15.6239C39.7755 15.7013 39.7379 15.7734 39.6873 15.8361C39.6367 15.8987 39.5742 15.9507 39.5033 15.989L35.3926 18.2973C35.302 18.3483 35.1998 18.375 35.0959 18.375Z" fill="white"/>
<path d="M32.5408 39.8132C32.433 39.8133 32.3271 39.7847 32.234 39.7303C32.141 39.6759 32.0641 39.5976 32.0114 39.5036L29.7027 35.3922C29.6637 35.3228 29.6387 35.2464 29.6293 35.1673C29.6198 35.0883 29.626 35.0081 29.6476 34.9315C29.6691 34.8548 29.7055 34.7831 29.7547 34.7206C29.8039 34.658 29.865 34.6057 29.9344 34.5667C30.0038 34.5277 30.0803 34.5028 30.1593 34.4933C30.2384 34.4838 30.3185 34.4901 30.3952 34.5116C30.4718 34.5331 30.5435 34.5695 30.6061 34.6187C30.6687 34.6679 30.721 34.729 30.76 34.7984L33.0691 38.9098C33.1208 39.0021 33.1475 39.1063 33.1466 39.2121C33.1456 39.3179 33.117 39.4216 33.0635 39.5129C33.0101 39.6042 32.9337 39.68 32.8419 39.7327C32.7502 39.7853 32.6466 39.8131 32.5408 39.8132Z" fill="white"/>
<path d="M17.7689 13.5112C17.6612 13.5112 17.5555 13.4825 17.4626 13.4281C17.3697 13.3737 17.2929 13.2955 17.2402 13.2016L14.9315 9.09061C14.8544 8.95043 14.8358 8.78547 14.8798 8.63165C14.9237 8.47782 15.0267 8.34758 15.1662 8.26928C15.3057 8.19098 15.4705 8.17096 15.6247 8.21356C15.7789 8.25617 15.91 8.35797 15.9895 8.49679L18.2979 12.6078C18.3496 12.7 18.3764 12.8042 18.3754 12.91C18.3744 13.0158 18.3458 13.1195 18.2924 13.2108C18.2391 13.3021 18.1627 13.3778 18.071 13.4305C17.9793 13.4832 17.8754 13.511 17.7696 13.5112H17.7689Z" fill="white"/>
<defs>
<radialGradient id="paint0_radial_1542_275" cx="0" cy="0" r="1" gradientUnits="userSpaceOnUse" gradientTransform="rotate(45) scale(67.8823)">
<stop stop-color="#FAFAFA"/>
<stop offset="1" stop-color="#F7F7F7" stop-opacity="0"/>
</radialGradient>
<linearGradient id="paint1_linear_1542_275" x1="24" y1="0" x2="24" y2="48" gradientUnits="userSpaceOnUse">
<stop stop-color="white"/>
<stop offset="1" stop-color="white" stop-opacity="0"/>
</linearGradient>
<linearGradient id="paint2_linear_1542_275" x1="13.1053" y1="2.72333" x2="38.547" y2="8.34341" gradientUnits="userSpaceOnUse">
<stop stop-color="#0EB69D"/>
<stop offset="1" stop-color="#85E047"/>
</linearGradient>
</defs>
</svg>
