<svg width="16" height="16" viewBox="0 0 16 16" fill="none" xmlns="http://www.w3.org/2000/svg">
<path d="M8.10065 6.99746L9.71114 1.33333L3.6665 9.00253H7.89903L6.28865 14.6667L12.3332 6.99746H8.10065Z" fill="url(#paint0_linear_1518_2702)"/>
<path d="M5.00031 5.20283C4.97375 5.20288 4.94744 5.19766 4.92291 5.18749C4.89838 5.17731 4.8761 5.16238 4.85737 5.14355L4.57773 4.8638C4.5409 4.82566 4.52053 4.77457 4.521 4.72155C4.52148 4.66853 4.54275 4.61782 4.58025 4.58033C4.61775 4.54285 4.66848 4.52159 4.7215 4.52114C4.77452 4.52069 4.82559 4.54108 4.86372 4.57793L5.14336 4.85768C5.17163 4.88597 5.19087 4.922 5.19866 4.96122C5.20645 5.00045 5.20244 5.0411 5.18713 5.07804C5.17182 5.11498 5.1459 5.14656 5.11264 5.16877C5.07939 5.19098 5.0403 5.20284 5.00031 5.20283Z" fill="white"/>
<path d="M4.16248 4.36462C4.1359 4.36465 4.10958 4.35943 4.08503 4.34926C4.06048 4.33908 4.03819 4.32416 4.01942 4.30534L3.14319 3.42899C3.12442 3.41022 3.10953 3.38794 3.09937 3.36341C3.08921 3.33889 3.08398 3.3126 3.08398 3.28605C3.08398 3.25951 3.08921 3.23322 3.09937 3.2087C3.10953 3.18417 3.12442 3.16189 3.14319 3.14311C3.16196 3.12434 3.18425 3.10945 3.20877 3.0993C3.2333 3.08914 3.25958 3.08391 3.28613 3.08391C3.31268 3.08391 3.33896 3.08914 3.36349 3.0993C3.38801 3.10945 3.4103 3.12434 3.42907 3.14311L4.30541 4.01946C4.33367 4.04774 4.35292 4.08376 4.36071 4.12298C4.36851 4.16219 4.3645 4.20283 4.3492 4.23977C4.33391 4.27671 4.308 4.30828 4.27477 4.3305C4.24153 4.35273 4.20246 4.3646 4.16248 4.36462Z" fill="white"/>
<path d="M11.2791 11.4814C11.2525 11.4814 11.2262 11.4762 11.2017 11.466C11.1771 11.4558 11.1549 11.4409 11.1361 11.4221L10.8565 11.1424C10.8377 11.1236 10.8228 11.1013 10.8127 11.0767C10.8025 11.0522 10.7973 11.0259 10.7974 10.9993C10.7974 10.9727 10.8027 10.9464 10.8128 10.9219C10.823 10.8973 10.838 10.875 10.8568 10.8563C10.8756 10.8375 10.8979 10.8226 10.9225 10.8125C10.947 10.8023 10.9733 10.7971 10.9999 10.7971C11.0265 10.7972 11.0528 10.8024 11.0773 10.8126C11.1019 10.8228 11.1242 10.8378 11.1429 10.8566L11.4226 11.1362C11.4508 11.1645 11.4701 11.2005 11.4779 11.2397C11.4857 11.2789 11.4817 11.3196 11.4664 11.3565C11.4511 11.3934 11.4252 11.425 11.3919 11.4472C11.3587 11.4695 11.3196 11.4813 11.2796 11.4814H11.2791Z" fill="white"/>
<path d="M12.7146 12.9163C12.6881 12.9163 12.6618 12.9111 12.6372 12.9009C12.6127 12.8907 12.5904 12.8758 12.5717 12.857L11.6954 11.9807C11.6767 11.9619 11.6618 11.9396 11.6516 11.9151C11.6415 11.8906 11.6362 11.8643 11.6362 11.8377C11.6362 11.8112 11.6415 11.7849 11.6516 11.7604C11.6618 11.7358 11.6767 11.7136 11.6954 11.6948C11.7142 11.676 11.7365 11.6611 11.761 11.651C11.7855 11.6408 11.8118 11.6356 11.8384 11.6356C11.8649 11.6356 11.8912 11.6408 11.9157 11.651C11.9403 11.6611 11.9625 11.676 11.9813 11.6948L12.8577 12.5711C12.8859 12.5994 12.9052 12.6354 12.913 12.6747C12.9208 12.7139 12.9167 12.7545 12.9014 12.7915C12.8861 12.8284 12.8602 12.86 12.8269 12.8822C12.7937 12.9044 12.7546 12.9163 12.7146 12.9163Z" fill="white"/>
<path d="M10.9994 5.20283C10.9595 5.20277 10.9204 5.19089 10.8872 5.16867C10.854 5.14644 10.8281 5.11488 10.8128 5.07796C10.7975 5.04104 10.7935 5.00042 10.8012 4.96121C10.809 4.92201 10.8282 4.88598 10.8564 4.85767L11.136 4.57792C11.1739 4.53998 11.2254 4.51865 11.279 4.51863C11.3326 4.51861 11.3841 4.53989 11.422 4.5778C11.4599 4.61571 11.4813 4.66714 11.4813 4.72078C11.4813 4.77441 11.46 4.82586 11.4221 4.8638L11.1429 5.14355C11.1241 5.16242 11.1018 5.17738 11.0771 5.18755C11.0525 5.19773 11.0261 5.20292 10.9994 5.20283Z" fill="white"/>
<path d="M11.8379 4.36461C11.7979 4.36459 11.7588 4.35272 11.7256 4.3305C11.6923 4.30828 11.6664 4.2767 11.6511 4.23976C11.6358 4.20283 11.6318 4.16218 11.6396 4.12297C11.6474 4.08376 11.6667 4.04774 11.6949 4.01946L12.5712 3.14311C12.5898 3.12379 12.6121 3.10838 12.6368 3.09778C12.6614 3.08718 12.688 3.08159 12.7148 3.08135C12.7417 3.08111 12.7683 3.08622 12.7932 3.09639C12.818 3.10655 12.8406 3.12156 12.8596 3.14054C12.8786 3.15953 12.8936 3.1821 12.9038 3.20695C12.9139 3.2318 12.9191 3.25843 12.9188 3.28528C12.9186 3.31213 12.913 3.33866 12.9024 3.36334C12.8919 3.38801 12.8765 3.41033 12.8571 3.42898L11.9808 4.30533C11.9621 4.32416 11.9398 4.33909 11.9153 4.34926C11.8907 4.35944 11.8644 4.36465 11.8379 4.36461Z" fill="white"/>
<path d="M4.72079 11.4813C4.6808 11.4813 4.6417 11.4695 4.60845 11.4473C4.5752 11.4251 4.54928 11.3935 4.53396 11.3566C4.51865 11.3196 4.51464 11.279 4.52243 11.2397C4.53022 11.2005 4.54946 11.1645 4.57773 11.1362L4.85737 10.8566C4.87618 10.8378 4.8985 10.8229 4.92306 10.8127C4.94763 10.8026 4.97395 10.7974 5.00053 10.7974C5.02711 10.7974 5.05342 10.8027 5.07797 10.8129C5.10251 10.8231 5.12481 10.838 5.14359 10.8568C5.16237 10.8756 5.17726 10.8979 5.18741 10.9225C5.19756 10.947 5.20278 10.9734 5.20275 10.9999C5.20273 11.0265 5.19748 11.0528 5.18729 11.0774C5.17709 11.1019 5.16217 11.1242 5.14336 11.143L4.86372 11.4226C4.84493 11.4413 4.82263 11.4562 4.7981 11.4662C4.77357 11.4763 4.7473 11.4814 4.72079 11.4813Z" fill="white"/>
<path d="M3.2861 12.9163C3.24612 12.9163 3.20704 12.9044 3.17381 12.8822C3.14057 12.8599 3.11467 12.8284 3.09937 12.7914C3.08407 12.7545 3.08007 12.7139 3.08786 12.6746C3.09566 12.6354 3.1149 12.5994 3.14316 12.5711L4.01939 11.6948C4.03804 11.6755 4.06035 11.66 4.08502 11.6494C4.10969 11.6388 4.13623 11.6333 4.16308 11.633C4.18993 11.6328 4.21655 11.6379 4.24141 11.6481C4.26626 11.6582 4.28884 11.6732 4.30783 11.6922C4.32682 11.7112 4.34184 11.7338 4.35202 11.7586C4.36219 11.7835 4.36731 11.8101 4.36708 11.8369C4.36686 11.8638 4.36128 11.8903 4.35069 11.915C4.3401 11.9397 4.3247 11.962 4.30539 11.9807L3.42904 12.857C3.4103 12.8758 3.38803 12.8908 3.3635 12.9009C3.33896 12.9111 3.31266 12.9163 3.2861 12.9163Z" fill="white"/>
<path d="M13.0685 11.049C13.0338 11.0489 12.9998 11.04 12.9696 11.023L11.5994 10.2533C11.5757 10.2405 11.5549 10.2232 11.538 10.2023C11.5212 10.1814 11.5086 10.1574 11.5012 10.1316C11.4937 10.1058 11.4914 10.0788 11.4945 10.0521C11.4976 10.0254 11.5059 9.99966 11.5191 9.97625C11.5322 9.95284 11.5499 9.93229 11.5711 9.91579C11.5923 9.89929 11.6165 9.88717 11.6424 9.88014C11.6683 9.8731 11.6954 9.8713 11.722 9.87484C11.7486 9.87837 11.7743 9.88717 11.7974 9.90072L13.1676 10.6702C13.2067 10.6921 13.2373 10.7263 13.2548 10.7675C13.2723 10.8087 13.2756 10.8545 13.2643 10.8977C13.2529 10.941 13.2276 10.9793 13.1922 11.0066C13.1567 11.034 13.1132 11.0488 13.0685 11.0487V11.049Z" fill="white"/>
<path d="M4.30142 6.12505C4.26677 6.12507 4.2327 6.11616 4.2025 6.09917L2.83229 5.32959C2.80866 5.31685 2.7878 5.29952 2.77094 5.27863C2.75408 5.25774 2.74154 5.2337 2.73407 5.20792C2.72659 5.18213 2.72433 5.15511 2.72741 5.12844C2.73048 5.10177 2.73884 5.07598 2.75199 5.05258C2.76514 5.02917 2.78282 5.00862 2.80399 4.99211C2.82517 4.97561 2.84942 4.96349 2.87533 4.95646C2.90124 4.94943 2.92829 4.94763 2.95491 4.95116C2.98152 4.9547 3.00716 4.96349 3.03034 4.97704L4.40056 5.74673C4.4396 5.7686 4.47029 5.80281 4.4878 5.84399C4.50531 5.88517 4.50865 5.931 4.49731 5.97429C4.48597 6.01758 4.46058 6.05588 4.42513 6.08318C4.38968 6.11049 4.34617 6.12526 4.30142 6.12517V6.12505Z" fill="white"/>
<path d="M5.15323 13.271C5.11796 13.271 5.08331 13.2617 5.05273 13.2442C5.02214 13.2266 4.99667 13.2014 4.97886 13.1709C4.96105 13.1405 4.9515 13.1059 4.95118 13.0707C4.95086 13.0354 4.95976 13.0007 4.97701 12.9699L5.74682 11.5994C5.77307 11.5527 5.81682 11.5183 5.86844 11.5038C5.92005 11.4893 5.97532 11.4959 6.02207 11.5221C6.06882 11.5484 6.10323 11.5921 6.11773 11.6438C6.13222 11.6954 6.12562 11.7506 6.09937 11.7974L5.3298 13.1678C5.31221 13.1992 5.28658 13.2253 5.25554 13.2434C5.2245 13.2616 5.18918 13.2711 5.15323 13.271Z" fill="white"/>
<path d="M10.0769 4.50373C10.0417 4.50369 10.0071 4.49442 9.97648 4.47686C9.94591 4.45929 9.92046 4.43404 9.90266 4.4036C9.88486 4.37316 9.87533 4.3386 9.87501 4.30334C9.87469 4.26809 9.8836 4.23336 9.90084 4.20261L10.6703 2.83227C10.6968 2.786 10.7405 2.75207 10.7919 2.73786C10.8433 2.72366 10.8982 2.73034 10.9448 2.75644C10.9913 2.78254 11.0256 2.82595 11.0402 2.87723C11.0549 2.9285 11.0487 2.98349 11.023 3.03021L10.2532 4.40055C10.2356 4.43185 10.21 4.45791 10.1791 4.47605C10.1481 4.49419 10.1128 4.50374 10.0769 4.50373Z" fill="white"/>
<path d="M2.93138 11.049C2.88664 11.049 2.84315 11.0342 2.80773 11.0069C2.7723 10.9796 2.74694 10.9413 2.7356 10.898C2.72427 10.8547 2.7276 10.8089 2.74509 10.7677C2.76258 10.7265 2.79322 10.6923 2.83223 10.6704L4.20245 9.90095C4.22564 9.8868 4.25144 9.87746 4.27832 9.8735C4.30519 9.86954 4.33259 9.87103 4.35888 9.87789C4.38517 9.88475 4.4098 9.89684 4.43131 9.91343C4.45282 9.93002 4.47077 9.95078 4.48408 9.97446C4.4974 9.99814 4.5058 10.0243 4.5088 10.0513C4.51179 10.0783 4.50931 10.1056 4.50151 10.1316C4.49371 10.1576 4.48075 10.1818 4.46339 10.2027C4.44604 10.2236 4.42465 10.2408 4.40051 10.2533L3.03029 11.023C3.0001 11.04 2.96603 11.0489 2.93138 11.049Z" fill="white"/>
<path d="M11.6984 6.12504C11.6537 6.12508 11.6102 6.1103 11.5748 6.083C11.5394 6.0557 11.514 6.01743 11.5027 5.97418C11.4914 5.93093 11.4947 5.88514 11.5122 5.84398C11.5296 5.80282 11.5603 5.76862 11.5992 5.74673L12.9695 4.97715C12.9926 4.9636 13.0183 4.9548 13.0449 4.95127C13.0715 4.94773 13.0986 4.94954 13.1245 4.95657C13.1504 4.9636 13.1746 4.97572 13.1958 4.99222C13.217 5.00872 13.2347 5.02928 13.2478 5.05268C13.261 5.07609 13.2693 5.10188 13.2724 5.12855C13.2755 5.15522 13.2732 5.18224 13.2657 5.20802C13.2583 5.23381 13.2457 5.25785 13.2289 5.27874C13.212 5.29963 13.1911 5.31695 13.1675 5.3297L11.7973 6.09916C11.7671 6.11615 11.733 6.12506 11.6984 6.12504Z" fill="white"/>
<path d="M10.8469 13.271C10.811 13.2711 10.7757 13.2615 10.7447 13.2434C10.7137 13.2253 10.688 13.1992 10.6705 13.1678L9.90089 11.7974C9.88789 11.7742 9.87958 11.7488 9.87643 11.7224C9.87328 11.6961 9.87535 11.6693 9.88252 11.6438C9.88969 11.6182 9.90183 11.5944 9.91824 11.5735C9.93464 11.5526 9.955 11.5352 9.97814 11.5222C10.0013 11.5092 10.0268 11.5009 10.0531 11.4977C10.0795 11.4946 10.1062 11.4967 10.1317 11.5038C10.1573 11.511 10.1812 11.5231 10.202 11.5395C10.2229 11.5559 10.2403 11.5763 10.2533 11.5994L11.023 12.9699C11.0403 13.0007 11.0492 13.0354 11.0489 13.0707C11.0485 13.1059 11.039 13.1405 11.0212 13.1709C11.0034 13.2014 10.9779 13.2266 10.9473 13.2442C10.9167 13.2617 10.8822 13.271 10.8469 13.271Z" fill="white"/>
<path d="M5.92297 4.50373C5.88707 4.50374 5.85183 4.49419 5.82086 4.47605C5.78988 4.45791 5.7643 4.43185 5.74675 4.40055L4.97717 3.03021C4.95148 2.98349 4.94528 2.9285 4.95993 2.87723C4.97458 2.82595 5.00889 2.78254 5.05539 2.75644C5.10189 2.73034 5.15682 2.72366 5.20822 2.73786C5.25962 2.75207 5.30333 2.786 5.32984 2.83227L6.0993 4.20261C6.11655 4.23336 6.12545 4.26809 6.12513 4.30334C6.12481 4.3386 6.11528 4.37316 6.09748 4.4036C6.07968 4.43404 6.05423 4.45929 6.02366 4.47686C5.99309 4.49442 5.95846 4.50369 5.9232 4.50373H5.92297Z" fill="white"/>
<defs>
<linearGradient id="paint0_linear_1518_2702" x1="4.36835" y1="0.907772" x2="12.8489" y2="2.78113" gradientUnits="userSpaceOnUse">
<stop stop-color="#0EB69D"/>
<stop offset="1" stop-color="#85E047"/>
</linearGradient>
</defs>
</svg>
