<svg width="32" height="32" viewBox="0 0 32 32" fill="none" xmlns="http://www.w3.org/2000/svg">
<path fill-rule="evenodd" clip-rule="evenodd" d="M18.7857 3.92851C18.7856 3.7304 18.7221 3.53753 18.6046 3.37807C18.487 3.2186 18.3215 3.10092 18.1323 3.0422C17.9431 2.98349 17.7401 2.98683 17.5529 3.05173C17.3658 3.11664 17.2042 3.2397 17.092 3.40294L6.87771 18.2601C6.78199 18.3995 6.72617 18.5624 6.71626 18.7312C6.70635 18.9001 6.74273 19.0684 6.82148 19.218C6.90023 19.3677 7.01835 19.493 7.1631 19.5805C7.30786 19.6679 7.47374 19.7142 7.64286 19.7142H13.2143V28.0714C13.2144 28.2695 13.2779 28.4624 13.3954 28.6218C13.513 28.7813 13.6785 28.899 13.8677 28.9577C14.0569 29.0164 14.2599 29.0131 14.4471 28.9481C14.6342 28.8832 14.7958 28.7602 14.908 28.5969L25.1223 13.7398C25.218 13.6004 25.2738 13.4375 25.2837 13.2686C25.2937 13.0998 25.2573 12.9315 25.1785 12.7818C25.0998 12.6322 24.9816 12.5069 24.8369 12.4194C24.6921 12.332 24.5263 12.2857 24.3571 12.2857H18.7857V3.92851Z" fill="white"/>
</svg>
