<svg width="358" height="45" viewBox="0 0 358 45" fill="none" xmlns="http://www.w3.org/2000/svg">
<path d="M322.933 30.36L320.885 30.776V11H327.317V35H318.965L305.109 15.256L307.125 14.84V35H300.693V11H309.269L322.933 30.36Z" fill="white"/>
<path d="M283.002 35.512C280.165 35.512 277.669 34.9894 275.514 33.944C273.381 32.8987 271.717 31.4374 270.522 29.56C269.349 27.6827 268.762 25.496 268.762 23C268.762 20.504 269.349 18.3174 270.522 16.44C271.717 14.5627 273.381 13.1014 275.514 12.056C277.669 11.0107 280.165 10.488 283.002 10.488C285.861 10.488 288.357 11.0107 290.49 12.056C292.624 13.1014 294.288 14.5627 295.482 16.44C296.677 18.3174 297.274 20.504 297.274 23C297.274 25.496 296.677 27.6827 295.482 29.56C294.288 31.4374 292.624 32.8987 290.49 33.944C288.357 34.9894 285.861 35.512 283.002 35.512ZM283.002 29.592C284.56 29.592 285.904 29.3254 287.034 28.792C288.165 28.2587 289.029 27.5014 289.626 26.52C290.245 25.5387 290.554 24.3654 290.554 23C290.554 21.6347 290.245 20.4614 289.626 19.48C289.029 18.4987 288.165 17.7414 287.034 17.208C285.904 16.6747 284.56 16.408 283.002 16.408C281.466 16.408 280.133 16.6747 279.002 17.208C277.872 17.7414 276.997 18.4987 276.378 19.48C275.76 20.4614 275.45 21.6347 275.45 23C275.45 24.3654 275.76 25.5387 276.378 26.52C276.997 27.5014 277.872 28.2587 279.002 28.792C280.133 29.3254 281.466 29.592 283.002 29.592Z" fill="white"/>
<path d="M252.127 35.512C249.29 35.512 246.794 34.9894 244.639 33.944C242.506 32.8987 240.842 31.4374 239.647 29.56C238.474 27.6827 237.887 25.496 237.887 23C237.887 20.504 238.474 18.3174 239.647 16.44C240.842 14.5627 242.506 13.1014 244.639 12.056C246.794 11.0107 249.29 10.488 252.127 10.488C254.986 10.488 257.482 11.0107 259.615 12.056C261.749 13.1014 263.413 14.5627 264.607 16.44C265.802 18.3174 266.399 20.504 266.399 23C266.399 25.496 265.802 27.6827 264.607 29.56C263.413 31.4374 261.749 32.8987 259.615 33.944C257.482 34.9894 254.986 35.512 252.127 35.512ZM252.127 29.592C253.685 29.592 255.029 29.3254 256.159 28.792C257.29 28.2587 258.154 27.5014 258.751 26.52C259.37 25.5387 259.679 24.3654 259.679 23C259.679 21.6347 259.37 20.4614 258.751 19.48C258.154 18.4987 257.29 17.7414 256.159 17.208C255.029 16.6747 253.685 16.408 252.127 16.408C250.591 16.408 249.258 16.6747 248.127 17.208C246.997 17.7414 246.122 18.4987 245.503 19.48C244.885 20.4614 244.575 21.6347 244.575 23C244.575 24.3654 244.885 25.5387 245.503 26.52C246.122 27.5014 246.997 28.2587 248.127 28.792C249.258 29.3254 250.591 29.592 252.127 29.592Z" fill="white"/>
<path d="M210.886 27.128H217.638C217.745 27.7894 218.054 28.3654 218.566 28.856C219.078 29.3467 219.761 29.7307 220.614 30.008C221.489 30.264 222.513 30.392 223.686 30.392C225.308 30.392 226.588 30.1894 227.526 29.784C228.465 29.3574 228.934 28.7387 228.934 27.928C228.934 27.3094 228.668 26.8294 228.134 26.488C227.601 26.1467 226.577 25.9014 225.062 25.752L220.582 25.336C217.276 25.0374 214.876 24.2907 213.382 23.096C211.889 21.88 211.142 20.248 211.142 18.2C211.142 16.536 211.622 15.128 212.582 13.976C213.564 12.824 214.929 11.96 216.678 11.384C218.449 10.7867 220.508 10.488 222.854 10.488C225.158 10.488 227.206 10.8187 228.998 11.48C230.79 12.12 232.209 13.0374 233.254 14.232C234.321 15.4267 234.897 16.8134 234.982 18.392H228.262C228.177 17.816 227.9 17.3254 227.43 16.92C226.982 16.4934 226.364 16.1734 225.574 15.96C224.785 15.7254 223.836 15.608 222.726 15.608C221.233 15.608 220.049 15.8107 219.174 16.216C218.3 16.6 217.862 17.176 217.862 17.944C217.862 18.4987 218.118 18.9467 218.63 19.288C219.164 19.6294 220.113 19.864 221.478 19.992L226.246 20.472C228.529 20.6854 230.353 21.0587 231.718 21.592C233.084 22.104 234.076 22.8187 234.694 23.736C235.313 24.6534 235.622 25.7947 235.622 27.16C235.622 28.8454 235.121 30.3174 234.118 31.576C233.116 32.8134 231.708 33.784 229.894 34.488C228.081 35.1707 225.969 35.512 223.558 35.512C221.084 35.512 218.897 35.1707 216.998 34.488C215.121 33.784 213.649 32.8027 212.582 31.544C211.516 30.264 210.95 28.792 210.886 27.128Z" fill="white"/>
<path d="M197.769 24.6C197.705 26.0507 197.407 27.4374 196.873 28.76C196.361 30.0614 195.604 31.224 194.601 32.248C193.62 33.272 192.383 34.072 190.889 34.648C189.417 35.224 187.7 35.512 185.737 35.512C183.86 35.512 182.1 35.2454 180.457 34.712C178.815 34.1574 177.364 33.3467 176.105 32.28C174.868 31.2134 173.897 29.9014 173.193 28.344C172.511 26.7867 172.169 25.0054 172.169 23C172.169 20.9947 172.521 19.2134 173.225 17.656C173.929 16.0987 174.911 14.7867 176.169 13.72C177.449 12.6534 178.921 11.8534 180.585 11.32C182.271 10.7654 184.105 10.488 186.089 10.488C188.735 10.488 191.017 10.8934 192.937 11.704C194.857 12.5147 196.404 13.624 197.577 15.032C198.751 16.44 199.508 18.072 199.849 19.928H193.161C192.948 19.1174 192.511 18.424 191.849 17.848C191.209 17.2507 190.399 16.8027 189.417 16.504C188.457 16.184 187.359 16.024 186.121 16.024C184.628 16.024 183.337 16.2907 182.249 16.824C181.161 17.336 180.319 18.1147 179.721 19.16C179.124 20.184 178.825 21.464 178.825 23C178.825 24.5574 179.145 25.8694 179.785 26.936C180.425 28.0027 181.332 28.8027 182.505 29.336C183.7 29.8694 185.097 30.136 186.697 30.136C188.255 30.136 189.631 29.9227 190.825 29.496C192.02 29.048 192.969 28.3974 193.673 27.544C194.399 26.6907 194.815 25.6667 194.921 24.472L197.769 24.6ZM187.337 27.256V22.584H200.073V35H195.369L194.441 25.496L195.689 27.256H187.337Z" fill="white"/>
<path d="M164.34 30.36L162.292 30.776V11H168.724V35H160.372L146.516 15.256L148.532 14.84V35H142.1V11H150.676L164.34 30.36Z" fill="white"/>
<path d="M131.006 11H137.63V35H131.006V11Z" fill="white"/>
<path d="M126.515 11V35H120.211V13.368L121.619 13.528L112.339 35H105.619L96.3074 13.592L97.7474 13.432V35H91.4434V11H101.683L110.291 31.608H107.731L116.275 11H126.515Z" fill="white"/>
<path d="M73.7522 35.512C70.9149 35.512 68.4189 34.9894 66.2642 33.944C64.1309 32.8987 62.4669 31.4374 61.2722 29.56C60.0989 27.6827 59.5122 25.496 59.5122 23C59.5122 20.504 60.0989 18.3174 61.2722 16.44C62.4669 14.5627 64.1309 13.1014 66.2642 12.056C68.4189 11.0107 70.9149 10.488 73.7522 10.488C76.6109 10.488 79.1069 11.0107 81.2402 12.056C83.3735 13.1014 85.0375 14.5627 86.2322 16.44C87.4269 18.3174 88.0242 20.504 88.0242 23C88.0242 25.496 87.4269 27.6827 86.2322 29.56C85.0375 31.4374 83.3735 32.8987 81.2402 33.944C79.1069 34.9894 76.6109 35.512 73.7522 35.512ZM73.7522 29.592C75.3095 29.592 76.6535 29.3254 77.7842 28.792C78.9149 28.2587 79.7789 27.5014 80.3762 26.52C80.9949 25.5387 81.3042 24.3654 81.3042 23C81.3042 21.6347 80.9949 20.4614 80.3762 19.48C79.7789 18.4987 78.9149 17.7414 77.7842 17.208C76.6535 16.6747 75.3095 16.408 73.7522 16.408C72.2162 16.408 70.8829 16.6747 69.7522 17.208C68.6215 17.7414 67.7469 18.4987 67.1282 19.48C66.5095 20.4614 66.2002 21.6347 66.2002 23C66.2002 24.3654 66.5095 25.5387 67.1282 26.52C67.7469 27.5014 68.6215 28.2587 69.7522 28.792C70.8829 29.3254 72.2162 29.592 73.7522 29.592Z" fill="white"/>
<path d="M57.3492 24.952C57.1145 27.064 56.3892 28.92 55.1732 30.52C53.9572 32.0987 52.3572 33.3254 50.3732 34.2C48.4105 35.0747 46.1492 35.512 43.5892 35.512C40.7945 35.512 38.3519 34.9894 36.2612 33.944C34.1705 32.8987 32.5385 31.4374 31.3652 29.56C30.2132 27.6827 29.6372 25.496 29.6372 23C29.6372 20.504 30.2132 18.3174 31.3652 16.44C32.5385 14.5627 34.1705 13.1014 36.2612 12.056C38.3519 11.0107 40.7945 10.488 43.5892 10.488C46.1492 10.488 48.4105 10.9254 50.3732 11.8C52.3572 12.6747 53.9572 13.912 55.1732 15.512C56.3892 17.0907 57.1145 18.936 57.3492 21.048H50.6932C50.4799 20.024 50.0639 19.16 49.4452 18.456C48.8265 17.7307 48.0159 17.176 47.0132 16.792C46.0319 16.408 44.8905 16.216 43.5892 16.216C42.0959 16.216 40.8052 16.4934 39.7172 17.048C38.6292 17.5814 37.7972 18.36 37.2212 19.384C36.6452 20.3867 36.3572 21.592 36.3572 23C36.3572 24.408 36.6452 25.624 37.2212 26.648C37.7972 27.6507 38.6292 28.4294 39.7172 28.984C40.8052 29.5174 42.0959 29.784 43.5892 29.784C44.8905 29.784 46.0319 29.6027 47.0132 29.24C48.0159 28.8774 48.8265 28.3334 49.4452 27.608C50.0639 26.8827 50.4799 25.9974 50.6932 24.952H57.3492Z" fill="white"/>
</svg>
