<svg width="390" height="182" viewBox="0 0 390 182" fill="none" xmlns="http://www.w3.org/2000/svg">
<g clip-path="url(#clip0_6581_1587)">
<path d="M280 54C280 70.5685 293.431 84 310 84C326.569 84 340 70.5685 340 54C340 37.4315 326.569 24 310 24C293.431 24 280 37.4315 280 54Z" stroke="url(#paint0_linear_6581_1587)"/>
<path d="M288 62C288 78.5685 301.431 92 318 92C334.569 92 348 78.5685 348 62C348 45.4315 334.569 32 318 32C301.431 32 288 45.4315 288 62Z" stroke="url(#paint1_linear_6581_1587)"/>
<path d="M256 112C256 123.046 264.954 132 276 132C287.046 132 296 123.046 296 112C296 100.954 287.046 92 276 92C264.954 92 256 100.954 256 112Z" stroke="url(#paint2_linear_6581_1587)"/>
<path d="M264 120C264 131.046 272.954 140 284 140C295.046 140 304 131.046 304 120C304 108.954 295.046 100 284 100C272.954 100 264 108.954 264 120Z" stroke="url(#paint3_linear_6581_1587)"/>
<path d="M272 128C272 139.046 280.954 148 292 148C303.046 148 312 139.046 312 128C312 116.954 303.046 108 292 108C280.954 108 272 116.954 272 128Z" stroke="url(#paint4_linear_6581_1587)"/>
<path d="M280 136C280 147.046 288.954 156 300 156C311.046 156 320 147.046 320 136C320 124.954 311.046 116 300 116C288.954 116 280 124.954 280 136Z" stroke="url(#paint5_linear_6581_1587)"/>
<path d="M288 144C288 155.046 296.954 164 308 164C319.046 164 328 155.046 328 144C328 132.954 319.046 124 308 124C296.954 124 288 132.954 288 144Z" stroke="url(#paint6_linear_6581_1587)"/>
<path d="M296 152C296 163.046 304.954 172 316 172C327.046 172 336 163.046 336 152C336 140.954 327.046 132 316 132C304.954 132 296 140.954 296 152Z" stroke="url(#paint7_linear_6581_1587)"/>
<path d="M304 160C304 171.046 312.954 180 324 180C335.046 180 344 171.046 344 160C344 148.954 335.046 140 324 140C312.954 140 304 148.954 304 160Z" stroke="url(#paint8_linear_6581_1587)"/>
<path d="M312 168C312 179.046 320.954 188 332 188C343.046 188 352 179.046 352 168C352 156.954 343.046 148 332 148C320.954 148 312 156.954 312 168Z" stroke="url(#paint9_linear_6581_1587)"/>
<path d="M320 176C320 187.046 328.954 196 340 196C351.046 196 360 187.046 360 176C360 164.954 351.046 156 340 156C328.954 156 320 164.954 320 176Z" stroke="url(#paint10_linear_6581_1587)"/>
<path d="M328 184C328 195.046 336.954 204 348 204C359.046 204 368 195.046 368 184C368 172.954 359.046 164 348 164C336.954 164 328 172.954 328 184Z" stroke="url(#paint11_linear_6581_1587)"/>
<path d="M336 192C336 203.046 344.954 212 356 212C367.046 212 376 203.046 376 192C376 180.954 367.046 172 356 172C344.954 172 336 180.954 336 192Z" stroke="url(#paint12_linear_6581_1587)"/>
<path d="M344 200C344 211.046 352.954 220 364 220C375.046 220 384 211.046 384 200C384 188.954 375.046 180 364 180C352.954 180 344 188.954 344 200Z" stroke="url(#paint13_linear_6581_1587)"/>
<path d="M352 208C352 219.046 360.954 228 372 228C383.046 228 392 219.046 392 208C392 196.954 383.046 188 372 188C360.954 188 352 196.954 352 208Z" stroke="url(#paint14_linear_6581_1587)"/>
<path d="M360 216C360 227.046 368.954 236 380 236C391.046 236 400 227.046 400 216C400 204.954 391.046 196 380 196C368.954 196 360 204.954 360 216Z" stroke="url(#paint15_linear_6581_1587)"/>
<path d="M368 224C368 235.046 376.954 244 388 244C399.046 244 408 235.046 408 224C408 212.954 399.046 204 388 204C376.954 204 368 212.954 368 224Z" stroke="url(#paint16_linear_6581_1587)"/>
<path d="M296 70C296 86.5685 309.431 100 326 100C342.569 100 356 86.5685 356 70C356 53.4315 342.569 40 326 40C309.431 40 296 53.4315 296 70Z" stroke="url(#paint17_linear_6581_1587)"/>
<path d="M304 78C304 94.5685 317.431 108 334 108C350.569 108 364 94.5685 364 78C364 61.4315 350.569 48 334 48C317.431 48 304 61.4315 304 78Z" stroke="url(#paint18_linear_6581_1587)"/>
<path d="M312 86C312 102.569 325.431 116 342 116C358.569 116 372 102.569 372 86C372 69.4315 358.569 56 342 56C325.431 56 312 69.4315 312 86Z" stroke="url(#paint19_linear_6581_1587)"/>
<path d="M320 94C320 110.569 333.431 124 350 124C366.569 124 380 110.569 380 94C380 77.4315 366.569 64 350 64C333.431 64 320 77.4315 320 94Z" stroke="url(#paint20_linear_6581_1587)"/>
<path d="M328 102C328 118.569 341.431 132 358 132C374.569 132 388 118.569 388 102C388 85.4315 374.569 72 358 72C341.431 72 328 85.4315 328 102Z" stroke="url(#paint21_linear_6581_1587)"/>
<path d="M336 110C336 126.569 349.431 140 366 140C382.569 140 396 126.569 396 110C396 93.4315 382.569 80 366 80C349.431 80 336 93.4315 336 110Z" stroke="url(#paint22_linear_6581_1587)"/>
<path d="M344 118C344 134.569 357.431 148 374 148C390.569 148 404 134.569 404 118C404 101.431 390.569 88 374 88C357.431 88 344 101.431 344 118Z" stroke="url(#paint23_linear_6581_1587)"/>
<path d="M352 126C352 142.569 365.431 156 382 156C398.569 156 412 142.569 412 126C412 109.431 398.569 96 382 96C365.431 96 352 109.431 352 126Z" stroke="url(#paint24_linear_6581_1587)"/>
<path d="M360 134C360 150.569 373.431 164 390 164C406.569 164 420 150.569 420 134C420 117.431 406.569 104 390 104C373.431 104 360 117.431 360 134Z" stroke="url(#paint25_linear_6581_1587)"/>
<path d="M368 142C368 158.569 381.431 172 398 172C414.569 172 428 158.569 428 142C428 125.431 414.569 112 398 112C381.431 112 368 125.431 368 142Z" stroke="url(#paint26_linear_6581_1587)"/>
<path d="M376 150C376 166.569 389.431 180 406 180C422.569 180 436 166.569 436 150C436 133.431 422.569 120 406 120C389.431 120 376 133.431 376 150Z" stroke="url(#paint27_linear_6581_1587)"/>
<path d="M384 158C384 174.569 397.431 188 414 188C430.569 188 444 174.569 444 158C444 141.431 430.569 128 414 128C397.431 128 384 141.431 384 158Z" stroke="url(#paint28_linear_6581_1587)"/>
<path d="M392 166C392 182.569 405.431 196 422 196C438.569 196 452 182.569 452 166C452 149.431 438.569 136 422 136C405.431 136 392 149.431 392 166Z" stroke="url(#paint29_linear_6581_1587)"/>
<path d="M400 174C400 190.569 413.431 204 430 204C446.569 204 460 190.569 460 174C460 157.431 446.569 144 430 144C413.431 144 400 157.431 400 174Z" stroke="url(#paint30_linear_6581_1587)"/>
<g filter="url(#filter0_d_6581_1587)">
<path d="M310 84C293.431 84 280 70.5685 280 54C280 37.4315 293.431 24 310 24C326.569 24 340 37.4315 340 54C340 70.5685 326.569 84 310 84Z" fill="#85E047"/>
<path d="M310 80.1738C295.545 80.1738 283.826 68.4554 283.826 54C283.826 39.5447 295.545 27.8263 310 27.8263C324.455 27.8263 336.174 39.5447 336.174 54C336.174 68.4554 324.455 80.1738 310 80.1738Z" fill="#4B891F"/>
<path d="M310 79C296.193 79 285 67.8071 285 54C285 40.1929 296.193 29 310 29C323.807 29 335 40.1929 335 54C335 67.8071 323.807 79 310 79Z" fill="#74C23E"/>
<path d="M291.25 56.5C291.25 52.8575 300.705 51.8662 306.25 51.5987V47.75H295V40.25H325V47.75H313.75V51.5987C319.295 51.8662 328.75 52.8575 328.75 56.5C328.75 60.1425 319.295 61.1337 313.75 61.4012V72.75H306.25V61.4012C300.705 61.1337 291.25 60.1425 291.25 56.5ZM310 59C319.25 59 325.059 57.4725 326.145 56.5C325.214 55.6662 320.806 54.4288 313.75 54.0913V56.5H306.25V54.0913C299.194 54.4288 294.786 55.6662 293.855 56.5C294.941 57.4725 300.75 59 310 59Z" fill="white"/>
</g>
<g filter="url(#filter1_d_6581_1587)">
<path d="M276 132C264.954 132 256 123.046 256 112C256 100.954 264.954 92 276 92C287.046 92 296 100.954 296 112C296 123.046 287.046 132 276 132Z" fill="#85E047"/>
<path d="M276 129.449C266.363 129.449 258.551 121.637 258.551 112C258.551 102.363 266.363 94.5509 276 94.5509C285.637 94.5509 293.449 102.363 293.449 112C293.449 121.637 285.637 129.449 276 129.449Z" fill="#4B891F"/>
<path d="M276 128.667C266.795 128.667 259.333 121.205 259.333 112C259.333 102.795 266.795 95.3333 276 95.3333C285.205 95.3333 292.667 102.795 292.667 112C292.667 121.205 285.205 128.667 276 128.667Z" fill="#74C23E"/>
<path d="M263.5 113.667C263.5 111.238 269.803 110.577 273.5 110.399V107.833H266V102.833H286V107.833H278.5V110.399C282.197 110.577 288.5 111.238 288.5 113.667C288.5 116.095 282.197 116.756 278.5 116.934V124.5H273.5V116.934C269.803 116.756 263.5 116.095 263.5 113.667ZM276 115.333C282.167 115.333 286.039 114.315 286.763 113.667C286.143 113.111 283.204 112.286 278.5 112.061V113.667H273.5V112.061C268.796 112.286 265.857 113.111 265.237 113.667C265.961 114.315 269.833 115.333 276 115.333Z" fill="white"/>
</g>
<path fill-rule="evenodd" clip-rule="evenodd" d="M268.332 152.468C268.559 151.844 269.441 151.844 269.668 152.468L270.699 155.301L273.532 156.332C274.156 156.559 274.156 157.441 273.532 157.668L270.699 158.699L269.668 161.532C269.441 162.156 268.559 162.156 268.332 161.532L267.301 158.699L264.468 157.668C263.844 157.441 263.844 156.559 264.468 156.332L267.301 155.301L268.332 152.468Z" fill="#85E047"/>
<path fill-rule="evenodd" clip-rule="evenodd" d="M266.618 67.4102C266.748 67.0539 267.252 67.0539 267.382 67.4102L267.971 69.0294L269.59 69.6184C269.946 69.7482 269.946 70.2519 269.59 70.3817L267.971 70.9706L267.382 72.5898C267.252 72.9462 266.748 72.9462 266.618 72.5898L266.029 70.9706L264.41 70.3817C264.054 70.2519 264.054 69.7482 264.41 69.6184L266.029 69.0294L266.618 67.4102Z" fill="#85E047"/>
<g clip-path="url(#clip1_6581_1587)">
<path fill-rule="evenodd" clip-rule="evenodd" d="M257.618 141.41C257.748 141.054 258.252 141.054 258.382 141.41L258.971 143.029L260.59 143.618C260.946 143.748 260.946 144.252 260.59 144.382L258.971 144.971L258.382 146.59C258.252 146.946 257.748 146.946 257.618 146.59L257.029 144.971L255.41 144.382C255.054 144.252 255.054 143.748 255.41 143.618L257.029 143.029L257.618 141.41Z" stroke="#85E047" stroke-width="0.5"/>
</g>
<path fill-rule="evenodd" clip-rule="evenodd" d="M354.237 24.8205C354.496 24.1078 355.504 24.1078 355.763 24.8205L356.941 28.0589L360.179 29.2368C360.892 29.4964 360.892 30.5038 360.179 30.7633L356.941 31.9413L355.763 35.1797C355.504 35.8923 354.496 35.8923 354.237 35.1797L353.059 31.9413L349.82 30.7633C349.108 30.5038 349.108 29.4964 349.82 29.2368L353.059 28.0589L354.237 24.8205Z" stroke="#85E047" stroke-width="0.5"/>
</g>
<defs>
<filter id="filter0_d_6581_1587" x="256" y="0" width="108" height="108" filterUnits="userSpaceOnUse" color-interpolation-filters="sRGB">
<feFlood flood-opacity="0" result="BackgroundImageFix"/>
<feColorMatrix in="SourceAlpha" type="matrix" values="0 0 0 0 0 0 0 0 0 0 0 0 0 0 0 0 0 0 127 0" result="hardAlpha"/>
<feOffset/>
<feGaussianBlur stdDeviation="12"/>
<feComposite in2="hardAlpha" operator="out"/>
<feColorMatrix type="matrix" values="0 0 0 0 0.521569 0 0 0 0 0.878431 0 0 0 0 0.278431 0 0 0 0.4 0"/>
<feBlend mode="normal" in2="BackgroundImageFix" result="effect1_dropShadow_6581_1587"/>
<feBlend mode="normal" in="SourceGraphic" in2="effect1_dropShadow_6581_1587" result="shape"/>
</filter>
<filter id="filter1_d_6581_1587" x="232" y="68" width="88" height="88" filterUnits="userSpaceOnUse" color-interpolation-filters="sRGB">
<feFlood flood-opacity="0" result="BackgroundImageFix"/>
<feColorMatrix in="SourceAlpha" type="matrix" values="0 0 0 0 0 0 0 0 0 0 0 0 0 0 0 0 0 0 127 0" result="hardAlpha"/>
<feOffset/>
<feGaussianBlur stdDeviation="12"/>
<feComposite in2="hardAlpha" operator="out"/>
<feColorMatrix type="matrix" values="0 0 0 0 0.521569 0 0 0 0 0.878431 0 0 0 0 0.278431 0 0 0 0.4 0"/>
<feBlend mode="normal" in2="BackgroundImageFix" result="effect1_dropShadow_6581_1587"/>
<feBlend mode="normal" in="SourceGraphic" in2="effect1_dropShadow_6581_1587" result="shape"/>
</filter>
<linearGradient id="paint0_linear_6581_1587" x1="348" y1="166" x2="316.5" y2="84" gradientUnits="userSpaceOnUse">
<stop stop-color="#363738" stop-opacity="0"/>
<stop offset="1" stop-color="#363738"/>
</linearGradient>
<linearGradient id="paint1_linear_6581_1587" x1="348" y1="166" x2="316.5" y2="84" gradientUnits="userSpaceOnUse">
<stop stop-color="#363738" stop-opacity="0"/>
<stop offset="1" stop-color="#363738"/>
</linearGradient>
<linearGradient id="paint2_linear_6581_1587" x1="348" y1="166" x2="316.5" y2="84" gradientUnits="userSpaceOnUse">
<stop stop-color="#363738" stop-opacity="0"/>
<stop offset="1" stop-color="#363738"/>
</linearGradient>
<linearGradient id="paint3_linear_6581_1587" x1="348" y1="166" x2="316.5" y2="84" gradientUnits="userSpaceOnUse">
<stop stop-color="#363738" stop-opacity="0"/>
<stop offset="1" stop-color="#363738"/>
</linearGradient>
<linearGradient id="paint4_linear_6581_1587" x1="348" y1="166" x2="316.5" y2="84" gradientUnits="userSpaceOnUse">
<stop stop-color="#363738" stop-opacity="0"/>
<stop offset="1" stop-color="#363738"/>
</linearGradient>
<linearGradient id="paint5_linear_6581_1587" x1="348" y1="166" x2="316.5" y2="84" gradientUnits="userSpaceOnUse">
<stop stop-color="#363738" stop-opacity="0"/>
<stop offset="1" stop-color="#363738"/>
</linearGradient>
<linearGradient id="paint6_linear_6581_1587" x1="348" y1="166" x2="316.5" y2="84" gradientUnits="userSpaceOnUse">
<stop stop-color="#363738" stop-opacity="0"/>
<stop offset="1" stop-color="#363738"/>
</linearGradient>
<linearGradient id="paint7_linear_6581_1587" x1="348" y1="166" x2="316.5" y2="84" gradientUnits="userSpaceOnUse">
<stop stop-color="#363738" stop-opacity="0"/>
<stop offset="1" stop-color="#363738"/>
</linearGradient>
<linearGradient id="paint8_linear_6581_1587" x1="348" y1="166" x2="316.5" y2="84" gradientUnits="userSpaceOnUse">
<stop stop-color="#363738" stop-opacity="0"/>
<stop offset="1" stop-color="#363738"/>
</linearGradient>
<linearGradient id="paint9_linear_6581_1587" x1="348" y1="166" x2="316.5" y2="84" gradientUnits="userSpaceOnUse">
<stop stop-color="#363738" stop-opacity="0"/>
<stop offset="1" stop-color="#363738"/>
</linearGradient>
<linearGradient id="paint10_linear_6581_1587" x1="348" y1="166" x2="316.5" y2="84" gradientUnits="userSpaceOnUse">
<stop stop-color="#363738" stop-opacity="0"/>
<stop offset="1" stop-color="#363738"/>
</linearGradient>
<linearGradient id="paint11_linear_6581_1587" x1="348" y1="166" x2="316.5" y2="84" gradientUnits="userSpaceOnUse">
<stop stop-color="#363738" stop-opacity="0"/>
<stop offset="1" stop-color="#363738"/>
</linearGradient>
<linearGradient id="paint12_linear_6581_1587" x1="348" y1="166" x2="316.5" y2="84" gradientUnits="userSpaceOnUse">
<stop stop-color="#363738" stop-opacity="0"/>
<stop offset="1" stop-color="#363738"/>
</linearGradient>
<linearGradient id="paint13_linear_6581_1587" x1="348" y1="166" x2="316.5" y2="84" gradientUnits="userSpaceOnUse">
<stop stop-color="#363738" stop-opacity="0"/>
<stop offset="1" stop-color="#363738"/>
</linearGradient>
<linearGradient id="paint14_linear_6581_1587" x1="348" y1="166" x2="316.5" y2="84" gradientUnits="userSpaceOnUse">
<stop stop-color="#363738" stop-opacity="0"/>
<stop offset="1" stop-color="#363738"/>
</linearGradient>
<linearGradient id="paint15_linear_6581_1587" x1="348" y1="166" x2="316.5" y2="84" gradientUnits="userSpaceOnUse">
<stop stop-color="#363738" stop-opacity="0"/>
<stop offset="1" stop-color="#363738"/>
</linearGradient>
<linearGradient id="paint16_linear_6581_1587" x1="348" y1="166" x2="316.5" y2="84" gradientUnits="userSpaceOnUse">
<stop stop-color="#363738" stop-opacity="0"/>
<stop offset="1" stop-color="#363738"/>
</linearGradient>
<linearGradient id="paint17_linear_6581_1587" x1="348" y1="166" x2="316.5" y2="84" gradientUnits="userSpaceOnUse">
<stop stop-color="#363738" stop-opacity="0"/>
<stop offset="1" stop-color="#363738"/>
</linearGradient>
<linearGradient id="paint18_linear_6581_1587" x1="348" y1="166" x2="316.5" y2="84" gradientUnits="userSpaceOnUse">
<stop stop-color="#363738" stop-opacity="0"/>
<stop offset="1" stop-color="#363738"/>
</linearGradient>
<linearGradient id="paint19_linear_6581_1587" x1="348" y1="166" x2="316.5" y2="84" gradientUnits="userSpaceOnUse">
<stop stop-color="#363738" stop-opacity="0"/>
<stop offset="1" stop-color="#363738"/>
</linearGradient>
<linearGradient id="paint20_linear_6581_1587" x1="348" y1="166" x2="316.5" y2="84" gradientUnits="userSpaceOnUse">
<stop stop-color="#363738" stop-opacity="0"/>
<stop offset="1" stop-color="#363738"/>
</linearGradient>
<linearGradient id="paint21_linear_6581_1587" x1="348" y1="166" x2="316.5" y2="84" gradientUnits="userSpaceOnUse">
<stop stop-color="#363738" stop-opacity="0"/>
<stop offset="1" stop-color="#363738"/>
</linearGradient>
<linearGradient id="paint22_linear_6581_1587" x1="348" y1="166" x2="316.5" y2="84" gradientUnits="userSpaceOnUse">
<stop stop-color="#363738" stop-opacity="0"/>
<stop offset="1" stop-color="#363738"/>
</linearGradient>
<linearGradient id="paint23_linear_6581_1587" x1="348" y1="166" x2="316.5" y2="84" gradientUnits="userSpaceOnUse">
<stop stop-color="#363738" stop-opacity="0"/>
<stop offset="1" stop-color="#363738"/>
</linearGradient>
<linearGradient id="paint24_linear_6581_1587" x1="348" y1="166" x2="316.5" y2="84" gradientUnits="userSpaceOnUse">
<stop stop-color="#363738" stop-opacity="0"/>
<stop offset="1" stop-color="#363738"/>
</linearGradient>
<linearGradient id="paint25_linear_6581_1587" x1="348" y1="166" x2="316.5" y2="84" gradientUnits="userSpaceOnUse">
<stop stop-color="#363738" stop-opacity="0"/>
<stop offset="1" stop-color="#363738"/>
</linearGradient>
<linearGradient id="paint26_linear_6581_1587" x1="348" y1="166" x2="316.5" y2="84" gradientUnits="userSpaceOnUse">
<stop stop-color="#363738" stop-opacity="0"/>
<stop offset="1" stop-color="#363738"/>
</linearGradient>
<linearGradient id="paint27_linear_6581_1587" x1="348" y1="166" x2="316.5" y2="84" gradientUnits="userSpaceOnUse">
<stop stop-color="#363738" stop-opacity="0"/>
<stop offset="1" stop-color="#363738"/>
</linearGradient>
<linearGradient id="paint28_linear_6581_1587" x1="348" y1="166" x2="316.5" y2="84" gradientUnits="userSpaceOnUse">
<stop stop-color="#363738" stop-opacity="0"/>
<stop offset="1" stop-color="#363738"/>
</linearGradient>
<linearGradient id="paint29_linear_6581_1587" x1="348" y1="166" x2="316.5" y2="84" gradientUnits="userSpaceOnUse">
<stop stop-color="#363738" stop-opacity="0"/>
<stop offset="1" stop-color="#363738"/>
</linearGradient>
<linearGradient id="paint30_linear_6581_1587" x1="348" y1="166" x2="316.5" y2="84" gradientUnits="userSpaceOnUse">
<stop stop-color="#363738" stop-opacity="0"/>
<stop offset="1" stop-color="#363738"/>
</linearGradient>
<clipPath id="clip0_6581_1587">
<rect width="390" height="182" fill="white" transform="matrix(-1 0 0 1 390 0)"/>
</clipPath>
<clipPath id="clip1_6581_1587">
<rect width="8" height="8" fill="white" transform="matrix(-1 0 0 1 262 140)"/>
</clipPath>
</defs>
</svg>
