<svg width="188" height="182" viewBox="0 0 188 182" fill="none" xmlns="http://www.w3.org/2000/svg">
<g clip-path="url(#clip0_6900_3301)">
<path d="M78 54C78 70.5685 91.4315 84 108 84C124.569 84 138 70.5685 138 54C138 37.4315 124.569 24 108 24C91.4315 24 78 37.4315 78 54Z" stroke="url(#paint0_linear_6900_3301)"/>
<path d="M86 62C86 78.5685 99.4315 92 116 92C132.569 92 146 78.5685 146 62C146 45.4315 132.569 32 116 32C99.4315 32 86 45.4315 86 62Z" stroke="url(#paint1_linear_6900_3301)"/>
<path d="M54 112C54 123.046 62.9543 132 74 132C85.0457 132 94 123.046 94 112C94 100.954 85.0457 92 74 92C62.9543 92 54 100.954 54 112Z" stroke="url(#paint2_linear_6900_3301)"/>
<path d="M62 120C62 131.046 70.9543 140 82 140C93.0457 140 102 131.046 102 120C102 108.954 93.0457 100 82 100C70.9543 100 62 108.954 62 120Z" stroke="url(#paint3_linear_6900_3301)"/>
<path d="M70 128C70 139.046 78.9543 148 90 148C101.046 148 110 139.046 110 128C110 116.954 101.046 108 90 108C78.9543 108 70 116.954 70 128Z" stroke="url(#paint4_linear_6900_3301)"/>
<path d="M78 136C78 147.046 86.9543 156 98 156C109.046 156 118 147.046 118 136C118 124.954 109.046 116 98 116C86.9543 116 78 124.954 78 136Z" stroke="url(#paint5_linear_6900_3301)"/>
<path d="M86 144C86 155.046 94.9543 164 106 164C117.046 164 126 155.046 126 144C126 132.954 117.046 124 106 124C94.9543 124 86 132.954 86 144Z" stroke="url(#paint6_linear_6900_3301)"/>
<path d="M94 152C94 163.046 102.954 172 114 172C125.046 172 134 163.046 134 152C134 140.954 125.046 132 114 132C102.954 132 94 140.954 94 152Z" stroke="url(#paint7_linear_6900_3301)"/>
<path d="M102 160C102 171.046 110.954 180 122 180C133.046 180 142 171.046 142 160C142 148.954 133.046 140 122 140C110.954 140 102 148.954 102 160Z" stroke="url(#paint8_linear_6900_3301)"/>
<path d="M110 168C110 179.046 118.954 188 130 188C141.046 188 150 179.046 150 168C150 156.954 141.046 148 130 148C118.954 148 110 156.954 110 168Z" stroke="url(#paint9_linear_6900_3301)"/>
<path d="M118 176C118 187.046 126.954 196 138 196C149.046 196 158 187.046 158 176C158 164.954 149.046 156 138 156C126.954 156 118 164.954 118 176Z" stroke="url(#paint10_linear_6900_3301)"/>
<path d="M126 184C126 195.046 134.954 204 146 204C157.046 204 166 195.046 166 184C166 172.954 157.046 164 146 164C134.954 164 126 172.954 126 184Z" stroke="url(#paint11_linear_6900_3301)"/>
<path d="M134 192C134 203.046 142.954 212 154 212C165.046 212 174 203.046 174 192C174 180.954 165.046 172 154 172C142.954 172 134 180.954 134 192Z" stroke="url(#paint12_linear_6900_3301)"/>
<path d="M142 200C142 211.046 150.954 220 162 220C173.046 220 182 211.046 182 200C182 188.954 173.046 180 162 180C150.954 180 142 188.954 142 200Z" stroke="url(#paint13_linear_6900_3301)"/>
<path d="M150 208C150 219.046 158.954 228 170 228C181.046 228 190 219.046 190 208C190 196.954 181.046 188 170 188C158.954 188 150 196.954 150 208Z" stroke="url(#paint14_linear_6900_3301)"/>
<path d="M158 216C158 227.046 166.954 236 178 236C189.046 236 198 227.046 198 216C198 204.954 189.046 196 178 196C166.954 196 158 204.954 158 216Z" stroke="url(#paint15_linear_6900_3301)"/>
<path d="M166 224C166 235.046 174.954 244 186 244C197.046 244 206 235.046 206 224C206 212.954 197.046 204 186 204C174.954 204 166 212.954 166 224Z" stroke="url(#paint16_linear_6900_3301)"/>
<path d="M94 70C94 86.5685 107.431 100 124 100C140.569 100 154 86.5685 154 70C154 53.4315 140.569 40 124 40C107.431 40 94 53.4315 94 70Z" stroke="url(#paint17_linear_6900_3301)"/>
<path d="M102 78C102 94.5685 115.431 108 132 108C148.569 108 162 94.5685 162 78C162 61.4315 148.569 48 132 48C115.431 48 102 61.4315 102 78Z" stroke="url(#paint18_linear_6900_3301)"/>
<path d="M110 86C110 102.569 123.431 116 140 116C156.569 116 170 102.569 170 86C170 69.4315 156.569 56 140 56C123.431 56 110 69.4315 110 86Z" stroke="url(#paint19_linear_6900_3301)"/>
<path d="M118 94C118 110.569 131.431 124 148 124C164.569 124 178 110.569 178 94C178 77.4315 164.569 64 148 64C131.431 64 118 77.4315 118 94Z" stroke="url(#paint20_linear_6900_3301)"/>
<path d="M126 102C126 118.569 139.431 132 156 132C172.569 132 186 118.569 186 102C186 85.4315 172.569 72 156 72C139.431 72 126 85.4315 126 102Z" stroke="url(#paint21_linear_6900_3301)"/>
<path d="M134 110C134 126.569 147.431 140 164 140C180.569 140 194 126.569 194 110C194 93.4315 180.569 80 164 80C147.431 80 134 93.4315 134 110Z" stroke="url(#paint22_linear_6900_3301)"/>
<path d="M142 118C142 134.569 155.431 148 172 148C188.569 148 202 134.569 202 118C202 101.431 188.569 88 172 88C155.431 88 142 101.431 142 118Z" stroke="url(#paint23_linear_6900_3301)"/>
<path d="M150 126C150 142.569 163.431 156 180 156C196.569 156 210 142.569 210 126C210 109.431 196.569 96 180 96C163.431 96 150 109.431 150 126Z" stroke="url(#paint24_linear_6900_3301)"/>
<path d="M158 134C158 150.569 171.431 164 188 164C204.569 164 218 150.569 218 134C218 117.431 204.569 104 188 104C171.431 104 158 117.431 158 134Z" stroke="url(#paint25_linear_6900_3301)"/>
<path d="M166 142C166 158.569 179.431 172 196 172C212.569 172 226 158.569 226 142C226 125.431 212.569 112 196 112C179.431 112 166 125.431 166 142Z" stroke="url(#paint26_linear_6900_3301)"/>
<path d="M174 150C174 166.569 187.431 180 204 180C220.569 180 234 166.569 234 150C234 133.431 220.569 120 204 120C187.431 120 174 133.431 174 150Z" stroke="url(#paint27_linear_6900_3301)"/>
<path d="M182 158C182 174.569 195.431 188 212 188C228.569 188 242 174.569 242 158C242 141.431 228.569 128 212 128C195.431 128 182 141.431 182 158Z" stroke="url(#paint28_linear_6900_3301)"/>
<path d="M190 166C190 182.569 203.431 196 220 196C236.569 196 250 182.569 250 166C250 149.431 236.569 136 220 136C203.431 136 190 149.431 190 166Z" stroke="url(#paint29_linear_6900_3301)"/>
<path d="M198 174C198 190.569 211.431 204 228 204C244.569 204 258 190.569 258 174C258 157.431 244.569 144 228 144C211.431 144 198 157.431 198 174Z" stroke="url(#paint30_linear_6900_3301)"/>
<path d="M108 84C91.4315 84 78 70.5685 78 54C78 37.4315 91.4315 24 108 24C124.569 24 138 37.4315 138 54C138 70.5685 124.569 84 108 84Z" fill="#85E047"/>
<path d="M108 80.1738C93.5446 80.1738 81.8262 68.4554 81.8262 54C81.8262 39.5447 93.5446 27.8263 108 27.8263C122.455 27.8263 134.174 39.5447 134.174 54C134.174 68.4554 122.455 80.1738 108 80.1738Z" fill="#4B891F"/>
<path d="M108 79C94.1929 79 83 67.8071 83 54C83 40.1929 94.1929 29 108 29C121.807 29 133 40.1929 133 54C133 67.8071 121.807 79 108 79Z" fill="#74C23E"/>
<path d="M89.25 56.5C89.25 52.8575 98.705 51.8662 104.25 51.5987V47.75H93V40.25H123V47.75H111.75V51.5987C117.295 51.8662 126.75 52.8575 126.75 56.5C126.75 60.1425 117.295 61.1337 111.75 61.4012V72.75H104.25V61.4012C98.705 61.1337 89.25 60.1425 89.25 56.5ZM108 59C117.25 59 123.059 57.4725 124.145 56.5C123.214 55.6662 118.806 54.4287 111.75 54.0912V56.5H104.25V54.0912C97.1937 54.4287 92.7862 55.6662 91.855 56.5C92.9412 57.4725 98.75 59 108 59Z" fill="white"/>
<path d="M74 132C62.9543 132 54 123.046 54 112C54 100.954 62.9543 92 74 92C85.0457 92 94 100.954 94 112C94 123.046 85.0457 132 74 132Z" fill="#85E047"/>
<path d="M74 129.449C64.3631 129.449 56.5508 121.637 56.5508 112C56.5508 102.363 64.3631 94.5509 74 94.5509C83.6369 94.5509 91.4491 102.363 91.4491 112C91.4491 121.637 83.6369 129.449 74 129.449Z" fill="#4B891F"/>
<path d="M74 128.667C64.7952 128.667 57.3333 121.205 57.3333 112C57.3333 102.795 64.7952 95.3333 74 95.3333C83.2047 95.3333 90.6667 102.795 90.6667 112C90.6667 121.205 83.2047 128.667 74 128.667Z" fill="#74C23E"/>
<path d="M61.5 113.667C61.5 111.238 67.8033 110.577 71.5 110.399V107.833H64V102.833H84V107.833H76.5V110.399C80.1967 110.577 86.5 111.238 86.5 113.667C86.5 116.095 80.1967 116.756 76.5 116.934V124.5H71.5V116.934C67.8033 116.756 61.5 116.095 61.5 113.667ZM74 115.333C80.1667 115.333 84.0392 114.315 84.7633 113.667C84.1425 113.111 81.2042 112.286 76.5 112.061V113.667H71.5V112.061C66.7958 112.286 63.8575 113.111 63.2367 113.667C63.9608 114.315 67.8333 115.333 74 115.333Z" fill="white"/>
<path fill-rule="evenodd" clip-rule="evenodd" d="M66.3321 152.468C66.5592 151.844 67.4406 151.844 67.6678 152.468L68.6985 155.301L71.5321 156.332C72.1556 156.559 72.1556 157.441 71.5321 157.668L68.6985 158.699L67.6678 161.532C67.4406 162.156 66.5592 162.156 66.3321 161.532L65.3014 158.699L62.4678 157.668C61.8442 157.441 61.8442 156.559 62.4678 156.332L65.3014 155.301L66.3321 152.468Z" fill="#85E047"/>
<path fill-rule="evenodd" clip-rule="evenodd" d="M64.6184 67.4103C64.7482 67.0539 65.2519 67.0539 65.3816 67.4103L65.9706 69.0294L67.5898 69.6184C67.9461 69.7482 67.9461 70.2519 67.5898 70.3817L65.9706 70.9707L65.3816 72.5898C65.2519 72.9462 64.7482 72.9462 64.6184 72.5898L64.0294 70.9707L62.4102 70.3817C62.0539 70.2519 62.0539 69.7482 62.4102 69.6184L64.0294 69.0294L64.6184 67.4103Z" fill="#85E047"/>
<g clip-path="url(#clip1_6900_3301)">
<path fill-rule="evenodd" clip-rule="evenodd" d="M55.6184 141.41C55.7482 141.054 56.2519 141.054 56.3816 141.41L56.9706 143.029L58.5898 143.618C58.9461 143.748 58.9461 144.252 58.5898 144.382L56.9706 144.971L56.3816 146.59C56.2519 146.946 55.7482 146.946 55.6184 146.59L55.0294 144.971L53.4102 144.382C53.0539 144.252 53.0539 143.748 53.4102 143.618L55.0294 143.029L55.6184 141.41Z" stroke="#85E047" stroke-width="0.5"/>
</g>
<path fill-rule="evenodd" clip-rule="evenodd" d="M152.237 24.8205C152.496 24.1078 153.504 24.1078 153.763 24.8205L154.941 28.0589L158.179 29.2368C158.892 29.4964 158.892 30.5038 158.179 30.7634L154.941 31.9413L153.763 35.1797C153.504 35.8923 152.496 35.8923 152.237 35.1797L151.059 31.9413L147.82 30.7634C147.108 30.5038 147.108 29.4964 147.82 29.2368L151.059 28.0589L152.237 24.8205Z" stroke="#85E047" stroke-width="0.5"/>
</g>
<defs>
<linearGradient id="paint0_linear_6900_3301" x1="146" y1="166" x2="114.5" y2="84" gradientUnits="userSpaceOnUse">
<stop stop-color="#363738" stop-opacity="0"/>
<stop offset="1" stop-color="#363738"/>
</linearGradient>
<linearGradient id="paint1_linear_6900_3301" x1="146" y1="166" x2="114.5" y2="84" gradientUnits="userSpaceOnUse">
<stop stop-color="#363738" stop-opacity="0"/>
<stop offset="1" stop-color="#363738"/>
</linearGradient>
<linearGradient id="paint2_linear_6900_3301" x1="146" y1="166" x2="114.5" y2="84" gradientUnits="userSpaceOnUse">
<stop stop-color="#363738" stop-opacity="0"/>
<stop offset="1" stop-color="#363738"/>
</linearGradient>
<linearGradient id="paint3_linear_6900_3301" x1="146" y1="166" x2="114.5" y2="84" gradientUnits="userSpaceOnUse">
<stop stop-color="#363738" stop-opacity="0"/>
<stop offset="1" stop-color="#363738"/>
</linearGradient>
<linearGradient id="paint4_linear_6900_3301" x1="146" y1="166" x2="114.5" y2="84" gradientUnits="userSpaceOnUse">
<stop stop-color="#363738" stop-opacity="0"/>
<stop offset="1" stop-color="#363738"/>
</linearGradient>
<linearGradient id="paint5_linear_6900_3301" x1="146" y1="166" x2="114.5" y2="84" gradientUnits="userSpaceOnUse">
<stop stop-color="#363738" stop-opacity="0"/>
<stop offset="1" stop-color="#363738"/>
</linearGradient>
<linearGradient id="paint6_linear_6900_3301" x1="146" y1="166" x2="114.5" y2="84" gradientUnits="userSpaceOnUse">
<stop stop-color="#363738" stop-opacity="0"/>
<stop offset="1" stop-color="#363738"/>
</linearGradient>
<linearGradient id="paint7_linear_6900_3301" x1="146" y1="166" x2="114.5" y2="84" gradientUnits="userSpaceOnUse">
<stop stop-color="#363738" stop-opacity="0"/>
<stop offset="1" stop-color="#363738"/>
</linearGradient>
<linearGradient id="paint8_linear_6900_3301" x1="146" y1="166" x2="114.5" y2="84" gradientUnits="userSpaceOnUse">
<stop stop-color="#363738" stop-opacity="0"/>
<stop offset="1" stop-color="#363738"/>
</linearGradient>
<linearGradient id="paint9_linear_6900_3301" x1="146" y1="166" x2="114.5" y2="84" gradientUnits="userSpaceOnUse">
<stop stop-color="#363738" stop-opacity="0"/>
<stop offset="1" stop-color="#363738"/>
</linearGradient>
<linearGradient id="paint10_linear_6900_3301" x1="146" y1="166" x2="114.5" y2="84" gradientUnits="userSpaceOnUse">
<stop stop-color="#363738" stop-opacity="0"/>
<stop offset="1" stop-color="#363738"/>
</linearGradient>
<linearGradient id="paint11_linear_6900_3301" x1="146" y1="166" x2="114.5" y2="84" gradientUnits="userSpaceOnUse">
<stop stop-color="#363738" stop-opacity="0"/>
<stop offset="1" stop-color="#363738"/>
</linearGradient>
<linearGradient id="paint12_linear_6900_3301" x1="146" y1="166" x2="114.5" y2="84" gradientUnits="userSpaceOnUse">
<stop stop-color="#363738" stop-opacity="0"/>
<stop offset="1" stop-color="#363738"/>
</linearGradient>
<linearGradient id="paint13_linear_6900_3301" x1="146" y1="166" x2="114.5" y2="84" gradientUnits="userSpaceOnUse">
<stop stop-color="#363738" stop-opacity="0"/>
<stop offset="1" stop-color="#363738"/>
</linearGradient>
<linearGradient id="paint14_linear_6900_3301" x1="146" y1="166" x2="114.5" y2="84" gradientUnits="userSpaceOnUse">
<stop stop-color="#363738" stop-opacity="0"/>
<stop offset="1" stop-color="#363738"/>
</linearGradient>
<linearGradient id="paint15_linear_6900_3301" x1="146" y1="166" x2="114.5" y2="84" gradientUnits="userSpaceOnUse">
<stop stop-color="#363738" stop-opacity="0"/>
<stop offset="1" stop-color="#363738"/>
</linearGradient>
<linearGradient id="paint16_linear_6900_3301" x1="146" y1="166" x2="114.5" y2="84" gradientUnits="userSpaceOnUse">
<stop stop-color="#363738" stop-opacity="0"/>
<stop offset="1" stop-color="#363738"/>
</linearGradient>
<linearGradient id="paint17_linear_6900_3301" x1="146" y1="166" x2="114.5" y2="84" gradientUnits="userSpaceOnUse">
<stop stop-color="#363738" stop-opacity="0"/>
<stop offset="1" stop-color="#363738"/>
</linearGradient>
<linearGradient id="paint18_linear_6900_3301" x1="146" y1="166" x2="114.5" y2="84" gradientUnits="userSpaceOnUse">
<stop stop-color="#363738" stop-opacity="0"/>
<stop offset="1" stop-color="#363738"/>
</linearGradient>
<linearGradient id="paint19_linear_6900_3301" x1="146" y1="166" x2="114.5" y2="84" gradientUnits="userSpaceOnUse">
<stop stop-color="#363738" stop-opacity="0"/>
<stop offset="1" stop-color="#363738"/>
</linearGradient>
<linearGradient id="paint20_linear_6900_3301" x1="146" y1="166" x2="114.5" y2="84" gradientUnits="userSpaceOnUse">
<stop stop-color="#363738" stop-opacity="0"/>
<stop offset="1" stop-color="#363738"/>
</linearGradient>
<linearGradient id="paint21_linear_6900_3301" x1="146" y1="166" x2="114.5" y2="84" gradientUnits="userSpaceOnUse">
<stop stop-color="#363738" stop-opacity="0"/>
<stop offset="1" stop-color="#363738"/>
</linearGradient>
<linearGradient id="paint22_linear_6900_3301" x1="146" y1="166" x2="114.5" y2="84" gradientUnits="userSpaceOnUse">
<stop stop-color="#363738" stop-opacity="0"/>
<stop offset="1" stop-color="#363738"/>
</linearGradient>
<linearGradient id="paint23_linear_6900_3301" x1="146" y1="166" x2="114.5" y2="84" gradientUnits="userSpaceOnUse">
<stop stop-color="#363738" stop-opacity="0"/>
<stop offset="1" stop-color="#363738"/>
</linearGradient>
<linearGradient id="paint24_linear_6900_3301" x1="146" y1="166" x2="114.5" y2="84" gradientUnits="userSpaceOnUse">
<stop stop-color="#363738" stop-opacity="0"/>
<stop offset="1" stop-color="#363738"/>
</linearGradient>
<linearGradient id="paint25_linear_6900_3301" x1="146" y1="166" x2="114.5" y2="84" gradientUnits="userSpaceOnUse">
<stop stop-color="#363738" stop-opacity="0"/>
<stop offset="1" stop-color="#363738"/>
</linearGradient>
<linearGradient id="paint26_linear_6900_3301" x1="146" y1="166" x2="114.5" y2="84" gradientUnits="userSpaceOnUse">
<stop stop-color="#363738" stop-opacity="0"/>
<stop offset="1" stop-color="#363738"/>
</linearGradient>
<linearGradient id="paint27_linear_6900_3301" x1="146" y1="166" x2="114.5" y2="84" gradientUnits="userSpaceOnUse">
<stop stop-color="#363738" stop-opacity="0"/>
<stop offset="1" stop-color="#363738"/>
</linearGradient>
<linearGradient id="paint28_linear_6900_3301" x1="146" y1="166" x2="114.5" y2="84" gradientUnits="userSpaceOnUse">
<stop stop-color="#363738" stop-opacity="0"/>
<stop offset="1" stop-color="#363738"/>
</linearGradient>
<linearGradient id="paint29_linear_6900_3301" x1="146" y1="166" x2="114.5" y2="84" gradientUnits="userSpaceOnUse">
<stop stop-color="#363738" stop-opacity="0"/>
<stop offset="1" stop-color="#363738"/>
</linearGradient>
<linearGradient id="paint30_linear_6900_3301" x1="146" y1="166" x2="114.5" y2="84" gradientUnits="userSpaceOnUse">
<stop stop-color="#363738" stop-opacity="0"/>
<stop offset="1" stop-color="#363738"/>
</linearGradient>
<clipPath id="clip0_6900_3301">
<rect width="188" height="182" fill="white" transform="matrix(-1 0 0 1 188 0)"/>
</clipPath>
<clipPath id="clip1_6900_3301">
<rect width="8" height="8" fill="white" transform="matrix(-1 0 0 1 60 140)"/>
</clipPath>
</defs>
</svg>
