<svg width="358" height="230" viewBox="0 0 358 230" fill="none" xmlns="http://www.w3.org/2000/svg">
<g clip-path="url(#clip0_974_1546)">
<g filter="url(#filter0_f_974_1546)">
<circle cx="179" cy="115" r="45" fill="#46B75B"/>
</g>
<g clip-path="url(#clip1_974_1546)">
<path d="M142.322 96.2529L136.113 119.728C130.331 117.678 126.975 110.983 128.617 104.776L128.88 103.78C130.522 97.5732 136.541 94.2028 142.322 96.2529Z" fill="white"/>
<path d="M136.113 119.808C136.103 119.808 136.094 119.806 136.086 119.803C130.275 117.743 126.89 110.992 128.539 104.756L128.803 103.76C129.629 100.637 131.557 98.1403 134.234 96.7286C136.74 95.4064 139.622 95.2106 142.349 96.1775C142.368 96.1842 142.384 96.1978 142.393 96.2155C142.402 96.2332 142.405 96.2538 142.399 96.2732L136.19 119.748C136.185 119.765 136.175 119.78 136.161 119.791C136.147 119.802 136.13 119.808 136.113 119.808ZM138.883 95.7319C137.301 95.7319 135.742 96.1135 134.308 96.87C131.672 98.2606 129.772 100.722 128.957 103.8L128.694 104.797C127.073 110.926 130.373 117.556 136.058 119.623L142.226 96.3038C141.124 95.9217 139.998 95.7318 138.883 95.7318L138.883 95.7319Z" fill="#111111"/>
<path d="M142.322 96.2529L158.301 92.4918L152.092 115.967L136.113 119.728L142.322 96.2529Z" fill="#DAFFE1"/>
<path d="M136.112 119.808C136.1 119.808 136.088 119.805 136.077 119.799C136.066 119.794 136.057 119.786 136.049 119.776C136.042 119.767 136.036 119.755 136.034 119.743C136.032 119.731 136.032 119.719 136.035 119.707L142.245 96.2324C142.248 96.2184 142.256 96.2057 142.266 96.1955C142.277 96.1854 142.29 96.1783 142.304 96.175L158.283 92.4139C158.296 92.4107 158.31 92.411 158.324 92.4149C158.337 92.4187 158.349 92.426 158.359 92.4359C158.368 92.4458 158.375 92.458 158.379 92.4714C158.382 92.4848 158.382 92.4988 158.378 92.5122L152.169 115.987C152.165 116.001 152.158 116.014 152.147 116.024C152.137 116.034 152.124 116.041 152.11 116.044L136.131 119.805C136.125 119.807 136.119 119.808 136.112 119.808ZM142.387 96.3197L136.224 119.619L152.026 115.9L158.19 92.6001L142.387 96.3197Z" fill="#111111"/>
<path d="M136.631 95.9143L152.61 92.1532C154.419 91.7273 156.373 91.8082 158.301 92.4917L142.322 96.2528C140.394 95.5692 138.44 95.4883 136.631 95.9143Z" fill="#DAFFE1"/>
<path d="M142.322 96.3328C142.313 96.3328 142.304 96.3312 142.296 96.3282C140.449 95.6735 138.497 95.5572 136.649 95.992C136.639 95.9944 136.629 95.9948 136.618 95.9931C136.608 95.9914 136.598 95.9877 136.589 95.9822C136.571 95.971 136.558 95.9532 136.553 95.9325C136.548 95.9119 136.552 95.8902 136.563 95.8721C136.574 95.8541 136.592 95.8412 136.613 95.8364L152.592 92.0753C154.469 91.6334 156.453 91.7513 158.328 92.4163C158.344 92.4221 158.358 92.433 158.368 92.4473C158.377 92.4617 158.382 92.4788 158.381 92.496C158.38 92.5132 158.374 92.5297 158.363 92.5429C158.351 92.5561 158.336 92.5654 158.32 92.5694L142.341 96.3305C142.335 96.3319 142.329 96.3326 142.322 96.3326L142.322 96.3328ZM138.882 95.5741C140.038 95.5741 141.202 95.7735 142.327 96.1696L158.012 92.4777C156.244 91.9025 154.388 91.8167 152.628 92.2309L138.369 95.5872C138.54 95.5785 138.711 95.5741 138.882 95.5741Z" fill="#111111"/>
<path d="M240.241 101.72L180.023 80.3679C176.899 79.26 173.732 79.1288 170.8 79.8189L154.864 83.5699C157.796 82.8798 160.963 83.011 164.087 84.1189L224.305 105.471C233.674 108.793 239.112 119.64 236.452 129.698L230.259 153.11C228.485 159.815 223.561 164.476 217.7 165.856L233.636 162.105C239.497 160.725 244.421 156.063 246.195 149.359L252.388 125.947C255.048 115.889 249.61 105.042 240.241 101.72V101.72Z" fill="url(#paint0_linear_974_1546)"/>
<path d="M217.7 165.936C217.68 165.936 217.661 165.929 217.646 165.916C217.632 165.903 217.623 165.885 217.62 165.865C217.618 165.846 217.623 165.826 217.634 165.81C217.645 165.794 217.662 165.783 217.681 165.778C223.696 164.363 228.486 159.501 230.181 153.09L236.374 129.678C239.02 119.675 233.594 108.85 224.278 105.546L164.06 84.1942C161.059 83.1299 157.885 82.9409 154.882 83.6477C154.872 83.6501 154.861 83.6505 154.851 83.6488C154.841 83.6471 154.831 83.6434 154.822 83.6379C154.813 83.6324 154.805 83.6251 154.799 83.6166C154.793 83.6081 154.788 83.5984 154.786 83.5882C154.784 83.578 154.783 83.5674 154.785 83.557C154.787 83.5467 154.79 83.5367 154.796 83.5278C154.801 83.5189 154.809 83.5111 154.817 83.505C154.826 83.4989 154.835 83.4945 154.846 83.4921L170.782 79.741C173.814 79.0273 177.019 79.2178 180.05 80.2925L240.268 101.645C244.819 103.258 248.593 106.677 250.897 111.272C253.2 115.865 253.757 121.084 252.465 125.968L246.272 149.38C245.412 152.629 243.764 155.536 241.505 157.785C239.311 159.97 236.596 161.49 233.654 162.183L217.718 165.934C217.712 165.935 217.706 165.936 217.7 165.936ZM158.512 83.0683C160.392 83.0683 162.285 83.3948 164.114 84.0435L224.332 105.396C228.883 107.009 232.657 110.428 234.961 115.023C237.264 119.616 237.821 124.835 236.529 129.719L230.336 153.131C229.476 156.38 227.828 159.287 225.568 161.536C223.924 163.174 221.987 164.438 219.88 165.261L233.617 162.027C239.632 160.611 244.422 155.749 246.117 149.339L252.31 125.927C254.956 115.924 249.53 105.098 240.214 101.795L179.996 80.4432C176.995 79.3789 173.821 79.1899 170.818 79.8967L157.07 83.1326C157.55 83.0897 158.031 83.0682 158.512 83.0683Z" fill="#111111"/>
<path d="M224.305 105.471C233.674 108.793 239.112 119.64 236.452 129.698L230.259 153.11C227.598 163.168 217.846 168.629 208.477 165.307L148.259 143.955C138.889 140.633 133.452 129.786 136.113 119.728L142.306 96.316C144.966 86.2578 154.717 80.7965 164.087 84.119L224.305 105.471L224.305 105.471Z" fill="white"/>
<path d="M214.051 166.361C212.182 166.361 210.294 166.036 208.45 165.383L148.232 144.03C143.681 142.417 139.906 138.998 137.603 134.403C135.3 129.81 134.743 124.591 136.035 119.707L142.228 96.2954C142.901 93.7518 144.029 91.459 145.582 89.4808C147.082 87.5693 148.906 86.0391 151.003 84.9329C155.052 82.7971 159.708 82.4812 164.114 84.0434L224.332 105.396C228.883 107.009 232.657 110.428 234.961 115.023C237.264 119.616 237.821 124.835 236.529 129.719L230.336 153.13C229.663 155.674 228.535 157.967 226.982 159.945C225.482 161.856 223.658 163.386 221.561 164.492C219.207 165.734 216.647 166.361 214.051 166.361L214.051 166.361ZM158.513 83.2247C155.942 83.2247 153.409 83.845 151.078 85.0744C146.794 87.3341 143.706 91.3336 142.383 96.3363L136.19 119.748C133.544 129.751 138.97 140.576 148.286 143.88L208.504 165.232C212.866 166.779 217.477 166.466 221.486 164.351C225.77 162.091 228.858 158.092 230.181 153.09L236.374 129.678C239.02 119.675 233.594 108.849 224.278 105.546L164.061 84.1941C162.234 83.5465 160.364 83.2247 158.513 83.2247Z" fill="#111111"/>
<path d="M223.254 107.838L163.813 86.7611C155.733 83.8962 147.321 88.6053 145.026 97.2809L138.833 120.693C136.538 129.368 141.23 138.724 149.309 141.589L208.751 162.666C216.832 165.531 225.243 160.821 227.538 152.146L233.731 128.734C236.025 120.058 231.335 110.703 223.254 107.838L223.254 107.838Z" fill="#46B75B"/>
<path d="M213.559 163.586C211.946 163.586 210.316 163.305 208.724 162.741L149.282 141.664C141.176 138.79 136.454 129.373 138.756 120.672L144.949 97.2605C145.529 95.0654 146.503 93.0867 147.843 91.3793C149.138 89.7296 150.712 88.4089 152.522 87.4541C156.018 85.6104 160.037 85.3376 163.839 86.6858L223.281 107.763C231.387 110.637 236.109 120.054 233.808 128.754L227.615 152.166C227.034 154.361 226.06 156.34 224.72 158.048C223.425 159.697 221.851 161.018 220.041 161.973C218.009 163.045 215.8 163.586 213.559 163.586ZM159.005 86.0012C156.79 86.0012 154.606 86.5358 152.597 87.5955C148.905 89.5431 146.244 92.99 145.103 97.3014L138.91 120.713C136.63 129.335 141.307 138.666 149.336 141.513L208.778 162.59C212.538 163.924 216.511 163.654 219.966 161.832C223.658 159.884 226.32 156.437 227.46 152.125L233.653 128.713C235.934 120.091 231.257 110.761 223.227 107.913L163.786 86.8364C162.212 86.2784 160.6 86.0012 159.005 86.0012Z" fill="#111111"/>
<path d="M165.014 102.267C164.437 102.061 163.831 101.948 163.219 101.929C162.169 101.9 161.158 102.151 160.23 102.6C159.534 102.936 158.881 103.384 158.276 103.92C157.369 104.723 156.568 105.725 155.892 106.885C155.219 108.043 154.671 109.36 154.29 110.801C153.995 111.918 154.599 113.124 155.64 113.493C156.681 113.862 157.765 113.255 158.06 112.138C158.349 111.045 158.763 110.063 159.252 109.231C159.619 108.606 160.029 108.068 160.452 107.628C161.089 106.968 161.757 106.54 162.353 106.339C162.651 106.239 162.932 106.192 163.193 106.189C163.456 106.187 163.7 106.227 163.944 106.314C164.159 106.39 164.36 106.498 164.553 106.641C164.889 106.891 165.215 107.26 165.505 107.769C165.72 108.15 165.912 108.607 166.064 109.128C166.29 109.907 166.421 110.827 166.419 111.819C166.418 112.813 166.286 113.878 166 114.953C165.704 116.07 166.309 117.276 167.35 117.645C168.391 118.014 169.474 117.407 169.77 116.29C170.157 114.826 170.341 113.358 170.337 111.94C170.335 110.876 170.226 109.84 170.012 108.854C169.689 107.376 169.132 106.002 168.303 104.84C167.888 104.259 167.404 103.735 166.851 103.296C166.3 102.856 165.679 102.502 165.014 102.267Z" fill="white"/>
<path d="M167.969 117.833C167.753 117.833 167.536 117.796 167.323 117.72C166.245 117.338 165.617 116.088 165.923 114.932C166.198 113.899 166.338 112.851 166.339 111.819C166.341 110.872 166.219 109.949 165.987 109.15C165.842 108.65 165.656 108.199 165.435 107.808C165.165 107.334 164.852 106.963 164.505 106.705C164.318 106.566 164.125 106.463 163.917 106.389C163.685 106.306 163.44 106.266 163.194 106.269C162.932 106.272 162.658 106.322 162.379 106.415C161.752 106.626 161.106 107.065 160.51 107.684C160.074 108.136 159.674 108.67 159.321 109.272C158.814 110.135 158.416 111.106 158.137 112.158C157.984 112.738 157.625 113.202 157.127 113.465C156.659 113.712 156.121 113.748 155.613 113.568C154.536 113.186 153.907 111.936 154.213 110.78C154.588 109.361 155.13 108.037 155.823 106.845C156.51 105.666 157.318 104.662 158.223 103.86C158.847 103.307 159.511 102.859 160.195 102.528C161.185 102.049 162.203 101.821 163.221 101.849C163.842 101.868 164.456 101.983 165.041 102.191C165.701 102.425 166.327 102.776 166.901 103.233C167.442 103.663 167.935 104.188 168.368 104.793C169.17 105.918 169.75 107.279 170.09 108.837C170.305 109.826 170.415 110.87 170.417 111.94C170.421 113.397 170.229 114.867 169.847 116.31C169.694 116.89 169.335 117.354 168.836 117.617C168.569 117.759 168.271 117.833 167.969 117.833H167.969ZM163.213 106.109C163.478 106.109 163.726 106.151 163.971 106.238C164.194 106.318 164.4 106.428 164.601 106.577C164.966 106.848 165.293 107.236 165.574 107.73C165.801 108.131 165.992 108.594 166.141 109.105C166.377 109.919 166.501 110.858 166.499 111.819C166.498 112.865 166.356 113.927 166.077 114.973C165.792 116.05 166.375 117.215 167.376 117.57C167.842 117.735 168.334 117.701 168.762 117.476C169.22 117.234 169.551 116.806 169.692 116.269C170.071 114.84 170.261 113.383 170.257 111.94C170.255 110.882 170.146 109.849 169.934 108.871C169.598 107.334 169.027 105.993 168.238 104.886C167.814 104.293 167.33 103.779 166.801 103.358C166.241 102.912 165.631 102.57 164.987 102.342C164.418 102.139 163.82 102.027 163.216 102.009C162.224 101.982 161.231 102.205 160.264 102.672C159.593 102.997 158.942 103.437 158.329 103.98C157.436 104.771 156.639 105.761 155.961 106.925C155.275 108.105 154.739 109.416 154.368 110.822C154.083 111.898 154.666 113.063 155.667 113.418C156.132 113.583 156.624 113.549 157.052 113.324C157.51 113.082 157.841 112.654 157.983 112.117C158.265 111.051 158.668 110.067 159.183 109.191C159.543 108.578 159.95 108.034 160.394 107.573C161.009 106.936 161.677 106.483 162.327 106.264C162.623 106.165 162.913 106.113 163.192 106.11H163.213L163.213 106.109Z" fill="#111111"/>
<path d="M173.357 137.246C174.046 137.49 174.815 137.318 175.332 136.735C175.364 136.704 175.521 136.549 175.809 136.356C176.29 136.039 177.126 135.614 178.408 135.452C179.049 135.37 179.805 135.356 180.692 135.463C181.579 135.569 182.598 135.8 183.76 136.21C185.411 136.797 186.643 137.498 187.571 138.2C188.266 138.726 188.792 139.252 189.194 139.74C189.798 140.472 190.128 141.12 190.306 141.557C190.395 141.777 190.446 141.942 190.471 142.035C190.484 142.081 190.489 142.11 190.492 142.117C190.64 142.932 191.193 143.57 191.88 143.813C192.157 143.912 192.456 143.946 192.759 143.901C193.824 143.741 194.532 142.668 194.342 141.501C194.321 141.373 194.234 140.91 193.981 140.234C193.792 139.727 193.508 139.1 193.089 138.41C192.461 137.377 191.526 136.204 190.178 135.099C188.833 133.996 187.085 132.963 184.844 132.169L184.83 132.164C182.835 131.455 181.069 131.154 179.542 131.127C178.397 131.105 177.387 131.238 176.517 131.457C175.213 131.783 174.23 132.305 173.558 132.766C172.887 133.228 172.524 133.629 172.435 133.734C171.712 134.577 171.78 135.925 172.587 136.748C172.816 136.981 173.08 137.147 173.357 137.245" fill="white"/>
<path d="M179.297 131.044C179.379 131.044 179.46 131.045 179.542 131.047C181.206 131.076 182.994 131.427 184.856 132.088L184.842 132.168L184.869 132.093C186.938 132.827 188.741 133.817 190.228 135.037C191.424 136.017 192.409 137.138 193.156 138.368C193.523 138.973 193.825 139.591 194.055 140.206C194.311 140.89 194.399 141.36 194.42 141.488C194.52 142.102 194.378 142.728 194.03 143.204C193.72 143.629 193.272 143.904 192.769 143.979C192.46 144.025 192.151 143.995 191.852 143.888C191.114 143.627 190.563 142.955 190.413 142.134C190.411 142.13 190.41 142.124 190.409 142.118C190.405 142.104 190.4 142.083 190.393 142.056C190.377 141.996 190.33 141.833 190.231 141.587C190.061 141.17 189.732 140.519 189.131 139.79C188.682 139.245 188.141 138.731 187.521 138.263C186.477 137.473 185.202 136.807 183.732 136.285C182.657 135.905 181.63 135.655 180.682 135.542C179.878 135.445 179.117 135.441 178.417 135.53C177.424 135.656 176.561 135.956 175.852 136.422C175.606 136.587 175.455 136.724 175.387 136.791C174.865 137.381 174.075 137.585 173.329 137.32C173.03 137.214 172.761 137.04 172.528 136.804C171.695 135.953 171.626 134.553 172.374 133.681C172.469 133.569 172.833 133.167 173.512 132.7C174.11 132.289 175.114 131.725 176.496 131.379C177.379 131.157 178.32 131.044 179.297 131.044V131.044ZM192.492 143.84C192.577 143.84 192.662 143.834 192.746 143.821C193.206 143.752 193.616 143.499 193.901 143.109C194.223 142.668 194.355 142.086 194.262 141.514C194.242 141.389 194.156 140.932 193.905 140.261C193.679 139.656 193.381 139.047 193.019 138.451C192.282 137.236 191.308 136.129 190.126 135.161C188.654 133.952 186.867 132.971 184.815 132.244L184.802 132.239C182.956 131.583 181.185 131.236 179.539 131.206C178.488 131.186 177.478 131.297 176.535 131.534C175.176 131.874 174.19 132.427 173.602 132.831C172.923 133.299 172.561 133.708 172.495 133.785C171.8 134.595 171.866 135.899 172.643 136.691C172.858 136.911 173.107 137.072 173.383 137.17C174.066 137.412 174.789 137.225 175.27 136.681C175.346 136.606 175.506 136.461 175.763 136.289C176.493 135.809 177.379 135.5 178.397 135.372C179.109 135.28 179.885 135.284 180.701 135.383C181.661 135.497 182.699 135.75 183.786 136.134C185.271 136.662 186.56 137.336 187.618 138.136C188.247 138.611 188.798 139.134 189.255 139.688C189.869 140.433 190.205 141.099 190.379 141.526C190.482 141.781 190.531 141.952 190.547 142.014C190.555 142.042 190.561 142.065 190.564 142.08L190.567 142.092C190.568 142.095 190.569 142.1 190.569 142.102C190.708 142.868 191.22 143.494 191.905 143.737C192.093 143.805 192.292 143.839 192.492 143.84L192.492 143.84Z" fill="#111111"/>
<path d="M214.76 119.905C214.182 119.7 213.576 119.586 212.963 119.568C211.915 119.539 210.903 119.79 209.975 120.239C209.279 120.575 208.627 121.023 208.022 121.559C207.115 122.362 206.312 123.364 205.637 124.524C204.964 125.682 204.417 126.999 204.036 128.44C203.74 129.557 204.345 130.763 205.386 131.132C206.426 131.501 207.51 130.894 207.806 129.777C208.095 128.684 208.509 127.702 208.998 126.87C209.365 126.245 209.773 125.706 210.198 125.267C210.834 124.607 211.502 124.179 212.099 123.978C212.397 123.878 212.677 123.831 212.939 123.828C213.202 123.826 213.445 123.866 213.689 123.953C213.905 124.029 214.104 124.136 214.297 124.28C214.635 124.53 214.96 124.899 215.25 125.408C215.466 125.789 215.658 126.246 215.808 126.766C216.035 127.546 216.166 128.466 216.165 129.458C216.163 130.452 216.03 131.517 215.746 132.592C215.45 133.709 216.054 134.915 217.095 135.284C218.136 135.653 219.22 135.046 219.515 133.929C219.903 132.465 220.086 130.997 220.083 129.579C220.079 128.515 219.972 127.479 219.757 126.493C219.435 125.015 218.878 123.641 218.048 122.479C217.633 121.898 217.149 121.374 216.597 120.934C216.045 120.495 215.425 120.141 214.76 119.905Z" fill="white"/>
<path d="M217.715 135.472C217.499 135.472 217.281 135.435 217.069 135.359C215.991 134.977 215.363 133.727 215.668 132.571C215.943 131.533 216.083 130.485 216.085 129.458C216.086 128.51 215.964 127.587 215.732 126.788C215.588 126.29 215.402 125.839 215.181 125.447C214.911 124.973 214.597 124.602 214.25 124.344C214.062 124.205 213.87 124.102 213.663 124.028C213.431 123.945 213.186 123.904 212.939 123.908C212.679 123.911 212.405 123.96 212.124 124.054C211.498 124.265 210.852 124.704 210.256 125.323C209.823 125.77 209.423 126.304 209.067 126.911C208.56 127.774 208.162 128.745 207.883 129.797C207.73 130.377 207.371 130.841 206.873 131.104C206.405 131.351 205.867 131.387 205.359 131.207C204.281 130.825 203.653 129.574 203.959 128.419C204.334 127 204.876 125.675 205.568 124.483C206.252 123.308 207.06 122.304 207.969 121.499C208.593 120.946 209.257 120.498 209.941 120.167C210.93 119.688 211.948 119.459 212.965 119.488C213.587 119.506 214.201 119.622 214.787 119.83C215.447 120.064 216.073 120.415 216.647 120.872C217.189 121.303 217.682 121.828 218.114 122.432C218.916 123.557 219.496 124.918 219.836 126.476C220.049 127.458 220.159 128.502 220.163 129.578C220.166 131.035 219.975 132.506 219.593 133.949C219.44 134.529 219.081 134.993 218.582 135.256C218.315 135.398 218.017 135.472 217.715 135.472L217.715 135.472ZM212.959 123.748C213.224 123.748 213.471 123.791 213.716 123.877C213.939 123.956 214.145 124.067 214.345 124.216C214.711 124.487 215.039 124.875 215.32 125.369C215.548 125.771 215.738 126.234 215.885 126.744C216.122 127.556 216.246 128.495 216.245 129.458C216.243 130.499 216.101 131.56 215.823 132.612C215.538 133.689 216.121 134.854 217.122 135.209C217.588 135.374 218.08 135.34 218.508 135.115C218.966 134.873 219.296 134.445 219.438 133.908C219.816 132.479 220.006 131.022 220.003 129.579C219.999 128.514 219.891 127.482 219.679 126.51C219.344 124.973 218.773 123.632 217.983 122.525C217.56 121.933 217.077 121.419 216.547 120.997C215.987 120.551 215.377 120.209 214.733 119.981C214.163 119.778 213.565 119.666 212.96 119.648C211.969 119.621 210.977 119.844 210.01 120.311C209.339 120.636 208.688 121.076 208.075 121.619C207.179 122.413 206.382 123.403 205.707 124.564C205.021 125.744 204.485 127.055 204.113 128.461C203.829 129.537 204.411 130.702 205.412 131.057C205.878 131.222 206.37 131.189 206.798 130.963C207.256 130.721 207.586 130.293 207.728 129.756C208.01 128.69 208.414 127.706 208.928 126.83C209.291 126.212 209.699 125.668 210.14 125.212C210.754 124.575 211.423 124.122 212.073 123.903C212.37 123.803 212.661 123.751 212.938 123.749H212.959L212.959 123.748Z" fill="#111111"/>
<path d="M201.369 92.681C201.356 92.746 201.525 92.856 201.819 92.9603C202.207 93.0979 202.667 93.1755 202.845 93.1335C202.889 93.1233 202.911 93.1068 202.915 93.0858C206.066 81.3578 214.253 75.7576 214.335 75.7027L213.474 74.2404C213.117 74.4787 204.66 80.2395 201.369 92.6811V92.681Z" fill="white"/>
<path d="M202.719 93.2247C202.47 93.2247 202.084 93.1389 201.792 93.0355C201.436 92.9093 201.267 92.7849 201.29 92.6659C201.29 92.6641 201.291 92.6623 201.291 92.6605C204.589 80.1948 213.07 74.4137 213.429 74.1737C213.438 74.1677 213.449 74.1635 213.459 74.1616C213.47 74.1596 213.481 74.1599 213.492 74.1623C213.502 74.1647 213.512 74.1693 213.521 74.1757C213.53 74.1822 213.537 74.1903 213.543 74.1997L214.404 75.662C214.415 75.6797 214.418 75.7006 214.413 75.7205C214.409 75.7404 214.397 75.7578 214.38 75.7692C214.359 75.7826 212.289 77.1941 209.837 80.0686C207.612 82.6769 204.618 87.0561 202.992 93.1064C202.987 93.1383 202.959 93.1888 202.863 93.2112C202.824 93.2206 202.775 93.2248 202.719 93.2248V93.2247ZM202.838 93.064C202.838 93.0664 202.837 93.0688 202.837 93.0713L202.838 93.064ZM201.451 92.683C201.475 92.7121 201.579 92.7902 201.846 92.8848C202.253 93.0292 202.682 93.0895 202.827 93.0556C202.833 93.054 202.838 93.0524 202.842 93.0511C204.478 86.976 207.482 82.5828 209.715 79.9648C211.943 77.3527 213.864 75.9381 214.229 75.6794L213.448 74.3544C212.557 74.9705 204.617 80.7373 201.451 92.683Z" fill="#111111"/>
<path d="M215.567 78.7381C218.015 78.7381 219.999 76.7552 219.999 74.3092C219.999 71.8631 218.015 69.8802 215.567 69.8802C213.119 69.8802 211.135 71.8631 211.135 74.3092C211.135 76.7552 213.119 78.7381 215.567 78.7381Z" fill="#DAFFE1"/>
<path d="M215.57 78.818C215.451 78.818 215.331 78.8133 215.21 78.8037C212.73 78.6071 210.872 76.4308 211.069 73.9524C211.164 72.7519 211.722 71.6602 212.639 70.8787C213.556 70.0971 214.722 69.7192 215.924 69.8143C218.404 70.011 220.262 72.1872 220.065 74.6657C219.878 77.0232 217.897 78.818 215.57 78.818ZM215.56 69.9598C214.526 69.9598 213.537 70.3229 212.743 71.0004C211.858 71.7542 211.32 72.8072 211.229 73.9651C211.039 76.3556 212.83 78.4547 215.223 78.6444C217.615 78.8339 219.715 77.0435 219.905 74.653C220.095 72.2625 218.303 70.1635 215.911 69.9737C215.794 69.9645 215.677 69.9599 215.56 69.9598Z" fill="#111111"/>
<path d="M236.468 129.635C242.25 131.685 245.606 138.38 243.964 144.587L243.701 145.583C242.059 151.79 236.04 155.16 230.259 153.11L236.468 129.635L236.468 129.635Z" fill="white"/>
<path d="M233.698 153.791C232.541 153.791 231.373 153.59 230.232 153.186C230.213 153.179 230.197 153.165 230.188 153.148C230.178 153.13 230.176 153.109 230.181 153.09L236.391 129.615C236.394 129.604 236.399 129.594 236.405 129.586C236.412 129.577 236.421 129.57 236.431 129.565C236.441 129.559 236.451 129.556 236.462 129.556C236.473 129.555 236.484 129.556 236.495 129.56C242.306 131.62 245.691 138.371 244.041 144.607L243.778 145.603C242.952 148.726 241.023 151.223 238.347 152.634C236.89 153.403 235.305 153.791 233.698 153.791ZM230.355 153.059C233.018 153.983 235.827 153.783 238.272 152.493C240.909 151.102 242.809 148.641 243.623 145.563L243.887 144.567C245.508 138.438 242.208 131.808 236.523 129.74L230.355 153.059Z" fill="#111111"/>
<path d="M252.447 125.874L236.468 129.635C242.25 131.685 245.606 138.38 243.964 144.587L243.701 145.583C242.606 149.72 239.567 152.597 235.95 153.449L251.929 149.688C255.546 148.836 258.585 145.959 259.68 141.822L259.943 140.826C261.585 134.619 258.229 127.924 252.447 125.874Z" fill="url(#paint1_linear_974_1546)"/>
<path d="M235.95 153.529C235.93 153.529 235.911 153.522 235.896 153.508C235.882 153.495 235.872 153.477 235.87 153.458C235.868 153.438 235.873 153.419 235.884 153.403C235.896 153.387 235.912 153.375 235.932 153.371C239.632 152.5 242.58 149.508 243.623 145.563L243.887 144.566C245.516 138.408 242.176 131.744 236.441 129.711C236.425 129.705 236.411 129.694 236.402 129.68C236.392 129.665 236.387 129.648 236.388 129.631C236.389 129.614 236.396 129.597 236.407 129.584C236.418 129.571 236.433 129.562 236.45 129.558L252.429 125.796C252.444 125.793 252.459 125.794 252.474 125.799C258.285 127.859 261.67 134.61 260.02 140.846L259.757 141.842C259.225 143.853 258.205 145.652 256.807 147.044C255.449 148.396 253.768 149.337 251.947 149.765L235.968 153.527C235.962 153.528 235.956 153.529 235.95 153.529ZM236.745 129.652C242.402 131.816 245.667 138.461 244.041 144.607L243.778 145.603C243.246 147.614 242.226 149.413 240.828 150.805C239.903 151.726 238.828 152.456 237.66 152.964L251.91 149.61C255.611 148.739 258.559 145.747 259.602 141.802L259.866 140.805C261.493 134.655 258.163 128 252.443 125.958L236.745 129.652L236.745 129.652Z" fill="#111111"/>
</g>
<g clip-path="url(#clip2_974_1546)">
<path d="M133.032 71.9795L135.309 76.7289L130.991 79.25L128.713 74.5006L133.032 71.9795Z" fill="#DAFFE1"/>
<path d="M130.984 79.3182C130.973 79.3171 130.961 79.3129 130.952 79.3062C130.942 79.2995 130.935 79.2904 130.929 79.2798L128.652 74.5303C128.645 74.5148 128.643 74.4971 128.648 74.4806C128.653 74.4642 128.664 74.4502 128.679 74.4416L132.998 71.9204C133.006 71.9157 133.015 71.9127 133.024 71.9116C133.033 71.9106 133.043 71.9114 133.052 71.9142C133.061 71.917 133.069 71.9216 133.076 71.9277C133.083 71.9338 133.089 71.9414 133.093 71.9499L135.371 76.6993C135.378 76.7148 135.379 76.7326 135.374 76.749C135.369 76.7655 135.358 76.7794 135.344 76.7881L131.025 79.3092C131.013 79.3164 130.999 79.3196 130.984 79.3182L130.984 79.3182ZM128.802 74.528L131.02 79.1538L135.221 76.7017L133.002 72.0758L128.802 74.528Z" fill="#111111"/>
<path d="M130.991 79.2501L129.101 79.2293L126.823 74.4798L128.713 74.5006L130.991 79.2501Z" fill="#46B75B"/>
<path d="M129.094 79.2974C129.083 79.2962 129.072 79.2921 129.062 79.2854C129.052 79.2787 129.045 79.2696 129.04 79.259L126.762 74.5095C126.757 74.499 126.755 74.4874 126.755 74.4758C126.756 74.4642 126.76 74.453 126.766 74.4431C126.772 74.4333 126.781 74.4253 126.791 74.4197C126.801 74.4142 126.813 74.4113 126.824 74.4114L128.714 74.4323C128.727 74.4323 128.739 74.436 128.75 74.4429C128.761 74.4497 128.769 74.4595 128.775 74.471L131.052 79.2205C131.057 79.231 131.06 79.2425 131.059 79.2542C131.058 79.2658 131.055 79.277 131.048 79.2868C131.042 79.2967 131.034 79.3047 131.023 79.3103C131.013 79.3158 131.002 79.3187 130.99 79.3186L129.1 79.2977C129.098 79.2977 129.096 79.2976 129.094 79.2974L129.094 79.2974ZM126.933 74.5494L129.144 79.1614L130.882 79.1805L128.67 74.5685L126.933 74.5494Z" fill="#111111"/>
<path d="M128.713 74.5006L126.823 74.4797L131.142 71.9586L133.032 71.9794L128.713 74.5006Z" fill="white"/>
<path d="M126.817 74.5478C126.802 74.5465 126.789 74.5406 126.778 74.531C126.767 74.5214 126.76 74.5086 126.757 74.4944C126.754 74.4803 126.755 74.4655 126.761 74.4523C126.767 74.439 126.777 74.428 126.789 74.4207L131.107 71.8996C131.118 71.8934 131.13 71.8901 131.142 71.8902L133.032 71.911C133.047 71.9113 133.062 71.9164 133.073 71.9256C133.085 71.9348 133.094 71.9476 133.097 71.962C133.101 71.9765 133.1 71.9918 133.094 72.0056C133.089 72.0194 133.079 72.031 133.066 72.0386L128.748 74.5597C128.737 74.5659 128.725 74.5691 128.712 74.569L126.823 74.5482C126.821 74.5481 126.819 74.548 126.817 74.5478L126.817 74.5478ZM131.16 72.0272L127.071 74.4141L128.695 74.432L132.784 72.0451L131.16 72.0272Z" fill="#111111"/>
<path d="M126.452 70.0834C124.867 67.3436 124.991 65.2108 126.541 62.4504C127.979 59.8474 128.201 58.6174 127.403 56.9535C126.902 55.9096 126.007 55.3406 124.951 55.329L123.061 55.3082C124.117 55.3198 125.013 55.8888 125.513 56.9326C126.311 58.5965 126.089 59.8265 124.651 62.4295C123.101 65.19 122.977 67.3227 124.562 70.0625L124.954 70.8108L126.844 70.8316L126.452 70.0833L126.452 70.0834Z" fill="#46B75B"/>
<path d="M124.947 70.8789C124.936 70.8779 124.925 70.874 124.916 70.8676C124.906 70.8613 124.899 70.8527 124.894 70.8427L124.502 70.0944C122.957 67.4229 122.982 65.2638 124.592 62.3961C126.031 59.7908 126.224 58.5719 125.452 56.9624C124.974 55.9661 124.103 55.3881 123.06 55.3766C123.043 55.3757 123.026 55.3679 123.014 55.3551C123.002 55.3422 122.995 55.3251 122.996 55.3075C122.996 55.2899 123.003 55.273 123.015 55.2604C123.027 55.2478 123.044 55.2404 123.062 55.2398L123.062 55.2399L124.952 55.2607C126.048 55.2731 126.964 55.8789 127.465 56.9239C128.26 58.5828 128.066 59.8299 126.601 62.4835C125.018 65.3026 124.993 67.4237 126.511 70.049C126.511 70.0498 126.512 70.0507 126.512 70.0515L126.904 70.7999C126.91 70.8103 126.912 70.8221 126.912 70.8339C126.912 70.8457 126.908 70.8573 126.902 70.8674C126.896 70.8775 126.887 70.8858 126.877 70.8915C126.866 70.8973 126.855 70.9002 126.843 70.9001L124.953 70.8793C124.951 70.8792 124.949 70.8791 124.947 70.8789ZM123.935 55.3862C124.638 55.6257 125.214 56.1506 125.575 56.903C126.37 58.562 126.176 59.809 124.711 62.4627C123.128 65.2818 123.103 67.4029 124.621 70.0282L124.995 70.7429L126.73 70.762L126.392 70.1164C124.847 67.4431 124.872 65.284 126.482 62.4168C127.921 59.8116 128.113 58.5927 127.342 56.9831C126.864 55.9868 125.992 55.4088 124.95 55.3974L123.935 55.3862L123.935 55.3862Z" fill="#111111"/>
<path d="M121.183 51.4489C125.836 48.7322 130.273 49.7823 132.256 53.9164C133.542 56.6003 133.256 59.1713 131.675 61.9957C130.172 64.6363 129.99 65.8667 130.814 67.5837L131.162 68.3107L126.844 70.8318L126.452 70.0835C124.867 67.3437 124.991 65.211 126.541 62.4505C127.979 59.8475 128.201 58.6175 127.403 56.9536C126.605 55.2898 124.803 54.8326 122.949 55.9152C121.078 57.0074 120.449 58.9994 121.297 61.0226L121.404 61.2457L116.994 63.8199L116.887 63.5968C114.831 59.0951 116.189 54.3644 121.183 51.4489Z" fill="#DAFFE1"/>
<path d="M126.837 70.8998C126.826 70.8987 126.815 70.8948 126.806 70.8885C126.796 70.8821 126.789 70.8736 126.783 70.8635L126.392 70.1152C124.846 67.4437 124.871 65.2846 126.482 62.4169C127.921 59.8116 128.114 58.5927 127.342 56.9832C126.985 56.2397 126.422 55.7316 125.714 55.5138C124.894 55.2616 123.924 55.4251 122.984 55.9742C121.164 57.0363 120.527 59.0074 121.36 60.996L121.465 61.216C121.473 61.2315 121.474 61.2492 121.469 61.2657C121.464 61.2821 121.453 61.2961 121.438 61.3047L117.029 63.879C117.021 63.8837 117.012 63.8867 117.002 63.8877C116.993 63.8888 116.984 63.8879 116.975 63.8852C116.966 63.8824 116.957 63.8778 116.95 63.8717C116.943 63.8656 116.937 63.858 116.933 63.8496L116.826 63.6264C114.666 58.8958 116.322 54.2075 121.148 51.3897C123.599 49.9588 126.107 49.5267 128.208 50.1726C129.994 50.7218 131.415 52.0061 132.317 53.8866C133.569 56.4968 133.383 59.0841 131.734 62.029C130.239 64.6552 130.054 65.8428 130.875 67.5539L131.224 68.2809C131.231 68.2964 131.232 68.3141 131.227 68.3306C131.222 68.347 131.211 68.361 131.196 68.3696L126.878 70.8908C126.866 70.898 126.851 70.9011 126.837 70.8998ZM125.209 55.2751C125.396 55.2931 125.578 55.329 125.754 55.3831C126.5 55.6123 127.091 56.1451 127.465 56.9239C128.26 58.5828 128.066 59.8299 126.601 62.4835C125.018 65.3026 124.993 67.4236 126.511 70.049L126.871 70.7366L131.073 68.2832L130.752 67.6132C129.917 65.8722 130.111 64.6045 131.616 61.9616C133.241 59.0594 133.425 56.5123 132.194 53.9458C131.309 52.1006 129.917 50.841 128.168 50.3033C126.103 49.6686 123.635 50.0963 121.217 51.5077C116.457 54.2871 114.821 58.9084 116.949 63.5682L117.024 63.7236L121.315 61.2184L121.235 61.0523C120.373 58.9932 121.033 56.9548 122.915 55.856C123.689 55.4042 124.485 55.2054 125.209 55.2751Z" fill="#111111"/>
<path d="M124.378 49.9252C122.796 49.9078 121.06 50.3963 119.293 51.428C114.299 54.3435 112.942 59.0741 114.998 63.5759L115.105 63.7991L116.995 63.8199L116.888 63.5967C114.831 59.095 116.189 54.3643 121.183 51.4488C122.95 50.4171 124.686 49.9286 126.268 49.9461L124.378 49.9253L124.378 49.9252Z" fill="white"/>
<path d="M115.098 63.8679C115.086 63.8668 115.075 63.8626 115.065 63.8559C115.056 63.8492 115.048 63.8401 115.043 63.8295L114.936 63.6064C112.775 58.8758 114.432 54.1874 119.258 51.3696C120.983 50.3626 122.754 49.8398 124.379 49.8576L126.269 49.8784C126.278 49.8785 126.286 49.8804 126.295 49.8839C126.303 49.8875 126.31 49.8926 126.317 49.899C126.323 49.9054 126.328 49.913 126.331 49.9214C126.335 49.9297 126.336 49.9386 126.336 49.9476C126.336 49.9566 126.334 49.9654 126.331 49.9737C126.327 49.9819 126.322 49.9894 126.316 49.9957C126.309 50.002 126.302 50.0069 126.293 50.0103C126.285 50.0136 126.276 50.0153 126.267 50.0152C124.667 49.9976 122.92 50.514 121.217 51.5086C116.456 54.2879 114.821 58.9092 116.949 63.569L117.056 63.791C117.061 63.8015 117.063 63.8131 117.062 63.8247C117.062 63.8363 117.058 63.8475 117.052 63.8574C117.045 63.8672 117.037 63.8752 117.027 63.8808C117.016 63.8863 117.005 63.8892 116.993 63.8891L115.103 63.8682C115.102 63.8682 115.1 63.8681 115.098 63.8679ZM124.377 49.9944C122.777 49.9768 121.03 50.4932 119.327 51.4878C114.566 54.2671 112.931 58.8884 115.059 63.5482L115.147 63.7319L116.885 63.7511L116.826 63.6272C114.665 58.8966 116.322 54.2082 121.148 51.3905C122.37 50.6769 123.615 50.2065 124.815 49.9992L124.377 49.9944Z" fill="#111111"/>
</g>
<g clip-path="url(#clip3_974_1546)">
<path d="M142.744 162.687L140.182 165.587L131.995 164.611L134.558 161.712L142.744 162.687Z" fill="#46B75B"/>
<path d="M140.178 165.682L140.17 165.682L131.984 164.706C131.966 164.704 131.95 164.697 131.936 164.686C131.923 164.676 131.912 164.661 131.906 164.645C131.9 164.629 131.898 164.611 131.901 164.594C131.904 164.577 131.912 164.561 131.924 164.548L134.486 161.648C134.496 161.637 134.509 161.628 134.523 161.622C134.538 161.617 134.553 161.615 134.569 161.617L142.755 162.592C142.772 162.594 142.789 162.601 142.802 162.612C142.816 162.623 142.827 162.637 142.833 162.653C142.839 162.67 142.841 162.687 142.838 162.704C142.834 162.722 142.827 162.738 142.815 162.751L140.253 165.65C140.244 165.661 140.232 165.669 140.219 165.675C140.206 165.68 140.192 165.683 140.178 165.682ZM132.187 164.538L140.143 165.486L142.551 162.761L134.596 161.812L132.187 164.538Z" fill="#111111"/>
<path d="M134.557 161.712L131.995 164.611C129.818 166.889 126.895 168.726 123.376 169.841C112.821 173.184 100.891 168.775 96.7289 159.994C94.0557 154.354 95.2371 148.282 99.221 143.774L101.783 140.874C97.7992 145.383 96.6178 151.455 99.291 157.095C103.453 165.876 115.383 170.284 125.938 166.941C129.457 165.827 132.38 163.99 134.557 161.712Z" fill="#46B75B"/>
<path d="M115.294 171.036C107.276 170.772 99.7671 166.627 96.6426 160.035C94.037 154.538 94.9741 148.435 99.1493 143.711L101.712 140.811C101.72 140.802 101.73 140.794 101.741 140.789C101.752 140.783 101.765 140.78 101.777 140.779C101.79 140.778 101.802 140.78 101.814 140.784C101.826 140.788 101.837 140.795 101.846 140.803C101.856 140.811 101.863 140.821 101.869 140.833C101.874 140.844 101.878 140.856 101.878 140.869C101.879 140.881 101.877 140.894 101.873 140.906C101.869 140.917 101.863 140.928 101.855 140.938L101.848 140.945C97.7307 145.61 96.807 151.631 99.3772 157.054C103.513 165.779 115.415 170.174 125.909 166.85C129.291 165.779 132.258 163.979 134.488 161.646C134.506 161.627 134.529 161.616 134.555 161.615C134.58 161.614 134.605 161.623 134.623 161.64C134.642 161.657 134.653 161.681 134.654 161.706C134.655 161.732 134.646 161.756 134.629 161.775L132.067 164.674C129.811 167.034 126.817 168.851 123.404 169.932C120.742 170.775 117.989 171.125 115.294 171.036ZM100.158 142.858L99.2923 143.837C95.1695 148.503 94.2434 154.527 96.8151 159.953C100.951 168.678 112.853 173.073 123.347 169.75C126.729 168.678 129.696 166.879 131.926 164.545L133.158 163.151C131.135 164.845 128.683 166.172 125.967 167.032C115.385 170.384 103.38 165.944 99.2049 157.136C96.9618 152.404 97.3444 147.222 100.158 142.858Z" fill="#111111"/>
<path d="M137.513 144.99C139.476 149.131 139.359 153.505 137.582 157.323L142.744 162.687L134.558 161.711C132.38 163.99 129.457 165.827 125.938 166.941C115.383 170.284 103.453 165.876 99.2912 157.095C95.1292 148.314 100.311 138.485 110.866 135.142C121.421 131.799 133.351 136.209 137.513 144.99Z" fill="white"/>
<path d="M117.856 168.137C109.839 167.873 102.329 163.728 99.2049 157.136C97.3639 153.251 97.2817 148.969 98.9739 145.078C100.983 140.457 105.307 136.802 110.837 135.051C121.419 131.7 133.424 136.14 137.599 144.949C139.493 148.943 139.527 153.328 137.696 157.304L142.813 162.621C142.826 162.635 142.835 162.653 142.838 162.673C142.841 162.692 142.838 162.712 142.829 162.73C142.821 162.748 142.807 162.762 142.789 162.772C142.772 162.781 142.752 162.785 142.732 162.782L134.593 161.812C132.345 164.152 129.363 165.957 125.967 167.033C123.304 167.876 120.551 168.226 117.856 168.137ZM118.946 134.137C116.27 134.049 113.538 134.396 110.895 135.233C105.417 136.968 101.136 140.584 99.1489 145.154C97.4793 148.994 97.5603 153.22 99.3774 157.054C103.513 165.779 115.415 170.174 125.909 166.85C129.291 165.779 132.258 163.979 134.489 161.645C134.499 161.635 134.511 161.626 134.525 161.621C134.539 161.616 134.554 161.615 134.569 161.617L142.49 162.561L137.513 157.389C137.5 157.375 137.491 157.358 137.488 157.338C137.485 157.319 137.487 157.3 137.496 157.282C139.329 153.344 139.305 148.993 137.427 145.031C134.333 138.503 126.892 134.399 118.946 134.137Z" fill="#111111"/>
<path d="M125.752 146.192C126.906 145.827 128.308 146.511 128.882 147.723C129.456 148.934 128.985 150.213 127.831 150.578C126.676 150.944 125.273 150.259 124.7 149.048C124.125 147.836 124.597 146.558 125.752 146.192Z" fill="#DAFFE1"/>
<path d="M127.106 150.77C126.105 150.738 125.086 150.085 124.613 149.089C124.308 148.445 124.278 147.744 124.53 147.165C124.753 146.652 125.177 146.274 125.723 146.101C126.92 145.722 128.376 146.432 128.969 147.682C129.274 148.326 129.304 149.027 129.052 149.606C128.829 150.119 128.406 150.497 127.86 150.67C127.616 150.747 127.361 150.779 127.106 150.77ZM125.781 146.284C125.288 146.44 124.905 146.78 124.705 147.242C124.475 147.77 124.505 148.413 124.786 149.007C125.339 150.175 126.693 150.839 127.802 150.487C128.295 150.331 128.676 149.991 128.877 149.53C129.107 149.001 129.078 148.358 128.796 147.764C128.243 146.596 126.89 145.932 125.781 146.284Z" fill="#111111"/>
<path d="M108.973 151.506C110.128 151.141 111.529 151.825 112.104 153.037C112.678 154.248 112.207 155.527 111.052 155.892C109.897 156.258 108.495 155.572 107.921 154.362C107.346 153.15 107.818 151.872 108.973 151.506Z" fill="#DAFFE1"/>
<path d="M110.327 156.084C109.327 156.051 108.307 155.399 107.835 154.403C107.53 153.759 107.499 153.058 107.751 152.479C107.974 151.966 108.398 151.588 108.945 151.415C110.142 151.036 111.597 151.745 112.19 152.996C112.495 153.639 112.525 154.341 112.273 154.92C112.05 155.433 111.627 155.81 111.081 155.983C110.837 156.061 110.583 156.093 110.327 156.084ZM109.696 151.505C109.46 151.497 109.226 151.526 109.002 151.597C108.509 151.754 108.127 152.094 107.926 152.555C107.696 153.084 107.726 153.727 108.007 154.321C108.561 155.489 109.914 156.153 111.024 155.801C111.516 155.645 111.898 155.305 112.098 154.844C112.328 154.315 112.299 153.671 112.018 153.078C111.576 152.146 110.625 151.535 109.696 151.505Z" fill="#111111"/>
<path d="M117.363 148.849C118.517 148.484 119.919 149.168 120.493 150.38C121.067 151.591 120.596 152.87 119.442 153.235C118.286 153.601 116.884 152.915 116.31 151.705C115.736 150.493 116.207 149.215 117.363 148.849Z" fill="#DAFFE1"/>
<path d="M118.716 153.427C117.716 153.394 116.696 152.742 116.224 151.746C115.919 151.102 115.888 150.401 116.14 149.822C116.363 149.309 116.787 148.931 117.334 148.758C118.531 148.379 119.987 149.088 120.579 150.339C120.884 150.983 120.915 151.684 120.663 152.263C120.44 152.776 120.016 153.154 119.47 153.326C119.227 153.404 118.972 153.436 118.716 153.427ZM117.392 148.94C116.898 149.097 116.516 149.437 116.315 149.898C116.086 150.427 116.115 151.07 116.397 151.664C116.95 152.831 118.303 153.496 119.413 153.144C119.905 152.988 120.287 152.648 120.488 152.187C120.718 151.658 120.688 151.015 120.407 150.421C119.853 149.253 118.501 148.589 117.392 148.94Z" fill="#111111"/>
</g>
</g>
<defs>
<filter id="filter0_f_974_1546" x="58" y="-6" width="242" height="242" filterUnits="userSpaceOnUse" color-interpolation-filters="sRGB">
<feFlood flood-opacity="0" result="BackgroundImageFix"/>
<feBlend mode="normal" in="SourceGraphic" in2="BackgroundImageFix" result="shape"/>
<feGaussianBlur stdDeviation="38" result="effect1_foregroundBlur_974_1546"/>
</filter>
<linearGradient id="paint0_linear_974_1546" x1="199.879" y1="88.6204" x2="227.134" y2="167.254" gradientUnits="userSpaceOnUse">
<stop offset="0.315" stop-color="#DAFFE1"/>
<stop offset="1" stop-color="#46B75B"/>
</linearGradient>
<linearGradient id="paint1_linear_974_1546" x1="243.686" y1="129.522" x2="251.776" y2="156.844" gradientUnits="userSpaceOnUse">
<stop stop-color="#DAFFE1"/>
<stop offset="1" stop-color="#46B75B"/>
</linearGradient>
<clipPath id="clip0_974_1546">
<rect width="358" height="230" fill="white"/>
</clipPath>
<clipPath id="clip1_974_1546">
<rect width="132.32" height="96.56" fill="white" transform="translate(128.12 69.8)"/>
</clipPath>
<clipPath id="clip2_974_1546">
<rect width="22.9597" height="29.0398" fill="white" transform="translate(115.005 48.7665) rotate(5.50062)"/>
</clipPath>
<clipPath id="clip3_974_1546">
<rect width="47.9198" height="37.1998" fill="white" transform="translate(95.8655 133.181) rotate(1.88686)"/>
</clipPath>
</defs>
</svg>
