<svg width="226" height="95" viewBox="0 0 226 95" fill="none" xmlns="http://www.w3.org/2000/svg">
    <path
        d="M113 95C158.84 95 196 88.2843 196 80L187 62H39L31.3588 77.2823L30 80C30 88.2843 67.1604 95 113 95Z"
        fill="#D9D9D9" />
    <path
        d="M113 95C158.84 95 196 88.2843 196 80L187 62H39L31.3588 77.2823L30 80C30 88.2843 67.1604 95 113 95Z"
        fill="url(#paint0_linear_23_2)" />
    <ellipse cx="113" cy="62" rx="74" ry="13" fill="url(#paint1_linear_23_2)" />
    <g filter="url(#filter0_f_23_2)">
        <path d="M12 12L43 62H183L214 12H12Z" fill="url(#paint2_linear_23_2)" fill-opacity="0.7" />
    </g>
    <defs>
        <filter id="filter0_f_23_2" x="0" y="0" width="226" height="74" filterUnits="userSpaceOnUse"
            color-interpolation-filters="sRGB">
            <feFlood flood-opacity="0" result="BackgroundImageFix" />
            <feBlend mode="normal" in="SourceGraphic" in2="BackgroundImageFix" result="shape" />
            <feGaussianBlur stdDeviation="6" result="effect1_foregroundBlur_23_2" />
        </filter>
        <linearGradient id="paint0_linear_23_2" x1="113" y1="62" x2="113" y2="95"
            gradientUnits="userSpaceOnUse">
            <stop stop-color="#292A2F" />
            <stop offset="1" stop-color="#161A17" />
        </linearGradient>
        <linearGradient id="paint1_linear_23_2" x1="113" y1="49" x2="113" y2="75"
            gradientUnits="userSpaceOnUse">
            <stop stop-color="white" />
            <stop offset="1" stop-color="#FFAA1B" />
        </linearGradient>
        <linearGradient id="paint2_linear_23_2" x1="113" y1="12" x2="113" y2="62"
            gradientUnits="userSpaceOnUse">
            <stop stop-color="#FFB841" stop-opacity="0" />
            <stop offset="1" stop-color="#FFB841" />
        </linearGradient>
    </defs>
</svg>