<svg width="358" height="230" viewBox="0 0 358 230" fill="none" xmlns="http://www.w3.org/2000/svg">
<g clip-path="url(#clip0_1964_1059)">
<g filter="url(#filter0_f_1964_1059)">
<circle cx="180" cy="115" r="53" fill="#FCBF14"/>
</g>
<g clip-path="url(#clip1_1964_1059)">
<path d="M195.228 175.354C228.743 173.509 254.417 144.843 252.571 111.327C250.726 77.8113 222.06 52.1377 188.544 53.9834C155.028 55.829 129.355 84.495 131.2 118.011C133.046 151.526 161.712 177.2 195.228 175.354Z" fill="#FCBF14"/>
<path d="M195.233 175.436C187.027 175.888 178.986 174.721 171.318 171.964C163.91 169.3 157.174 165.276 151.29 160.006C145.405 154.736 140.666 148.475 137.204 141.412C133.614 134.085 131.571 126.221 131.119 118.015C130.667 109.809 131.834 101.769 134.591 94.1005C137.255 86.6922 141.279 79.9565 146.549 74.064C151.818 68.1715 158.08 63.4401 165.143 59.9789C172.462 56.3969 180.334 54.3533 188.54 53.9015C196.746 53.4496 204.787 54.6168 212.455 57.3736C219.863 60.0378 226.599 64.0617 232.483 69.3317C238.367 74.6018 243.107 80.8631 246.568 87.9341C250.15 95.2531 252.194 103.117 252.645 111.323C253.097 119.529 251.93 127.57 249.173 135.238C246.509 142.646 242.485 149.382 237.215 155.266C231.945 161.15 225.684 165.89 218.621 169.351C211.302 172.941 203.439 174.984 195.233 175.436ZM188.549 54.0652C155.135 55.9053 129.443 84.5923 131.283 118.006C133.123 151.42 161.81 177.113 195.224 175.272C228.637 173.432 254.33 144.745 252.49 111.332C250.65 77.9176 221.963 52.2252 188.549 54.0652Z" fill="#111111"/>
<path d="M225.257 63.8727C225.13 63.9372 225.052 64.0154 225.033 64.1233C224.938 64.7775 224.885 65.0104 224.002 64.3443C223.119 63.6783 219.909 62.6558 219.314 62.4585C218.72 62.2612 218.8 63.1029 218.49 63.4486C218.18 63.7942 217.283 63.3178 216.652 63.1883C216.345 63.1231 215.92 63.7626 215.515 63.867C215.11 63.9715 217.074 66.6809 216.409 66.6847C215.522 66.6842 214.668 63.848 213.901 63.2002C212.988 62.429 213.782 63.7324 212.915 64.1005C212.322 64.355 214.073 65.7372 213.839 65.7994C213.604 65.8616 211.652 64.8684 210.768 64.342C207.949 62.6736 209.991 64.5409 209.991 64.5409C208.926 64.1559 206.245 64.0982 205.49 64.1069C204.743 64.1152 204.018 64.3769 203.388 64.428C202.758 64.4791 203.243 63.2778 202.782 63.4182C202.322 63.5585 202.328 64.4125 201.673 64.3007C201.017 64.1808 200.237 64.3305 199.438 64.9002C198.632 65.4703 197.32 64.6225 197.082 64.3317C196.845 64.0409 197.823 62.8698 198.332 63.4579C198.841 64.0459 199.858 63.8749 200.732 63.6215C201.629 63.3585 200.918 62.8226 200.129 62.521C199.223 62.1848 198.752 61.3811 198.041 60.5659C197.331 59.7507 194.183 59.5709 193.201 59.4853C192.227 59.3993 187.881 59.9918 186.438 60.4902C185.665 60.7628 182.266 60.6543 180.738 61.0917C179.21 61.5372 177.329 63.0373 177.53 63.4041C177.739 63.7704 180.597 63.3009 180.715 63.5162C180.834 63.7314 179.844 64.402 179.404 64.4592C178.857 64.5303 178.263 64.333 177.287 64.5018C176.302 64.6792 177.242 66.2375 177.717 66.4989C178.022 66.6628 178.358 66.8086 179.283 66.6015C180.208 66.3945 180.551 66.6549 181.265 66.6321C181.978 66.6092 182.995 65.2389 183.739 65.3212C184.475 65.4039 185.171 65.2259 185.697 64.9258C186.231 64.6254 185.655 63.8685 185.655 63.8685C186.07 63.3527 191.618 61.9136 192.488 62.3504C193.383 62.7939 189.585 63.3399 189.114 63.4397C188.278 63.609 187.363 65.0477 187.413 65.5049C187.462 65.954 191.639 66.0197 190.875 66.6122C190.11 67.2046 188.7 66.2062 187.199 66.0917C185.689 65.9777 185.719 66.5264 186.557 66.6774C187.387 66.8289 186.421 67.3339 186.028 67.5034C185.635 67.6729 185.002 67.0834 184.579 67.0081C184.148 66.9333 182.751 68.2589 181.563 68.4721C180.376 68.6854 178.324 67.5251 178.324 67.5251C178.324 67.5251 177.307 68.1479 176.994 67.0973C176.662 65.9902 175.351 66.0459 174.803 66.3965C174.311 66.7111 172.147 66.3456 171.241 66.5926C170.52 66.7884 168.603 67.7729 168.603 67.7729C168.435 67.9958 167.265 67.937 166.967 67.6001C166.669 67.2633 166.182 67.8159 165.983 68.0733C165.783 68.3307 165.301 67.9301 164.675 67.751C164.05 67.5719 163.906 69.2966 163.838 69.8507C163.77 70.4048 161.054 72.0905 160.702 72.4139C160.35 72.7372 159.267 71.425 158.924 70.7046C158.58 69.9924 156.464 72.1297 155.971 72.7319C155.487 73.3417 154.082 73.4766 153.997 74.1713C153.912 74.8578 152.603 75.1106 152.573 75.4655C152.552 75.8199 152.348 76.899 152.348 76.899L152.323 78.0751C152.323 78.0751 153.312 77.4045 153.546 77.6216C154.428 78.4273 156.253 77.8422 157.227 76.5893C158.202 75.3445 160.396 75.2236 161.218 75.0798C162.04 74.9441 163.156 72.9851 163.389 73.917C163.621 74.8571 163.884 74.7112 164.745 74.6802C165.327 74.6564 165.743 74.0174 166.415 74.5718C167.086 75.1263 166.117 75.7218 166.058 76.8915C165.999 78.0612 166.695 79.8137 166.644 80.679C166.601 81.5357 165.479 82.6489 165.775 82.9448C166.07 83.2325 167.238 82.3631 167.647 82.0285C168.055 81.6938 167.684 80.9093 168.33 80.5697C168.977 80.2302 168.647 80.7987 168.851 81.2147C169.054 81.6306 169.646 81.0476 169.367 80.4551C169.006 79.7111 168.704 79.2923 168.368 78.4155C168.082 77.6919 167.976 77.1145 168.068 76.5427C168.176 75.8302 168.362 75.3189 168.798 74.7363C169.509 73.7853 170.571 74.5729 170.221 75.9641C169.87 77.3552 170.426 77.8996 170.695 78.3119C170.964 78.7243 171.727 79.2984 170.931 80.3526C170.134 81.4068 170.162 81.4628 170.17 82.0456C170.169 82.6289 169.686 82.6555 169.488 84.1368C169.29 85.6181 170.07 87.5384 170.302 86.6959C170.535 85.8534 171.712 86.1912 172.178 85.7055C172.644 85.2198 172.164 84.8519 171.963 84.0334C171.762 83.2148 172.739 82.6188 172.739 82.6188C172.739 82.6188 173.434 84.0427 173.667 83.0524C173.9 82.062 174.412 82.8553 175.136 82.725C175.86 82.5948 176.226 83.125 175.449 83.9318C174.663 84.739 175.624 84.875 175.254 85.4704C174.893 86.0735 173.565 85.3827 174.277 86.0746C174.989 86.7665 173.941 87.1445 173.975 88.3502C174.034 90.1705 175.145 88.1214 175.581 89.3214C176.017 90.5214 176.954 89.6319 177.6 89.1363C178.246 88.6407 178.848 91.2116 178.848 91.2116C178.848 91.2116 179.54 90.4999 180.15 90.9838C180.957 91.6212 181.249 90.5125 181.671 90.859C182.092 91.2054 182.772 90.7162 182.697 92.0429C182.613 93.3618 182.055 92.6285 181.736 93.5333C181.416 94.4381 180.71 94.9041 180.139 95.1245C179.568 95.3449 178.607 97.8704 177.915 97.547C177.223 97.2155 175.41 97.4057 175.41 97.4057C175.395 97.7269 175.376 98.1304 175.352 98.5918L175.302 99.6131C175.676 101.334 176.114 102.131 176.845 101.836C177.577 101.55 178.457 105.009 178.43 106.752C178.403 108.503 179.803 109.305 179.16 111.501C178.745 112.912 179.466 113.767 180.322 115.593C181.178 117.419 182.083 121.329 181.465 122.488C180.839 123.648 180.579 127.416 183.581 126.594C185.653 126.028 186.896 126.083 188.342 126.381C189.796 126.679 191.531 125.08 192.857 125.442C194.183 125.804 193.081 124.28 195.498 124.023C197.916 123.767 199.549 124.195 200.605 122.773C201.454 121.634 202.489 121.798 202.893 120.322C204.688 119.648 205.756 118.62 205.831 117.745C204.586 116.762 205.887 115.779 204.48 115.585C202.444 115.303 201.806 113.268 202.468 111.704C202.468 111.704 200.349 113.505 199.192 113.683C198.157 113.839 195.832 113.975 195.862 112.289C195.893 110.604 196.737 111.157 195.276 109.553C193.816 107.95 192.069 105.015 193.71 104.235C195.351 103.454 196.787 104.468 196.777 106.53C196.768 108.592 200.946 110.917 201.919 110.551C202.893 110.185 203.311 110.319 203.711 111.915C204.111 113.511 213.087 114.799 214.259 114.612C215.432 114.424 214.867 116.254 216.585 117.901C218.294 119.556 216.682 119.826 218.516 121.343C220.349 122.86 221.532 119.444 221.474 121.065C221.409 122.876 220.811 126.03 221.495 128.301C222.178 130.572 222.477 133.611 223.173 135.068C223.878 136.524 222.48 139.476 224.049 139.636C225.619 139.796 227.564 136.633 227.978 135.05C228.392 133.466 227.516 131.148 229.064 129.872C230.613 128.604 233.257 126.651 233.749 125.433C234.241 124.223 236.016 123.501 236.446 122.352C236.875 121.203 238.778 121.599 239.171 120.83C239.564 120.061 240.81 118.809 240.71 120.433C240.611 122.057 240.31 122.262 241.371 123.329C242.432 124.396 241.13 126.571 241.303 127.761C241.54 129.39 242.986 128.793 244.645 128.184C246.312 127.575 244.541 135.698 244.769 138.503C244.913 140.22 245.396 141.828 245.746 142.819C250.652 133.448 253.18 122.671 252.556 111.336C251.47 91.3115 240.804 74.098 225.257 63.8727ZM188.26 86.8489C186.543 86.4013 184.882 84.5951 183.888 84.2803C182.734 83.9167 180.175 84.5833 179.536 84.0106C178.896 83.438 177.21 82.9558 179.584 81.1657C181.958 79.3757 183.355 78.3458 184.483 79.138C185.611 79.922 185.498 79.6572 185.611 79.922C185.724 80.1869 184.086 79.9732 184.481 80.2882C184.868 80.6037 184.459 81.6695 185.426 81.4848C186.401 81.2996 186.988 81.5056 187.638 81.6751C188.288 81.8447 190.433 82.6055 190.268 83.9371C190.103 85.2688 190.58 85.2754 190.735 85.7104C190.898 86.1286 189.976 87.2965 188.26 86.8489ZM189.707 80.7726C189.346 81.2114 188.554 81.3043 187.984 81.2453C187.587 81.2015 186.544 80.8975 186.775 80.1865C187.016 79.475 190.541 79.6506 190.694 79.8886C190.847 80.1266 190.07 80.3419 189.707 80.7726ZM202.819 85.1107C202.09 85.3151 201.292 84.9812 200.856 85.8677C200.723 86.1379 201.609 87.7567 202.056 88.1263C202.504 88.496 202.168 90.1492 202.168 90.1492C202.325 89.7298 203.333 88.9268 203.801 90.4207C204.309 92.0356 202.932 91.3557 202.303 90.9632C201.682 90.5702 201.942 92.1578 202.507 92.7263C203.072 93.2948 202.513 94.1881 202.563 95.0972C202.665 96.792 201.553 96.1467 200.775 96.3293C199.996 96.5118 197.812 95.1781 197.041 94.013C196.27 92.8479 198.706 91.2845 198.847 90.7017C198.987 90.119 198.374 88.6823 197.567 87.4535C196.752 86.2252 197.623 84.14 198.449 84.3738C199.275 84.6158 200.918 83.2603 202.807 83.4027C204.696 83.5452 203.546 84.8981 202.819 85.1107Z" fill="white"/>
<path d="M245.767 142.892L245.758 142.893C245.726 142.895 245.7 142.871 245.69 142.839C245.32 141.8 244.847 140.207 244.704 138.507C244.623 137.484 244.801 135.791 244.982 134.006C245.239 131.528 245.537 128.727 244.979 128.289C244.902 128.228 244.802 128.217 244.69 128.264L244.505 128.332C243.361 128.748 242.379 129.114 241.768 128.745C241.479 128.572 241.305 128.253 241.229 127.773C241.163 127.316 241.304 126.734 241.45 126.109C241.697 125.085 241.951 124.02 241.316 123.381C240.437 122.493 240.469 122.171 240.565 121.221C240.585 120.99 240.612 120.734 240.636 120.421C240.662 120.008 240.599 119.757 240.457 119.716C240.174 119.641 239.544 120.292 239.255 120.858C239.062 121.238 238.568 121.356 238.04 121.475C237.408 121.625 236.759 121.776 236.537 122.371C236.315 122.959 235.742 123.442 235.193 123.916C234.643 124.381 234.079 124.864 233.832 125.453C233.404 126.495 231.485 128.03 229.934 129.265C229.643 129.495 229.368 129.716 229.124 129.918C228.142 130.72 228.161 131.975 228.187 133.19C228.199 133.854 228.209 134.486 228.068 135.045C227.626 136.728 225.63 139.853 224.052 139.685C223.06 139.584 223.156 138.494 223.257 137.338C223.327 136.513 223.403 135.663 223.116 135.071C222.708 134.231 222.445 132.882 222.161 131.451C221.946 130.379 221.728 129.266 221.428 128.296C220.915 126.583 221.115 124.395 221.28 122.628C221.339 122.042 221.382 121.489 221.406 121.036C221.414 120.723 221.378 120.676 221.37 120.668C221.328 120.662 221.165 120.827 221.032 120.95C220.533 121.429 219.613 122.326 218.476 121.378C217.521 120.585 217.479 120.119 217.435 119.62C217.394 119.179 217.361 118.72 216.545 117.928C215.694 117.104 215.392 116.233 215.176 115.596C214.931 114.887 214.799 114.574 214.295 114.659C214.254 114.669 214.205 114.672 214.148 114.675C212.493 114.766 204.054 113.514 203.653 111.902C203.443 111.067 203.23 110.643 202.951 110.494C202.731 110.383 202.462 110.406 201.971 110.589C201.44 110.791 200.105 110.281 198.867 109.421C198.218 108.973 196.715 107.782 196.718 106.5C196.72 105.498 196.372 104.688 195.751 104.295C195.197 103.947 194.499 103.936 193.778 104.28C193.458 104.429 193.258 104.687 193.187 105.027C192.968 106.132 194.12 108.097 195.37 109.466C196.332 110.522 196.332 110.678 196.17 111.164C196.1 111.389 195.994 111.691 195.983 112.25C195.972 112.645 196.104 112.958 196.363 113.182C197.105 113.831 198.73 113.643 199.218 113.567C200.334 113.399 202.43 111.624 202.454 111.606C202.485 111.58 202.526 111.578 202.552 111.601C202.578 111.624 202.597 111.664 202.582 111.698C202.226 112.547 202.264 113.531 202.683 114.271C202.947 114.742 203.488 115.328 204.531 115.476C205.326 115.588 205.331 115.974 205.337 116.384C205.342 116.77 205.35 117.205 205.925 117.658C205.95 117.673 205.96 117.705 205.954 117.73C205.866 118.68 204.716 119.713 203.002 120.365C202.754 121.233 202.278 121.539 201.77 121.871C201.414 122.104 201.049 122.346 200.704 122.8C199.902 123.888 198.795 123.924 197.27 123.975C196.753 123.995 196.171 124.011 195.542 124.079C194.252 124.215 194 124.722 193.823 125.085C193.668 125.397 193.535 125.676 192.868 125.491C192.226 125.313 191.478 125.617 190.691 125.939C189.912 126.253 189.1 126.585 188.352 126.429C186.915 126.139 185.68 126.084 183.625 126.649C182.678 126.906 181.971 126.748 181.513 126.182C180.692 125.151 181.018 123.162 181.413 122.433C182.001 121.333 181.131 117.463 180.265 115.613C180.089 115.245 179.922 114.909 179.774 114.605C179.166 113.406 178.769 112.615 179.108 111.462C179.482 110.193 179.16 109.422 178.827 108.595C178.6 108.04 178.362 107.462 178.38 106.73C178.402 105.201 177.72 102.355 177.097 101.929C177.028 101.884 176.97 101.871 176.906 101.891C176.68 101.977 176.466 101.972 176.28 101.876C175.866 101.652 175.548 100.955 175.252 99.6076L175.251 99.5831L175.307 98.3724C175.327 97.9853 175.341 97.6477 175.359 97.3756C175.357 97.3347 175.396 97.2996 175.429 97.2978C175.502 97.2938 177.275 97.114 177.983 97.4447C178.329 97.6064 178.834 96.7899 179.25 96.1345C179.59 95.5901 179.884 95.1221 180.142 95.0257C180.576 94.8622 181.358 94.4412 181.692 93.4864C181.841 93.0593 182.057 92.9652 182.225 92.882C182.434 92.7884 182.602 92.7134 182.646 92.0128C182.698 91.172 182.45 91.1364 182.126 91.0803C181.969 91.0561 181.794 91.0246 181.648 90.9013C181.536 90.8088 181.44 90.8552 181.235 91.0062C180.982 91.1844 180.642 91.4331 180.127 91.0261C179.586 90.5959 178.963 91.2216 178.932 91.248C178.908 91.2657 178.876 91.2757 178.851 91.2689C178.826 91.262 178.8 91.2388 178.79 91.2065C178.67 90.6792 178.257 89.289 177.855 89.1469C177.796 89.1255 177.739 89.1368 177.676 89.1814C177.621 89.2255 177.558 89.27 177.503 89.3223C177.07 89.6665 176.527 90.0907 176.076 89.9595C175.842 89.8902 175.658 89.6786 175.532 89.3323C175.465 89.1553 175.394 89.0524 175.293 89.0087C175.149 88.9426 174.956 89.019 174.772 89.0949C174.563 89.1803 174.354 89.2657 174.183 89.1519C174.021 89.0458 173.942 88.7956 173.924 88.3283C173.91 87.7705 174.111 87.3898 174.274 87.0768C174.475 86.6879 174.602 86.4591 174.246 86.1091C174.046 85.9147 173.983 85.8114 174.027 85.7186C174.071 85.6177 174.21 85.6182 174.408 85.6319C174.68 85.6416 175.058 85.6536 175.209 85.4071C175.345 85.186 175.272 85.0504 175.189 84.8825C175.068 84.6345 174.921 84.3551 175.411 83.8517C175.761 83.4956 175.899 83.1594 175.789 82.9519C175.706 82.7922 175.464 82.7315 175.171 82.7805C174.878 82.8295 174.619 82.7452 174.418 82.6824C174.234 82.6186 174.084 82.5775 173.988 82.6321C173.901 82.6862 173.826 82.8217 173.773 83.0465C173.713 83.3044 173.614 83.4413 173.467 83.4576C173.173 83.4902 172.864 82.9487 172.736 82.7093C172.523 82.8689 171.918 83.3622 172.067 83.9865C172.131 84.2459 172.224 84.4543 172.3 84.6472C172.47 85.0486 172.611 85.3694 172.262 85.7419C172.052 85.9588 171.719 86.0264 171.394 86.0854C170.947 86.1676 170.532 86.2479 170.409 86.6982C170.341 86.9566 170.211 86.972 170.136 86.9597C169.737 86.8831 169.279 85.2736 169.429 84.1072C169.545 83.23 169.762 82.8484 169.927 82.5682C170.039 82.3731 170.115 82.2458 170.111 82.0242L170.107 81.9587C170.101 81.4086 170.127 81.284 170.885 80.2811C171.521 79.4493 171.124 78.9536 170.815 78.5599C170.753 78.4812 170.7 78.4102 170.647 78.3392C170.62 78.2914 170.584 78.2441 170.54 78.189C170.264 77.7935 169.836 77.1927 170.161 75.9263C170.363 75.1265 170.087 74.5913 169.75 74.4374C169.464 74.3053 169.142 74.4216 168.881 74.7646C168.476 75.3044 168.28 75.7834 168.166 76.5372C168.08 77.0677 168.167 77.6132 168.464 78.3691C168.675 78.9242 168.876 79.291 169.086 79.682C169.205 79.9054 169.324 80.1289 169.463 80.4005C169.667 80.8329 169.453 81.2636 169.213 81.3836C169.045 81.4668 168.885 81.4017 168.802 81.2337C168.719 81.074 168.718 80.8934 168.71 80.7541C168.705 80.6641 168.699 80.5494 168.673 80.5344C168.665 80.5266 168.606 80.5134 168.391 80.6239C168.063 80.798 168.03 81.0873 167.99 81.4017C167.954 81.6501 167.928 81.9144 167.723 82.0817C167.125 82.5582 166.074 83.3143 165.744 82.9875C165.553 82.8009 165.771 82.4357 166.041 81.969C166.289 81.5446 166.567 81.0693 166.594 80.6653C166.614 80.2781 166.474 79.6862 166.333 79.0614C166.16 78.2988 165.977 77.5121 166.007 76.8779C166.029 76.3674 166.228 75.9621 166.383 75.6332C166.618 75.1438 166.72 74.8918 166.393 74.6223C165.988 74.2913 165.7 74.4222 165.371 74.5718C165.187 74.6558 164.994 74.7404 164.781 74.7439L164.503 74.7592C163.856 74.7949 163.561 74.8111 163.339 73.9197C163.319 73.8469 163.289 73.75 163.222 73.729C163.064 73.6884 162.728 74.0109 162.432 74.3064C162.058 74.6639 161.637 75.0731 161.263 75.143C161.149 75.1657 161.018 75.1811 160.863 75.1979C159.917 75.3239 158.148 75.561 157.327 76.6166C156.713 77.4061 155.733 77.9612 154.842 78.0431C154.303 78.0892 153.852 77.958 153.523 77.6557C153.411 77.5551 152.858 77.8155 152.407 78.1197C152.383 78.1374 152.35 78.1392 152.325 78.1242C152.3 78.1092 152.281 78.0773 152.28 78.0527L152.306 76.8767L152.305 76.8603C152.304 76.8521 152.5 75.7898 152.531 75.4432C152.544 75.2453 152.791 75.1084 153.103 74.9434C153.477 74.7339 153.908 74.5048 153.954 74.149C154.004 73.7109 154.493 73.495 155.006 73.2614C155.375 73.0933 155.752 72.9246 155.951 72.6754C156.282 72.2629 158.052 70.3911 158.771 70.4747C158.895 70.4843 158.981 70.5535 159.036 70.6655C159.324 71.2657 160.145 72.2966 160.568 72.3719C160.634 72.3847 160.666 72.3665 160.69 72.3488C160.791 72.2528 161.092 72.0473 161.472 71.78C162.271 71.2267 163.766 70.1914 163.804 69.8361L163.816 69.7451C163.875 69.1833 163.999 68.0018 164.419 67.724C164.514 67.6613 164.628 67.6386 164.737 67.6736C164.962 67.7352 165.164 67.8308 165.341 67.9114C165.661 68.0581 165.863 68.1374 165.955 68.0255C166.171 67.759 166.473 67.4302 166.76 67.4144L166.768 67.4139C166.882 67.4076 166.984 67.4595 167.063 67.5456C167.229 67.7336 167.744 67.8366 168.146 67.8227C168.425 67.8156 168.545 67.7597 168.576 67.7251C168.583 67.7165 168.591 67.7078 168.607 67.6987C168.687 67.6615 170.541 66.7133 171.261 66.5176C171.706 66.3945 172.439 66.4199 173.138 66.4388C173.845 66.4574 174.57 66.4832 174.808 66.3305C175.149 66.1145 175.775 65.9979 176.304 66.1988C176.706 66.3491 176.986 66.6541 177.116 67.0823C177.197 67.3489 177.338 67.5301 177.522 67.5939C177.883 67.7301 178.32 67.4596 178.328 67.4591C178.352 67.4414 178.385 67.4396 178.41 67.4546C178.427 67.4701 180.453 68.599 181.599 68.388C182.242 68.2704 182.964 67.8117 183.543 67.443C184.06 67.1189 184.424 66.877 184.648 66.9222C184.831 66.9532 185.026 67.0657 185.246 67.1768C185.542 67.3412 185.856 67.5128 186.056 67.4197C186.577 67.1938 186.876 66.9555 186.863 66.8659C186.863 66.8577 186.851 66.7927 186.602 66.7489C186.187 66.6731 185.939 66.4978 185.962 66.3077C185.997 66.0511 186.467 65.943 187.259 66.0062C187.87 66.0547 188.464 66.2438 188.99 66.412C189.776 66.6644 190.453 66.8736 190.879 66.5462C190.926 66.5107 190.941 66.4853 190.94 66.4689C190.898 66.2905 189.804 66.1289 189.158 66.0331C187.949 65.8532 187.418 65.751 187.388 65.5144C187.336 65.0162 188.257 63.5444 189.151 63.3638C189.216 63.352 189.346 63.3284 189.533 63.2934C189.997 63.2186 190.762 63.0861 191.428 62.9345C192.547 62.6757 192.596 62.5169 192.603 62.5001C192.603 62.5001 192.593 62.4678 192.509 62.4313C191.715 62.0315 186.464 63.3474 185.82 63.884C185.91 64.0187 186.11 64.3691 186.052 64.668C186.019 64.8095 185.935 64.9291 185.8 65.0105C185.211 65.3469 184.496 65.493 183.793 65.4167C183.438 65.3788 182.981 65.7325 182.54 66.069C182.106 66.405 181.696 66.7151 181.327 66.7272C181.048 66.7343 180.825 66.7056 180.61 66.6763C180.253 66.622 179.922 66.5745 179.363 66.7039C178.429 66.9114 178.069 66.7752 177.738 66.588C177.382 66.394 176.749 65.4924 176.848 64.8956C176.879 64.7213 176.982 64.5021 177.34 64.4331C177.942 64.326 178.387 64.359 178.783 64.3865C179.039 64.4053 179.253 64.4181 179.465 64.39C179.783 64.3479 180.475 63.9319 180.673 63.6499C180.704 63.6072 180.71 63.5821 180.71 63.5739C180.592 63.5229 180.003 63.5636 179.528 63.5897C178.374 63.6615 177.66 63.6844 177.532 63.4532C177.496 63.3895 177.5 63.3071 177.536 63.2148C177.774 62.6266 179.457 61.4086 180.783 61.0234C181.64 60.7709 183.065 60.7006 184.318 60.6316C185.301 60.5775 186.145 60.5392 186.484 60.422C187.886 59.934 192.255 59.3238 193.279 59.4153C193.353 59.4194 193.444 59.4308 193.543 59.4336C194.764 59.5306 197.429 59.7371 198.104 60.5132C198.262 60.6934 198.403 60.8664 198.544 61.0393C199.046 61.6524 199.478 62.1872 200.157 62.4455C200.686 62.6464 201.246 62.9688 201.231 63.2982C201.224 63.4711 201.068 63.6111 200.752 63.7024C199.96 63.935 198.839 64.1692 198.27 63.5188C198.015 63.2288 197.668 63.478 197.526 63.5926C197.235 63.8304 197.066 64.1847 197.145 64.2871C197.357 64.5466 198.627 65.3802 199.386 64.8456C200.334 64.169 201.162 64.1399 201.685 64.2343C202.017 64.29 202.144 64.0694 202.303 63.8142C202.423 63.6186 202.544 63.423 202.762 63.3535C202.843 63.3245 202.917 63.3368 202.969 63.375C203.079 63.4511 203.089 63.6312 203.101 63.836C203.111 64.0243 203.123 64.2373 203.218 64.3224C203.252 64.3533 203.311 64.3666 203.384 64.3625C203.646 64.3399 203.922 64.2836 204.214 64.2182C204.62 64.1302 205.051 64.0407 205.486 64.0414C206.241 64.0327 208.478 64.082 209.678 64.3856C209.088 63.8102 209.18 63.6901 209.21 63.6474C209.287 63.5446 209.465 63.5101 210.799 64.2992C211.733 64.8557 213.337 65.6463 213.745 65.7388C213.682 65.6519 213.551 65.503 213.438 65.3861C212.992 64.9013 212.658 64.509 212.718 64.2428C212.731 64.1846 212.767 64.1004 212.888 64.0527C213.257 63.8928 213.288 63.5543 213.313 63.2736C213.328 63.1002 213.337 62.9601 213.45 62.921C213.554 62.8742 213.697 62.9403 213.957 63.1724C214.284 63.4501 214.614 64.0809 214.964 64.7599C215.424 65.6464 215.939 66.6448 216.415 66.6432C216.448 66.6414 216.455 66.6328 216.463 66.6241C216.553 66.4713 216.158 65.7045 215.9 65.2012C215.532 64.4903 215.329 64.0826 215.402 63.9061C215.424 63.8638 215.455 63.8292 215.504 63.8183C215.674 63.7761 215.854 63.6183 216.027 63.4692C216.254 63.2759 216.474 63.0913 216.682 63.1374C216.865 63.1766 217.074 63.2472 217.283 63.3096C217.743 63.4568 218.261 63.6254 218.439 63.4185C218.532 63.3148 218.596 63.1387 218.644 62.9718C218.75 62.6538 218.884 62.2603 219.344 62.4075L219.444 62.4349C221.937 63.2505 223.491 63.8714 224.057 64.3002C224.202 64.4072 224.631 64.7368 224.784 64.6791C224.881 64.6409 224.916 64.3925 224.951 64.1359C224.969 64.0036 225.062 63.8999 225.213 63.8176C225.237 63.808 225.27 63.8062 225.295 63.8213C233.086 68.9453 239.687 75.8927 244.391 83.9056C246.793 87.9956 248.71 92.367 250.093 96.8992C251.524 101.552 252.383 106.409 252.653 111.323C253.257 122.28 250.9 133.179 245.838 142.847C245.823 142.873 245.799 142.89 245.767 142.892ZM244.802 128.069C244.909 128.063 245.001 128.091 245.078 128.152C245.713 128.643 245.438 131.254 245.146 134.014C244.957 135.798 244.787 137.475 244.867 138.49C244.995 140.076 245.423 141.572 245.784 142.604C250.767 133.006 253.088 122.191 252.49 111.332C251.437 92.2168 241.254 74.5167 225.254 63.9632C225.174 64.0087 225.128 64.0687 225.116 64.1351C225.068 64.4663 225.033 64.7311 224.849 64.807C224.68 64.8738 224.436 64.7722 223.956 64.4125C223.579 64.1294 222.481 63.5738 219.394 62.5691L219.294 62.5335C219.001 62.4346 218.921 62.6362 218.801 62.9878C218.737 63.172 218.674 63.3644 218.558 63.4941C218.303 63.7792 217.759 63.6038 217.232 63.4274C217.023 63.3568 216.822 63.2939 216.648 63.2625C216.515 63.2369 216.327 63.4033 216.138 63.5616C215.95 63.7198 215.762 63.8862 215.56 63.9385C215.517 64.064 215.838 64.6707 216.05 65.0861C216.49 65.9244 216.741 66.4528 216.613 66.6652C216.591 66.7075 216.536 66.7598 216.429 66.7574C215.854 66.7562 215.331 65.7582 214.834 64.7835C214.494 64.1286 214.172 63.5056 213.871 63.2511C213.604 63.0276 213.538 63.0312 213.53 63.0316C213.514 63.0489 213.505 63.1727 213.492 63.2473C213.467 63.5362 213.433 63.9652 212.968 64.1633C212.911 64.1829 212.905 64.2161 212.898 64.2329C212.852 64.4408 213.289 64.9178 213.577 65.2305C213.883 65.5669 213.988 65.6843 213.961 65.7844C213.946 65.8181 213.923 65.8522 213.883 65.8626C213.575 65.9453 211.426 64.8068 210.738 64.4011C209.779 63.8378 209.478 63.7312 209.378 63.7203C209.435 63.8486 209.758 64.1923 210.06 64.4631C210.086 64.4863 210.097 64.535 210.074 64.5691C210.051 64.6032 210.011 64.6137 209.978 64.6073C208.921 64.2219 206.183 64.1673 205.51 64.1797C205.083 64.1868 204.669 64.2753 204.271 64.3547C203.971 64.4206 203.695 64.4769 203.417 64.5004C203.302 64.5067 203.202 64.4793 203.133 64.4174C202.986 64.2859 202.972 64.0402 202.96 63.8191C202.953 63.688 202.943 63.516 202.901 63.4855C202.884 63.4783 202.851 63.4801 202.835 63.4891C202.674 63.5391 202.576 63.7088 202.471 63.8789C202.305 64.1509 202.124 64.4483 201.685 64.374C201.195 64.2859 200.416 64.3124 199.507 64.9621C198.654 65.5759 197.282 64.6739 197.043 64.3749C196.876 64.1705 197.115 63.7302 197.445 63.4574C197.806 63.15 198.182 63.1293 198.419 63.4037C198.928 63.9836 199.983 63.7612 200.735 63.5391C200.961 63.4691 201.088 63.38 201.091 63.2895C201.097 63.1002 200.687 62.8107 200.116 62.5956C199.387 62.3237 198.946 61.7729 198.426 61.1444C198.285 60.9714 198.144 60.7985 197.995 60.6259C197.364 59.8968 194.641 59.6853 193.478 59.5932C193.379 59.5823 193.288 59.579 193.214 59.5749C192.29 59.4944 187.967 60.061 186.492 60.5776C186.138 60.7039 185.277 60.7431 184.286 60.7976C183.042 60.8662 181.633 60.9356 180.792 61.179C179.449 61.5651 177.856 62.77 177.646 63.2744C177.632 63.3163 177.626 63.3577 177.635 63.3736C177.726 63.5329 178.864 63.462 179.478 63.4282C180.485 63.3645 180.748 63.3665 180.821 63.4939C180.848 63.5499 180.844 63.6159 180.807 63.6918C180.643 63.9966 179.841 64.5089 179.442 64.5638C179.222 64.5924 178.991 64.5804 178.735 64.5616C178.348 64.5337 177.911 64.5085 177.325 64.6146C177.114 64.6509 176.996 64.756 176.974 64.9379C176.893 65.4188 177.441 66.2676 177.78 66.4543C178.085 66.6182 178.412 66.7481 179.289 66.5519C179.881 66.4207 180.245 66.4746 180.593 66.5212C180.8 66.5509 181.015 66.5801 181.278 66.5738L181.286 66.5734C181.597 66.5562 181.999 66.2466 182.385 65.9461C182.85 65.5837 183.33 65.2122 183.752 65.2629C184.421 65.3328 185.095 65.1971 185.661 64.8785C185.757 64.8239 185.818 64.7466 185.837 64.647C185.903 64.3476 185.602 63.9453 185.593 63.9376C185.567 63.9062 185.573 63.8648 185.596 63.8388C185.842 63.5296 187.473 63.029 188.884 62.6966C189.59 62.5264 191.935 62.0029 192.526 62.2989C192.661 62.3654 192.723 62.4442 192.704 62.5438C192.662 62.8336 191.765 63.0966 189.51 63.4754C189.339 63.5012 189.201 63.5253 189.136 63.5371C188.348 63.6955 187.455 65.0836 187.503 65.5081C187.552 65.6451 188.538 65.7962 189.134 65.8866C190.277 66.0536 190.982 66.1791 191.054 66.438C191.075 66.5272 191.038 66.6031 190.936 66.6827C190.439 67.0633 189.72 66.84 188.892 66.5734C188.374 66.4048 187.789 66.2235 187.195 66.1741C186.37 66.1127 186.082 66.26 186.07 66.3346C186.065 66.3924 186.204 66.5244 186.577 66.5942C186.669 66.6138 186.951 66.6639 186.969 66.8519C187 67.1212 186.417 67.4244 186.064 67.5753C185.792 67.6971 185.445 67.5108 185.106 67.3241C184.903 67.2121 184.716 67.1156 184.559 67.0832C184.401 67.0508 183.996 67.3113 183.567 67.5813C182.98 67.9587 182.242 68.4265 181.567 68.5458C180.444 68.7473 178.617 67.78 178.312 67.6161C178.185 67.6888 177.776 67.8756 177.407 67.7399C177.172 67.646 176.996 67.4421 176.905 67.1186C176.794 66.7468 176.541 66.4733 176.188 66.3448C175.71 66.1658 175.133 66.2715 174.839 66.4601C174.562 66.6397 173.87 66.6121 173.08 66.5899C172.389 66.5704 171.681 66.5437 171.253 66.6659C170.581 66.8507 168.823 67.7361 168.647 67.828C168.546 67.9403 168.302 67.9702 168.113 67.9724C167.67 67.9885 167.113 67.8714 166.903 67.6365C166.859 67.5814 166.8 67.56 166.734 67.5554C166.562 67.5567 166.31 67.7595 166.042 68.1029C165.873 68.3175 165.578 68.1859 165.233 68.0324C165.056 67.9518 164.862 67.8639 164.645 67.8019C164.578 67.7809 164.521 67.7923 164.458 67.8287C164.101 68.0701 163.977 69.2352 163.922 69.7311L163.91 69.8221C163.866 70.2188 162.753 71.0276 161.51 71.8846C161.154 72.1343 160.846 72.3484 160.752 72.4357C160.705 72.4794 160.625 72.5248 160.493 72.4993C159.97 72.4048 159.118 71.2606 158.849 70.7004C158.822 70.6445 158.779 70.614 158.712 70.6012C158.134 70.5345 156.499 72.1688 156.037 72.7446C155.815 73.028 155.422 73.2057 155.038 73.3829C154.565 73.5979 154.124 73.8029 154.085 74.1418C154.027 74.5804 153.541 74.8454 153.15 75.064C152.911 75.1922 152.672 75.3286 152.662 75.4359C152.64 75.7822 152.456 76.7698 152.437 76.8694L152.41 77.8813C152.736 77.6744 153.373 77.319 153.598 77.5202C153.892 77.7833 154.301 77.9004 154.792 77.8652C155.642 77.7937 156.573 77.2577 157.156 76.5028C158.015 75.3958 159.826 75.1564 160.804 75.0204C160.959 75.0037 161.089 74.9801 161.203 74.9656C161.529 74.9148 161.935 74.5228 162.285 74.1749C162.683 73.7915 162.995 73.4869 163.237 73.5557C163.346 73.5908 163.425 73.685 163.467 73.8634C163.657 74.6251 163.829 74.6156 164.46 74.5809L164.738 74.5655C164.918 74.5556 165.087 74.4806 165.272 74.4047C165.608 74.2548 165.985 74.0861 166.467 74.4786C166.906 74.8405 166.722 75.2285 166.5 75.6843C166.346 76.0131 166.161 76.3929 166.138 76.8624C166.106 77.4803 166.299 78.2911 166.461 79.0051C166.611 79.6375 166.751 80.2377 166.724 80.6499C166.7 81.103 166.407 81.5956 166.151 82.0286C165.957 82.368 165.731 82.75 165.827 82.8515C165.984 83.0072 166.726 82.6213 167.592 81.9329C167.749 81.8092 167.771 81.6027 167.799 81.3629C167.839 81.0404 167.884 80.6764 168.283 80.4655C168.499 80.355 168.629 80.3233 168.722 80.3756C168.832 80.4353 168.831 80.5749 168.84 80.7306C168.847 80.8616 168.848 81.0176 168.912 81.1455C168.959 81.2415 169.017 81.263 169.106 81.2252C169.281 81.1334 169.443 80.7959 169.286 80.4678C169.156 80.1957 169.037 79.9722 168.918 79.757C168.707 79.366 168.506 78.991 168.286 78.4281C167.98 77.6482 167.891 77.078 167.984 76.5144C168.105 75.7437 168.315 75.2229 168.728 74.6662C169.034 74.2632 169.445 74.1174 169.8 74.2868C170.196 74.4786 170.517 75.0852 170.295 75.9682C169.991 77.1596 170.374 77.7053 170.65 78.0926C170.686 78.1481 170.721 78.1955 170.757 78.251C170.802 78.3142 170.855 78.3853 170.916 78.4558C171.225 78.8495 171.702 79.4476 170.99 80.3822C170.239 81.3764 170.243 81.4501 170.239 81.9596L170.242 82.0252C170.24 82.2881 170.15 82.4492 170.038 82.6525C169.889 82.9154 169.679 83.2802 169.561 84.1245C169.398 85.3492 169.903 86.7508 170.135 86.7955C170.152 86.8028 170.182 86.76 170.218 86.6513C170.368 86.109 170.88 86.0069 171.328 85.9248C171.637 85.8667 171.937 85.8091 172.108 85.6272C172.388 85.3407 172.284 85.0999 172.115 84.715C172.031 84.5225 171.937 84.3058 171.872 84.0301C171.66 83.1628 172.645 82.55 172.685 82.5232C172.701 82.5141 172.725 82.5045 172.75 82.5114C172.775 82.5182 172.792 82.5337 172.802 82.5578C172.95 82.8618 173.245 83.3055 173.401 83.297L173.409 83.2965C173.475 83.2929 173.534 83.1828 173.574 83.0082C173.64 82.7252 173.73 82.5642 173.865 82.4828C174.033 82.3914 174.225 82.4548 174.434 82.5172C174.635 82.5801 174.861 82.658 175.113 82.6113C175.487 82.5414 175.78 82.6402 175.907 82.8632C176.054 83.1427 175.903 83.5371 175.499 83.9536C175.095 84.3702 175.188 84.5704 175.307 84.7938C175.399 84.9777 175.5 85.1775 175.32 85.4749C175.117 85.8147 174.672 85.7899 174.376 85.7816C174.301 85.7775 174.211 85.7742 174.162 85.7851C174.18 85.817 174.224 85.8721 174.337 85.9808C174.78 86.4083 174.601 86.7467 174.393 87.1442C174.229 87.449 174.043 87.8042 174.063 88.3124C174.076 88.6978 174.138 88.9326 174.249 89.0004C174.351 89.0687 174.511 88.9942 174.688 88.9269C174.897 88.8415 175.13 88.7465 175.341 88.8417C175.484 88.9078 175.59 89.0416 175.668 89.2591C175.775 89.5572 175.924 89.7378 176.107 89.7853C176.475 89.8883 176.978 89.4909 177.388 89.1726C177.451 89.128 177.506 89.0757 177.569 89.0312C177.672 88.9516 177.785 88.9289 177.903 88.9717C178.405 89.1494 178.795 90.5491 178.911 91.0191C179.139 90.8341 179.702 90.4745 180.218 90.8815C180.638 91.2115 180.883 91.0337 181.128 90.856C181.31 90.7227 181.515 90.58 181.739 90.7648C181.851 90.8572 181.992 90.8823 182.141 90.907C182.556 90.9827 182.85 91.0979 182.794 92.0129C182.752 92.7544 182.562 92.8881 182.282 93.0185C182.114 93.0935 181.962 93.1676 181.834 93.5279C181.479 94.5496 180.649 94.9896 180.19 95.1627C179.981 95.24 179.672 95.7334 179.377 96.2097C178.887 96.9924 178.373 97.8093 177.9 97.5807C177.31 97.301 175.845 97.4063 175.502 97.4416C175.492 97.7051 175.477 98.0181 175.455 98.3725L175.397 99.5668C175.673 100.841 175.973 101.523 176.346 101.716C176.489 101.79 176.646 101.798 176.831 101.722C176.903 101.694 177.025 101.679 177.17 101.777C177.888 102.272 178.554 105.266 178.527 106.722C178.516 107.421 178.735 107.959 178.963 108.521C179.295 109.333 179.637 110.168 179.25 111.496C178.932 112.589 179.319 113.357 179.909 114.523C180.057 114.819 180.232 115.163 180.409 115.531C181.201 117.245 182.211 121.264 181.548 122.5C181.153 123.228 180.888 125.14 181.638 126.068C182.052 126.579 182.701 126.724 183.574 126.479C185.662 125.904 186.914 125.967 188.376 126.264C189.074 126.406 189.861 126.084 190.617 125.779C191.428 125.447 192.2 125.142 192.9 125.325C193.434 125.468 193.515 125.307 193.663 125.003C193.862 124.598 194.136 124.049 195.516 123.907C196.145 123.84 196.735 123.816 197.252 123.804C198.736 123.755 199.802 123.713 200.559 122.693C200.918 122.213 201.315 121.953 201.664 121.721C202.171 121.389 202.607 121.102 202.832 120.268C202.839 120.243 202.854 120.226 202.879 120.216C204.529 119.6 205.65 118.634 205.757 117.749C205.163 117.256 205.153 116.772 205.148 116.378C205.142 115.968 205.136 115.722 204.483 115.635C203.374 115.482 202.797 114.848 202.515 114.355C202.115 113.654 202.04 112.746 202.299 111.927C201.709 112.403 200.164 113.589 199.219 113.731C198.576 113.832 197.007 113.984 196.231 113.312C195.929 113.05 195.786 112.696 195.794 112.252C195.803 111.668 195.909 111.35 195.987 111.116C196.128 110.698 196.155 110.598 195.228 109.581C193.995 108.219 192.767 106.209 193.005 105.004C193.082 104.606 193.312 104.314 193.68 104.138C194.456 103.766 195.213 103.774 195.817 104.16C196.49 104.591 196.873 105.44 196.866 106.509C196.864 107.355 197.618 108.373 198.942 109.294C200.104 110.101 201.43 110.619 201.897 110.446C202.348 110.281 202.713 110.195 203.018 110.359C203.348 110.538 203.577 110.969 203.799 111.869C203.957 112.509 205.755 113.223 208.72 113.824C211.138 114.315 213.683 114.594 214.253 114.505C214.921 114.394 215.087 114.878 215.322 115.555C215.536 116.176 215.829 117.022 216.654 117.823C217.513 118.655 217.556 119.145 217.599 119.619C217.641 120.077 217.673 120.51 218.585 121.265C219.61 122.121 220.405 121.354 220.928 120.849C221.17 120.614 221.318 120.474 221.453 120.532C221.562 120.576 221.594 120.722 221.58 121.051C221.564 121.512 221.512 122.065 221.454 122.652C221.288 124.402 221.087 126.574 221.598 128.254C221.891 129.232 222.117 130.353 222.332 131.426C222.615 132.848 222.878 134.188 223.276 135.004C223.582 135.637 223.507 136.511 223.439 137.353C223.344 138.475 223.258 139.441 224.092 139.527C225.563 139.676 227.513 136.603 227.934 135.003C228.077 134.469 228.059 133.846 228.048 133.189C228.028 131.933 227.997 130.637 229.043 129.783C229.295 129.58 229.562 129.36 229.853 129.13C231.387 127.904 233.291 126.378 233.696 125.378C233.949 124.748 234.538 124.256 235.103 123.773C235.66 123.299 236.186 122.851 236.402 122.297C236.66 121.617 237.382 121.454 238.022 121.296C238.509 121.178 238.971 121.071 239.127 120.767C239.379 120.276 240.08 119.424 240.521 119.54C240.746 119.601 240.853 119.891 240.824 120.41C240.808 120.723 240.782 120.988 240.753 121.219C240.664 122.136 240.63 122.417 241.456 123.242C242.152 123.943 241.871 125.101 241.631 126.124C241.484 126.724 241.351 127.298 241.415 127.721C241.48 128.153 241.627 128.433 241.873 128.575C242.417 128.898 243.415 128.531 244.47 128.145L244.655 128.077C244.688 128.083 244.745 128.072 244.802 128.069ZM201.821 96.3866C201.698 96.3934 201.566 96.3842 201.435 96.3833C201.22 96.3704 200.998 96.3662 200.804 96.4098C199.985 96.6028 197.766 95.2463 196.978 94.0657C196.414 93.2179 197.409 92.2019 198.133 91.4639C198.436 91.1515 198.732 90.8559 198.772 90.6894C198.899 90.173 198.356 88.8065 197.504 87.5062C196.948 86.6579 197.141 85.3986 197.638 84.7142C197.89 84.3717 198.194 84.2235 198.478 84.3065C198.82 84.4026 199.35 84.1927 199.962 83.9537C200.758 83.6388 201.755 83.2471 202.819 83.3281C203.685 83.3954 203.891 83.7044 203.921 83.9574C203.974 84.4638 203.3 85.0513 202.839 85.1835C202.604 85.2539 202.366 85.2588 202.145 85.271C201.646 85.2985 201.212 85.3224 200.931 85.8964C200.835 86.0988 201.654 87.6802 202.11 88.0576C202.462 88.3422 202.39 89.2662 202.312 89.7962C202.491 89.6138 202.746 89.4683 203.017 89.4698C203.281 89.48 203.651 89.6403 203.889 90.3911C204.059 90.9322 204.045 91.2697 203.832 91.4293C203.477 91.7035 202.699 91.2946 202.273 91.0223C202.137 90.9394 202.107 90.9822 202.091 90.9995C201.929 91.1973 202.15 92.2202 202.577 92.6567C202.96 93.0463 202.865 93.569 202.764 94.1168C202.707 94.432 202.643 94.756 202.661 95.0754C202.689 95.5995 202.61 95.9489 202.416 96.1485C202.253 96.33 202.05 96.374 201.821 96.3866ZM201.031 96.2165C201.17 96.2089 201.311 96.2176 201.442 96.2186C201.78 96.2328 202.101 96.248 202.287 96.0488C202.45 95.8837 202.516 95.5762 202.489 95.1012C202.471 94.7572 202.534 94.4251 202.591 94.1017C202.693 93.5703 202.774 93.114 202.452 92.7868C202 92.327 201.709 91.2177 201.955 90.9084C202.008 90.8397 202.127 90.7592 202.348 90.8949C202.859 91.2118 203.482 91.4897 203.718 91.3042C203.86 91.1978 203.86 90.8939 203.72 90.4415C203.551 89.9169 203.306 89.6429 203.002 89.635C202.665 89.6289 202.321 89.9518 202.234 90.1701C202.22 90.212 202.18 90.2306 202.138 90.2165C202.096 90.2024 202.07 90.1628 202.084 90.1209C202.174 89.6723 202.337 88.4476 202.001 88.1786C201.589 87.8399 200.617 86.1601 200.779 85.8226C201.104 85.164 201.629 85.1351 202.136 85.1072C202.357 85.095 202.579 85.0828 202.797 85.0215C203.242 84.8984 203.795 84.3504 203.758 83.9746C203.723 83.6316 203.224 83.5194 202.811 83.4928C201.78 83.4181 200.807 83.8003 200.019 84.1066C199.352 84.3651 198.829 84.5746 198.437 84.4648C198.145 84.3823 197.897 84.6506 197.775 84.8134C197.301 85.4556 197.137 86.6557 197.647 87.4162C198.409 88.5736 199.1 90.0881 198.938 90.7295C198.884 90.9378 198.612 91.2157 198.262 91.5718C197.578 92.2748 196.636 93.2303 197.12 93.9675C197.917 95.164 200.073 96.4172 200.77 96.2473C200.851 96.2346 200.941 96.2215 201.031 96.2165ZM189.148 87.0299C188.886 87.0444 188.581 87.0201 188.239 86.9321C187.223 86.6677 186.246 85.9493 185.39 85.3147C184.791 84.8712 184.269 84.4893 183.859 84.3558C183.341 84.1954 182.53 84.24 181.736 84.292C180.762 84.3538 179.853 84.4039 179.473 84.0716C179.369 83.9787 179.241 83.8872 179.105 83.7961C178.72 83.5298 178.276 83.2256 178.267 82.7497C178.257 82.282 178.671 81.7417 179.531 81.0947C181.818 79.3669 183.333 78.2321 184.528 79.0616C185.084 79.45 185.337 79.5839 185.464 79.6426C185.608 79.7168 185.617 79.7328 185.682 79.877C185.701 79.9171 185.695 79.9667 185.672 80.0008C185.605 80.1113 185.384 80.1317 184.999 80.1529C184.835 80.1619 184.606 80.1745 184.517 80.204L184.526 80.2118C184.698 80.3502 184.735 80.5863 184.764 80.8147C184.801 81.0345 184.829 81.2465 184.974 81.3453C185.069 81.4141 185.209 81.4228 185.404 81.3874C186.298 81.2149 186.89 81.3713 187.457 81.529C187.524 81.5499 187.59 81.5627 187.649 81.5841C188.649 81.8412 190.501 82.6592 190.341 83.9331C190.228 84.8593 190.431 85.111 190.608 85.3395C190.679 85.4342 190.758 85.5284 190.806 85.6654C190.874 85.8588 190.776 86.1517 190.543 86.4027C190.404 86.5665 189.951 86.9857 189.148 87.0299ZM182.095 84.1079C182.783 84.07 183.448 84.058 183.916 84.2047C184.342 84.3373 184.874 84.7353 185.49 85.186C186.338 85.8129 187.296 86.5158 188.288 86.7734C189.58 87.1129 190.261 86.5004 190.439 86.3017C190.656 86.0597 190.709 85.835 190.67 85.7304C190.632 85.6257 190.57 85.547 190.499 85.4523C190.304 85.2001 190.075 84.917 190.201 83.9244C190.376 82.4772 187.659 81.7643 187.634 81.7575C187.567 81.7447 187.501 81.7237 187.434 81.7028C186.858 81.5455 186.308 81.4033 185.455 81.5653C185.211 81.6116 185.029 81.5888 184.901 81.4972C184.704 81.3602 184.666 81.1077 184.627 80.8552C184.591 80.6436 184.564 80.4479 184.443 80.356C184.366 80.2945 184.338 80.2303 184.359 80.1717C184.402 80.0461 184.614 80.0262 185.016 80.0041C185.187 79.9946 185.466 79.9793 185.546 79.942C185.508 79.8537 185.5 79.8542 185.407 79.8018C185.28 79.7349 185.026 79.601 184.454 79.2053C183.403 78.4746 182.083 79.4016 179.645 81.2363C178.841 81.8392 178.442 82.354 178.448 82.7562C178.453 83.1502 178.845 83.4161 179.212 83.667C179.357 83.7658 179.494 83.8568 179.598 83.9579C179.918 84.2442 180.843 84.1932 181.735 84.1359C181.85 84.1214 181.972 84.1146 182.095 84.1079ZM188.49 81.3407C188.31 81.3506 188.137 81.3437 187.98 81.3277C187.732 81.3003 187.033 81.1416 186.764 80.7293C186.656 80.5545 186.637 80.3666 186.7 80.166C186.785 79.9231 187.17 79.754 187.856 79.667C188.851 79.5464 190.613 79.6219 190.765 79.8517C190.793 79.8995 190.804 79.9482 190.79 79.9983C190.756 80.1315 190.598 80.2388 190.367 80.3748C190.161 80.5011 189.93 80.6453 189.776 80.8344C189.491 81.1705 188.973 81.3141 188.49 81.3407ZM188.396 79.7769C188.019 79.7976 187.66 79.842 187.368 79.9156C186.996 80.0101 186.887 80.131 186.858 80.2065C186.81 80.3653 186.817 80.5045 186.907 80.631C187.113 80.9483 187.681 81.1223 187.995 81.1543C188.59 81.2201 189.323 81.1058 189.646 80.7102C189.816 80.5037 190.07 80.3419 190.276 80.2155C190.435 80.1164 190.61 80.0082 190.631 79.9413C190.631 79.9413 190.63 79.9331 190.621 79.9172C190.51 79.833 189.403 79.7214 188.396 79.7769Z" fill="#111111"/>
<path d="M147.233 81.1236C146.687 82.2462 145.004 83.1685 144.391 83.2269C143.787 83.2931 142.477 85.5996 140.739 87.0096C139.15 88.2882 139.473 89.5272 138.448 90.4544C138.038 91.6681 136.446 94.0805 135.784 95.4806C135.144 96.8465 134.015 100.507 134.181 101.286C134.347 102.066 134.157 102.939 133.912 106.238C133.666 109.537 134.357 110.444 135.198 110.792C136.038 111.14 135.726 113.227 136.274 113.78C136.822 114.325 137.078 111.814 138.583 113.193C140.088 114.572 139.593 116.029 139.962 117.2C140.33 118.37 142.009 118.426 142.236 120.303C142.462 122.18 141.172 124.715 140.955 126.887C140.738 129.06 143.572 132.346 143.447 134.546C143.322 136.746 143.953 138.223 144.053 139.285C144.153 140.347 143.569 141.094 143.077 142.592C142.576 144.09 146.128 148.617 146.153 149.824C146.178 151.03 149.511 156.506 152.16 159.26C154.809 162.014 158.793 164.406 160.007 164.52C161.221 164.634 161.963 162.293 162.173 161.345C162.392 160.397 163.779 162.152 164.461 161.572C165.144 161.001 163.712 159.297 163.703 158.402C163.695 157.507 169.305 157.338 170.404 157.007C171.502 156.675 171.102 152.688 170.482 152.008C169.861 151.327 169.861 148.789 169.972 147.83C170.315 144.953 175.901 141.08 181.344 140.427C185.604 139.921 190.94 132.251 191.197 130.495C191.37 129.311 181.907 131.549 180.577 128.591C179.81 126.892 181.044 124.688 177.782 121.68C176.648 120.634 177.19 117.047 176.127 116.095C175.064 115.143 177.432 112.195 175.83 108.908C174.959 107.115 175.213 101.581 175.367 98.5581L175.424 97.372C175.433 97.2237 175.434 97.1004 175.436 96.9853C175.481 95.266 172.43 96.0912 172.43 96.0912C167.991 93.2141 166.214 89.1226 164.776 91.5018C162.215 95.7254 161.104 89.4204 159.539 87.4118C157.108 84.2845 160.86 84.234 160.819 81.7062C158.574 81.5095 157.727 79.2561 155.438 79.6121C152.75 80.0312 152.117 79.5732 152.336 78.0332C152.329 78.0419 147.779 80.001 147.233 81.1236Z" fill="white"/>
<path d="M160.135 164.612C160.086 164.615 160.037 164.617 159.987 164.612C158.765 164.498 154.747 162.091 152.09 159.329C149.458 156.591 146.083 151.092 146.064 149.845C146.054 149.369 145.436 148.286 144.782 147.147C143.801 145.443 142.692 143.5 142.995 142.588C143.156 142.094 143.33 141.674 143.491 141.312C143.811 140.555 144.035 140.009 143.972 139.314C143.938 138.979 143.851 138.598 143.753 138.168C143.546 137.235 143.277 136.075 143.366 134.567C143.423 133.504 142.765 132.152 142.125 130.832C141.458 129.455 140.764 128.032 140.874 126.9C140.963 125.975 141.252 124.973 141.528 124.014C141.914 122.67 142.28 121.401 142.155 120.332C142.031 119.279 141.439 118.819 140.865 118.382C140.445 118.06 140.05 117.753 139.89 117.245C139.772 116.882 139.742 116.489 139.711 116.08C139.636 115.164 139.559 114.207 138.538 113.278C138.227 112.991 137.94 112.859 137.703 112.88C137.368 112.915 137.14 113.24 136.933 113.522C136.773 113.744 136.636 113.941 136.465 113.959C136.383 113.963 136.299 113.935 136.229 113.857C135.968 113.6 135.898 113.062 135.817 112.491C135.721 111.79 135.616 111.073 135.179 110.891C134.372 110.558 133.588 109.747 133.839 106.25C133.919 105.178 133.99 104.369 134.052 103.716C134.176 102.387 134.22 101.834 134.118 101.322C133.923 100.479 135.091 96.7673 135.708 95.4518C135.988 94.8614 136.415 94.115 136.873 93.3259C137.495 92.2484 138.132 91.1372 138.373 90.4339C138.38 90.4171 138.388 90.4084 138.396 90.3998C138.834 90.006 139.022 89.5439 139.225 89.048C139.485 88.4094 139.79 87.6779 140.694 86.9463C141.575 86.2325 142.344 85.2865 142.968 84.5211C143.598 83.7388 144.06 83.1795 144.395 83.1446C144.934 83.0902 146.627 82.2084 147.165 81.0863C147.718 79.9468 152.115 78.0454 152.308 77.9609C152.332 77.9513 152.365 77.9495 152.391 77.9727C152.416 77.9959 152.426 78.0201 152.42 78.0533C152.324 78.7075 152.395 79.1061 152.647 79.3551C153.021 79.7288 153.879 79.7883 155.426 79.5388C156.704 79.337 157.533 79.9157 158.405 80.533C159.106 81.0284 159.832 81.5388 160.831 81.6316C160.873 81.6375 160.907 81.6685 160.909 81.7094C160.927 82.7682 160.297 83.4107 159.737 83.9837C158.912 84.8259 158.205 85.5549 159.611 87.3668C160.053 87.9339 160.446 88.8077 160.859 89.7378C161.533 91.245 162.235 92.8 163.108 92.8504C163.595 92.8812 164.136 92.416 164.716 91.464C164.995 91.0051 165.294 90.7668 165.644 90.7229C166.387 90.6327 167.246 91.4643 168.436 92.631C169.478 93.6497 170.78 94.917 172.458 96.0157C172.734 95.943 174.404 95.5553 175.16 96.1462C175.409 96.346 175.54 96.6346 175.527 96.9967C175.525 97.1036 175.516 97.2356 175.515 97.3834L175.458 98.5695C175.322 101.329 175.031 107.079 175.911 108.887C176.837 110.799 176.437 112.62 176.148 113.95C175.939 114.915 175.767 115.672 176.19 116.051C176.735 116.538 176.87 117.648 177.016 118.806C177.152 119.949 177.299 121.124 177.853 121.635C180.112 123.721 180.24 125.447 180.349 126.837C180.402 127.492 180.441 128.048 180.675 128.569C181.47 130.341 185.332 130.202 188.151 130.088C189.939 130.022 190.964 129.999 191.235 130.296C191.288 130.359 191.317 130.439 191.305 130.522C191.18 131.383 189.83 133.717 187.861 135.994C186.509 137.555 183.879 140.222 181.382 140.523C178.844 140.827 176.092 141.866 173.817 143.371C171.638 144.822 170.244 146.493 170.08 147.849C169.95 148.924 170.01 151.344 170.569 151.962C171.059 152.502 171.402 155.005 171.046 156.289C170.923 156.74 170.716 157.014 170.449 157.094C170.086 157.205 169.245 157.292 168.273 157.403C166.493 157.6 163.807 157.887 163.811 158.413C163.813 158.75 164.045 159.238 164.26 159.702C164.622 160.463 164.994 161.256 164.531 161.643C164.154 161.959 163.629 161.668 163.163 161.422C162.867 161.258 162.554 161.094 162.401 161.16C162.337 161.188 162.3 161.256 162.273 161.364C162.169 161.707 161.478 164.538 160.135 164.612ZM137.71 112.707C137.997 112.691 138.301 112.839 138.638 113.149C139.702 114.125 139.792 115.155 139.866 116.063C139.897 116.464 139.934 116.84 140.044 117.195C140.192 117.655 140.57 117.947 140.964 118.253C141.539 118.69 142.182 119.188 142.318 120.315C142.453 121.416 142.08 122.702 141.687 124.062C141.411 125.022 141.129 126.007 141.039 126.924C140.935 128.006 141.611 129.406 142.278 130.766C142.926 132.094 143.594 133.478 143.531 134.574C143.448 136.057 143.709 137.209 143.915 138.126C144.013 138.564 144.1 138.946 144.136 139.297C144.209 140.032 143.962 140.621 143.642 141.369C143.49 141.731 143.315 142.143 143.153 142.637C142.871 143.482 143.962 145.385 144.925 147.065C145.624 148.275 146.224 149.327 146.228 149.844C146.253 151.042 149.654 156.564 152.207 159.224C154.838 161.955 158.806 164.348 159.995 164.455C161.06 164.553 161.804 162.54 162.075 161.342C162.115 161.176 162.183 161.074 162.295 161.026C162.528 160.923 162.841 161.095 163.205 161.288C163.628 161.512 164.103 161.773 164.385 161.527C164.746 161.22 164.402 160.491 164.067 159.787C163.825 159.275 163.602 158.794 163.598 158.425C163.596 157.8 165.504 157.539 168.207 157.251C169.171 157.148 170.004 157.053 170.351 156.952C170.618 156.872 170.764 156.535 170.839 156.26C171.174 155.042 170.85 152.587 170.395 152.087C169.74 151.367 169.754 148.795 169.866 147.844C170.035 146.438 171.461 144.725 173.679 143.248C175.969 141.725 178.754 140.676 181.308 140.371C183.748 140.081 186.347 137.449 187.683 135.897C189.628 133.637 190.964 131.346 191.091 130.509C191.097 130.476 191.087 130.444 191.061 130.42C190.833 130.162 189.505 130.21 188.112 130.262C185.243 130.371 181.316 130.522 180.474 128.646C180.23 128.101 180.18 127.496 180.137 126.857C180.033 125.425 179.911 123.806 177.696 121.767C177.099 121.217 176.95 120.009 176.812 118.842C176.678 117.757 176.543 116.631 176.041 116.182C175.549 115.741 175.727 114.943 175.95 113.928C176.252 112.548 176.634 110.835 175.726 108.971C174.828 107.123 175.118 101.348 175.253 98.5808L175.311 97.3947C175.319 97.2464 175.32 97.1231 175.322 97.008C175.329 96.6872 175.234 96.4542 175.02 96.2853C174.281 95.7017 172.443 96.189 172.427 96.1899C172.403 96.1995 172.378 96.1926 172.36 96.1771C170.648 95.0721 169.337 93.7889 168.286 92.7542C167.132 91.6267 166.298 90.8101 165.629 90.8962C165.336 90.937 165.068 91.1489 164.82 91.5651C164.203 92.5848 163.629 93.06 163.069 93.0251C162.096 92.9637 161.375 91.3605 160.682 89.8133C160.27 88.8995 159.877 88.0257 159.453 87.4741C157.958 85.5521 158.751 84.7362 159.591 83.8767C160.135 83.3128 160.703 82.7394 160.717 81.794C159.709 81.6852 158.991 81.1744 158.282 80.6795C157.436 80.0853 156.641 79.5212 155.427 79.7113C153.798 79.9653 152.924 79.8984 152.506 79.4778C152.237 79.2134 152.141 78.8079 152.213 78.1797C151.459 78.5087 147.764 80.1825 147.292 81.1614C146.746 82.284 145.058 83.2395 144.388 83.3093C144.127 83.3401 143.634 83.934 143.072 84.6303C142.449 85.3957 141.664 86.359 140.775 87.0733C139.902 87.7785 139.619 88.4595 139.352 89.115C139.149 89.619 138.954 90.0898 138.5 90.509C138.252 91.2291 137.615 92.3321 137.001 93.4092C136.543 94.1984 136.116 94.9448 135.844 95.5265C135.19 96.9262 134.09 100.527 134.247 101.282C134.359 101.818 134.307 102.38 134.184 103.726C134.122 104.378 134.051 105.187 133.971 106.259C133.722 109.649 134.454 110.422 135.203 110.734C135.724 110.952 135.832 111.718 135.939 112.468C136.018 113.014 136.087 113.519 136.305 113.746C136.366 113.808 136.398 113.798 136.415 113.797C136.513 113.792 136.642 113.604 136.764 113.433C136.978 113.134 137.237 112.766 137.645 112.719C137.685 112.708 137.702 112.708 137.71 112.707Z" fill="#111111"/>
<path d="M165.9 66.4267C166.374 66.5238 167.137 66.5065 167.542 66.5663C168.222 66.6685 169.175 66.9774 169.909 66.4359C170.643 65.8944 171.161 65.907 170.861 65.2171C170.56 64.5272 173.016 63.9237 173.32 63.1923C173.625 62.4608 174.924 62.6275 174.952 62.1002C174.973 61.5734 171.611 62.736 170.534 62.8693C169.458 63.0107 167.478 63.0129 167.073 63.717C166.661 64.4298 165.689 64.9843 166.403 64.9697C167.117 64.955 168.844 64.252 169.092 64.4273C169.34 64.6026 169.256 65.0261 168.397 65.2295C167.537 65.4329 165.344 66.3177 165.9 66.4267Z" fill="white"/>
<path d="M169.004 66.8308C168.61 66.8525 168.22 66.7754 167.872 66.7125C167.755 66.686 167.639 66.6678 167.531 66.6491C167.358 66.6258 167.118 66.6061 166.863 66.5955C166.517 66.5817 166.163 66.5601 165.888 66.5013C165.756 66.4758 165.735 66.403 165.733 66.362C165.729 66.2965 165.729 66.1404 166.789 65.7042C167.343 65.4683 168.004 65.243 168.386 65.1563C168.897 65.0378 169.107 64.8372 169.132 64.688C169.144 64.6134 169.116 64.5492 169.048 64.5037C168.946 64.4354 168.315 64.618 167.846 64.7506C167.312 64.9032 166.754 65.0572 166.409 65.0679C166.286 65.0665 166.129 65.0587 166.083 64.9545C166.026 64.818 166.173 64.662 166.422 64.4101C166.617 64.2104 166.85 63.9676 167.007 63.696C167.352 63.0938 168.701 62.9785 169.788 62.8775C170.058 62.8545 170.311 62.8323 170.531 62.8037C170.899 62.7589 171.538 62.584 172.218 62.4069C173.724 62.0118 174.73 61.7675 174.979 61.9674C175.022 62.0061 175.049 62.0539 175.045 62.1198C175.029 62.4329 174.69 62.5337 174.335 62.6518C173.971 62.7622 173.56 62.8998 173.414 63.2446C173.27 63.5976 172.703 63.8999 172.112 64.2117C171.481 64.5422 170.819 64.8908 170.959 65.2035C171.213 65.7809 170.926 65.9446 170.504 66.1896C170.353 66.2801 170.17 66.3805 169.98 66.5224C169.663 66.7288 169.339 66.8124 169.004 66.8308ZM165.913 66.3439C165.913 66.3521 165.913 66.3521 165.913 66.3439C166.178 66.395 166.533 66.4165 166.87 66.4308C167.134 66.4409 167.381 66.4602 167.555 66.4835C167.663 66.5022 167.779 66.5204 167.895 66.5469C168.51 66.6609 169.265 66.8082 169.857 66.3731C170.054 66.2226 170.238 66.1221 170.397 66.0312C170.819 65.7862 170.978 65.6953 170.781 65.2543C170.584 64.8052 171.279 64.4384 172.013 64.0529C172.556 63.7684 173.123 63.4743 173.246 63.1718C173.42 62.7515 173.872 62.6115 174.268 62.483C174.583 62.3835 174.857 62.2945 174.863 62.1052C174.863 62.097 174.863 62.097 174.854 62.0893C174.656 61.9277 173.255 62.2923 172.243 62.5616C171.563 62.7387 170.915 62.914 170.54 62.9593C170.32 62.9879 170.066 63.0101 169.788 63.0336C168.742 63.1241 167.442 63.2367 167.135 63.7712C166.969 64.0514 166.729 64.311 166.526 64.5111C166.402 64.6412 166.231 64.8149 166.218 64.8813C166.235 64.8886 166.277 64.9027 166.383 64.8969C166.703 64.8875 167.253 64.734 167.779 64.59C168.532 64.3761 168.969 64.2616 169.123 64.3682C169.242 64.4519 169.299 64.5803 169.273 64.7213C169.222 64.9788 168.906 65.2016 168.403 65.3196C167.608 65.5112 166.107 66.1361 165.913 66.3439Z" fill="#111111"/>
<path d="M178.123 159.21C175.784 159.536 174.848 159.251 174.865 161.649C174.872 162.823 173.407 163.372 173.438 164.684C173.47 165.997 176.844 166.854 177.554 166.47C178.264 166.086 177.426 165.492 179.379 164.571C181.341 163.649 182.595 159.12 181.954 157.923C181.305 156.718 180.487 158.883 178.123 159.21Z" fill="white"/>
<path d="M177.153 166.64C176.416 166.681 175.15 166.364 174.327 165.892C173.708 165.532 173.372 165.115 173.357 164.689C173.343 163.983 173.735 163.493 174.111 163.021C174.457 162.591 174.788 162.187 174.783 161.645C174.772 159.51 175.539 159.418 177.222 159.235C177.483 159.204 177.785 159.171 178.111 159.129C179.228 158.977 180.001 158.4 180.561 157.975C180.995 157.655 181.303 157.417 181.602 157.482C181.768 157.514 181.907 157.646 182.026 157.878C182.346 158.468 182.232 159.83 181.761 161.269C181.205 162.951 180.33 164.214 179.425 164.642C178.232 165.201 178.116 165.626 178.019 165.96C177.957 166.177 177.902 166.377 177.607 166.533C177.496 166.597 177.341 166.63 177.153 166.64ZM178.137 159.292C177.81 159.334 177.508 159.367 177.247 159.398C175.565 159.589 174.945 159.656 174.956 161.644C174.956 162.243 174.602 162.69 174.248 163.12C173.887 163.567 173.51 164.031 173.529 164.679C173.538 165.139 174.019 165.515 174.417 165.739C175.469 166.347 177.087 166.627 177.525 166.39C177.765 166.261 177.806 166.111 177.86 165.911C177.956 165.561 178.094 165.077 179.359 164.482C180.223 164.072 181.068 162.851 181.61 161.203C182.068 159.823 182.183 158.485 181.89 157.943C181.79 157.76 181.686 157.659 181.577 157.632C181.361 157.586 181.053 157.808 180.674 158.092C180.083 158.544 179.294 159.129 178.137 159.292Z" fill="#111111"/>
<path d="M206.37 173.624C202.972 173.811 196.32 172.945 187.983 171.186C172.243 167.872 155.317 162.429 150.244 159.061C150.21 159.039 150.198 158.982 150.221 158.948C150.244 158.914 150.301 158.902 150.335 158.925C155.391 162.286 172.292 167.721 188.016 171.028C198.371 173.21 206.113 174.024 208.2 173.145C208.241 173.126 208.291 173.148 208.31 173.188C208.328 173.228 208.306 173.279 208.266 173.297C207.849 173.468 207.206 173.578 206.37 173.624ZM231.04 158.588C225.193 158.91 213.751 157.429 199.256 154.374C172.038 148.636 142.753 139.233 133.987 133.399C133.953 133.376 133.941 133.319 133.964 133.285C133.987 133.251 134.044 133.24 134.078 133.263C142.826 139.081 172.078 148.478 199.288 154.208C209.087 156.273 217.632 157.651 224.004 158.203C230.103 158.73 233.99 158.45 234.935 157.421C234.966 157.386 235.015 157.383 235.05 157.414C235.085 157.445 235.087 157.494 235.056 157.529C234.514 158.126 233.137 158.472 231.04 158.588Z" fill="#111111"/>
<path d="M171.25 171.927C171.242 171.927 171.233 171.928 171.217 171.92C162.286 169.061 155.391 161.259 151.82 149.963C148.219 138.571 148.262 124.423 151.951 110.116C153.987 102.192 157.012 94.6237 160.938 87.6059C164.73 80.8255 169.19 74.8543 174.204 69.8466C179.219 64.8471 184.539 61.0548 190.005 58.5934C195.673 56.0469 201.252 55.0332 206.59 55.6018C206.631 55.6077 206.666 55.6469 206.661 55.6883C206.655 55.7297 206.615 55.7647 206.574 55.7588C196.056 54.654 184.604 59.704 174.318 69.9718C164.032 80.2478 156.144 94.5236 152.11 110.164C148.435 124.438 148.383 138.554 151.974 149.922C155.526 161.169 162.377 168.932 171.258 171.77C171.299 171.784 171.327 171.832 171.313 171.874C171.306 171.907 171.282 171.925 171.25 171.927Z" fill="#111111"/>
<path d="M174.948 173.136L174.923 173.137C174.265 172.977 173.689 172.499 173.227 171.719C171.571 168.944 171.19 162.475 172.131 153.01C173.095 143.37 175.341 131.508 178.637 118.709C182.67 103.044 187.79 87.8605 193.056 75.9469C198.33 64.0165 203.124 56.7948 206.558 55.6036C206.598 55.585 206.649 55.615 206.659 55.6555C206.67 55.696 206.648 55.7465 206.607 55.7569C199.595 58.1885 187.112 86.4438 178.795 118.749C175.499 131.54 173.252 143.394 172.287 153.017C171.361 162.31 171.742 168.918 173.361 171.622C173.804 172.361 174.339 172.816 174.963 172.971C175.005 172.985 175.032 173.025 175.026 173.066C175.012 173.108 174.98 173.134 174.948 173.136Z" fill="#111111"/>
<path d="M180.744 174.279C180.228 174.307 179.717 174.278 179.212 174.199C179.17 174.193 179.135 174.146 179.141 174.104C179.147 174.063 179.194 174.028 179.236 174.034C183.977 174.807 189.645 170.478 195.174 161.836C200.779 153.091 205.868 140.481 209.509 126.349C217.834 94.0427 216.492 62.3675 206.532 55.7364C206.498 55.7137 206.487 55.6568 206.509 55.6227C206.532 55.5886 206.589 55.5772 206.623 55.6C209.087 57.2386 211.068 60.3825 212.518 64.9438C213.918 69.3354 214.765 74.8665 215.041 81.3654C215.612 94.7236 213.7 110.716 209.667 126.389C206.019 140.538 200.922 153.157 195.31 161.927C190.326 169.726 185.216 174.033 180.744 174.279Z" fill="#111111"/>
<path d="M245.941 131.284C243.746 131.405 241.144 131.293 238.768 131.112C231.212 130.542 220.837 128.896 208.769 126.348C176.93 119.641 142.694 108.638 132.436 101.818C132.402 101.795 132.391 101.738 132.414 101.704C132.437 101.67 132.493 101.658 132.528 101.681C142.768 108.486 176.979 119.482 208.801 126.182C220.86 128.722 231.228 130.369 238.775 130.939C246.018 131.485 250.27 130.996 250.733 129.549C250.747 129.508 250.795 129.48 250.837 129.494C250.879 129.509 250.906 129.556 250.892 129.598C250.556 130.668 248.537 131.141 245.941 131.284ZM245.906 99.323C239.944 99.6513 228.278 98.1415 213.518 95.036C185.785 89.1948 155.964 79.6078 147.028 73.6679C146.994 73.6451 146.982 73.5883 147.005 73.5542C147.028 73.52 147.085 73.5087 147.119 73.5315C156.038 79.4641 185.833 89.0361 213.55 94.87C223.49 96.9677 232.168 98.3709 238.647 98.9341C244.854 99.4713 248.832 99.203 249.842 98.1616C250.068 97.9274 250.144 97.6685 250.077 97.3518C250.067 97.3114 250.097 97.2604 250.137 97.25C250.178 97.2395 250.229 97.2696 250.239 97.3101C250.325 97.675 250.227 97.9925 249.963 98.2699C249.396 98.8597 248.002 99.2076 245.906 99.323ZM231.438 72.1329C227.908 72.3273 221.025 71.4413 212.29 69.5976C195.884 66.1473 178.247 60.473 172.961 56.9608C172.927 56.9381 172.916 56.8812 172.938 56.8471C172.961 56.813 173.018 56.8016 173.052 56.8244C178.322 60.3293 195.933 65.9886 212.322 69.4398C224.032 71.9082 232.659 72.6817 233.778 71.3633C233.901 71.2169 233.925 71.0513 233.848 70.8583C233.83 70.8183 233.852 70.7678 233.892 70.7492C233.932 70.7305 233.982 70.7524 234.001 70.7924C234.097 71.05 234.068 71.2734 233.898 71.4635C233.582 71.8423 232.74 72.0612 231.438 72.1329Z" fill="#111111"/>
<path d="M190.715 175.299C188.553 175.418 186.38 175.341 184.228 175.056C184.187 175.051 184.152 175.011 184.157 174.962C184.163 174.912 184.202 174.885 184.252 174.891C206.575 177.81 228.11 159.234 235.452 130.72C239.486 115.071 238.697 98.6439 233.235 84.4871C227.773 70.3304 218.299 60.1322 206.549 55.7601C206.507 55.746 206.488 55.6977 206.502 55.6559C206.517 55.614 206.565 55.595 206.607 55.6091C212.569 57.8272 217.948 61.5315 222.607 66.6226C227.1 71.5339 230.732 77.5276 233.396 84.429C236.06 91.3304 237.621 98.7935 238.043 106.615C238.48 114.707 237.663 122.835 235.619 130.76C233.799 137.842 231.072 144.416 227.535 150.295C224.119 155.979 220.027 160.878 215.374 164.839C207.88 171.224 199.314 174.825 190.715 175.299Z" fill="#111111"/>
</g>
<g clip-path="url(#clip2_1964_1059)">
<path d="M102.305 168.939L113.855 100.062C113.904 99.7605 113.997 99.468 114.131 99.1934L116.222 94.9182C116.088 95.1928 115.995 95.4852 115.945 95.7865L104.396 164.664C103.96 167.256 106.704 169.527 109.333 168.752L179.182 148.154C180.148 147.87 180.832 147.252 181.202 146.495L179.111 150.77C178.741 151.527 178.057 152.145 177.091 152.43L107.243 173.027C104.613 173.802 101.869 171.531 102.305 168.939Z" fill="#FCBF14"/>
<path d="M106.065 173.343C106.474 173.354 106.886 173.301 107.288 173.182L177.137 152.585C178.092 152.304 178.844 151.684 179.257 150.841L181.348 146.566C181.367 146.527 181.369 146.483 181.355 146.442C181.341 146.401 181.312 146.368 181.273 146.349C181.234 146.33 181.19 146.327 181.149 146.341C181.108 146.355 181.075 146.384 181.056 146.423C180.684 147.183 180.002 147.743 179.136 147.998L109.287 168.596C108.054 168.959 106.72 168.647 105.719 167.76C104.804 166.95 104.369 165.802 104.555 164.691L116.105 95.8132C116.152 95.5288 116.239 95.2527 116.365 94.9934L116.367 94.9894C116.386 94.9506 116.389 94.906 116.375 94.8653C116.361 94.8246 116.331 94.791 116.292 94.7721C116.273 94.7627 116.252 94.7571 116.231 94.7558C116.21 94.7545 116.189 94.7573 116.168 94.7643C116.148 94.7712 116.13 94.782 116.114 94.7962C116.098 94.8103 116.085 94.8275 116.075 94.8466L113.985 99.122C113.844 99.4107 113.746 99.7182 113.694 100.035L102.144 168.912C101.939 170.135 102.413 171.393 103.413 172.279C104.173 172.952 105.111 173.319 106.065 173.343ZM180.434 147.694L178.965 150.699C178.593 151.459 177.911 152.018 177.045 152.274L107.196 172.871C105.963 173.235 104.629 172.922 103.628 172.036C102.713 171.225 102.278 170.078 102.464 168.966L114.014 100.089C114.061 99.8028 114.149 99.5253 114.276 99.2647L115.677 96.3993L104.235 164.637C104.029 165.86 104.504 167.118 105.503 168.004C106.589 168.965 108.037 169.303 109.379 168.907L179.227 148.31C179.68 148.177 180.087 147.967 180.434 147.694Z" fill="#111111"/>
<path d="M104.396 164.664C103.961 167.256 106.704 169.527 109.334 168.751L179.182 148.154C181.81 147.379 182.354 144.139 180.16 142.323L121.861 94.042C120.764 93.1335 119.393 92.9219 118.243 93.2611C117.093 93.6002 116.162 94.4904 115.946 95.7862L104.396 164.664L104.396 164.664Z" fill="white"/>
<path d="M108.156 169.068C108.565 169.078 108.977 169.026 109.38 168.907L179.228 148.31C180.474 147.942 181.367 146.995 181.617 145.776C181.887 144.46 181.381 143.122 180.263 142.197L121.964 93.9166C120.892 93.0293 119.484 92.7256 118.197 93.1051C116.901 93.4873 115.999 94.4795 115.785 95.7592L104.235 164.637C104.03 165.859 104.504 167.118 105.504 168.003C106.264 168.676 107.202 169.044 108.156 169.068L108.156 169.068ZM119.403 93.2706C120.242 93.2919 121.073 93.6006 121.757 94.1667L180.056 142.447C181.08 143.295 181.544 144.515 181.299 145.711C181.073 146.81 180.265 147.665 179.136 147.998L109.287 168.595C108.055 168.959 106.721 168.647 105.719 167.76C104.804 166.949 104.369 165.802 104.556 164.691C104.743 163.579 116.106 95.8128 116.106 95.8128C116.299 94.6585 117.115 93.7627 118.289 93.4166C118.651 93.3101 119.027 93.2608 119.403 93.2706Z" fill="#111111"/>
<path d="M122.017 113.235L133.295 139.639L139.533 137.8L129.526 111.021L122.017 113.235Z" fill="#FCBF14"/>
<path d="M133.291 139.801C133.307 139.802 133.324 139.8 133.341 139.795L139.579 137.955C139.601 137.949 139.621 137.938 139.638 137.924C139.655 137.91 139.669 137.892 139.679 137.872C139.689 137.852 139.694 137.83 139.696 137.808C139.697 137.786 139.693 137.764 139.685 137.743L129.679 110.964C129.665 110.926 129.636 110.894 129.599 110.876C129.563 110.857 129.52 110.854 129.481 110.865L121.972 113.08C121.95 113.086 121.929 113.097 121.912 113.112C121.895 113.127 121.881 113.146 121.871 113.166C121.861 113.187 121.856 113.21 121.856 113.233C121.855 113.255 121.86 113.278 121.869 113.299L133.146 139.703C133.158 139.731 133.178 139.756 133.204 139.773C133.23 139.791 133.26 139.801 133.291 139.801L133.291 139.801ZM139.32 137.693L133.388 139.442L122.239 113.34L129.427 111.22L139.32 137.693Z" fill="#111111"/>
<path d="M135.899 145.946L138.31 151.987L144.548 150.147L142.137 144.106L135.899 145.946Z" fill="#FCBF14"/>
<path d="M138.305 152.149C138.321 152.149 138.338 152.147 138.355 152.142L144.593 150.303C144.615 150.296 144.635 150.286 144.652 150.271C144.67 150.256 144.684 150.238 144.694 150.218C144.703 150.198 144.709 150.176 144.71 150.153C144.711 150.13 144.707 150.108 144.698 150.087L142.288 144.046C142.273 144.008 142.244 143.977 142.208 143.96C142.171 143.942 142.13 143.939 142.091 143.95L135.853 145.79C135.831 145.796 135.811 145.807 135.794 145.822C135.776 145.836 135.762 145.854 135.752 145.875C135.743 145.895 135.737 145.917 135.736 145.94C135.735 145.962 135.739 145.985 135.748 146.006L138.158 152.047C138.17 152.076 138.19 152.102 138.216 152.12C138.242 152.138 138.273 152.148 138.305 152.149ZM144.33 150.042L138.405 151.789L136.115 146.051L142.041 144.304L144.33 150.042Z" fill="#111111"/>
</g>
</g>
<defs>
<filter id="filter0_f_1964_1059" x="51" y="-14" width="258" height="258" filterUnits="userSpaceOnUse" color-interpolation-filters="sRGB">
<feFlood flood-opacity="0" result="BackgroundImageFix"/>
<feBlend mode="normal" in="SourceGraphic" in2="BackgroundImageFix" result="shape"/>
<feGaussianBlur stdDeviation="38" result="effect1_foregroundBlur_1964_1059"/>
</filter>
<clipPath id="clip0_1964_1059">
<rect width="358" height="230" fill="white"/>
</clipPath>
<clipPath id="clip1_1964_1059">
<rect width="121.719" height="121.719" fill="white" transform="translate(127.772 57.2478) rotate(-3.15199)"/>
</clipPath>
<clipPath id="clip2_1964_1059">
<rect width="78.9489" height="80.7066" fill="white" transform="matrix(-0.99968 -0.0253147 -0.0253147 0.99968 182.967 94.5568)"/>
</clipPath>
</defs>
</svg>
